%TF.GenerationSoftware,KiCad,Pcbnew,10.0.5*%
%TF.CreationDate,2026-10-01T21:15:45-03:00*%
%TF.ProjectId,ProcessTestbenchHardware,50726f63-6573-4735-9465-737462656e63,rev?*%
%TF.SameCoordinates,Original*%
%TF.FileFunction,Legend,Top*%
%TF.FilePolarity,Positive*%
%FSLAX46Y46*%
G04 Gerber Fmt 4.6, Leading zero omitted, Abs format (unit mm)*
G04 Created by KiCad (PCBNEW 10.0.5) date 2026-10-01 21:15:45*
%MOMM*%
%LPD*%
G01*
G04 APERTURE LIST*
%ADD10C,0.150000*%
%ADD11C,0.120000*%
%ADD12C,0.100000*%
G04 APERTURE END LIST*
D10*
X139956666Y-102954819D02*
X139956666Y-103669104D01*
X139956666Y-103669104D02*
X139909047Y-103811961D01*
X139909047Y-103811961D02*
X139813809Y-103907200D01*
X139813809Y-103907200D02*
X139670952Y-103954819D01*
X139670952Y-103954819D02*
X139575714Y-103954819D01*
X140385238Y-103050057D02*
X140432857Y-103002438D01*
X140432857Y-103002438D02*
X140528095Y-102954819D01*
X140528095Y-102954819D02*
X140766190Y-102954819D01*
X140766190Y-102954819D02*
X140861428Y-103002438D01*
X140861428Y-103002438D02*
X140909047Y-103050057D01*
X140909047Y-103050057D02*
X140956666Y-103145295D01*
X140956666Y-103145295D02*
X140956666Y-103240533D01*
X140956666Y-103240533D02*
X140909047Y-103383390D01*
X140909047Y-103383390D02*
X140337619Y-103954819D01*
X140337619Y-103954819D02*
X140956666Y-103954819D01*
X133109580Y-74666666D02*
X133157200Y-74714285D01*
X133157200Y-74714285D02*
X133204819Y-74857142D01*
X133204819Y-74857142D02*
X133204819Y-74952380D01*
X133204819Y-74952380D02*
X133157200Y-75095237D01*
X133157200Y-75095237D02*
X133061961Y-75190475D01*
X133061961Y-75190475D02*
X132966723Y-75238094D01*
X132966723Y-75238094D02*
X132776247Y-75285713D01*
X132776247Y-75285713D02*
X132633390Y-75285713D01*
X132633390Y-75285713D02*
X132442914Y-75238094D01*
X132442914Y-75238094D02*
X132347676Y-75190475D01*
X132347676Y-75190475D02*
X132252438Y-75095237D01*
X132252438Y-75095237D02*
X132204819Y-74952380D01*
X132204819Y-74952380D02*
X132204819Y-74857142D01*
X132204819Y-74857142D02*
X132252438Y-74714285D01*
X132252438Y-74714285D02*
X132300057Y-74666666D01*
X132633390Y-74095237D02*
X132585771Y-74190475D01*
X132585771Y-74190475D02*
X132538152Y-74238094D01*
X132538152Y-74238094D02*
X132442914Y-74285713D01*
X132442914Y-74285713D02*
X132395295Y-74285713D01*
X132395295Y-74285713D02*
X132300057Y-74238094D01*
X132300057Y-74238094D02*
X132252438Y-74190475D01*
X132252438Y-74190475D02*
X132204819Y-74095237D01*
X132204819Y-74095237D02*
X132204819Y-73904761D01*
X132204819Y-73904761D02*
X132252438Y-73809523D01*
X132252438Y-73809523D02*
X132300057Y-73761904D01*
X132300057Y-73761904D02*
X132395295Y-73714285D01*
X132395295Y-73714285D02*
X132442914Y-73714285D01*
X132442914Y-73714285D02*
X132538152Y-73761904D01*
X132538152Y-73761904D02*
X132585771Y-73809523D01*
X132585771Y-73809523D02*
X132633390Y-73904761D01*
X132633390Y-73904761D02*
X132633390Y-74095237D01*
X132633390Y-74095237D02*
X132681009Y-74190475D01*
X132681009Y-74190475D02*
X132728628Y-74238094D01*
X132728628Y-74238094D02*
X132823866Y-74285713D01*
X132823866Y-74285713D02*
X133014342Y-74285713D01*
X133014342Y-74285713D02*
X133109580Y-74238094D01*
X133109580Y-74238094D02*
X133157200Y-74190475D01*
X133157200Y-74190475D02*
X133204819Y-74095237D01*
X133204819Y-74095237D02*
X133204819Y-73904761D01*
X133204819Y-73904761D02*
X133157200Y-73809523D01*
X133157200Y-73809523D02*
X133109580Y-73761904D01*
X133109580Y-73761904D02*
X133014342Y-73714285D01*
X133014342Y-73714285D02*
X132823866Y-73714285D01*
X132823866Y-73714285D02*
X132728628Y-73761904D01*
X132728628Y-73761904D02*
X132681009Y-73809523D01*
X132681009Y-73809523D02*
X132633390Y-73904761D01*
X67064819Y-53258333D02*
X67779104Y-53258333D01*
X67779104Y-53258333D02*
X67921961Y-53305952D01*
X67921961Y-53305952D02*
X68017200Y-53401190D01*
X68017200Y-53401190D02*
X68064819Y-53544047D01*
X68064819Y-53544047D02*
X68064819Y-53639285D01*
X67064819Y-52353571D02*
X67064819Y-52544047D01*
X67064819Y-52544047D02*
X67112438Y-52639285D01*
X67112438Y-52639285D02*
X67160057Y-52686904D01*
X67160057Y-52686904D02*
X67302914Y-52782142D01*
X67302914Y-52782142D02*
X67493390Y-52829761D01*
X67493390Y-52829761D02*
X67874342Y-52829761D01*
X67874342Y-52829761D02*
X67969580Y-52782142D01*
X67969580Y-52782142D02*
X68017200Y-52734523D01*
X68017200Y-52734523D02*
X68064819Y-52639285D01*
X68064819Y-52639285D02*
X68064819Y-52448809D01*
X68064819Y-52448809D02*
X68017200Y-52353571D01*
X68017200Y-52353571D02*
X67969580Y-52305952D01*
X67969580Y-52305952D02*
X67874342Y-52258333D01*
X67874342Y-52258333D02*
X67636247Y-52258333D01*
X67636247Y-52258333D02*
X67541009Y-52305952D01*
X67541009Y-52305952D02*
X67493390Y-52353571D01*
X67493390Y-52353571D02*
X67445771Y-52448809D01*
X67445771Y-52448809D02*
X67445771Y-52639285D01*
X67445771Y-52639285D02*
X67493390Y-52734523D01*
X67493390Y-52734523D02*
X67541009Y-52782142D01*
X67541009Y-52782142D02*
X67636247Y-52829761D01*
X85604819Y-53734523D02*
X86319104Y-53734523D01*
X86319104Y-53734523D02*
X86461961Y-53782142D01*
X86461961Y-53782142D02*
X86557200Y-53877380D01*
X86557200Y-53877380D02*
X86604819Y-54020237D01*
X86604819Y-54020237D02*
X86604819Y-54115475D01*
X86604819Y-52734523D02*
X86604819Y-53305951D01*
X86604819Y-53020237D02*
X85604819Y-53020237D01*
X85604819Y-53020237D02*
X85747676Y-53115475D01*
X85747676Y-53115475D02*
X85842914Y-53210713D01*
X85842914Y-53210713D02*
X85890533Y-53305951D01*
X85700057Y-52353570D02*
X85652438Y-52305951D01*
X85652438Y-52305951D02*
X85604819Y-52210713D01*
X85604819Y-52210713D02*
X85604819Y-51972618D01*
X85604819Y-51972618D02*
X85652438Y-51877380D01*
X85652438Y-51877380D02*
X85700057Y-51829761D01*
X85700057Y-51829761D02*
X85795295Y-51782142D01*
X85795295Y-51782142D02*
X85890533Y-51782142D01*
X85890533Y-51782142D02*
X86033390Y-51829761D01*
X86033390Y-51829761D02*
X86604819Y-52401189D01*
X86604819Y-52401189D02*
X86604819Y-51782142D01*
X119583333Y-60704819D02*
X119250000Y-60228628D01*
X119011905Y-60704819D02*
X119011905Y-59704819D01*
X119011905Y-59704819D02*
X119392857Y-59704819D01*
X119392857Y-59704819D02*
X119488095Y-59752438D01*
X119488095Y-59752438D02*
X119535714Y-59800057D01*
X119535714Y-59800057D02*
X119583333Y-59895295D01*
X119583333Y-59895295D02*
X119583333Y-60038152D01*
X119583333Y-60038152D02*
X119535714Y-60133390D01*
X119535714Y-60133390D02*
X119488095Y-60181009D01*
X119488095Y-60181009D02*
X119392857Y-60228628D01*
X119392857Y-60228628D02*
X119011905Y-60228628D01*
X120488095Y-59704819D02*
X120011905Y-59704819D01*
X120011905Y-59704819D02*
X119964286Y-60181009D01*
X119964286Y-60181009D02*
X120011905Y-60133390D01*
X120011905Y-60133390D02*
X120107143Y-60085771D01*
X120107143Y-60085771D02*
X120345238Y-60085771D01*
X120345238Y-60085771D02*
X120440476Y-60133390D01*
X120440476Y-60133390D02*
X120488095Y-60181009D01*
X120488095Y-60181009D02*
X120535714Y-60276247D01*
X120535714Y-60276247D02*
X120535714Y-60514342D01*
X120535714Y-60514342D02*
X120488095Y-60609580D01*
X120488095Y-60609580D02*
X120440476Y-60657200D01*
X120440476Y-60657200D02*
X120345238Y-60704819D01*
X120345238Y-60704819D02*
X120107143Y-60704819D01*
X120107143Y-60704819D02*
X120011905Y-60657200D01*
X120011905Y-60657200D02*
X119964286Y-60609580D01*
X141859580Y-100916666D02*
X141907200Y-100964285D01*
X141907200Y-100964285D02*
X141954819Y-101107142D01*
X141954819Y-101107142D02*
X141954819Y-101202380D01*
X141954819Y-101202380D02*
X141907200Y-101345237D01*
X141907200Y-101345237D02*
X141811961Y-101440475D01*
X141811961Y-101440475D02*
X141716723Y-101488094D01*
X141716723Y-101488094D02*
X141526247Y-101535713D01*
X141526247Y-101535713D02*
X141383390Y-101535713D01*
X141383390Y-101535713D02*
X141192914Y-101488094D01*
X141192914Y-101488094D02*
X141097676Y-101440475D01*
X141097676Y-101440475D02*
X141002438Y-101345237D01*
X141002438Y-101345237D02*
X140954819Y-101202380D01*
X140954819Y-101202380D02*
X140954819Y-101107142D01*
X140954819Y-101107142D02*
X141002438Y-100964285D01*
X141002438Y-100964285D02*
X141050057Y-100916666D01*
X141954819Y-99964285D02*
X141954819Y-100535713D01*
X141954819Y-100249999D02*
X140954819Y-100249999D01*
X140954819Y-100249999D02*
X141097676Y-100345237D01*
X141097676Y-100345237D02*
X141192914Y-100440475D01*
X141192914Y-100440475D02*
X141240533Y-100535713D01*
X76109819Y-53309523D02*
X76824104Y-53309523D01*
X76824104Y-53309523D02*
X76966961Y-53357142D01*
X76966961Y-53357142D02*
X77062200Y-53452380D01*
X77062200Y-53452380D02*
X77109819Y-53595237D01*
X77109819Y-53595237D02*
X77109819Y-53690475D01*
X77109819Y-52309523D02*
X77109819Y-52880951D01*
X77109819Y-52595237D02*
X76109819Y-52595237D01*
X76109819Y-52595237D02*
X76252676Y-52690475D01*
X76252676Y-52690475D02*
X76347914Y-52785713D01*
X76347914Y-52785713D02*
X76395533Y-52880951D01*
X76109819Y-51976189D02*
X76109819Y-51357142D01*
X76109819Y-51357142D02*
X76490771Y-51690475D01*
X76490771Y-51690475D02*
X76490771Y-51547618D01*
X76490771Y-51547618D02*
X76538390Y-51452380D01*
X76538390Y-51452380D02*
X76586009Y-51404761D01*
X76586009Y-51404761D02*
X76681247Y-51357142D01*
X76681247Y-51357142D02*
X76919342Y-51357142D01*
X76919342Y-51357142D02*
X77014580Y-51404761D01*
X77014580Y-51404761D02*
X77062200Y-51452380D01*
X77062200Y-51452380D02*
X77109819Y-51547618D01*
X77109819Y-51547618D02*
X77109819Y-51833332D01*
X77109819Y-51833332D02*
X77062200Y-51928570D01*
X77062200Y-51928570D02*
X77014580Y-51976189D01*
X142704819Y-62392857D02*
X142228628Y-62726190D01*
X142704819Y-62964285D02*
X141704819Y-62964285D01*
X141704819Y-62964285D02*
X141704819Y-62583333D01*
X141704819Y-62583333D02*
X141752438Y-62488095D01*
X141752438Y-62488095D02*
X141800057Y-62440476D01*
X141800057Y-62440476D02*
X141895295Y-62392857D01*
X141895295Y-62392857D02*
X142038152Y-62392857D01*
X142038152Y-62392857D02*
X142133390Y-62440476D01*
X142133390Y-62440476D02*
X142181009Y-62488095D01*
X142181009Y-62488095D02*
X142228628Y-62583333D01*
X142228628Y-62583333D02*
X142228628Y-62964285D01*
X142704819Y-61440476D02*
X142704819Y-62011904D01*
X142704819Y-61726190D02*
X141704819Y-61726190D01*
X141704819Y-61726190D02*
X141847676Y-61821428D01*
X141847676Y-61821428D02*
X141942914Y-61916666D01*
X141942914Y-61916666D02*
X141990533Y-62011904D01*
X141800057Y-61059523D02*
X141752438Y-61011904D01*
X141752438Y-61011904D02*
X141704819Y-60916666D01*
X141704819Y-60916666D02*
X141704819Y-60678571D01*
X141704819Y-60678571D02*
X141752438Y-60583333D01*
X141752438Y-60583333D02*
X141800057Y-60535714D01*
X141800057Y-60535714D02*
X141895295Y-60488095D01*
X141895295Y-60488095D02*
X141990533Y-60488095D01*
X141990533Y-60488095D02*
X142133390Y-60535714D01*
X142133390Y-60535714D02*
X142704819Y-61107142D01*
X142704819Y-61107142D02*
X142704819Y-60488095D01*
X88283333Y-60454819D02*
X87950000Y-59978628D01*
X87711905Y-60454819D02*
X87711905Y-59454819D01*
X87711905Y-59454819D02*
X88092857Y-59454819D01*
X88092857Y-59454819D02*
X88188095Y-59502438D01*
X88188095Y-59502438D02*
X88235714Y-59550057D01*
X88235714Y-59550057D02*
X88283333Y-59645295D01*
X88283333Y-59645295D02*
X88283333Y-59788152D01*
X88283333Y-59788152D02*
X88235714Y-59883390D01*
X88235714Y-59883390D02*
X88188095Y-59931009D01*
X88188095Y-59931009D02*
X88092857Y-59978628D01*
X88092857Y-59978628D02*
X87711905Y-59978628D01*
X88664286Y-59550057D02*
X88711905Y-59502438D01*
X88711905Y-59502438D02*
X88807143Y-59454819D01*
X88807143Y-59454819D02*
X89045238Y-59454819D01*
X89045238Y-59454819D02*
X89140476Y-59502438D01*
X89140476Y-59502438D02*
X89188095Y-59550057D01*
X89188095Y-59550057D02*
X89235714Y-59645295D01*
X89235714Y-59645295D02*
X89235714Y-59740533D01*
X89235714Y-59740533D02*
X89188095Y-59883390D01*
X89188095Y-59883390D02*
X88616667Y-60454819D01*
X88616667Y-60454819D02*
X89235714Y-60454819D01*
X157416666Y-78894819D02*
X157416666Y-79609104D01*
X157416666Y-79609104D02*
X157369047Y-79751961D01*
X157369047Y-79751961D02*
X157273809Y-79847200D01*
X157273809Y-79847200D02*
X157130952Y-79894819D01*
X157130952Y-79894819D02*
X157035714Y-79894819D01*
X158416666Y-79894819D02*
X157845238Y-79894819D01*
X158130952Y-79894819D02*
X158130952Y-78894819D01*
X158130952Y-78894819D02*
X158035714Y-79037676D01*
X158035714Y-79037676D02*
X157940476Y-79132914D01*
X157940476Y-79132914D02*
X157845238Y-79180533D01*
X113111428Y-99111009D02*
X113254285Y-99158628D01*
X113254285Y-99158628D02*
X113301904Y-99206247D01*
X113301904Y-99206247D02*
X113349523Y-99301485D01*
X113349523Y-99301485D02*
X113349523Y-99444342D01*
X113349523Y-99444342D02*
X113301904Y-99539580D01*
X113301904Y-99539580D02*
X113254285Y-99587200D01*
X113254285Y-99587200D02*
X113159047Y-99634819D01*
X113159047Y-99634819D02*
X112778095Y-99634819D01*
X112778095Y-99634819D02*
X112778095Y-98634819D01*
X112778095Y-98634819D02*
X113111428Y-98634819D01*
X113111428Y-98634819D02*
X113206666Y-98682438D01*
X113206666Y-98682438D02*
X113254285Y-98730057D01*
X113254285Y-98730057D02*
X113301904Y-98825295D01*
X113301904Y-98825295D02*
X113301904Y-98920533D01*
X113301904Y-98920533D02*
X113254285Y-99015771D01*
X113254285Y-99015771D02*
X113206666Y-99063390D01*
X113206666Y-99063390D02*
X113111428Y-99111009D01*
X113111428Y-99111009D02*
X112778095Y-99111009D01*
X113920952Y-99634819D02*
X113825714Y-99587200D01*
X113825714Y-99587200D02*
X113778095Y-99539580D01*
X113778095Y-99539580D02*
X113730476Y-99444342D01*
X113730476Y-99444342D02*
X113730476Y-99158628D01*
X113730476Y-99158628D02*
X113778095Y-99063390D01*
X113778095Y-99063390D02*
X113825714Y-99015771D01*
X113825714Y-99015771D02*
X113920952Y-98968152D01*
X113920952Y-98968152D02*
X114063809Y-98968152D01*
X114063809Y-98968152D02*
X114159047Y-99015771D01*
X114159047Y-99015771D02*
X114206666Y-99063390D01*
X114206666Y-99063390D02*
X114254285Y-99158628D01*
X114254285Y-99158628D02*
X114254285Y-99444342D01*
X114254285Y-99444342D02*
X114206666Y-99539580D01*
X114206666Y-99539580D02*
X114159047Y-99587200D01*
X114159047Y-99587200D02*
X114063809Y-99634819D01*
X114063809Y-99634819D02*
X113920952Y-99634819D01*
X114682857Y-99634819D02*
X114682857Y-98968152D01*
X114682857Y-99063390D02*
X114730476Y-99015771D01*
X114730476Y-99015771D02*
X114825714Y-98968152D01*
X114825714Y-98968152D02*
X114968571Y-98968152D01*
X114968571Y-98968152D02*
X115063809Y-99015771D01*
X115063809Y-99015771D02*
X115111428Y-99111009D01*
X115111428Y-99111009D02*
X115111428Y-99634819D01*
X115111428Y-99111009D02*
X115159047Y-99015771D01*
X115159047Y-99015771D02*
X115254285Y-98968152D01*
X115254285Y-98968152D02*
X115397142Y-98968152D01*
X115397142Y-98968152D02*
X115492381Y-99015771D01*
X115492381Y-99015771D02*
X115540000Y-99111009D01*
X115540000Y-99111009D02*
X115540000Y-99634819D01*
X116016190Y-99634819D02*
X116016190Y-98634819D01*
X116016190Y-99015771D02*
X116111428Y-98968152D01*
X116111428Y-98968152D02*
X116301904Y-98968152D01*
X116301904Y-98968152D02*
X116397142Y-99015771D01*
X116397142Y-99015771D02*
X116444761Y-99063390D01*
X116444761Y-99063390D02*
X116492380Y-99158628D01*
X116492380Y-99158628D02*
X116492380Y-99444342D01*
X116492380Y-99444342D02*
X116444761Y-99539580D01*
X116444761Y-99539580D02*
X116397142Y-99587200D01*
X116397142Y-99587200D02*
X116301904Y-99634819D01*
X116301904Y-99634819D02*
X116111428Y-99634819D01*
X116111428Y-99634819D02*
X116016190Y-99587200D01*
X117349523Y-99634819D02*
X117349523Y-99111009D01*
X117349523Y-99111009D02*
X117301904Y-99015771D01*
X117301904Y-99015771D02*
X117206666Y-98968152D01*
X117206666Y-98968152D02*
X117016190Y-98968152D01*
X117016190Y-98968152D02*
X116920952Y-99015771D01*
X117349523Y-99587200D02*
X117254285Y-99634819D01*
X117254285Y-99634819D02*
X117016190Y-99634819D01*
X117016190Y-99634819D02*
X116920952Y-99587200D01*
X116920952Y-99587200D02*
X116873333Y-99491961D01*
X116873333Y-99491961D02*
X116873333Y-99396723D01*
X116873333Y-99396723D02*
X116920952Y-99301485D01*
X116920952Y-99301485D02*
X117016190Y-99253866D01*
X117016190Y-99253866D02*
X117254285Y-99253866D01*
X117254285Y-99253866D02*
X117349523Y-99206247D01*
X118349523Y-99634819D02*
X117778095Y-99634819D01*
X118063809Y-99634819D02*
X118063809Y-98634819D01*
X118063809Y-98634819D02*
X117968571Y-98777676D01*
X117968571Y-98777676D02*
X117873333Y-98872914D01*
X117873333Y-98872914D02*
X117778095Y-98920533D01*
X130857142Y-55084819D02*
X130523809Y-54608628D01*
X130285714Y-55084819D02*
X130285714Y-54084819D01*
X130285714Y-54084819D02*
X130666666Y-54084819D01*
X130666666Y-54084819D02*
X130761904Y-54132438D01*
X130761904Y-54132438D02*
X130809523Y-54180057D01*
X130809523Y-54180057D02*
X130857142Y-54275295D01*
X130857142Y-54275295D02*
X130857142Y-54418152D01*
X130857142Y-54418152D02*
X130809523Y-54513390D01*
X130809523Y-54513390D02*
X130761904Y-54561009D01*
X130761904Y-54561009D02*
X130666666Y-54608628D01*
X130666666Y-54608628D02*
X130285714Y-54608628D01*
X131809523Y-55084819D02*
X131238095Y-55084819D01*
X131523809Y-55084819D02*
X131523809Y-54084819D01*
X131523809Y-54084819D02*
X131428571Y-54227676D01*
X131428571Y-54227676D02*
X131333333Y-54322914D01*
X131333333Y-54322914D02*
X131238095Y-54370533D01*
X132142857Y-54084819D02*
X132761904Y-54084819D01*
X132761904Y-54084819D02*
X132428571Y-54465771D01*
X132428571Y-54465771D02*
X132571428Y-54465771D01*
X132571428Y-54465771D02*
X132666666Y-54513390D01*
X132666666Y-54513390D02*
X132714285Y-54561009D01*
X132714285Y-54561009D02*
X132761904Y-54656247D01*
X132761904Y-54656247D02*
X132761904Y-54894342D01*
X132761904Y-54894342D02*
X132714285Y-54989580D01*
X132714285Y-54989580D02*
X132666666Y-55037200D01*
X132666666Y-55037200D02*
X132571428Y-55084819D01*
X132571428Y-55084819D02*
X132285714Y-55084819D01*
X132285714Y-55084819D02*
X132190476Y-55037200D01*
X132190476Y-55037200D02*
X132142857Y-54989580D01*
X110438824Y-91450057D02*
X110343586Y-91402438D01*
X110343586Y-91402438D02*
X110248348Y-91307200D01*
X110248348Y-91307200D02*
X110105491Y-91164342D01*
X110105491Y-91164342D02*
X110010253Y-91116723D01*
X110010253Y-91116723D02*
X109915015Y-91116723D01*
X109962634Y-91354819D02*
X109867396Y-91307200D01*
X109867396Y-91307200D02*
X109772158Y-91211961D01*
X109772158Y-91211961D02*
X109724539Y-91021485D01*
X109724539Y-91021485D02*
X109724539Y-90688152D01*
X109724539Y-90688152D02*
X109772158Y-90497676D01*
X109772158Y-90497676D02*
X109867396Y-90402438D01*
X109867396Y-90402438D02*
X109962634Y-90354819D01*
X109962634Y-90354819D02*
X110153110Y-90354819D01*
X110153110Y-90354819D02*
X110248348Y-90402438D01*
X110248348Y-90402438D02*
X110343586Y-90497676D01*
X110343586Y-90497676D02*
X110391205Y-90688152D01*
X110391205Y-90688152D02*
X110391205Y-91021485D01*
X110391205Y-91021485D02*
X110343586Y-91211961D01*
X110343586Y-91211961D02*
X110248348Y-91307200D01*
X110248348Y-91307200D02*
X110153110Y-91354819D01*
X110153110Y-91354819D02*
X109962634Y-91354819D01*
X111248348Y-90688152D02*
X111248348Y-91354819D01*
X111010253Y-90307200D02*
X110772158Y-91021485D01*
X110772158Y-91021485D02*
X111391205Y-91021485D01*
X112604819Y-53333333D02*
X113319104Y-53333333D01*
X113319104Y-53333333D02*
X113461961Y-53380952D01*
X113461961Y-53380952D02*
X113557200Y-53476190D01*
X113557200Y-53476190D02*
X113604819Y-53619047D01*
X113604819Y-53619047D02*
X113604819Y-53714285D01*
X112938152Y-52428571D02*
X113604819Y-52428571D01*
X112557200Y-52666666D02*
X113271485Y-52904761D01*
X113271485Y-52904761D02*
X113271485Y-52285714D01*
X70454819Y-111857142D02*
X69454819Y-111857142D01*
X69454819Y-111857142D02*
X69454819Y-111619047D01*
X69454819Y-111619047D02*
X69502438Y-111476190D01*
X69502438Y-111476190D02*
X69597676Y-111380952D01*
X69597676Y-111380952D02*
X69692914Y-111333333D01*
X69692914Y-111333333D02*
X69883390Y-111285714D01*
X69883390Y-111285714D02*
X70026247Y-111285714D01*
X70026247Y-111285714D02*
X70216723Y-111333333D01*
X70216723Y-111333333D02*
X70311961Y-111380952D01*
X70311961Y-111380952D02*
X70407200Y-111476190D01*
X70407200Y-111476190D02*
X70454819Y-111619047D01*
X70454819Y-111619047D02*
X70454819Y-111857142D01*
X70454819Y-110857142D02*
X69788152Y-110857142D01*
X69454819Y-110857142D02*
X69502438Y-110904761D01*
X69502438Y-110904761D02*
X69550057Y-110857142D01*
X69550057Y-110857142D02*
X69502438Y-110809523D01*
X69502438Y-110809523D02*
X69454819Y-110857142D01*
X69454819Y-110857142D02*
X69550057Y-110857142D01*
X70454819Y-110380952D02*
X69788152Y-110380952D01*
X69883390Y-110380952D02*
X69835771Y-110333333D01*
X69835771Y-110333333D02*
X69788152Y-110238095D01*
X69788152Y-110238095D02*
X69788152Y-110095238D01*
X69788152Y-110095238D02*
X69835771Y-110000000D01*
X69835771Y-110000000D02*
X69931009Y-109952381D01*
X69931009Y-109952381D02*
X70454819Y-109952381D01*
X69931009Y-109952381D02*
X69835771Y-109904762D01*
X69835771Y-109904762D02*
X69788152Y-109809524D01*
X69788152Y-109809524D02*
X69788152Y-109666667D01*
X69788152Y-109666667D02*
X69835771Y-109571428D01*
X69835771Y-109571428D02*
X69931009Y-109523809D01*
X69931009Y-109523809D02*
X70454819Y-109523809D01*
X70454819Y-109047619D02*
X69788152Y-109047619D01*
X69883390Y-109047619D02*
X69835771Y-109000000D01*
X69835771Y-109000000D02*
X69788152Y-108904762D01*
X69788152Y-108904762D02*
X69788152Y-108761905D01*
X69788152Y-108761905D02*
X69835771Y-108666667D01*
X69835771Y-108666667D02*
X69931009Y-108619048D01*
X69931009Y-108619048D02*
X70454819Y-108619048D01*
X69931009Y-108619048D02*
X69835771Y-108571429D01*
X69835771Y-108571429D02*
X69788152Y-108476191D01*
X69788152Y-108476191D02*
X69788152Y-108333334D01*
X69788152Y-108333334D02*
X69835771Y-108238095D01*
X69835771Y-108238095D02*
X69931009Y-108190476D01*
X69931009Y-108190476D02*
X70454819Y-108190476D01*
X70407200Y-107333334D02*
X70454819Y-107428572D01*
X70454819Y-107428572D02*
X70454819Y-107619048D01*
X70454819Y-107619048D02*
X70407200Y-107714286D01*
X70407200Y-107714286D02*
X70311961Y-107761905D01*
X70311961Y-107761905D02*
X69931009Y-107761905D01*
X69931009Y-107761905D02*
X69835771Y-107714286D01*
X69835771Y-107714286D02*
X69788152Y-107619048D01*
X69788152Y-107619048D02*
X69788152Y-107428572D01*
X69788152Y-107428572D02*
X69835771Y-107333334D01*
X69835771Y-107333334D02*
X69931009Y-107285715D01*
X69931009Y-107285715D02*
X70026247Y-107285715D01*
X70026247Y-107285715D02*
X70121485Y-107761905D01*
X70454819Y-106857143D02*
X69788152Y-106857143D01*
X69978628Y-106857143D02*
X69883390Y-106809524D01*
X69883390Y-106809524D02*
X69835771Y-106761905D01*
X69835771Y-106761905D02*
X69788152Y-106666667D01*
X69788152Y-106666667D02*
X69788152Y-106571429D01*
X70359580Y-105666667D02*
X70407200Y-105714286D01*
X70407200Y-105714286D02*
X70454819Y-105857143D01*
X70454819Y-105857143D02*
X70454819Y-105952381D01*
X70454819Y-105952381D02*
X70407200Y-106095238D01*
X70407200Y-106095238D02*
X70311961Y-106190476D01*
X70311961Y-106190476D02*
X70216723Y-106238095D01*
X70216723Y-106238095D02*
X70026247Y-106285714D01*
X70026247Y-106285714D02*
X69883390Y-106285714D01*
X69883390Y-106285714D02*
X69692914Y-106238095D01*
X69692914Y-106238095D02*
X69597676Y-106190476D01*
X69597676Y-106190476D02*
X69502438Y-106095238D01*
X69502438Y-106095238D02*
X69454819Y-105952381D01*
X69454819Y-105952381D02*
X69454819Y-105857143D01*
X69454819Y-105857143D02*
X69502438Y-105714286D01*
X69502438Y-105714286D02*
X69550057Y-105666667D01*
X70454819Y-105095238D02*
X70407200Y-105190476D01*
X70407200Y-105190476D02*
X70359580Y-105238095D01*
X70359580Y-105238095D02*
X70264342Y-105285714D01*
X70264342Y-105285714D02*
X69978628Y-105285714D01*
X69978628Y-105285714D02*
X69883390Y-105238095D01*
X69883390Y-105238095D02*
X69835771Y-105190476D01*
X69835771Y-105190476D02*
X69788152Y-105095238D01*
X69788152Y-105095238D02*
X69788152Y-104952381D01*
X69788152Y-104952381D02*
X69835771Y-104857143D01*
X69835771Y-104857143D02*
X69883390Y-104809524D01*
X69883390Y-104809524D02*
X69978628Y-104761905D01*
X69978628Y-104761905D02*
X70264342Y-104761905D01*
X70264342Y-104761905D02*
X70359580Y-104809524D01*
X70359580Y-104809524D02*
X70407200Y-104857143D01*
X70407200Y-104857143D02*
X70454819Y-104952381D01*
X70454819Y-104952381D02*
X70454819Y-105095238D01*
X69788152Y-104333333D02*
X70454819Y-104333333D01*
X69883390Y-104333333D02*
X69835771Y-104285714D01*
X69835771Y-104285714D02*
X69788152Y-104190476D01*
X69788152Y-104190476D02*
X69788152Y-104047619D01*
X69788152Y-104047619D02*
X69835771Y-103952381D01*
X69835771Y-103952381D02*
X69931009Y-103904762D01*
X69931009Y-103904762D02*
X70454819Y-103904762D01*
X69788152Y-103571428D02*
X69788152Y-103190476D01*
X69454819Y-103428571D02*
X70311961Y-103428571D01*
X70311961Y-103428571D02*
X70407200Y-103380952D01*
X70407200Y-103380952D02*
X70454819Y-103285714D01*
X70454819Y-103285714D02*
X70454819Y-103190476D01*
X70454819Y-102857142D02*
X69788152Y-102857142D01*
X69978628Y-102857142D02*
X69883390Y-102809523D01*
X69883390Y-102809523D02*
X69835771Y-102761904D01*
X69835771Y-102761904D02*
X69788152Y-102666666D01*
X69788152Y-102666666D02*
X69788152Y-102571428D01*
X70454819Y-102095237D02*
X70407200Y-102190475D01*
X70407200Y-102190475D02*
X70359580Y-102238094D01*
X70359580Y-102238094D02*
X70264342Y-102285713D01*
X70264342Y-102285713D02*
X69978628Y-102285713D01*
X69978628Y-102285713D02*
X69883390Y-102238094D01*
X69883390Y-102238094D02*
X69835771Y-102190475D01*
X69835771Y-102190475D02*
X69788152Y-102095237D01*
X69788152Y-102095237D02*
X69788152Y-101952380D01*
X69788152Y-101952380D02*
X69835771Y-101857142D01*
X69835771Y-101857142D02*
X69883390Y-101809523D01*
X69883390Y-101809523D02*
X69978628Y-101761904D01*
X69978628Y-101761904D02*
X70264342Y-101761904D01*
X70264342Y-101761904D02*
X70359580Y-101809523D01*
X70359580Y-101809523D02*
X70407200Y-101857142D01*
X70407200Y-101857142D02*
X70454819Y-101952380D01*
X70454819Y-101952380D02*
X70454819Y-102095237D01*
X70454819Y-101190475D02*
X70407200Y-101285713D01*
X70407200Y-101285713D02*
X70311961Y-101333332D01*
X70311961Y-101333332D02*
X69454819Y-101333332D01*
X70454819Y-100809522D02*
X69454819Y-100809522D01*
X69454819Y-100809522D02*
X69454819Y-100428570D01*
X69454819Y-100428570D02*
X69502438Y-100333332D01*
X69502438Y-100333332D02*
X69550057Y-100285713D01*
X69550057Y-100285713D02*
X69645295Y-100238094D01*
X69645295Y-100238094D02*
X69788152Y-100238094D01*
X69788152Y-100238094D02*
X69883390Y-100285713D01*
X69883390Y-100285713D02*
X69931009Y-100333332D01*
X69931009Y-100333332D02*
X69978628Y-100428570D01*
X69978628Y-100428570D02*
X69978628Y-100809522D01*
X70454819Y-99809522D02*
X69788152Y-99809522D01*
X69454819Y-99809522D02*
X69502438Y-99857141D01*
X69502438Y-99857141D02*
X69550057Y-99809522D01*
X69550057Y-99809522D02*
X69502438Y-99761903D01*
X69502438Y-99761903D02*
X69454819Y-99809522D01*
X69454819Y-99809522D02*
X69550057Y-99809522D01*
X69788152Y-99333332D02*
X70454819Y-99333332D01*
X69883390Y-99333332D02*
X69835771Y-99285713D01*
X69835771Y-99285713D02*
X69788152Y-99190475D01*
X69788152Y-99190475D02*
X69788152Y-99047618D01*
X69788152Y-99047618D02*
X69835771Y-98952380D01*
X69835771Y-98952380D02*
X69931009Y-98904761D01*
X69931009Y-98904761D02*
X70454819Y-98904761D01*
X70407200Y-98476189D02*
X70454819Y-98380951D01*
X70454819Y-98380951D02*
X70454819Y-98190475D01*
X70454819Y-98190475D02*
X70407200Y-98095237D01*
X70407200Y-98095237D02*
X70311961Y-98047618D01*
X70311961Y-98047618D02*
X70264342Y-98047618D01*
X70264342Y-98047618D02*
X70169104Y-98095237D01*
X70169104Y-98095237D02*
X70121485Y-98190475D01*
X70121485Y-98190475D02*
X70121485Y-98333332D01*
X70121485Y-98333332D02*
X70073866Y-98428570D01*
X70073866Y-98428570D02*
X69978628Y-98476189D01*
X69978628Y-98476189D02*
X69931009Y-98476189D01*
X69931009Y-98476189D02*
X69835771Y-98428570D01*
X69835771Y-98428570D02*
X69788152Y-98333332D01*
X69788152Y-98333332D02*
X69788152Y-98190475D01*
X69788152Y-98190475D02*
X69835771Y-98095237D01*
X70454819Y-97095237D02*
X70454819Y-97666665D01*
X70454819Y-97380951D02*
X69454819Y-97380951D01*
X69454819Y-97380951D02*
X69597676Y-97476189D01*
X69597676Y-97476189D02*
X69692914Y-97571427D01*
X69692914Y-97571427D02*
X69740533Y-97666665D01*
X151359580Y-94916666D02*
X151407200Y-94964285D01*
X151407200Y-94964285D02*
X151454819Y-95107142D01*
X151454819Y-95107142D02*
X151454819Y-95202380D01*
X151454819Y-95202380D02*
X151407200Y-95345237D01*
X151407200Y-95345237D02*
X151311961Y-95440475D01*
X151311961Y-95440475D02*
X151216723Y-95488094D01*
X151216723Y-95488094D02*
X151026247Y-95535713D01*
X151026247Y-95535713D02*
X150883390Y-95535713D01*
X150883390Y-95535713D02*
X150692914Y-95488094D01*
X150692914Y-95488094D02*
X150597676Y-95440475D01*
X150597676Y-95440475D02*
X150502438Y-95345237D01*
X150502438Y-95345237D02*
X150454819Y-95202380D01*
X150454819Y-95202380D02*
X150454819Y-95107142D01*
X150454819Y-95107142D02*
X150502438Y-94964285D01*
X150502438Y-94964285D02*
X150550057Y-94916666D01*
X150454819Y-94583332D02*
X150454819Y-93964285D01*
X150454819Y-93964285D02*
X150835771Y-94297618D01*
X150835771Y-94297618D02*
X150835771Y-94154761D01*
X150835771Y-94154761D02*
X150883390Y-94059523D01*
X150883390Y-94059523D02*
X150931009Y-94011904D01*
X150931009Y-94011904D02*
X151026247Y-93964285D01*
X151026247Y-93964285D02*
X151264342Y-93964285D01*
X151264342Y-93964285D02*
X151359580Y-94011904D01*
X151359580Y-94011904D02*
X151407200Y-94059523D01*
X151407200Y-94059523D02*
X151454819Y-94154761D01*
X151454819Y-94154761D02*
X151454819Y-94440475D01*
X151454819Y-94440475D02*
X151407200Y-94535713D01*
X151407200Y-94535713D02*
X151359580Y-94583332D01*
X103564819Y-53258333D02*
X104279104Y-53258333D01*
X104279104Y-53258333D02*
X104421961Y-53305952D01*
X104421961Y-53305952D02*
X104517200Y-53401190D01*
X104517200Y-53401190D02*
X104564819Y-53544047D01*
X104564819Y-53544047D02*
X104564819Y-53639285D01*
X103993390Y-52639285D02*
X103945771Y-52734523D01*
X103945771Y-52734523D02*
X103898152Y-52782142D01*
X103898152Y-52782142D02*
X103802914Y-52829761D01*
X103802914Y-52829761D02*
X103755295Y-52829761D01*
X103755295Y-52829761D02*
X103660057Y-52782142D01*
X103660057Y-52782142D02*
X103612438Y-52734523D01*
X103612438Y-52734523D02*
X103564819Y-52639285D01*
X103564819Y-52639285D02*
X103564819Y-52448809D01*
X103564819Y-52448809D02*
X103612438Y-52353571D01*
X103612438Y-52353571D02*
X103660057Y-52305952D01*
X103660057Y-52305952D02*
X103755295Y-52258333D01*
X103755295Y-52258333D02*
X103802914Y-52258333D01*
X103802914Y-52258333D02*
X103898152Y-52305952D01*
X103898152Y-52305952D02*
X103945771Y-52353571D01*
X103945771Y-52353571D02*
X103993390Y-52448809D01*
X103993390Y-52448809D02*
X103993390Y-52639285D01*
X103993390Y-52639285D02*
X104041009Y-52734523D01*
X104041009Y-52734523D02*
X104088628Y-52782142D01*
X104088628Y-52782142D02*
X104183866Y-52829761D01*
X104183866Y-52829761D02*
X104374342Y-52829761D01*
X104374342Y-52829761D02*
X104469580Y-52782142D01*
X104469580Y-52782142D02*
X104517200Y-52734523D01*
X104517200Y-52734523D02*
X104564819Y-52639285D01*
X104564819Y-52639285D02*
X104564819Y-52448809D01*
X104564819Y-52448809D02*
X104517200Y-52353571D01*
X104517200Y-52353571D02*
X104469580Y-52305952D01*
X104469580Y-52305952D02*
X104374342Y-52258333D01*
X104374342Y-52258333D02*
X104183866Y-52258333D01*
X104183866Y-52258333D02*
X104088628Y-52305952D01*
X104088628Y-52305952D02*
X104041009Y-52353571D01*
X104041009Y-52353571D02*
X103993390Y-52448809D01*
X87705320Y-99539580D02*
X87657701Y-99587200D01*
X87657701Y-99587200D02*
X87514844Y-99634819D01*
X87514844Y-99634819D02*
X87419606Y-99634819D01*
X87419606Y-99634819D02*
X87276749Y-99587200D01*
X87276749Y-99587200D02*
X87181511Y-99491961D01*
X87181511Y-99491961D02*
X87133892Y-99396723D01*
X87133892Y-99396723D02*
X87086273Y-99206247D01*
X87086273Y-99206247D02*
X87086273Y-99063390D01*
X87086273Y-99063390D02*
X87133892Y-98872914D01*
X87133892Y-98872914D02*
X87181511Y-98777676D01*
X87181511Y-98777676D02*
X87276749Y-98682438D01*
X87276749Y-98682438D02*
X87419606Y-98634819D01*
X87419606Y-98634819D02*
X87514844Y-98634819D01*
X87514844Y-98634819D02*
X87657701Y-98682438D01*
X87657701Y-98682438D02*
X87705320Y-98730057D01*
X88276749Y-99634819D02*
X88181511Y-99587200D01*
X88181511Y-99587200D02*
X88133892Y-99539580D01*
X88133892Y-99539580D02*
X88086273Y-99444342D01*
X88086273Y-99444342D02*
X88086273Y-99158628D01*
X88086273Y-99158628D02*
X88133892Y-99063390D01*
X88133892Y-99063390D02*
X88181511Y-99015771D01*
X88181511Y-99015771D02*
X88276749Y-98968152D01*
X88276749Y-98968152D02*
X88419606Y-98968152D01*
X88419606Y-98968152D02*
X88514844Y-99015771D01*
X88514844Y-99015771D02*
X88562463Y-99063390D01*
X88562463Y-99063390D02*
X88610082Y-99158628D01*
X88610082Y-99158628D02*
X88610082Y-99444342D01*
X88610082Y-99444342D02*
X88562463Y-99539580D01*
X88562463Y-99539580D02*
X88514844Y-99587200D01*
X88514844Y-99587200D02*
X88419606Y-99634819D01*
X88419606Y-99634819D02*
X88276749Y-99634819D01*
X89181511Y-99634819D02*
X89086273Y-99587200D01*
X89086273Y-99587200D02*
X89038654Y-99539580D01*
X89038654Y-99539580D02*
X88991035Y-99444342D01*
X88991035Y-99444342D02*
X88991035Y-99158628D01*
X88991035Y-99158628D02*
X89038654Y-99063390D01*
X89038654Y-99063390D02*
X89086273Y-99015771D01*
X89086273Y-99015771D02*
X89181511Y-98968152D01*
X89181511Y-98968152D02*
X89324368Y-98968152D01*
X89324368Y-98968152D02*
X89419606Y-99015771D01*
X89419606Y-99015771D02*
X89467225Y-99063390D01*
X89467225Y-99063390D02*
X89514844Y-99158628D01*
X89514844Y-99158628D02*
X89514844Y-99444342D01*
X89514844Y-99444342D02*
X89467225Y-99539580D01*
X89467225Y-99539580D02*
X89419606Y-99587200D01*
X89419606Y-99587200D02*
X89324368Y-99634819D01*
X89324368Y-99634819D02*
X89181511Y-99634819D01*
X90086273Y-99634819D02*
X89991035Y-99587200D01*
X89991035Y-99587200D02*
X89943416Y-99491961D01*
X89943416Y-99491961D02*
X89943416Y-98634819D01*
X90848178Y-99587200D02*
X90752940Y-99634819D01*
X90752940Y-99634819D02*
X90562464Y-99634819D01*
X90562464Y-99634819D02*
X90467226Y-99587200D01*
X90467226Y-99587200D02*
X90419607Y-99491961D01*
X90419607Y-99491961D02*
X90419607Y-99111009D01*
X90419607Y-99111009D02*
X90467226Y-99015771D01*
X90467226Y-99015771D02*
X90562464Y-98968152D01*
X90562464Y-98968152D02*
X90752940Y-98968152D01*
X90752940Y-98968152D02*
X90848178Y-99015771D01*
X90848178Y-99015771D02*
X90895797Y-99111009D01*
X90895797Y-99111009D02*
X90895797Y-99206247D01*
X90895797Y-99206247D02*
X90419607Y-99301485D01*
X91324369Y-99634819D02*
X91324369Y-98968152D01*
X91324369Y-99158628D02*
X91371988Y-99063390D01*
X91371988Y-99063390D02*
X91419607Y-99015771D01*
X91419607Y-99015771D02*
X91514845Y-98968152D01*
X91514845Y-98968152D02*
X91610083Y-98968152D01*
X91895798Y-98730057D02*
X91943417Y-98682438D01*
X91943417Y-98682438D02*
X92038655Y-98634819D01*
X92038655Y-98634819D02*
X92276750Y-98634819D01*
X92276750Y-98634819D02*
X92371988Y-98682438D01*
X92371988Y-98682438D02*
X92419607Y-98730057D01*
X92419607Y-98730057D02*
X92467226Y-98825295D01*
X92467226Y-98825295D02*
X92467226Y-98920533D01*
X92467226Y-98920533D02*
X92419607Y-99063390D01*
X92419607Y-99063390D02*
X91848179Y-99634819D01*
X91848179Y-99634819D02*
X92467226Y-99634819D01*
X93333333Y-60454819D02*
X93000000Y-59978628D01*
X92761905Y-60454819D02*
X92761905Y-59454819D01*
X92761905Y-59454819D02*
X93142857Y-59454819D01*
X93142857Y-59454819D02*
X93238095Y-59502438D01*
X93238095Y-59502438D02*
X93285714Y-59550057D01*
X93285714Y-59550057D02*
X93333333Y-59645295D01*
X93333333Y-59645295D02*
X93333333Y-59788152D01*
X93333333Y-59788152D02*
X93285714Y-59883390D01*
X93285714Y-59883390D02*
X93238095Y-59931009D01*
X93238095Y-59931009D02*
X93142857Y-59978628D01*
X93142857Y-59978628D02*
X92761905Y-59978628D01*
X93666667Y-59454819D02*
X94285714Y-59454819D01*
X94285714Y-59454819D02*
X93952381Y-59835771D01*
X93952381Y-59835771D02*
X94095238Y-59835771D01*
X94095238Y-59835771D02*
X94190476Y-59883390D01*
X94190476Y-59883390D02*
X94238095Y-59931009D01*
X94238095Y-59931009D02*
X94285714Y-60026247D01*
X94285714Y-60026247D02*
X94285714Y-60264342D01*
X94285714Y-60264342D02*
X94238095Y-60359580D01*
X94238095Y-60359580D02*
X94190476Y-60407200D01*
X94190476Y-60407200D02*
X94095238Y-60454819D01*
X94095238Y-60454819D02*
X93809524Y-60454819D01*
X93809524Y-60454819D02*
X93714286Y-60407200D01*
X93714286Y-60407200D02*
X93666667Y-60359580D01*
X123357142Y-60454819D02*
X123023809Y-59978628D01*
X122785714Y-60454819D02*
X122785714Y-59454819D01*
X122785714Y-59454819D02*
X123166666Y-59454819D01*
X123166666Y-59454819D02*
X123261904Y-59502438D01*
X123261904Y-59502438D02*
X123309523Y-59550057D01*
X123309523Y-59550057D02*
X123357142Y-59645295D01*
X123357142Y-59645295D02*
X123357142Y-59788152D01*
X123357142Y-59788152D02*
X123309523Y-59883390D01*
X123309523Y-59883390D02*
X123261904Y-59931009D01*
X123261904Y-59931009D02*
X123166666Y-59978628D01*
X123166666Y-59978628D02*
X122785714Y-59978628D01*
X124309523Y-60454819D02*
X123738095Y-60454819D01*
X124023809Y-60454819D02*
X124023809Y-59454819D01*
X124023809Y-59454819D02*
X123928571Y-59597676D01*
X123928571Y-59597676D02*
X123833333Y-59692914D01*
X123833333Y-59692914D02*
X123738095Y-59740533D01*
X124928571Y-59454819D02*
X125023809Y-59454819D01*
X125023809Y-59454819D02*
X125119047Y-59502438D01*
X125119047Y-59502438D02*
X125166666Y-59550057D01*
X125166666Y-59550057D02*
X125214285Y-59645295D01*
X125214285Y-59645295D02*
X125261904Y-59835771D01*
X125261904Y-59835771D02*
X125261904Y-60073866D01*
X125261904Y-60073866D02*
X125214285Y-60264342D01*
X125214285Y-60264342D02*
X125166666Y-60359580D01*
X125166666Y-60359580D02*
X125119047Y-60407200D01*
X125119047Y-60407200D02*
X125023809Y-60454819D01*
X125023809Y-60454819D02*
X124928571Y-60454819D01*
X124928571Y-60454819D02*
X124833333Y-60407200D01*
X124833333Y-60407200D02*
X124785714Y-60359580D01*
X124785714Y-60359580D02*
X124738095Y-60264342D01*
X124738095Y-60264342D02*
X124690476Y-60073866D01*
X124690476Y-60073866D02*
X124690476Y-59835771D01*
X124690476Y-59835771D02*
X124738095Y-59645295D01*
X124738095Y-59645295D02*
X124785714Y-59550057D01*
X124785714Y-59550057D02*
X124833333Y-59502438D01*
X124833333Y-59502438D02*
X124928571Y-59454819D01*
X100079273Y-99634819D02*
X100079273Y-98634819D01*
X100079273Y-98634819D02*
X100460225Y-98634819D01*
X100460225Y-98634819D02*
X100555463Y-98682438D01*
X100555463Y-98682438D02*
X100603082Y-98730057D01*
X100603082Y-98730057D02*
X100650701Y-98825295D01*
X100650701Y-98825295D02*
X100650701Y-98968152D01*
X100650701Y-98968152D02*
X100603082Y-99063390D01*
X100603082Y-99063390D02*
X100555463Y-99111009D01*
X100555463Y-99111009D02*
X100460225Y-99158628D01*
X100460225Y-99158628D02*
X100079273Y-99158628D01*
X101460225Y-99587200D02*
X101364987Y-99634819D01*
X101364987Y-99634819D02*
X101174511Y-99634819D01*
X101174511Y-99634819D02*
X101079273Y-99587200D01*
X101079273Y-99587200D02*
X101031654Y-99491961D01*
X101031654Y-99491961D02*
X101031654Y-99111009D01*
X101031654Y-99111009D02*
X101079273Y-99015771D01*
X101079273Y-99015771D02*
X101174511Y-98968152D01*
X101174511Y-98968152D02*
X101364987Y-98968152D01*
X101364987Y-98968152D02*
X101460225Y-99015771D01*
X101460225Y-99015771D02*
X101507844Y-99111009D01*
X101507844Y-99111009D02*
X101507844Y-99206247D01*
X101507844Y-99206247D02*
X101031654Y-99301485D01*
X102079273Y-99634819D02*
X101984035Y-99587200D01*
X101984035Y-99587200D02*
X101936416Y-99491961D01*
X101936416Y-99491961D02*
X101936416Y-98634819D01*
X102317369Y-98968152D02*
X102698321Y-98968152D01*
X102460226Y-98634819D02*
X102460226Y-99491961D01*
X102460226Y-99491961D02*
X102507845Y-99587200D01*
X102507845Y-99587200D02*
X102603083Y-99634819D01*
X102603083Y-99634819D02*
X102698321Y-99634819D01*
X103031655Y-99634819D02*
X103031655Y-98968152D01*
X103031655Y-98634819D02*
X102984036Y-98682438D01*
X102984036Y-98682438D02*
X103031655Y-98730057D01*
X103031655Y-98730057D02*
X103079274Y-98682438D01*
X103079274Y-98682438D02*
X103031655Y-98634819D01*
X103031655Y-98634819D02*
X103031655Y-98730057D01*
X103888797Y-99587200D02*
X103793559Y-99634819D01*
X103793559Y-99634819D02*
X103603083Y-99634819D01*
X103603083Y-99634819D02*
X103507845Y-99587200D01*
X103507845Y-99587200D02*
X103460226Y-99491961D01*
X103460226Y-99491961D02*
X103460226Y-99111009D01*
X103460226Y-99111009D02*
X103507845Y-99015771D01*
X103507845Y-99015771D02*
X103603083Y-98968152D01*
X103603083Y-98968152D02*
X103793559Y-98968152D01*
X103793559Y-98968152D02*
X103888797Y-99015771D01*
X103888797Y-99015771D02*
X103936416Y-99111009D01*
X103936416Y-99111009D02*
X103936416Y-99206247D01*
X103936416Y-99206247D02*
X103460226Y-99301485D01*
X104364988Y-99634819D02*
X104364988Y-98968152D01*
X104364988Y-99158628D02*
X104412607Y-99063390D01*
X104412607Y-99063390D02*
X104460226Y-99015771D01*
X104460226Y-99015771D02*
X104555464Y-98968152D01*
X104555464Y-98968152D02*
X104650702Y-98968152D01*
X105507845Y-99634819D02*
X104936417Y-99634819D01*
X105222131Y-99634819D02*
X105222131Y-98634819D01*
X105222131Y-98634819D02*
X105126893Y-98777676D01*
X105126893Y-98777676D02*
X105031655Y-98872914D01*
X105031655Y-98872914D02*
X104936417Y-98920533D01*
X78333333Y-60454819D02*
X78000000Y-59978628D01*
X77761905Y-60454819D02*
X77761905Y-59454819D01*
X77761905Y-59454819D02*
X78142857Y-59454819D01*
X78142857Y-59454819D02*
X78238095Y-59502438D01*
X78238095Y-59502438D02*
X78285714Y-59550057D01*
X78285714Y-59550057D02*
X78333333Y-59645295D01*
X78333333Y-59645295D02*
X78333333Y-59788152D01*
X78333333Y-59788152D02*
X78285714Y-59883390D01*
X78285714Y-59883390D02*
X78238095Y-59931009D01*
X78238095Y-59931009D02*
X78142857Y-59978628D01*
X78142857Y-59978628D02*
X77761905Y-59978628D01*
X79285714Y-60454819D02*
X78714286Y-60454819D01*
X79000000Y-60454819D02*
X79000000Y-59454819D01*
X79000000Y-59454819D02*
X78904762Y-59597676D01*
X78904762Y-59597676D02*
X78809524Y-59692914D01*
X78809524Y-59692914D02*
X78714286Y-59740533D01*
X83583333Y-60454819D02*
X83250000Y-59978628D01*
X83011905Y-60454819D02*
X83011905Y-59454819D01*
X83011905Y-59454819D02*
X83392857Y-59454819D01*
X83392857Y-59454819D02*
X83488095Y-59502438D01*
X83488095Y-59502438D02*
X83535714Y-59550057D01*
X83535714Y-59550057D02*
X83583333Y-59645295D01*
X83583333Y-59645295D02*
X83583333Y-59788152D01*
X83583333Y-59788152D02*
X83535714Y-59883390D01*
X83535714Y-59883390D02*
X83488095Y-59931009D01*
X83488095Y-59931009D02*
X83392857Y-59978628D01*
X83392857Y-59978628D02*
X83011905Y-59978628D01*
X83916667Y-59454819D02*
X84583333Y-59454819D01*
X84583333Y-59454819D02*
X84154762Y-60454819D01*
X148357142Y-80454819D02*
X148023809Y-79978628D01*
X147785714Y-80454819D02*
X147785714Y-79454819D01*
X147785714Y-79454819D02*
X148166666Y-79454819D01*
X148166666Y-79454819D02*
X148261904Y-79502438D01*
X148261904Y-79502438D02*
X148309523Y-79550057D01*
X148309523Y-79550057D02*
X148357142Y-79645295D01*
X148357142Y-79645295D02*
X148357142Y-79788152D01*
X148357142Y-79788152D02*
X148309523Y-79883390D01*
X148309523Y-79883390D02*
X148261904Y-79931009D01*
X148261904Y-79931009D02*
X148166666Y-79978628D01*
X148166666Y-79978628D02*
X147785714Y-79978628D01*
X149309523Y-80454819D02*
X148738095Y-80454819D01*
X149023809Y-80454819D02*
X149023809Y-79454819D01*
X149023809Y-79454819D02*
X148928571Y-79597676D01*
X148928571Y-79597676D02*
X148833333Y-79692914D01*
X148833333Y-79692914D02*
X148738095Y-79740533D01*
X150166666Y-79788152D02*
X150166666Y-80454819D01*
X149928571Y-79407200D02*
X149690476Y-80121485D01*
X149690476Y-80121485D02*
X150309523Y-80121485D01*
X134399104Y-82463809D02*
X134399104Y-81987619D01*
X134684819Y-82559047D02*
X133684819Y-82225714D01*
X133684819Y-82225714D02*
X134684819Y-81892381D01*
X134684819Y-81559047D02*
X133684819Y-81559047D01*
X133684819Y-81559047D02*
X133684819Y-81320952D01*
X133684819Y-81320952D02*
X133732438Y-81178095D01*
X133732438Y-81178095D02*
X133827676Y-81082857D01*
X133827676Y-81082857D02*
X133922914Y-81035238D01*
X133922914Y-81035238D02*
X134113390Y-80987619D01*
X134113390Y-80987619D02*
X134256247Y-80987619D01*
X134256247Y-80987619D02*
X134446723Y-81035238D01*
X134446723Y-81035238D02*
X134541961Y-81082857D01*
X134541961Y-81082857D02*
X134637200Y-81178095D01*
X134637200Y-81178095D02*
X134684819Y-81320952D01*
X134684819Y-81320952D02*
X134684819Y-81559047D01*
X133684819Y-80130476D02*
X133684819Y-80320952D01*
X133684819Y-80320952D02*
X133732438Y-80416190D01*
X133732438Y-80416190D02*
X133780057Y-80463809D01*
X133780057Y-80463809D02*
X133922914Y-80559047D01*
X133922914Y-80559047D02*
X134113390Y-80606666D01*
X134113390Y-80606666D02*
X134494342Y-80606666D01*
X134494342Y-80606666D02*
X134589580Y-80559047D01*
X134589580Y-80559047D02*
X134637200Y-80511428D01*
X134637200Y-80511428D02*
X134684819Y-80416190D01*
X134684819Y-80416190D02*
X134684819Y-80225714D01*
X134684819Y-80225714D02*
X134637200Y-80130476D01*
X134637200Y-80130476D02*
X134589580Y-80082857D01*
X134589580Y-80082857D02*
X134494342Y-80035238D01*
X134494342Y-80035238D02*
X134256247Y-80035238D01*
X134256247Y-80035238D02*
X134161009Y-80082857D01*
X134161009Y-80082857D02*
X134113390Y-80130476D01*
X134113390Y-80130476D02*
X134065771Y-80225714D01*
X134065771Y-80225714D02*
X134065771Y-80416190D01*
X134065771Y-80416190D02*
X134113390Y-80511428D01*
X134113390Y-80511428D02*
X134161009Y-80559047D01*
X134161009Y-80559047D02*
X134256247Y-80606666D01*
X133780057Y-79654285D02*
X133732438Y-79606666D01*
X133732438Y-79606666D02*
X133684819Y-79511428D01*
X133684819Y-79511428D02*
X133684819Y-79273333D01*
X133684819Y-79273333D02*
X133732438Y-79178095D01*
X133732438Y-79178095D02*
X133780057Y-79130476D01*
X133780057Y-79130476D02*
X133875295Y-79082857D01*
X133875295Y-79082857D02*
X133970533Y-79082857D01*
X133970533Y-79082857D02*
X134113390Y-79130476D01*
X134113390Y-79130476D02*
X134684819Y-79701904D01*
X134684819Y-79701904D02*
X134684819Y-79082857D01*
X133684819Y-78463809D02*
X133684819Y-78368571D01*
X133684819Y-78368571D02*
X133732438Y-78273333D01*
X133732438Y-78273333D02*
X133780057Y-78225714D01*
X133780057Y-78225714D02*
X133875295Y-78178095D01*
X133875295Y-78178095D02*
X134065771Y-78130476D01*
X134065771Y-78130476D02*
X134303866Y-78130476D01*
X134303866Y-78130476D02*
X134494342Y-78178095D01*
X134494342Y-78178095D02*
X134589580Y-78225714D01*
X134589580Y-78225714D02*
X134637200Y-78273333D01*
X134637200Y-78273333D02*
X134684819Y-78368571D01*
X134684819Y-78368571D02*
X134684819Y-78463809D01*
X134684819Y-78463809D02*
X134637200Y-78559047D01*
X134637200Y-78559047D02*
X134589580Y-78606666D01*
X134589580Y-78606666D02*
X134494342Y-78654285D01*
X134494342Y-78654285D02*
X134303866Y-78701904D01*
X134303866Y-78701904D02*
X134065771Y-78701904D01*
X134065771Y-78701904D02*
X133875295Y-78654285D01*
X133875295Y-78654285D02*
X133780057Y-78606666D01*
X133780057Y-78606666D02*
X133732438Y-78559047D01*
X133732438Y-78559047D02*
X133684819Y-78463809D01*
X134780057Y-77940000D02*
X134780057Y-77178095D01*
X133780057Y-76987618D02*
X133732438Y-76939999D01*
X133732438Y-76939999D02*
X133684819Y-76844761D01*
X133684819Y-76844761D02*
X133684819Y-76606666D01*
X133684819Y-76606666D02*
X133732438Y-76511428D01*
X133732438Y-76511428D02*
X133780057Y-76463809D01*
X133780057Y-76463809D02*
X133875295Y-76416190D01*
X133875295Y-76416190D02*
X133970533Y-76416190D01*
X133970533Y-76416190D02*
X134113390Y-76463809D01*
X134113390Y-76463809D02*
X134684819Y-77035237D01*
X134684819Y-77035237D02*
X134684819Y-76416190D01*
X133109580Y-95916666D02*
X133157200Y-95964285D01*
X133157200Y-95964285D02*
X133204819Y-96107142D01*
X133204819Y-96107142D02*
X133204819Y-96202380D01*
X133204819Y-96202380D02*
X133157200Y-96345237D01*
X133157200Y-96345237D02*
X133061961Y-96440475D01*
X133061961Y-96440475D02*
X132966723Y-96488094D01*
X132966723Y-96488094D02*
X132776247Y-96535713D01*
X132776247Y-96535713D02*
X132633390Y-96535713D01*
X132633390Y-96535713D02*
X132442914Y-96488094D01*
X132442914Y-96488094D02*
X132347676Y-96440475D01*
X132347676Y-96440475D02*
X132252438Y-96345237D01*
X132252438Y-96345237D02*
X132204819Y-96202380D01*
X132204819Y-96202380D02*
X132204819Y-96107142D01*
X132204819Y-96107142D02*
X132252438Y-95964285D01*
X132252438Y-95964285D02*
X132300057Y-95916666D01*
X132204819Y-95059523D02*
X132204819Y-95249999D01*
X132204819Y-95249999D02*
X132252438Y-95345237D01*
X132252438Y-95345237D02*
X132300057Y-95392856D01*
X132300057Y-95392856D02*
X132442914Y-95488094D01*
X132442914Y-95488094D02*
X132633390Y-95535713D01*
X132633390Y-95535713D02*
X133014342Y-95535713D01*
X133014342Y-95535713D02*
X133109580Y-95488094D01*
X133109580Y-95488094D02*
X133157200Y-95440475D01*
X133157200Y-95440475D02*
X133204819Y-95345237D01*
X133204819Y-95345237D02*
X133204819Y-95154761D01*
X133204819Y-95154761D02*
X133157200Y-95059523D01*
X133157200Y-95059523D02*
X133109580Y-95011904D01*
X133109580Y-95011904D02*
X133014342Y-94964285D01*
X133014342Y-94964285D02*
X132776247Y-94964285D01*
X132776247Y-94964285D02*
X132681009Y-95011904D01*
X132681009Y-95011904D02*
X132633390Y-95059523D01*
X132633390Y-95059523D02*
X132585771Y-95154761D01*
X132585771Y-95154761D02*
X132585771Y-95345237D01*
X132585771Y-95345237D02*
X132633390Y-95440475D01*
X132633390Y-95440475D02*
X132681009Y-95488094D01*
X132681009Y-95488094D02*
X132776247Y-95535713D01*
X151359580Y-100916666D02*
X151407200Y-100964285D01*
X151407200Y-100964285D02*
X151454819Y-101107142D01*
X151454819Y-101107142D02*
X151454819Y-101202380D01*
X151454819Y-101202380D02*
X151407200Y-101345237D01*
X151407200Y-101345237D02*
X151311961Y-101440475D01*
X151311961Y-101440475D02*
X151216723Y-101488094D01*
X151216723Y-101488094D02*
X151026247Y-101535713D01*
X151026247Y-101535713D02*
X150883390Y-101535713D01*
X150883390Y-101535713D02*
X150692914Y-101488094D01*
X150692914Y-101488094D02*
X150597676Y-101440475D01*
X150597676Y-101440475D02*
X150502438Y-101345237D01*
X150502438Y-101345237D02*
X150454819Y-101202380D01*
X150454819Y-101202380D02*
X150454819Y-101107142D01*
X150454819Y-101107142D02*
X150502438Y-100964285D01*
X150502438Y-100964285D02*
X150550057Y-100916666D01*
X150550057Y-100535713D02*
X150502438Y-100488094D01*
X150502438Y-100488094D02*
X150454819Y-100392856D01*
X150454819Y-100392856D02*
X150454819Y-100154761D01*
X150454819Y-100154761D02*
X150502438Y-100059523D01*
X150502438Y-100059523D02*
X150550057Y-100011904D01*
X150550057Y-100011904D02*
X150645295Y-99964285D01*
X150645295Y-99964285D02*
X150740533Y-99964285D01*
X150740533Y-99964285D02*
X150883390Y-100011904D01*
X150883390Y-100011904D02*
X151454819Y-100583332D01*
X151454819Y-100583332D02*
X151454819Y-99964285D01*
X141547142Y-54954819D02*
X141213809Y-54478628D01*
X140975714Y-54954819D02*
X140975714Y-53954819D01*
X140975714Y-53954819D02*
X141356666Y-53954819D01*
X141356666Y-53954819D02*
X141451904Y-54002438D01*
X141451904Y-54002438D02*
X141499523Y-54050057D01*
X141499523Y-54050057D02*
X141547142Y-54145295D01*
X141547142Y-54145295D02*
X141547142Y-54288152D01*
X141547142Y-54288152D02*
X141499523Y-54383390D01*
X141499523Y-54383390D02*
X141451904Y-54431009D01*
X141451904Y-54431009D02*
X141356666Y-54478628D01*
X141356666Y-54478628D02*
X140975714Y-54478628D01*
X142499523Y-54954819D02*
X141928095Y-54954819D01*
X142213809Y-54954819D02*
X142213809Y-53954819D01*
X142213809Y-53954819D02*
X142118571Y-54097676D01*
X142118571Y-54097676D02*
X142023333Y-54192914D01*
X142023333Y-54192914D02*
X141928095Y-54240533D01*
X143451904Y-54954819D02*
X142880476Y-54954819D01*
X143166190Y-54954819D02*
X143166190Y-53954819D01*
X143166190Y-53954819D02*
X143070952Y-54097676D01*
X143070952Y-54097676D02*
X142975714Y-54192914D01*
X142975714Y-54192914D02*
X142880476Y-54240533D01*
X134399104Y-72518809D02*
X134399104Y-72042619D01*
X134684819Y-72614047D02*
X133684819Y-72280714D01*
X133684819Y-72280714D02*
X134684819Y-71947381D01*
X134684819Y-71614047D02*
X133684819Y-71614047D01*
X133684819Y-71614047D02*
X133684819Y-71375952D01*
X133684819Y-71375952D02*
X133732438Y-71233095D01*
X133732438Y-71233095D02*
X133827676Y-71137857D01*
X133827676Y-71137857D02*
X133922914Y-71090238D01*
X133922914Y-71090238D02*
X134113390Y-71042619D01*
X134113390Y-71042619D02*
X134256247Y-71042619D01*
X134256247Y-71042619D02*
X134446723Y-71090238D01*
X134446723Y-71090238D02*
X134541961Y-71137857D01*
X134541961Y-71137857D02*
X134637200Y-71233095D01*
X134637200Y-71233095D02*
X134684819Y-71375952D01*
X134684819Y-71375952D02*
X134684819Y-71614047D01*
X133684819Y-70185476D02*
X133684819Y-70375952D01*
X133684819Y-70375952D02*
X133732438Y-70471190D01*
X133732438Y-70471190D02*
X133780057Y-70518809D01*
X133780057Y-70518809D02*
X133922914Y-70614047D01*
X133922914Y-70614047D02*
X134113390Y-70661666D01*
X134113390Y-70661666D02*
X134494342Y-70661666D01*
X134494342Y-70661666D02*
X134589580Y-70614047D01*
X134589580Y-70614047D02*
X134637200Y-70566428D01*
X134637200Y-70566428D02*
X134684819Y-70471190D01*
X134684819Y-70471190D02*
X134684819Y-70280714D01*
X134684819Y-70280714D02*
X134637200Y-70185476D01*
X134637200Y-70185476D02*
X134589580Y-70137857D01*
X134589580Y-70137857D02*
X134494342Y-70090238D01*
X134494342Y-70090238D02*
X134256247Y-70090238D01*
X134256247Y-70090238D02*
X134161009Y-70137857D01*
X134161009Y-70137857D02*
X134113390Y-70185476D01*
X134113390Y-70185476D02*
X134065771Y-70280714D01*
X134065771Y-70280714D02*
X134065771Y-70471190D01*
X134065771Y-70471190D02*
X134113390Y-70566428D01*
X134113390Y-70566428D02*
X134161009Y-70614047D01*
X134161009Y-70614047D02*
X134256247Y-70661666D01*
X133780057Y-69709285D02*
X133732438Y-69661666D01*
X133732438Y-69661666D02*
X133684819Y-69566428D01*
X133684819Y-69566428D02*
X133684819Y-69328333D01*
X133684819Y-69328333D02*
X133732438Y-69233095D01*
X133732438Y-69233095D02*
X133780057Y-69185476D01*
X133780057Y-69185476D02*
X133875295Y-69137857D01*
X133875295Y-69137857D02*
X133970533Y-69137857D01*
X133970533Y-69137857D02*
X134113390Y-69185476D01*
X134113390Y-69185476D02*
X134684819Y-69756904D01*
X134684819Y-69756904D02*
X134684819Y-69137857D01*
X133684819Y-68518809D02*
X133684819Y-68423571D01*
X133684819Y-68423571D02*
X133732438Y-68328333D01*
X133732438Y-68328333D02*
X133780057Y-68280714D01*
X133780057Y-68280714D02*
X133875295Y-68233095D01*
X133875295Y-68233095D02*
X134065771Y-68185476D01*
X134065771Y-68185476D02*
X134303866Y-68185476D01*
X134303866Y-68185476D02*
X134494342Y-68233095D01*
X134494342Y-68233095D02*
X134589580Y-68280714D01*
X134589580Y-68280714D02*
X134637200Y-68328333D01*
X134637200Y-68328333D02*
X134684819Y-68423571D01*
X134684819Y-68423571D02*
X134684819Y-68518809D01*
X134684819Y-68518809D02*
X134637200Y-68614047D01*
X134637200Y-68614047D02*
X134589580Y-68661666D01*
X134589580Y-68661666D02*
X134494342Y-68709285D01*
X134494342Y-68709285D02*
X134303866Y-68756904D01*
X134303866Y-68756904D02*
X134065771Y-68756904D01*
X134065771Y-68756904D02*
X133875295Y-68709285D01*
X133875295Y-68709285D02*
X133780057Y-68661666D01*
X133780057Y-68661666D02*
X133732438Y-68614047D01*
X133732438Y-68614047D02*
X133684819Y-68518809D01*
X134780057Y-67995000D02*
X134780057Y-67233095D01*
X134684819Y-66471190D02*
X134684819Y-67042618D01*
X134684819Y-66756904D02*
X133684819Y-66756904D01*
X133684819Y-66756904D02*
X133827676Y-66852142D01*
X133827676Y-66852142D02*
X133922914Y-66947380D01*
X133922914Y-66947380D02*
X133970533Y-67042618D01*
X73333333Y-60454819D02*
X73000000Y-59978628D01*
X72761905Y-60454819D02*
X72761905Y-59454819D01*
X72761905Y-59454819D02*
X73142857Y-59454819D01*
X73142857Y-59454819D02*
X73238095Y-59502438D01*
X73238095Y-59502438D02*
X73285714Y-59550057D01*
X73285714Y-59550057D02*
X73333333Y-59645295D01*
X73333333Y-59645295D02*
X73333333Y-59788152D01*
X73333333Y-59788152D02*
X73285714Y-59883390D01*
X73285714Y-59883390D02*
X73238095Y-59931009D01*
X73238095Y-59931009D02*
X73142857Y-59978628D01*
X73142857Y-59978628D02*
X72761905Y-59978628D01*
X74190476Y-59454819D02*
X74000000Y-59454819D01*
X74000000Y-59454819D02*
X73904762Y-59502438D01*
X73904762Y-59502438D02*
X73857143Y-59550057D01*
X73857143Y-59550057D02*
X73761905Y-59692914D01*
X73761905Y-59692914D02*
X73714286Y-59883390D01*
X73714286Y-59883390D02*
X73714286Y-60264342D01*
X73714286Y-60264342D02*
X73761905Y-60359580D01*
X73761905Y-60359580D02*
X73809524Y-60407200D01*
X73809524Y-60407200D02*
X73904762Y-60454819D01*
X73904762Y-60454819D02*
X74095238Y-60454819D01*
X74095238Y-60454819D02*
X74190476Y-60407200D01*
X74190476Y-60407200D02*
X74238095Y-60359580D01*
X74238095Y-60359580D02*
X74285714Y-60264342D01*
X74285714Y-60264342D02*
X74285714Y-60026247D01*
X74285714Y-60026247D02*
X74238095Y-59931009D01*
X74238095Y-59931009D02*
X74190476Y-59883390D01*
X74190476Y-59883390D02*
X74095238Y-59835771D01*
X74095238Y-59835771D02*
X73904762Y-59835771D01*
X73904762Y-59835771D02*
X73809524Y-59883390D01*
X73809524Y-59883390D02*
X73761905Y-59931009D01*
X73761905Y-59931009D02*
X73714286Y-60026247D01*
X65642857Y-88222400D02*
X65785714Y-88270019D01*
X65785714Y-88270019D02*
X66023809Y-88270019D01*
X66023809Y-88270019D02*
X66119047Y-88222400D01*
X66119047Y-88222400D02*
X66166666Y-88174780D01*
X66166666Y-88174780D02*
X66214285Y-88079542D01*
X66214285Y-88079542D02*
X66214285Y-87984304D01*
X66214285Y-87984304D02*
X66166666Y-87889066D01*
X66166666Y-87889066D02*
X66119047Y-87841447D01*
X66119047Y-87841447D02*
X66023809Y-87793828D01*
X66023809Y-87793828D02*
X65833333Y-87746209D01*
X65833333Y-87746209D02*
X65738095Y-87698590D01*
X65738095Y-87698590D02*
X65690476Y-87650971D01*
X65690476Y-87650971D02*
X65642857Y-87555733D01*
X65642857Y-87555733D02*
X65642857Y-87460495D01*
X65642857Y-87460495D02*
X65690476Y-87365257D01*
X65690476Y-87365257D02*
X65738095Y-87317638D01*
X65738095Y-87317638D02*
X65833333Y-87270019D01*
X65833333Y-87270019D02*
X66071428Y-87270019D01*
X66071428Y-87270019D02*
X66214285Y-87317638D01*
X66500000Y-87603352D02*
X66880952Y-87603352D01*
X66642857Y-87270019D02*
X66642857Y-88127161D01*
X66642857Y-88127161D02*
X66690476Y-88222400D01*
X66690476Y-88222400D02*
X66785714Y-88270019D01*
X66785714Y-88270019D02*
X66880952Y-88270019D01*
X67595238Y-88222400D02*
X67500000Y-88270019D01*
X67500000Y-88270019D02*
X67309524Y-88270019D01*
X67309524Y-88270019D02*
X67214286Y-88222400D01*
X67214286Y-88222400D02*
X67166667Y-88127161D01*
X67166667Y-88127161D02*
X67166667Y-87746209D01*
X67166667Y-87746209D02*
X67214286Y-87650971D01*
X67214286Y-87650971D02*
X67309524Y-87603352D01*
X67309524Y-87603352D02*
X67500000Y-87603352D01*
X67500000Y-87603352D02*
X67595238Y-87650971D01*
X67595238Y-87650971D02*
X67642857Y-87746209D01*
X67642857Y-87746209D02*
X67642857Y-87841447D01*
X67642857Y-87841447D02*
X67166667Y-87936685D01*
X68071429Y-87603352D02*
X68071429Y-88603352D01*
X68071429Y-87650971D02*
X68166667Y-87603352D01*
X68166667Y-87603352D02*
X68357143Y-87603352D01*
X68357143Y-87603352D02*
X68452381Y-87650971D01*
X68452381Y-87650971D02*
X68500000Y-87698590D01*
X68500000Y-87698590D02*
X68547619Y-87793828D01*
X68547619Y-87793828D02*
X68547619Y-88079542D01*
X68547619Y-88079542D02*
X68500000Y-88174780D01*
X68500000Y-88174780D02*
X68452381Y-88222400D01*
X68452381Y-88222400D02*
X68357143Y-88270019D01*
X68357143Y-88270019D02*
X68166667Y-88270019D01*
X68166667Y-88270019D02*
X68071429Y-88222400D01*
X68976191Y-88270019D02*
X68976191Y-87270019D01*
X68976191Y-87270019D02*
X69214286Y-87270019D01*
X69214286Y-87270019D02*
X69357143Y-87317638D01*
X69357143Y-87317638D02*
X69452381Y-87412876D01*
X69452381Y-87412876D02*
X69500000Y-87508114D01*
X69500000Y-87508114D02*
X69547619Y-87698590D01*
X69547619Y-87698590D02*
X69547619Y-87841447D01*
X69547619Y-87841447D02*
X69500000Y-88031923D01*
X69500000Y-88031923D02*
X69452381Y-88127161D01*
X69452381Y-88127161D02*
X69357143Y-88222400D01*
X69357143Y-88222400D02*
X69214286Y-88270019D01*
X69214286Y-88270019D02*
X68976191Y-88270019D01*
X70119048Y-88270019D02*
X70023810Y-88222400D01*
X70023810Y-88222400D02*
X69976191Y-88174780D01*
X69976191Y-88174780D02*
X69928572Y-88079542D01*
X69928572Y-88079542D02*
X69928572Y-87793828D01*
X69928572Y-87793828D02*
X69976191Y-87698590D01*
X69976191Y-87698590D02*
X70023810Y-87650971D01*
X70023810Y-87650971D02*
X70119048Y-87603352D01*
X70119048Y-87603352D02*
X70261905Y-87603352D01*
X70261905Y-87603352D02*
X70357143Y-87650971D01*
X70357143Y-87650971D02*
X70404762Y-87698590D01*
X70404762Y-87698590D02*
X70452381Y-87793828D01*
X70452381Y-87793828D02*
X70452381Y-88079542D01*
X70452381Y-88079542D02*
X70404762Y-88174780D01*
X70404762Y-88174780D02*
X70357143Y-88222400D01*
X70357143Y-88222400D02*
X70261905Y-88270019D01*
X70261905Y-88270019D02*
X70119048Y-88270019D01*
X70785715Y-87603352D02*
X70976191Y-88270019D01*
X70976191Y-88270019D02*
X71166667Y-87793828D01*
X71166667Y-87793828D02*
X71357143Y-88270019D01*
X71357143Y-88270019D02*
X71547619Y-87603352D01*
X71928572Y-87603352D02*
X71928572Y-88270019D01*
X71928572Y-87698590D02*
X71976191Y-87650971D01*
X71976191Y-87650971D02*
X72071429Y-87603352D01*
X72071429Y-87603352D02*
X72214286Y-87603352D01*
X72214286Y-87603352D02*
X72309524Y-87650971D01*
X72309524Y-87650971D02*
X72357143Y-87746209D01*
X72357143Y-87746209D02*
X72357143Y-88270019D01*
X73357143Y-88270019D02*
X72785715Y-88270019D01*
X73071429Y-88270019D02*
X73071429Y-87270019D01*
X73071429Y-87270019D02*
X72976191Y-87412876D01*
X72976191Y-87412876D02*
X72880953Y-87508114D01*
X72880953Y-87508114D02*
X72785715Y-87555733D01*
X59534552Y-83328609D02*
X60201219Y-83328609D01*
X59153600Y-83566704D02*
X59867885Y-83804799D01*
X59867885Y-83804799D02*
X59867885Y-83185752D01*
X60105980Y-82804799D02*
X60153600Y-82757180D01*
X60153600Y-82757180D02*
X60201219Y-82804799D01*
X60201219Y-82804799D02*
X60153600Y-82852418D01*
X60153600Y-82852418D02*
X60105980Y-82804799D01*
X60105980Y-82804799D02*
X60201219Y-82804799D01*
X59201219Y-81852419D02*
X59201219Y-82328609D01*
X59201219Y-82328609D02*
X59677409Y-82376228D01*
X59677409Y-82376228D02*
X59629790Y-82328609D01*
X59629790Y-82328609D02*
X59582171Y-82233371D01*
X59582171Y-82233371D02*
X59582171Y-81995276D01*
X59582171Y-81995276D02*
X59629790Y-81900038D01*
X59629790Y-81900038D02*
X59677409Y-81852419D01*
X59677409Y-81852419D02*
X59772647Y-81804800D01*
X59772647Y-81804800D02*
X60010742Y-81804800D01*
X60010742Y-81804800D02*
X60105980Y-81852419D01*
X60105980Y-81852419D02*
X60153600Y-81900038D01*
X60153600Y-81900038D02*
X60201219Y-81995276D01*
X60201219Y-81995276D02*
X60201219Y-82233371D01*
X60201219Y-82233371D02*
X60153600Y-82328609D01*
X60153600Y-82328609D02*
X60105980Y-82376228D01*
X59820266Y-81376228D02*
X59820266Y-80614324D01*
X59296457Y-80185752D02*
X59248838Y-80138133D01*
X59248838Y-80138133D02*
X59201219Y-80042895D01*
X59201219Y-80042895D02*
X59201219Y-79804800D01*
X59201219Y-79804800D02*
X59248838Y-79709562D01*
X59248838Y-79709562D02*
X59296457Y-79661943D01*
X59296457Y-79661943D02*
X59391695Y-79614324D01*
X59391695Y-79614324D02*
X59486933Y-79614324D01*
X59486933Y-79614324D02*
X59629790Y-79661943D01*
X59629790Y-79661943D02*
X60201219Y-80233371D01*
X60201219Y-80233371D02*
X60201219Y-79614324D01*
X59629790Y-79042895D02*
X59582171Y-79138133D01*
X59582171Y-79138133D02*
X59534552Y-79185752D01*
X59534552Y-79185752D02*
X59439314Y-79233371D01*
X59439314Y-79233371D02*
X59391695Y-79233371D01*
X59391695Y-79233371D02*
X59296457Y-79185752D01*
X59296457Y-79185752D02*
X59248838Y-79138133D01*
X59248838Y-79138133D02*
X59201219Y-79042895D01*
X59201219Y-79042895D02*
X59201219Y-78852419D01*
X59201219Y-78852419D02*
X59248838Y-78757181D01*
X59248838Y-78757181D02*
X59296457Y-78709562D01*
X59296457Y-78709562D02*
X59391695Y-78661943D01*
X59391695Y-78661943D02*
X59439314Y-78661943D01*
X59439314Y-78661943D02*
X59534552Y-78709562D01*
X59534552Y-78709562D02*
X59582171Y-78757181D01*
X59582171Y-78757181D02*
X59629790Y-78852419D01*
X59629790Y-78852419D02*
X59629790Y-79042895D01*
X59629790Y-79042895D02*
X59677409Y-79138133D01*
X59677409Y-79138133D02*
X59725028Y-79185752D01*
X59725028Y-79185752D02*
X59820266Y-79233371D01*
X59820266Y-79233371D02*
X60010742Y-79233371D01*
X60010742Y-79233371D02*
X60105980Y-79185752D01*
X60105980Y-79185752D02*
X60153600Y-79138133D01*
X60153600Y-79138133D02*
X60201219Y-79042895D01*
X60201219Y-79042895D02*
X60201219Y-78852419D01*
X60201219Y-78852419D02*
X60153600Y-78757181D01*
X60153600Y-78757181D02*
X60105980Y-78709562D01*
X60105980Y-78709562D02*
X60010742Y-78661943D01*
X60010742Y-78661943D02*
X59820266Y-78661943D01*
X59820266Y-78661943D02*
X59725028Y-78709562D01*
X59725028Y-78709562D02*
X59677409Y-78757181D01*
X59677409Y-78757181D02*
X59629790Y-78852419D01*
X59201219Y-78376228D02*
X60201219Y-78042895D01*
X60201219Y-78042895D02*
X59201219Y-77709562D01*
X60965648Y-75646266D02*
X61727553Y-75646266D01*
X61016448Y-86326966D02*
X61778353Y-86326966D01*
X61397400Y-86707919D02*
X61397400Y-85946014D01*
X75545248Y-75646266D02*
X76307153Y-75646266D01*
X75646848Y-86301566D02*
X76408753Y-86301566D01*
X76027800Y-86682519D02*
X76027800Y-85920614D01*
X77768619Y-82312704D02*
X78768619Y-81979371D01*
X78768619Y-81979371D02*
X77768619Y-81646038D01*
X77768619Y-81122228D02*
X77768619Y-80931752D01*
X77768619Y-80931752D02*
X77816238Y-80836514D01*
X77816238Y-80836514D02*
X77911476Y-80741276D01*
X77911476Y-80741276D02*
X78101952Y-80693657D01*
X78101952Y-80693657D02*
X78435285Y-80693657D01*
X78435285Y-80693657D02*
X78625761Y-80741276D01*
X78625761Y-80741276D02*
X78721000Y-80836514D01*
X78721000Y-80836514D02*
X78768619Y-80931752D01*
X78768619Y-80931752D02*
X78768619Y-81122228D01*
X78768619Y-81122228D02*
X78721000Y-81217466D01*
X78721000Y-81217466D02*
X78625761Y-81312704D01*
X78625761Y-81312704D02*
X78435285Y-81360323D01*
X78435285Y-81360323D02*
X78101952Y-81360323D01*
X78101952Y-81360323D02*
X77911476Y-81312704D01*
X77911476Y-81312704D02*
X77816238Y-81217466D01*
X77816238Y-81217466D02*
X77768619Y-81122228D01*
X77768619Y-80265085D02*
X78578142Y-80265085D01*
X78578142Y-80265085D02*
X78673380Y-80217466D01*
X78673380Y-80217466D02*
X78721000Y-80169847D01*
X78721000Y-80169847D02*
X78768619Y-80074609D01*
X78768619Y-80074609D02*
X78768619Y-79884133D01*
X78768619Y-79884133D02*
X78721000Y-79788895D01*
X78721000Y-79788895D02*
X78673380Y-79741276D01*
X78673380Y-79741276D02*
X78578142Y-79693657D01*
X78578142Y-79693657D02*
X77768619Y-79693657D01*
X77768619Y-79360323D02*
X77768619Y-78788895D01*
X78768619Y-79074609D02*
X77768619Y-79074609D01*
X121961636Y-91386307D02*
X121866398Y-91338688D01*
X121866398Y-91338688D02*
X121771160Y-91243450D01*
X121771160Y-91243450D02*
X121628303Y-91100592D01*
X121628303Y-91100592D02*
X121533065Y-91052973D01*
X121533065Y-91052973D02*
X121437827Y-91052973D01*
X121485446Y-91291069D02*
X121390208Y-91243450D01*
X121390208Y-91243450D02*
X121294970Y-91148211D01*
X121294970Y-91148211D02*
X121247351Y-90957735D01*
X121247351Y-90957735D02*
X121247351Y-90624402D01*
X121247351Y-90624402D02*
X121294970Y-90433926D01*
X121294970Y-90433926D02*
X121390208Y-90338688D01*
X121390208Y-90338688D02*
X121485446Y-90291069D01*
X121485446Y-90291069D02*
X121675922Y-90291069D01*
X121675922Y-90291069D02*
X121771160Y-90338688D01*
X121771160Y-90338688D02*
X121866398Y-90433926D01*
X121866398Y-90433926D02*
X121914017Y-90624402D01*
X121914017Y-90624402D02*
X121914017Y-90957735D01*
X121914017Y-90957735D02*
X121866398Y-91148211D01*
X121866398Y-91148211D02*
X121771160Y-91243450D01*
X121771160Y-91243450D02*
X121675922Y-91291069D01*
X121675922Y-91291069D02*
X121485446Y-91291069D01*
X122818779Y-90291069D02*
X122342589Y-90291069D01*
X122342589Y-90291069D02*
X122294970Y-90767259D01*
X122294970Y-90767259D02*
X122342589Y-90719640D01*
X122342589Y-90719640D02*
X122437827Y-90672021D01*
X122437827Y-90672021D02*
X122675922Y-90672021D01*
X122675922Y-90672021D02*
X122771160Y-90719640D01*
X122771160Y-90719640D02*
X122818779Y-90767259D01*
X122818779Y-90767259D02*
X122866398Y-90862497D01*
X122866398Y-90862497D02*
X122866398Y-91100592D01*
X122866398Y-91100592D02*
X122818779Y-91195830D01*
X122818779Y-91195830D02*
X122771160Y-91243450D01*
X122771160Y-91243450D02*
X122675922Y-91291069D01*
X122675922Y-91291069D02*
X122437827Y-91291069D01*
X122437827Y-91291069D02*
X122342589Y-91243450D01*
X122342589Y-91243450D02*
X122294970Y-91195830D01*
X94604819Y-53734523D02*
X95319104Y-53734523D01*
X95319104Y-53734523D02*
X95461961Y-53782142D01*
X95461961Y-53782142D02*
X95557200Y-53877380D01*
X95557200Y-53877380D02*
X95604819Y-54020237D01*
X95604819Y-54020237D02*
X95604819Y-54115475D01*
X95604819Y-52734523D02*
X95604819Y-53305951D01*
X95604819Y-53020237D02*
X94604819Y-53020237D01*
X94604819Y-53020237D02*
X94747676Y-53115475D01*
X94747676Y-53115475D02*
X94842914Y-53210713D01*
X94842914Y-53210713D02*
X94890533Y-53305951D01*
X95604819Y-51782142D02*
X95604819Y-52353570D01*
X95604819Y-52067856D02*
X94604819Y-52067856D01*
X94604819Y-52067856D02*
X94747676Y-52163094D01*
X94747676Y-52163094D02*
X94842914Y-52258332D01*
X94842914Y-52258332D02*
X94890533Y-52353570D01*
X133109580Y-85416666D02*
X133157200Y-85464285D01*
X133157200Y-85464285D02*
X133204819Y-85607142D01*
X133204819Y-85607142D02*
X133204819Y-85702380D01*
X133204819Y-85702380D02*
X133157200Y-85845237D01*
X133157200Y-85845237D02*
X133061961Y-85940475D01*
X133061961Y-85940475D02*
X132966723Y-85988094D01*
X132966723Y-85988094D02*
X132776247Y-86035713D01*
X132776247Y-86035713D02*
X132633390Y-86035713D01*
X132633390Y-86035713D02*
X132442914Y-85988094D01*
X132442914Y-85988094D02*
X132347676Y-85940475D01*
X132347676Y-85940475D02*
X132252438Y-85845237D01*
X132252438Y-85845237D02*
X132204819Y-85702380D01*
X132204819Y-85702380D02*
X132204819Y-85607142D01*
X132204819Y-85607142D02*
X132252438Y-85464285D01*
X132252438Y-85464285D02*
X132300057Y-85416666D01*
X132538152Y-84559523D02*
X133204819Y-84559523D01*
X132157200Y-84797618D02*
X132871485Y-85035713D01*
X132871485Y-85035713D02*
X132871485Y-84416666D01*
X105349523Y-60454819D02*
X104873333Y-60454819D01*
X104873333Y-60454819D02*
X104873333Y-59454819D01*
X105682857Y-60454819D02*
X105682857Y-59454819D01*
X105682857Y-59454819D02*
X106016190Y-60169104D01*
X106016190Y-60169104D02*
X106349523Y-59454819D01*
X106349523Y-59454819D02*
X106349523Y-60454819D01*
X106730476Y-59454819D02*
X107349523Y-59454819D01*
X107349523Y-59454819D02*
X107016190Y-59835771D01*
X107016190Y-59835771D02*
X107159047Y-59835771D01*
X107159047Y-59835771D02*
X107254285Y-59883390D01*
X107254285Y-59883390D02*
X107301904Y-59931009D01*
X107301904Y-59931009D02*
X107349523Y-60026247D01*
X107349523Y-60026247D02*
X107349523Y-60264342D01*
X107349523Y-60264342D02*
X107301904Y-60359580D01*
X107301904Y-60359580D02*
X107254285Y-60407200D01*
X107254285Y-60407200D02*
X107159047Y-60454819D01*
X107159047Y-60454819D02*
X106873333Y-60454819D01*
X106873333Y-60454819D02*
X106778095Y-60407200D01*
X106778095Y-60407200D02*
X106730476Y-60359580D01*
X108254285Y-59454819D02*
X107778095Y-59454819D01*
X107778095Y-59454819D02*
X107730476Y-59931009D01*
X107730476Y-59931009D02*
X107778095Y-59883390D01*
X107778095Y-59883390D02*
X107873333Y-59835771D01*
X107873333Y-59835771D02*
X108111428Y-59835771D01*
X108111428Y-59835771D02*
X108206666Y-59883390D01*
X108206666Y-59883390D02*
X108254285Y-59931009D01*
X108254285Y-59931009D02*
X108301904Y-60026247D01*
X108301904Y-60026247D02*
X108301904Y-60264342D01*
X108301904Y-60264342D02*
X108254285Y-60359580D01*
X108254285Y-60359580D02*
X108206666Y-60407200D01*
X108206666Y-60407200D02*
X108111428Y-60454819D01*
X108111428Y-60454819D02*
X107873333Y-60454819D01*
X107873333Y-60454819D02*
X107778095Y-60407200D01*
X107778095Y-60407200D02*
X107730476Y-60359580D01*
X108873333Y-59883390D02*
X108778095Y-59835771D01*
X108778095Y-59835771D02*
X108730476Y-59788152D01*
X108730476Y-59788152D02*
X108682857Y-59692914D01*
X108682857Y-59692914D02*
X108682857Y-59645295D01*
X108682857Y-59645295D02*
X108730476Y-59550057D01*
X108730476Y-59550057D02*
X108778095Y-59502438D01*
X108778095Y-59502438D02*
X108873333Y-59454819D01*
X108873333Y-59454819D02*
X109063809Y-59454819D01*
X109063809Y-59454819D02*
X109159047Y-59502438D01*
X109159047Y-59502438D02*
X109206666Y-59550057D01*
X109206666Y-59550057D02*
X109254285Y-59645295D01*
X109254285Y-59645295D02*
X109254285Y-59692914D01*
X109254285Y-59692914D02*
X109206666Y-59788152D01*
X109206666Y-59788152D02*
X109159047Y-59835771D01*
X109159047Y-59835771D02*
X109063809Y-59883390D01*
X109063809Y-59883390D02*
X108873333Y-59883390D01*
X108873333Y-59883390D02*
X108778095Y-59931009D01*
X108778095Y-59931009D02*
X108730476Y-59978628D01*
X108730476Y-59978628D02*
X108682857Y-60073866D01*
X108682857Y-60073866D02*
X108682857Y-60264342D01*
X108682857Y-60264342D02*
X108730476Y-60359580D01*
X108730476Y-60359580D02*
X108778095Y-60407200D01*
X108778095Y-60407200D02*
X108873333Y-60454819D01*
X108873333Y-60454819D02*
X109063809Y-60454819D01*
X109063809Y-60454819D02*
X109159047Y-60407200D01*
X109159047Y-60407200D02*
X109206666Y-60359580D01*
X109206666Y-60359580D02*
X109254285Y-60264342D01*
X109254285Y-60264342D02*
X109254285Y-60073866D01*
X109254285Y-60073866D02*
X109206666Y-59978628D01*
X109206666Y-59978628D02*
X109159047Y-59931009D01*
X109159047Y-59931009D02*
X109063809Y-59883390D01*
X125611428Y-99111009D02*
X125754285Y-99158628D01*
X125754285Y-99158628D02*
X125801904Y-99206247D01*
X125801904Y-99206247D02*
X125849523Y-99301485D01*
X125849523Y-99301485D02*
X125849523Y-99444342D01*
X125849523Y-99444342D02*
X125801904Y-99539580D01*
X125801904Y-99539580D02*
X125754285Y-99587200D01*
X125754285Y-99587200D02*
X125659047Y-99634819D01*
X125659047Y-99634819D02*
X125278095Y-99634819D01*
X125278095Y-99634819D02*
X125278095Y-98634819D01*
X125278095Y-98634819D02*
X125611428Y-98634819D01*
X125611428Y-98634819D02*
X125706666Y-98682438D01*
X125706666Y-98682438D02*
X125754285Y-98730057D01*
X125754285Y-98730057D02*
X125801904Y-98825295D01*
X125801904Y-98825295D02*
X125801904Y-98920533D01*
X125801904Y-98920533D02*
X125754285Y-99015771D01*
X125754285Y-99015771D02*
X125706666Y-99063390D01*
X125706666Y-99063390D02*
X125611428Y-99111009D01*
X125611428Y-99111009D02*
X125278095Y-99111009D01*
X126420952Y-99634819D02*
X126325714Y-99587200D01*
X126325714Y-99587200D02*
X126278095Y-99539580D01*
X126278095Y-99539580D02*
X126230476Y-99444342D01*
X126230476Y-99444342D02*
X126230476Y-99158628D01*
X126230476Y-99158628D02*
X126278095Y-99063390D01*
X126278095Y-99063390D02*
X126325714Y-99015771D01*
X126325714Y-99015771D02*
X126420952Y-98968152D01*
X126420952Y-98968152D02*
X126563809Y-98968152D01*
X126563809Y-98968152D02*
X126659047Y-99015771D01*
X126659047Y-99015771D02*
X126706666Y-99063390D01*
X126706666Y-99063390D02*
X126754285Y-99158628D01*
X126754285Y-99158628D02*
X126754285Y-99444342D01*
X126754285Y-99444342D02*
X126706666Y-99539580D01*
X126706666Y-99539580D02*
X126659047Y-99587200D01*
X126659047Y-99587200D02*
X126563809Y-99634819D01*
X126563809Y-99634819D02*
X126420952Y-99634819D01*
X127182857Y-99634819D02*
X127182857Y-98968152D01*
X127182857Y-99063390D02*
X127230476Y-99015771D01*
X127230476Y-99015771D02*
X127325714Y-98968152D01*
X127325714Y-98968152D02*
X127468571Y-98968152D01*
X127468571Y-98968152D02*
X127563809Y-99015771D01*
X127563809Y-99015771D02*
X127611428Y-99111009D01*
X127611428Y-99111009D02*
X127611428Y-99634819D01*
X127611428Y-99111009D02*
X127659047Y-99015771D01*
X127659047Y-99015771D02*
X127754285Y-98968152D01*
X127754285Y-98968152D02*
X127897142Y-98968152D01*
X127897142Y-98968152D02*
X127992381Y-99015771D01*
X127992381Y-99015771D02*
X128040000Y-99111009D01*
X128040000Y-99111009D02*
X128040000Y-99634819D01*
X128516190Y-99634819D02*
X128516190Y-98634819D01*
X128516190Y-99015771D02*
X128611428Y-98968152D01*
X128611428Y-98968152D02*
X128801904Y-98968152D01*
X128801904Y-98968152D02*
X128897142Y-99015771D01*
X128897142Y-99015771D02*
X128944761Y-99063390D01*
X128944761Y-99063390D02*
X128992380Y-99158628D01*
X128992380Y-99158628D02*
X128992380Y-99444342D01*
X128992380Y-99444342D02*
X128944761Y-99539580D01*
X128944761Y-99539580D02*
X128897142Y-99587200D01*
X128897142Y-99587200D02*
X128801904Y-99634819D01*
X128801904Y-99634819D02*
X128611428Y-99634819D01*
X128611428Y-99634819D02*
X128516190Y-99587200D01*
X129849523Y-99634819D02*
X129849523Y-99111009D01*
X129849523Y-99111009D02*
X129801904Y-99015771D01*
X129801904Y-99015771D02*
X129706666Y-98968152D01*
X129706666Y-98968152D02*
X129516190Y-98968152D01*
X129516190Y-98968152D02*
X129420952Y-99015771D01*
X129849523Y-99587200D02*
X129754285Y-99634819D01*
X129754285Y-99634819D02*
X129516190Y-99634819D01*
X129516190Y-99634819D02*
X129420952Y-99587200D01*
X129420952Y-99587200D02*
X129373333Y-99491961D01*
X129373333Y-99491961D02*
X129373333Y-99396723D01*
X129373333Y-99396723D02*
X129420952Y-99301485D01*
X129420952Y-99301485D02*
X129516190Y-99253866D01*
X129516190Y-99253866D02*
X129754285Y-99253866D01*
X129754285Y-99253866D02*
X129849523Y-99206247D01*
X130278095Y-98730057D02*
X130325714Y-98682438D01*
X130325714Y-98682438D02*
X130420952Y-98634819D01*
X130420952Y-98634819D02*
X130659047Y-98634819D01*
X130659047Y-98634819D02*
X130754285Y-98682438D01*
X130754285Y-98682438D02*
X130801904Y-98730057D01*
X130801904Y-98730057D02*
X130849523Y-98825295D01*
X130849523Y-98825295D02*
X130849523Y-98920533D01*
X130849523Y-98920533D02*
X130801904Y-99063390D01*
X130801904Y-99063390D02*
X130230476Y-99634819D01*
X130230476Y-99634819D02*
X130849523Y-99634819D01*
X87790699Y-91450057D02*
X87695461Y-91402438D01*
X87695461Y-91402438D02*
X87600223Y-91307200D01*
X87600223Y-91307200D02*
X87457366Y-91164342D01*
X87457366Y-91164342D02*
X87362128Y-91116723D01*
X87362128Y-91116723D02*
X87266890Y-91116723D01*
X87314509Y-91354819D02*
X87219271Y-91307200D01*
X87219271Y-91307200D02*
X87124033Y-91211961D01*
X87124033Y-91211961D02*
X87076414Y-91021485D01*
X87076414Y-91021485D02*
X87076414Y-90688152D01*
X87076414Y-90688152D02*
X87124033Y-90497676D01*
X87124033Y-90497676D02*
X87219271Y-90402438D01*
X87219271Y-90402438D02*
X87314509Y-90354819D01*
X87314509Y-90354819D02*
X87504985Y-90354819D01*
X87504985Y-90354819D02*
X87600223Y-90402438D01*
X87600223Y-90402438D02*
X87695461Y-90497676D01*
X87695461Y-90497676D02*
X87743080Y-90688152D01*
X87743080Y-90688152D02*
X87743080Y-91021485D01*
X87743080Y-91021485D02*
X87695461Y-91211961D01*
X87695461Y-91211961D02*
X87600223Y-91307200D01*
X87600223Y-91307200D02*
X87504985Y-91354819D01*
X87504985Y-91354819D02*
X87314509Y-91354819D01*
X88124033Y-90450057D02*
X88171652Y-90402438D01*
X88171652Y-90402438D02*
X88266890Y-90354819D01*
X88266890Y-90354819D02*
X88504985Y-90354819D01*
X88504985Y-90354819D02*
X88600223Y-90402438D01*
X88600223Y-90402438D02*
X88647842Y-90450057D01*
X88647842Y-90450057D02*
X88695461Y-90545295D01*
X88695461Y-90545295D02*
X88695461Y-90640533D01*
X88695461Y-90640533D02*
X88647842Y-90783390D01*
X88647842Y-90783390D02*
X88076414Y-91354819D01*
X88076414Y-91354819D02*
X88695461Y-91354819D01*
X148807319Y-74100238D02*
X148331128Y-74433571D01*
X148807319Y-74671666D02*
X147807319Y-74671666D01*
X147807319Y-74671666D02*
X147807319Y-74290714D01*
X147807319Y-74290714D02*
X147854938Y-74195476D01*
X147854938Y-74195476D02*
X147902557Y-74147857D01*
X147902557Y-74147857D02*
X147997795Y-74100238D01*
X147997795Y-74100238D02*
X148140652Y-74100238D01*
X148140652Y-74100238D02*
X148235890Y-74147857D01*
X148235890Y-74147857D02*
X148283509Y-74195476D01*
X148283509Y-74195476D02*
X148331128Y-74290714D01*
X148331128Y-74290714D02*
X148331128Y-74671666D01*
X148759700Y-73719285D02*
X148807319Y-73576428D01*
X148807319Y-73576428D02*
X148807319Y-73338333D01*
X148807319Y-73338333D02*
X148759700Y-73243095D01*
X148759700Y-73243095D02*
X148712080Y-73195476D01*
X148712080Y-73195476D02*
X148616842Y-73147857D01*
X148616842Y-73147857D02*
X148521604Y-73147857D01*
X148521604Y-73147857D02*
X148426366Y-73195476D01*
X148426366Y-73195476D02*
X148378747Y-73243095D01*
X148378747Y-73243095D02*
X148331128Y-73338333D01*
X148331128Y-73338333D02*
X148283509Y-73528809D01*
X148283509Y-73528809D02*
X148235890Y-73624047D01*
X148235890Y-73624047D02*
X148188271Y-73671666D01*
X148188271Y-73671666D02*
X148093033Y-73719285D01*
X148093033Y-73719285D02*
X147997795Y-73719285D01*
X147997795Y-73719285D02*
X147902557Y-73671666D01*
X147902557Y-73671666D02*
X147854938Y-73624047D01*
X147854938Y-73624047D02*
X147807319Y-73528809D01*
X147807319Y-73528809D02*
X147807319Y-73290714D01*
X147807319Y-73290714D02*
X147854938Y-73147857D01*
X148140652Y-72290714D02*
X148807319Y-72290714D01*
X147759700Y-72528809D02*
X148473985Y-72766904D01*
X148473985Y-72766904D02*
X148473985Y-72147857D01*
X148235890Y-71624047D02*
X148188271Y-71719285D01*
X148188271Y-71719285D02*
X148140652Y-71766904D01*
X148140652Y-71766904D02*
X148045414Y-71814523D01*
X148045414Y-71814523D02*
X147997795Y-71814523D01*
X147997795Y-71814523D02*
X147902557Y-71766904D01*
X147902557Y-71766904D02*
X147854938Y-71719285D01*
X147854938Y-71719285D02*
X147807319Y-71624047D01*
X147807319Y-71624047D02*
X147807319Y-71433571D01*
X147807319Y-71433571D02*
X147854938Y-71338333D01*
X147854938Y-71338333D02*
X147902557Y-71290714D01*
X147902557Y-71290714D02*
X147997795Y-71243095D01*
X147997795Y-71243095D02*
X148045414Y-71243095D01*
X148045414Y-71243095D02*
X148140652Y-71290714D01*
X148140652Y-71290714D02*
X148188271Y-71338333D01*
X148188271Y-71338333D02*
X148235890Y-71433571D01*
X148235890Y-71433571D02*
X148235890Y-71624047D01*
X148235890Y-71624047D02*
X148283509Y-71719285D01*
X148283509Y-71719285D02*
X148331128Y-71766904D01*
X148331128Y-71766904D02*
X148426366Y-71814523D01*
X148426366Y-71814523D02*
X148616842Y-71814523D01*
X148616842Y-71814523D02*
X148712080Y-71766904D01*
X148712080Y-71766904D02*
X148759700Y-71719285D01*
X148759700Y-71719285D02*
X148807319Y-71624047D01*
X148807319Y-71624047D02*
X148807319Y-71433571D01*
X148807319Y-71433571D02*
X148759700Y-71338333D01*
X148759700Y-71338333D02*
X148712080Y-71290714D01*
X148712080Y-71290714D02*
X148616842Y-71243095D01*
X148616842Y-71243095D02*
X148426366Y-71243095D01*
X148426366Y-71243095D02*
X148331128Y-71290714D01*
X148331128Y-71290714D02*
X148283509Y-71338333D01*
X148283509Y-71338333D02*
X148235890Y-71433571D01*
X147807319Y-70338333D02*
X147807319Y-70814523D01*
X147807319Y-70814523D02*
X148283509Y-70862142D01*
X148283509Y-70862142D02*
X148235890Y-70814523D01*
X148235890Y-70814523D02*
X148188271Y-70719285D01*
X148188271Y-70719285D02*
X148188271Y-70481190D01*
X148188271Y-70481190D02*
X148235890Y-70385952D01*
X148235890Y-70385952D02*
X148283509Y-70338333D01*
X148283509Y-70338333D02*
X148378747Y-70290714D01*
X148378747Y-70290714D02*
X148616842Y-70290714D01*
X148616842Y-70290714D02*
X148712080Y-70338333D01*
X148712080Y-70338333D02*
X148759700Y-70385952D01*
X148759700Y-70385952D02*
X148807319Y-70481190D01*
X148807319Y-70481190D02*
X148807319Y-70719285D01*
X148807319Y-70719285D02*
X148759700Y-70814523D01*
X148759700Y-70814523D02*
X148712080Y-70862142D01*
X144833333Y-60559580D02*
X144785714Y-60607200D01*
X144785714Y-60607200D02*
X144642857Y-60654819D01*
X144642857Y-60654819D02*
X144547619Y-60654819D01*
X144547619Y-60654819D02*
X144404762Y-60607200D01*
X144404762Y-60607200D02*
X144309524Y-60511961D01*
X144309524Y-60511961D02*
X144261905Y-60416723D01*
X144261905Y-60416723D02*
X144214286Y-60226247D01*
X144214286Y-60226247D02*
X144214286Y-60083390D01*
X144214286Y-60083390D02*
X144261905Y-59892914D01*
X144261905Y-59892914D02*
X144309524Y-59797676D01*
X144309524Y-59797676D02*
X144404762Y-59702438D01*
X144404762Y-59702438D02*
X144547619Y-59654819D01*
X144547619Y-59654819D02*
X144642857Y-59654819D01*
X144642857Y-59654819D02*
X144785714Y-59702438D01*
X144785714Y-59702438D02*
X144833333Y-59750057D01*
X145166667Y-59654819D02*
X145833333Y-59654819D01*
X145833333Y-59654819D02*
X145404762Y-60654819D01*
X133109580Y-80166666D02*
X133157200Y-80214285D01*
X133157200Y-80214285D02*
X133204819Y-80357142D01*
X133204819Y-80357142D02*
X133204819Y-80452380D01*
X133204819Y-80452380D02*
X133157200Y-80595237D01*
X133157200Y-80595237D02*
X133061961Y-80690475D01*
X133061961Y-80690475D02*
X132966723Y-80738094D01*
X132966723Y-80738094D02*
X132776247Y-80785713D01*
X132776247Y-80785713D02*
X132633390Y-80785713D01*
X132633390Y-80785713D02*
X132442914Y-80738094D01*
X132442914Y-80738094D02*
X132347676Y-80690475D01*
X132347676Y-80690475D02*
X132252438Y-80595237D01*
X132252438Y-80595237D02*
X132204819Y-80452380D01*
X132204819Y-80452380D02*
X132204819Y-80357142D01*
X132204819Y-80357142D02*
X132252438Y-80214285D01*
X132252438Y-80214285D02*
X132300057Y-80166666D01*
X133204819Y-79690475D02*
X133204819Y-79499999D01*
X133204819Y-79499999D02*
X133157200Y-79404761D01*
X133157200Y-79404761D02*
X133109580Y-79357142D01*
X133109580Y-79357142D02*
X132966723Y-79261904D01*
X132966723Y-79261904D02*
X132776247Y-79214285D01*
X132776247Y-79214285D02*
X132395295Y-79214285D01*
X132395295Y-79214285D02*
X132300057Y-79261904D01*
X132300057Y-79261904D02*
X132252438Y-79309523D01*
X132252438Y-79309523D02*
X132204819Y-79404761D01*
X132204819Y-79404761D02*
X132204819Y-79595237D01*
X132204819Y-79595237D02*
X132252438Y-79690475D01*
X132252438Y-79690475D02*
X132300057Y-79738094D01*
X132300057Y-79738094D02*
X132395295Y-79785713D01*
X132395295Y-79785713D02*
X132633390Y-79785713D01*
X132633390Y-79785713D02*
X132728628Y-79738094D01*
X132728628Y-79738094D02*
X132776247Y-79690475D01*
X132776247Y-79690475D02*
X132823866Y-79595237D01*
X132823866Y-79595237D02*
X132823866Y-79404761D01*
X132823866Y-79404761D02*
X132776247Y-79309523D01*
X132776247Y-79309523D02*
X132728628Y-79261904D01*
X132728628Y-79261904D02*
X132633390Y-79214285D01*
X157075476Y-103604819D02*
X157075476Y-104319104D01*
X157075476Y-104319104D02*
X157027857Y-104461961D01*
X157027857Y-104461961D02*
X156932619Y-104557200D01*
X156932619Y-104557200D02*
X156789762Y-104604819D01*
X156789762Y-104604819D02*
X156694524Y-104604819D01*
X158075476Y-104604819D02*
X157504048Y-104604819D01*
X157789762Y-104604819D02*
X157789762Y-103604819D01*
X157789762Y-103604819D02*
X157694524Y-103747676D01*
X157694524Y-103747676D02*
X157599286Y-103842914D01*
X157599286Y-103842914D02*
X157504048Y-103890533D01*
X158932619Y-103938152D02*
X158932619Y-104604819D01*
X158694524Y-103557200D02*
X158456429Y-104271485D01*
X158456429Y-104271485D02*
X159075476Y-104271485D01*
X99114761Y-91450057D02*
X99019523Y-91402438D01*
X99019523Y-91402438D02*
X98924285Y-91307200D01*
X98924285Y-91307200D02*
X98781428Y-91164342D01*
X98781428Y-91164342D02*
X98686190Y-91116723D01*
X98686190Y-91116723D02*
X98590952Y-91116723D01*
X98638571Y-91354819D02*
X98543333Y-91307200D01*
X98543333Y-91307200D02*
X98448095Y-91211961D01*
X98448095Y-91211961D02*
X98400476Y-91021485D01*
X98400476Y-91021485D02*
X98400476Y-90688152D01*
X98400476Y-90688152D02*
X98448095Y-90497676D01*
X98448095Y-90497676D02*
X98543333Y-90402438D01*
X98543333Y-90402438D02*
X98638571Y-90354819D01*
X98638571Y-90354819D02*
X98829047Y-90354819D01*
X98829047Y-90354819D02*
X98924285Y-90402438D01*
X98924285Y-90402438D02*
X99019523Y-90497676D01*
X99019523Y-90497676D02*
X99067142Y-90688152D01*
X99067142Y-90688152D02*
X99067142Y-91021485D01*
X99067142Y-91021485D02*
X99019523Y-91211961D01*
X99019523Y-91211961D02*
X98924285Y-91307200D01*
X98924285Y-91307200D02*
X98829047Y-91354819D01*
X98829047Y-91354819D02*
X98638571Y-91354819D01*
X99400476Y-90354819D02*
X100019523Y-90354819D01*
X100019523Y-90354819D02*
X99686190Y-90735771D01*
X99686190Y-90735771D02*
X99829047Y-90735771D01*
X99829047Y-90735771D02*
X99924285Y-90783390D01*
X99924285Y-90783390D02*
X99971904Y-90831009D01*
X99971904Y-90831009D02*
X100019523Y-90926247D01*
X100019523Y-90926247D02*
X100019523Y-91164342D01*
X100019523Y-91164342D02*
X99971904Y-91259580D01*
X99971904Y-91259580D02*
X99924285Y-91307200D01*
X99924285Y-91307200D02*
X99829047Y-91354819D01*
X99829047Y-91354819D02*
X99543333Y-91354819D01*
X99543333Y-91354819D02*
X99448095Y-91307200D01*
X99448095Y-91307200D02*
X99400476Y-91259580D01*
X98083333Y-60454819D02*
X97750000Y-59978628D01*
X97511905Y-60454819D02*
X97511905Y-59454819D01*
X97511905Y-59454819D02*
X97892857Y-59454819D01*
X97892857Y-59454819D02*
X97988095Y-59502438D01*
X97988095Y-59502438D02*
X98035714Y-59550057D01*
X98035714Y-59550057D02*
X98083333Y-59645295D01*
X98083333Y-59645295D02*
X98083333Y-59788152D01*
X98083333Y-59788152D02*
X98035714Y-59883390D01*
X98035714Y-59883390D02*
X97988095Y-59931009D01*
X97988095Y-59931009D02*
X97892857Y-59978628D01*
X97892857Y-59978628D02*
X97511905Y-59978628D01*
X98940476Y-59788152D02*
X98940476Y-60454819D01*
X98702381Y-59407200D02*
X98464286Y-60121485D01*
X98464286Y-60121485D02*
X99083333Y-60121485D01*
X150166666Y-102454819D02*
X150166666Y-103169104D01*
X150166666Y-103169104D02*
X150119047Y-103311961D01*
X150119047Y-103311961D02*
X150023809Y-103407200D01*
X150023809Y-103407200D02*
X149880952Y-103454819D01*
X149880952Y-103454819D02*
X149785714Y-103454819D01*
X150547619Y-102454819D02*
X151166666Y-102454819D01*
X151166666Y-102454819D02*
X150833333Y-102835771D01*
X150833333Y-102835771D02*
X150976190Y-102835771D01*
X150976190Y-102835771D02*
X151071428Y-102883390D01*
X151071428Y-102883390D02*
X151119047Y-102931009D01*
X151119047Y-102931009D02*
X151166666Y-103026247D01*
X151166666Y-103026247D02*
X151166666Y-103264342D01*
X151166666Y-103264342D02*
X151119047Y-103359580D01*
X151119047Y-103359580D02*
X151071428Y-103407200D01*
X151071428Y-103407200D02*
X150976190Y-103454819D01*
X150976190Y-103454819D02*
X150690476Y-103454819D01*
X150690476Y-103454819D02*
X150595238Y-103407200D01*
X150595238Y-103407200D02*
X150547619Y-103359580D01*
X74712320Y-99539580D02*
X74664701Y-99587200D01*
X74664701Y-99587200D02*
X74521844Y-99634819D01*
X74521844Y-99634819D02*
X74426606Y-99634819D01*
X74426606Y-99634819D02*
X74283749Y-99587200D01*
X74283749Y-99587200D02*
X74188511Y-99491961D01*
X74188511Y-99491961D02*
X74140892Y-99396723D01*
X74140892Y-99396723D02*
X74093273Y-99206247D01*
X74093273Y-99206247D02*
X74093273Y-99063390D01*
X74093273Y-99063390D02*
X74140892Y-98872914D01*
X74140892Y-98872914D02*
X74188511Y-98777676D01*
X74188511Y-98777676D02*
X74283749Y-98682438D01*
X74283749Y-98682438D02*
X74426606Y-98634819D01*
X74426606Y-98634819D02*
X74521844Y-98634819D01*
X74521844Y-98634819D02*
X74664701Y-98682438D01*
X74664701Y-98682438D02*
X74712320Y-98730057D01*
X75283749Y-99634819D02*
X75188511Y-99587200D01*
X75188511Y-99587200D02*
X75140892Y-99539580D01*
X75140892Y-99539580D02*
X75093273Y-99444342D01*
X75093273Y-99444342D02*
X75093273Y-99158628D01*
X75093273Y-99158628D02*
X75140892Y-99063390D01*
X75140892Y-99063390D02*
X75188511Y-99015771D01*
X75188511Y-99015771D02*
X75283749Y-98968152D01*
X75283749Y-98968152D02*
X75426606Y-98968152D01*
X75426606Y-98968152D02*
X75521844Y-99015771D01*
X75521844Y-99015771D02*
X75569463Y-99063390D01*
X75569463Y-99063390D02*
X75617082Y-99158628D01*
X75617082Y-99158628D02*
X75617082Y-99444342D01*
X75617082Y-99444342D02*
X75569463Y-99539580D01*
X75569463Y-99539580D02*
X75521844Y-99587200D01*
X75521844Y-99587200D02*
X75426606Y-99634819D01*
X75426606Y-99634819D02*
X75283749Y-99634819D01*
X76188511Y-99634819D02*
X76093273Y-99587200D01*
X76093273Y-99587200D02*
X76045654Y-99539580D01*
X76045654Y-99539580D02*
X75998035Y-99444342D01*
X75998035Y-99444342D02*
X75998035Y-99158628D01*
X75998035Y-99158628D02*
X76045654Y-99063390D01*
X76045654Y-99063390D02*
X76093273Y-99015771D01*
X76093273Y-99015771D02*
X76188511Y-98968152D01*
X76188511Y-98968152D02*
X76331368Y-98968152D01*
X76331368Y-98968152D02*
X76426606Y-99015771D01*
X76426606Y-99015771D02*
X76474225Y-99063390D01*
X76474225Y-99063390D02*
X76521844Y-99158628D01*
X76521844Y-99158628D02*
X76521844Y-99444342D01*
X76521844Y-99444342D02*
X76474225Y-99539580D01*
X76474225Y-99539580D02*
X76426606Y-99587200D01*
X76426606Y-99587200D02*
X76331368Y-99634819D01*
X76331368Y-99634819D02*
X76188511Y-99634819D01*
X77093273Y-99634819D02*
X76998035Y-99587200D01*
X76998035Y-99587200D02*
X76950416Y-99491961D01*
X76950416Y-99491961D02*
X76950416Y-98634819D01*
X77855178Y-99587200D02*
X77759940Y-99634819D01*
X77759940Y-99634819D02*
X77569464Y-99634819D01*
X77569464Y-99634819D02*
X77474226Y-99587200D01*
X77474226Y-99587200D02*
X77426607Y-99491961D01*
X77426607Y-99491961D02*
X77426607Y-99111009D01*
X77426607Y-99111009D02*
X77474226Y-99015771D01*
X77474226Y-99015771D02*
X77569464Y-98968152D01*
X77569464Y-98968152D02*
X77759940Y-98968152D01*
X77759940Y-98968152D02*
X77855178Y-99015771D01*
X77855178Y-99015771D02*
X77902797Y-99111009D01*
X77902797Y-99111009D02*
X77902797Y-99206247D01*
X77902797Y-99206247D02*
X77426607Y-99301485D01*
X78331369Y-99634819D02*
X78331369Y-98968152D01*
X78331369Y-99158628D02*
X78378988Y-99063390D01*
X78378988Y-99063390D02*
X78426607Y-99015771D01*
X78426607Y-99015771D02*
X78521845Y-98968152D01*
X78521845Y-98968152D02*
X78617083Y-98968152D01*
X79474226Y-99634819D02*
X78902798Y-99634819D01*
X79188512Y-99634819D02*
X79188512Y-98634819D01*
X79188512Y-98634819D02*
X79093274Y-98777676D01*
X79093274Y-98777676D02*
X78998036Y-98872914D01*
X78998036Y-98872914D02*
X78902798Y-98920533D01*
X157551666Y-90124819D02*
X157551666Y-90839104D01*
X157551666Y-90839104D02*
X157504047Y-90981961D01*
X157504047Y-90981961D02*
X157408809Y-91077200D01*
X157408809Y-91077200D02*
X157265952Y-91124819D01*
X157265952Y-91124819D02*
X157170714Y-91124819D01*
X158504047Y-90124819D02*
X158027857Y-90124819D01*
X158027857Y-90124819D02*
X157980238Y-90601009D01*
X157980238Y-90601009D02*
X158027857Y-90553390D01*
X158027857Y-90553390D02*
X158123095Y-90505771D01*
X158123095Y-90505771D02*
X158361190Y-90505771D01*
X158361190Y-90505771D02*
X158456428Y-90553390D01*
X158456428Y-90553390D02*
X158504047Y-90601009D01*
X158504047Y-90601009D02*
X158551666Y-90696247D01*
X158551666Y-90696247D02*
X158551666Y-90934342D01*
X158551666Y-90934342D02*
X158504047Y-91029580D01*
X158504047Y-91029580D02*
X158456428Y-91077200D01*
X158456428Y-91077200D02*
X158361190Y-91124819D01*
X158361190Y-91124819D02*
X158123095Y-91124819D01*
X158123095Y-91124819D02*
X158027857Y-91077200D01*
X158027857Y-91077200D02*
X157980238Y-91029580D01*
X114833333Y-60514819D02*
X114500000Y-60038628D01*
X114261905Y-60514819D02*
X114261905Y-59514819D01*
X114261905Y-59514819D02*
X114642857Y-59514819D01*
X114642857Y-59514819D02*
X114738095Y-59562438D01*
X114738095Y-59562438D02*
X114785714Y-59610057D01*
X114785714Y-59610057D02*
X114833333Y-59705295D01*
X114833333Y-59705295D02*
X114833333Y-59848152D01*
X114833333Y-59848152D02*
X114785714Y-59943390D01*
X114785714Y-59943390D02*
X114738095Y-59991009D01*
X114738095Y-59991009D02*
X114642857Y-60038628D01*
X114642857Y-60038628D02*
X114261905Y-60038628D01*
X115309524Y-60514819D02*
X115500000Y-60514819D01*
X115500000Y-60514819D02*
X115595238Y-60467200D01*
X115595238Y-60467200D02*
X115642857Y-60419580D01*
X115642857Y-60419580D02*
X115738095Y-60276723D01*
X115738095Y-60276723D02*
X115785714Y-60086247D01*
X115785714Y-60086247D02*
X115785714Y-59705295D01*
X115785714Y-59705295D02*
X115738095Y-59610057D01*
X115738095Y-59610057D02*
X115690476Y-59562438D01*
X115690476Y-59562438D02*
X115595238Y-59514819D01*
X115595238Y-59514819D02*
X115404762Y-59514819D01*
X115404762Y-59514819D02*
X115309524Y-59562438D01*
X115309524Y-59562438D02*
X115261905Y-59610057D01*
X115261905Y-59610057D02*
X115214286Y-59705295D01*
X115214286Y-59705295D02*
X115214286Y-59943390D01*
X115214286Y-59943390D02*
X115261905Y-60038628D01*
X115261905Y-60038628D02*
X115309524Y-60086247D01*
X115309524Y-60086247D02*
X115404762Y-60133866D01*
X115404762Y-60133866D02*
X115595238Y-60133866D01*
X115595238Y-60133866D02*
X115690476Y-60086247D01*
X115690476Y-60086247D02*
X115738095Y-60038628D01*
X115738095Y-60038628D02*
X115785714Y-59943390D01*
X135570476Y-85704819D02*
X135570476Y-84704819D01*
X136618094Y-85609580D02*
X136570475Y-85657200D01*
X136570475Y-85657200D02*
X136427618Y-85704819D01*
X136427618Y-85704819D02*
X136332380Y-85704819D01*
X136332380Y-85704819D02*
X136189523Y-85657200D01*
X136189523Y-85657200D02*
X136094285Y-85561961D01*
X136094285Y-85561961D02*
X136046666Y-85466723D01*
X136046666Y-85466723D02*
X135999047Y-85276247D01*
X135999047Y-85276247D02*
X135999047Y-85133390D01*
X135999047Y-85133390D02*
X136046666Y-84942914D01*
X136046666Y-84942914D02*
X136094285Y-84847676D01*
X136094285Y-84847676D02*
X136189523Y-84752438D01*
X136189523Y-84752438D02*
X136332380Y-84704819D01*
X136332380Y-84704819D02*
X136427618Y-84704819D01*
X136427618Y-84704819D02*
X136570475Y-84752438D01*
X136570475Y-84752438D02*
X136618094Y-84800057D01*
X137522856Y-85704819D02*
X137046666Y-85704819D01*
X137046666Y-85704819D02*
X137046666Y-84704819D01*
X137760952Y-84704819D02*
X138427618Y-84704819D01*
X138427618Y-84704819D02*
X137999047Y-85704819D01*
X139237142Y-84704819D02*
X139046666Y-84704819D01*
X139046666Y-84704819D02*
X138951428Y-84752438D01*
X138951428Y-84752438D02*
X138903809Y-84800057D01*
X138903809Y-84800057D02*
X138808571Y-84942914D01*
X138808571Y-84942914D02*
X138760952Y-85133390D01*
X138760952Y-85133390D02*
X138760952Y-85514342D01*
X138760952Y-85514342D02*
X138808571Y-85609580D01*
X138808571Y-85609580D02*
X138856190Y-85657200D01*
X138856190Y-85657200D02*
X138951428Y-85704819D01*
X138951428Y-85704819D02*
X139141904Y-85704819D01*
X139141904Y-85704819D02*
X139237142Y-85657200D01*
X139237142Y-85657200D02*
X139284761Y-85609580D01*
X139284761Y-85609580D02*
X139332380Y-85514342D01*
X139332380Y-85514342D02*
X139332380Y-85276247D01*
X139332380Y-85276247D02*
X139284761Y-85181009D01*
X139284761Y-85181009D02*
X139237142Y-85133390D01*
X139237142Y-85133390D02*
X139141904Y-85085771D01*
X139141904Y-85085771D02*
X138951428Y-85085771D01*
X138951428Y-85085771D02*
X138856190Y-85133390D01*
X138856190Y-85133390D02*
X138808571Y-85181009D01*
X138808571Y-85181009D02*
X138760952Y-85276247D01*
X140189523Y-84704819D02*
X139999047Y-84704819D01*
X139999047Y-84704819D02*
X139903809Y-84752438D01*
X139903809Y-84752438D02*
X139856190Y-84800057D01*
X139856190Y-84800057D02*
X139760952Y-84942914D01*
X139760952Y-84942914D02*
X139713333Y-85133390D01*
X139713333Y-85133390D02*
X139713333Y-85514342D01*
X139713333Y-85514342D02*
X139760952Y-85609580D01*
X139760952Y-85609580D02*
X139808571Y-85657200D01*
X139808571Y-85657200D02*
X139903809Y-85704819D01*
X139903809Y-85704819D02*
X140094285Y-85704819D01*
X140094285Y-85704819D02*
X140189523Y-85657200D01*
X140189523Y-85657200D02*
X140237142Y-85609580D01*
X140237142Y-85609580D02*
X140284761Y-85514342D01*
X140284761Y-85514342D02*
X140284761Y-85276247D01*
X140284761Y-85276247D02*
X140237142Y-85181009D01*
X140237142Y-85181009D02*
X140189523Y-85133390D01*
X140189523Y-85133390D02*
X140094285Y-85085771D01*
X140094285Y-85085771D02*
X139903809Y-85085771D01*
X139903809Y-85085771D02*
X139808571Y-85133390D01*
X139808571Y-85133390D02*
X139760952Y-85181009D01*
X139760952Y-85181009D02*
X139713333Y-85276247D01*
X140903809Y-84704819D02*
X140999047Y-84704819D01*
X140999047Y-84704819D02*
X141094285Y-84752438D01*
X141094285Y-84752438D02*
X141141904Y-84800057D01*
X141141904Y-84800057D02*
X141189523Y-84895295D01*
X141189523Y-84895295D02*
X141237142Y-85085771D01*
X141237142Y-85085771D02*
X141237142Y-85323866D01*
X141237142Y-85323866D02*
X141189523Y-85514342D01*
X141189523Y-85514342D02*
X141141904Y-85609580D01*
X141141904Y-85609580D02*
X141094285Y-85657200D01*
X141094285Y-85657200D02*
X140999047Y-85704819D01*
X140999047Y-85704819D02*
X140903809Y-85704819D01*
X140903809Y-85704819D02*
X140808571Y-85657200D01*
X140808571Y-85657200D02*
X140760952Y-85609580D01*
X140760952Y-85609580D02*
X140713333Y-85514342D01*
X140713333Y-85514342D02*
X140665714Y-85323866D01*
X140665714Y-85323866D02*
X140665714Y-85085771D01*
X140665714Y-85085771D02*
X140713333Y-84895295D01*
X140713333Y-84895295D02*
X140760952Y-84800057D01*
X140760952Y-84800057D02*
X140808571Y-84752438D01*
X140808571Y-84752438D02*
X140903809Y-84704819D01*
X81009104Y-81084285D02*
X81009104Y-80608095D01*
X81294819Y-81179523D02*
X80294819Y-80846190D01*
X80294819Y-80846190D02*
X81294819Y-80512857D01*
X81294819Y-79655714D02*
X81294819Y-80227142D01*
X81294819Y-79941428D02*
X80294819Y-79941428D01*
X80294819Y-79941428D02*
X80437676Y-80036666D01*
X80437676Y-80036666D02*
X80532914Y-80131904D01*
X80532914Y-80131904D02*
X80580533Y-80227142D01*
X120934819Y-81631904D02*
X121744342Y-81631904D01*
X121744342Y-81631904D02*
X121839580Y-81584285D01*
X121839580Y-81584285D02*
X121887200Y-81536666D01*
X121887200Y-81536666D02*
X121934819Y-81441428D01*
X121934819Y-81441428D02*
X121934819Y-81250952D01*
X121934819Y-81250952D02*
X121887200Y-81155714D01*
X121887200Y-81155714D02*
X121839580Y-81108095D01*
X121839580Y-81108095D02*
X121744342Y-81060476D01*
X121744342Y-81060476D02*
X120934819Y-81060476D01*
X121887200Y-80631904D02*
X121934819Y-80489047D01*
X121934819Y-80489047D02*
X121934819Y-80250952D01*
X121934819Y-80250952D02*
X121887200Y-80155714D01*
X121887200Y-80155714D02*
X121839580Y-80108095D01*
X121839580Y-80108095D02*
X121744342Y-80060476D01*
X121744342Y-80060476D02*
X121649104Y-80060476D01*
X121649104Y-80060476D02*
X121553866Y-80108095D01*
X121553866Y-80108095D02*
X121506247Y-80155714D01*
X121506247Y-80155714D02*
X121458628Y-80250952D01*
X121458628Y-80250952D02*
X121411009Y-80441428D01*
X121411009Y-80441428D02*
X121363390Y-80536666D01*
X121363390Y-80536666D02*
X121315771Y-80584285D01*
X121315771Y-80584285D02*
X121220533Y-80631904D01*
X121220533Y-80631904D02*
X121125295Y-80631904D01*
X121125295Y-80631904D02*
X121030057Y-80584285D01*
X121030057Y-80584285D02*
X120982438Y-80536666D01*
X120982438Y-80536666D02*
X120934819Y-80441428D01*
X120934819Y-80441428D02*
X120934819Y-80203333D01*
X120934819Y-80203333D02*
X120982438Y-80060476D01*
X121411009Y-79298571D02*
X121458628Y-79155714D01*
X121458628Y-79155714D02*
X121506247Y-79108095D01*
X121506247Y-79108095D02*
X121601485Y-79060476D01*
X121601485Y-79060476D02*
X121744342Y-79060476D01*
X121744342Y-79060476D02*
X121839580Y-79108095D01*
X121839580Y-79108095D02*
X121887200Y-79155714D01*
X121887200Y-79155714D02*
X121934819Y-79250952D01*
X121934819Y-79250952D02*
X121934819Y-79631904D01*
X121934819Y-79631904D02*
X120934819Y-79631904D01*
X120934819Y-79631904D02*
X120934819Y-79298571D01*
X120934819Y-79298571D02*
X120982438Y-79203333D01*
X120982438Y-79203333D02*
X121030057Y-79155714D01*
X121030057Y-79155714D02*
X121125295Y-79108095D01*
X121125295Y-79108095D02*
X121220533Y-79108095D01*
X121220533Y-79108095D02*
X121315771Y-79155714D01*
X121315771Y-79155714D02*
X121363390Y-79203333D01*
X121363390Y-79203333D02*
X121411009Y-79298571D01*
X121411009Y-79298571D02*
X121411009Y-79631904D01*
X147794819Y-61506904D02*
X148604342Y-61506904D01*
X148604342Y-61506904D02*
X148699580Y-61459285D01*
X148699580Y-61459285D02*
X148747200Y-61411666D01*
X148747200Y-61411666D02*
X148794819Y-61316428D01*
X148794819Y-61316428D02*
X148794819Y-61125952D01*
X148794819Y-61125952D02*
X148747200Y-61030714D01*
X148747200Y-61030714D02*
X148699580Y-60983095D01*
X148699580Y-60983095D02*
X148604342Y-60935476D01*
X148604342Y-60935476D02*
X147794819Y-60935476D01*
X147890057Y-60506904D02*
X147842438Y-60459285D01*
X147842438Y-60459285D02*
X147794819Y-60364047D01*
X147794819Y-60364047D02*
X147794819Y-60125952D01*
X147794819Y-60125952D02*
X147842438Y-60030714D01*
X147842438Y-60030714D02*
X147890057Y-59983095D01*
X147890057Y-59983095D02*
X147985295Y-59935476D01*
X147985295Y-59935476D02*
X148080533Y-59935476D01*
X148080533Y-59935476D02*
X148223390Y-59983095D01*
X148223390Y-59983095D02*
X148794819Y-60554523D01*
X148794819Y-60554523D02*
X148794819Y-59935476D01*
X133109580Y-90666666D02*
X133157200Y-90714285D01*
X133157200Y-90714285D02*
X133204819Y-90857142D01*
X133204819Y-90857142D02*
X133204819Y-90952380D01*
X133204819Y-90952380D02*
X133157200Y-91095237D01*
X133157200Y-91095237D02*
X133061961Y-91190475D01*
X133061961Y-91190475D02*
X132966723Y-91238094D01*
X132966723Y-91238094D02*
X132776247Y-91285713D01*
X132776247Y-91285713D02*
X132633390Y-91285713D01*
X132633390Y-91285713D02*
X132442914Y-91238094D01*
X132442914Y-91238094D02*
X132347676Y-91190475D01*
X132347676Y-91190475D02*
X132252438Y-91095237D01*
X132252438Y-91095237D02*
X132204819Y-90952380D01*
X132204819Y-90952380D02*
X132204819Y-90857142D01*
X132204819Y-90857142D02*
X132252438Y-90714285D01*
X132252438Y-90714285D02*
X132300057Y-90666666D01*
X132204819Y-89761904D02*
X132204819Y-90238094D01*
X132204819Y-90238094D02*
X132681009Y-90285713D01*
X132681009Y-90285713D02*
X132633390Y-90238094D01*
X132633390Y-90238094D02*
X132585771Y-90142856D01*
X132585771Y-90142856D02*
X132585771Y-89904761D01*
X132585771Y-89904761D02*
X132633390Y-89809523D01*
X132633390Y-89809523D02*
X132681009Y-89761904D01*
X132681009Y-89761904D02*
X132776247Y-89714285D01*
X132776247Y-89714285D02*
X133014342Y-89714285D01*
X133014342Y-89714285D02*
X133109580Y-89761904D01*
X133109580Y-89761904D02*
X133157200Y-89809523D01*
X133157200Y-89809523D02*
X133204819Y-89904761D01*
X133204819Y-89904761D02*
X133204819Y-90142856D01*
X133204819Y-90142856D02*
X133157200Y-90238094D01*
X133157200Y-90238094D02*
X133109580Y-90285713D01*
X76466636Y-91450057D02*
X76371398Y-91402438D01*
X76371398Y-91402438D02*
X76276160Y-91307200D01*
X76276160Y-91307200D02*
X76133303Y-91164342D01*
X76133303Y-91164342D02*
X76038065Y-91116723D01*
X76038065Y-91116723D02*
X75942827Y-91116723D01*
X75990446Y-91354819D02*
X75895208Y-91307200D01*
X75895208Y-91307200D02*
X75799970Y-91211961D01*
X75799970Y-91211961D02*
X75752351Y-91021485D01*
X75752351Y-91021485D02*
X75752351Y-90688152D01*
X75752351Y-90688152D02*
X75799970Y-90497676D01*
X75799970Y-90497676D02*
X75895208Y-90402438D01*
X75895208Y-90402438D02*
X75990446Y-90354819D01*
X75990446Y-90354819D02*
X76180922Y-90354819D01*
X76180922Y-90354819D02*
X76276160Y-90402438D01*
X76276160Y-90402438D02*
X76371398Y-90497676D01*
X76371398Y-90497676D02*
X76419017Y-90688152D01*
X76419017Y-90688152D02*
X76419017Y-91021485D01*
X76419017Y-91021485D02*
X76371398Y-91211961D01*
X76371398Y-91211961D02*
X76276160Y-91307200D01*
X76276160Y-91307200D02*
X76180922Y-91354819D01*
X76180922Y-91354819D02*
X75990446Y-91354819D01*
X77371398Y-91354819D02*
X76799970Y-91354819D01*
X77085684Y-91354819D02*
X77085684Y-90354819D01*
X77085684Y-90354819D02*
X76990446Y-90497676D01*
X76990446Y-90497676D02*
X76895208Y-90592914D01*
X76895208Y-90592914D02*
X76799970Y-90640533D01*
X70024819Y-71186190D02*
X69024819Y-71186190D01*
X69024819Y-71186190D02*
X69024819Y-70805238D01*
X69024819Y-70805238D02*
X69072438Y-70710000D01*
X69072438Y-70710000D02*
X69120057Y-70662381D01*
X69120057Y-70662381D02*
X69215295Y-70614762D01*
X69215295Y-70614762D02*
X69358152Y-70614762D01*
X69358152Y-70614762D02*
X69453390Y-70662381D01*
X69453390Y-70662381D02*
X69501009Y-70710000D01*
X69501009Y-70710000D02*
X69548628Y-70805238D01*
X69548628Y-70805238D02*
X69548628Y-71186190D01*
X70024819Y-70043333D02*
X69977200Y-70138571D01*
X69977200Y-70138571D02*
X69929580Y-70186190D01*
X69929580Y-70186190D02*
X69834342Y-70233809D01*
X69834342Y-70233809D02*
X69548628Y-70233809D01*
X69548628Y-70233809D02*
X69453390Y-70186190D01*
X69453390Y-70186190D02*
X69405771Y-70138571D01*
X69405771Y-70138571D02*
X69358152Y-70043333D01*
X69358152Y-70043333D02*
X69358152Y-69900476D01*
X69358152Y-69900476D02*
X69405771Y-69805238D01*
X69405771Y-69805238D02*
X69453390Y-69757619D01*
X69453390Y-69757619D02*
X69548628Y-69710000D01*
X69548628Y-69710000D02*
X69834342Y-69710000D01*
X69834342Y-69710000D02*
X69929580Y-69757619D01*
X69929580Y-69757619D02*
X69977200Y-69805238D01*
X69977200Y-69805238D02*
X70024819Y-69900476D01*
X70024819Y-69900476D02*
X70024819Y-70043333D01*
X69358152Y-69376666D02*
X70024819Y-69186190D01*
X70024819Y-69186190D02*
X69548628Y-68995714D01*
X69548628Y-68995714D02*
X70024819Y-68805238D01*
X70024819Y-68805238D02*
X69358152Y-68614762D01*
X69977200Y-67852857D02*
X70024819Y-67948095D01*
X70024819Y-67948095D02*
X70024819Y-68138571D01*
X70024819Y-68138571D02*
X69977200Y-68233809D01*
X69977200Y-68233809D02*
X69881961Y-68281428D01*
X69881961Y-68281428D02*
X69501009Y-68281428D01*
X69501009Y-68281428D02*
X69405771Y-68233809D01*
X69405771Y-68233809D02*
X69358152Y-68138571D01*
X69358152Y-68138571D02*
X69358152Y-67948095D01*
X69358152Y-67948095D02*
X69405771Y-67852857D01*
X69405771Y-67852857D02*
X69501009Y-67805238D01*
X69501009Y-67805238D02*
X69596247Y-67805238D01*
X69596247Y-67805238D02*
X69691485Y-68281428D01*
X70024819Y-67376666D02*
X69358152Y-67376666D01*
X69548628Y-67376666D02*
X69453390Y-67329047D01*
X69453390Y-67329047D02*
X69405771Y-67281428D01*
X69405771Y-67281428D02*
X69358152Y-67186190D01*
X69358152Y-67186190D02*
X69358152Y-67090952D01*
X69977200Y-66805237D02*
X70024819Y-66662380D01*
X70024819Y-66662380D02*
X70024819Y-66424285D01*
X70024819Y-66424285D02*
X69977200Y-66329047D01*
X69977200Y-66329047D02*
X69929580Y-66281428D01*
X69929580Y-66281428D02*
X69834342Y-66233809D01*
X69834342Y-66233809D02*
X69739104Y-66233809D01*
X69739104Y-66233809D02*
X69643866Y-66281428D01*
X69643866Y-66281428D02*
X69596247Y-66329047D01*
X69596247Y-66329047D02*
X69548628Y-66424285D01*
X69548628Y-66424285D02*
X69501009Y-66614761D01*
X69501009Y-66614761D02*
X69453390Y-66709999D01*
X69453390Y-66709999D02*
X69405771Y-66757618D01*
X69405771Y-66757618D02*
X69310533Y-66805237D01*
X69310533Y-66805237D02*
X69215295Y-66805237D01*
X69215295Y-66805237D02*
X69120057Y-66757618D01*
X69120057Y-66757618D02*
X69072438Y-66709999D01*
X69072438Y-66709999D02*
X69024819Y-66614761D01*
X69024819Y-66614761D02*
X69024819Y-66376666D01*
X69024819Y-66376666D02*
X69072438Y-66233809D01*
X69358152Y-65376666D02*
X70024819Y-65376666D01*
X69358152Y-65805237D02*
X69881961Y-65805237D01*
X69881961Y-65805237D02*
X69977200Y-65757618D01*
X69977200Y-65757618D02*
X70024819Y-65662380D01*
X70024819Y-65662380D02*
X70024819Y-65519523D01*
X70024819Y-65519523D02*
X69977200Y-65424285D01*
X69977200Y-65424285D02*
X69929580Y-65376666D01*
X69358152Y-64900475D02*
X70358152Y-64900475D01*
X69405771Y-64900475D02*
X69358152Y-64805237D01*
X69358152Y-64805237D02*
X69358152Y-64614761D01*
X69358152Y-64614761D02*
X69405771Y-64519523D01*
X69405771Y-64519523D02*
X69453390Y-64471904D01*
X69453390Y-64471904D02*
X69548628Y-64424285D01*
X69548628Y-64424285D02*
X69834342Y-64424285D01*
X69834342Y-64424285D02*
X69929580Y-64471904D01*
X69929580Y-64471904D02*
X69977200Y-64519523D01*
X69977200Y-64519523D02*
X70024819Y-64614761D01*
X70024819Y-64614761D02*
X70024819Y-64805237D01*
X70024819Y-64805237D02*
X69977200Y-64900475D01*
X70024819Y-63852856D02*
X69977200Y-63948094D01*
X69977200Y-63948094D02*
X69881961Y-63995713D01*
X69881961Y-63995713D02*
X69024819Y-63995713D01*
X69358152Y-63567141D02*
X70024819Y-63329046D01*
X69358152Y-63090951D02*
X70024819Y-63329046D01*
X70024819Y-63329046D02*
X70262914Y-63424284D01*
X70262914Y-63424284D02*
X70310533Y-63471903D01*
X70310533Y-63471903D02*
X70358152Y-63567141D01*
X70024819Y-62186189D02*
X70024819Y-62757617D01*
X70024819Y-62471903D02*
X69024819Y-62471903D01*
X69024819Y-62471903D02*
X69167676Y-62567141D01*
X69167676Y-62567141D02*
X69262914Y-62662379D01*
X69262914Y-62662379D02*
X69310533Y-62757617D01*
X128083333Y-60514819D02*
X127750000Y-60038628D01*
X127511905Y-60514819D02*
X127511905Y-59514819D01*
X127511905Y-59514819D02*
X127892857Y-59514819D01*
X127892857Y-59514819D02*
X127988095Y-59562438D01*
X127988095Y-59562438D02*
X128035714Y-59610057D01*
X128035714Y-59610057D02*
X128083333Y-59705295D01*
X128083333Y-59705295D02*
X128083333Y-59848152D01*
X128083333Y-59848152D02*
X128035714Y-59943390D01*
X128035714Y-59943390D02*
X127988095Y-59991009D01*
X127988095Y-59991009D02*
X127892857Y-60038628D01*
X127892857Y-60038628D02*
X127511905Y-60038628D01*
X128654762Y-59943390D02*
X128559524Y-59895771D01*
X128559524Y-59895771D02*
X128511905Y-59848152D01*
X128511905Y-59848152D02*
X128464286Y-59752914D01*
X128464286Y-59752914D02*
X128464286Y-59705295D01*
X128464286Y-59705295D02*
X128511905Y-59610057D01*
X128511905Y-59610057D02*
X128559524Y-59562438D01*
X128559524Y-59562438D02*
X128654762Y-59514819D01*
X128654762Y-59514819D02*
X128845238Y-59514819D01*
X128845238Y-59514819D02*
X128940476Y-59562438D01*
X128940476Y-59562438D02*
X128988095Y-59610057D01*
X128988095Y-59610057D02*
X129035714Y-59705295D01*
X129035714Y-59705295D02*
X129035714Y-59752914D01*
X129035714Y-59752914D02*
X128988095Y-59848152D01*
X128988095Y-59848152D02*
X128940476Y-59895771D01*
X128940476Y-59895771D02*
X128845238Y-59943390D01*
X128845238Y-59943390D02*
X128654762Y-59943390D01*
X128654762Y-59943390D02*
X128559524Y-59991009D01*
X128559524Y-59991009D02*
X128511905Y-60038628D01*
X128511905Y-60038628D02*
X128464286Y-60133866D01*
X128464286Y-60133866D02*
X128464286Y-60324342D01*
X128464286Y-60324342D02*
X128511905Y-60419580D01*
X128511905Y-60419580D02*
X128559524Y-60467200D01*
X128559524Y-60467200D02*
X128654762Y-60514819D01*
X128654762Y-60514819D02*
X128845238Y-60514819D01*
X128845238Y-60514819D02*
X128940476Y-60467200D01*
X128940476Y-60467200D02*
X128988095Y-60419580D01*
X128988095Y-60419580D02*
X129035714Y-60324342D01*
X129035714Y-60324342D02*
X129035714Y-60133866D01*
X129035714Y-60133866D02*
X128988095Y-60038628D01*
X128988095Y-60038628D02*
X128940476Y-59991009D01*
X128940476Y-59991009D02*
X128845238Y-59943390D01*
X58109819Y-53258333D02*
X58824104Y-53258333D01*
X58824104Y-53258333D02*
X58966961Y-53305952D01*
X58966961Y-53305952D02*
X59062200Y-53401190D01*
X59062200Y-53401190D02*
X59109819Y-53544047D01*
X59109819Y-53544047D02*
X59109819Y-53639285D01*
X58109819Y-52877380D02*
X58109819Y-52210714D01*
X58109819Y-52210714D02*
X59109819Y-52639285D01*
%TO.C,J2*%
D11*
X135070000Y-106577358D02*
X135070000Y-106890000D01*
X135070000Y-115650000D02*
X135070000Y-109650000D01*
X135930000Y-106577358D02*
X135930000Y-106890000D01*
X135930000Y-109650000D02*
X135930000Y-115650000D01*
X135930000Y-115650000D02*
X135070000Y-115650000D01*
X136770000Y-106890000D02*
X136770000Y-109650000D01*
X137610000Y-106577358D02*
X137610000Y-106890000D01*
X137610000Y-115650000D02*
X137610000Y-109650000D01*
X138470000Y-106577358D02*
X138470000Y-106890000D01*
X138470000Y-109650000D02*
X138470000Y-115650000D01*
X138470000Y-115650000D02*
X137610000Y-115650000D01*
X139310000Y-106890000D02*
X139310000Y-109650000D01*
X140150000Y-106660000D02*
X140150000Y-106890000D01*
X140580000Y-104230000D02*
X141850000Y-104230000D01*
X141010000Y-106660000D02*
X141010000Y-106890000D01*
X141850000Y-104230000D02*
X141850000Y-105500000D01*
X140150000Y-109650000D02*
X141010000Y-109650000D01*
X141010000Y-115650000D01*
X140150000Y-115650000D01*
X140150000Y-109650000D01*
G36*
X140150000Y-109650000D02*
G01*
X141010000Y-109650000D01*
X141010000Y-115650000D01*
X140150000Y-115650000D01*
X140150000Y-109650000D01*
G37*
X134120000Y-106890000D02*
X141960000Y-106890000D01*
X141960000Y-109650000D01*
X134120000Y-109650000D01*
X134120000Y-106890000D01*
%TO.C,C8*%
X130080000Y-75515000D02*
X130080000Y-73985000D01*
X131920000Y-73985000D02*
X131920000Y-75515000D01*
%TO.C,J6*%
X68610000Y-58580000D02*
X68610000Y-57310000D01*
X69450000Y-56150000D02*
X69450000Y-55920000D01*
X69880000Y-58580000D02*
X68610000Y-58580000D01*
X70310000Y-56150000D02*
X70310000Y-55920000D01*
X71150000Y-55920000D02*
X71150000Y-53160000D01*
X71990000Y-47160000D02*
X72850000Y-47160000D01*
X71990000Y-53160000D02*
X71990000Y-47160000D01*
X71990000Y-56232642D02*
X71990000Y-55920000D01*
X72850000Y-47160000D02*
X72850000Y-53160000D01*
X72850000Y-56232642D02*
X72850000Y-55920000D01*
X68500000Y-53160000D02*
X73800000Y-53160000D01*
X73800000Y-55920000D01*
X68500000Y-55920000D01*
X68500000Y-53160000D01*
X69450000Y-47160000D02*
X70310000Y-47160000D01*
X70310000Y-53160000D01*
X69450000Y-53160000D01*
X69450000Y-47160000D01*
G36*
X69450000Y-47160000D02*
G01*
X70310000Y-47160000D01*
X70310000Y-53160000D01*
X69450000Y-53160000D01*
X69450000Y-47160000D01*
G37*
%TO.C,J12*%
X87150000Y-58580000D02*
X87150000Y-57310000D01*
X87990000Y-56150000D02*
X87990000Y-55920000D01*
X88420000Y-58580000D02*
X87150000Y-58580000D01*
X88850000Y-56150000D02*
X88850000Y-55920000D01*
X89690000Y-55920000D02*
X89690000Y-53160000D01*
X90530000Y-47160000D02*
X91390000Y-47160000D01*
X90530000Y-53160000D02*
X90530000Y-47160000D01*
X90530000Y-56232642D02*
X90530000Y-55920000D01*
X91390000Y-47160000D02*
X91390000Y-53160000D01*
X91390000Y-56232642D02*
X91390000Y-55920000D01*
X87040000Y-53160000D02*
X92340000Y-53160000D01*
X92340000Y-55920000D01*
X87040000Y-55920000D01*
X87040000Y-53160000D01*
X87990000Y-47160000D02*
X88850000Y-47160000D01*
X88850000Y-53160000D01*
X87990000Y-53160000D01*
X87990000Y-47160000D01*
G36*
X87990000Y-47160000D02*
G01*
X88850000Y-47160000D01*
X88850000Y-53160000D01*
X87990000Y-53160000D01*
X87990000Y-47160000D01*
G37*
%TO.C,R5*%
X118130000Y-62480000D02*
X118460000Y-62480000D01*
X118130000Y-69020000D02*
X118130000Y-62480000D01*
X118460000Y-69020000D02*
X118130000Y-69020000D01*
X120540000Y-69020000D02*
X120870000Y-69020000D01*
X120870000Y-62480000D02*
X120540000Y-62480000D01*
X120870000Y-69020000D02*
X120870000Y-62480000D01*
%TO.C,C1*%
X140370000Y-100750000D02*
G75*
G02*
X135130000Y-100750000I-2620000J0D01*
G01*
X135130000Y-100750000D02*
G75*
G02*
X140370000Y-100750000I2620000J0D01*
G01*
%TO.C,J13*%
X78110000Y-58655000D02*
X78110000Y-57385000D01*
X78950000Y-56225000D02*
X78950000Y-55995000D01*
X79380000Y-58655000D02*
X78110000Y-58655000D01*
X79810000Y-56225000D02*
X79810000Y-55995000D01*
X80650000Y-55995000D02*
X80650000Y-53235000D01*
X81490000Y-47235000D02*
X82350000Y-47235000D01*
X81490000Y-53235000D02*
X81490000Y-47235000D01*
X81490000Y-56307642D02*
X81490000Y-55995000D01*
X82350000Y-47235000D02*
X82350000Y-53235000D01*
X82350000Y-56307642D02*
X82350000Y-55995000D01*
X78000000Y-53235000D02*
X83300000Y-53235000D01*
X83300000Y-55995000D01*
X78000000Y-55995000D01*
X78000000Y-53235000D01*
X78950000Y-47235000D02*
X79810000Y-47235000D01*
X79810000Y-53235000D01*
X78950000Y-53235000D01*
X78950000Y-47235000D01*
G36*
X78950000Y-47235000D02*
G01*
X79810000Y-47235000D01*
X79810000Y-53235000D01*
X78950000Y-53235000D01*
X78950000Y-47235000D01*
G37*
%TO.C,R12*%
X133480000Y-60380000D02*
X133480000Y-60710000D01*
X133480000Y-63120000D02*
X133480000Y-62790000D01*
X140020000Y-60380000D02*
X133480000Y-60380000D01*
X140020000Y-60710000D02*
X140020000Y-60380000D01*
X140020000Y-62790000D02*
X140020000Y-63120000D01*
X140020000Y-63120000D02*
X133480000Y-63120000D01*
%TO.C,R2*%
X87130000Y-62420000D02*
X87130000Y-68960000D01*
X87130000Y-68960000D02*
X87460000Y-68960000D01*
X87460000Y-62420000D02*
X87130000Y-62420000D01*
X89540000Y-62420000D02*
X89870000Y-62420000D01*
X89870000Y-62420000D02*
X89870000Y-68960000D01*
X89870000Y-68960000D02*
X89540000Y-68960000D01*
%TO.C,J1*%
X152095000Y-80440000D02*
X153365000Y-80440000D01*
X152095000Y-81710000D02*
X152095000Y-80440000D01*
X154442358Y-83820000D02*
X154755000Y-83820000D01*
X154442358Y-84680000D02*
X154755000Y-84680000D01*
X154442358Y-86360000D02*
X154755000Y-86360000D01*
X154442358Y-87220000D02*
X154755000Y-87220000D01*
X154525000Y-81280000D02*
X154755000Y-81280000D01*
X154525000Y-82140000D02*
X154755000Y-82140000D01*
X154755000Y-82980000D02*
X157515000Y-82980000D01*
X154755000Y-85520000D02*
X157515000Y-85520000D01*
X157515000Y-83820000D02*
X163515000Y-83820000D01*
X157515000Y-86360000D02*
X163515000Y-86360000D01*
X163515000Y-83820000D02*
X163515000Y-84680000D01*
X163515000Y-84680000D02*
X157515000Y-84680000D01*
X163515000Y-86360000D02*
X163515000Y-87220000D01*
X163515000Y-87220000D02*
X157515000Y-87220000D01*
X154755000Y-80330000D02*
X157515000Y-80330000D01*
X157515000Y-88170000D01*
X154755000Y-88170000D01*
X154755000Y-80330000D01*
X157515000Y-81280000D02*
X163515000Y-81280000D01*
X163515000Y-82140000D01*
X157515000Y-82140000D01*
X157515000Y-81280000D01*
G36*
X157515000Y-81280000D02*
G01*
X163515000Y-81280000D01*
X163515000Y-82140000D01*
X157515000Y-82140000D01*
X157515000Y-81280000D01*
G37*
%TO.C,Bomba1*%
X110340000Y-100180000D02*
X120740000Y-100180000D01*
X110340000Y-103200000D02*
X120740000Y-103200000D01*
X110340000Y-108100000D02*
X120740000Y-108100000D01*
X110340000Y-109600000D02*
X120740000Y-109600000D01*
X110340000Y-110220000D02*
X110340000Y-100180000D01*
X112700000Y-110220000D02*
X110340000Y-110220000D01*
X120740000Y-100180000D02*
X120740000Y-110220000D01*
X120740000Y-110220000D02*
X113300000Y-110220000D01*
X113000000Y-110220000D02*
X113440000Y-110830000D01*
X112560000Y-110830000D01*
X113000000Y-110220000D01*
G36*
X113440000Y-110830000D02*
G01*
X112560000Y-110830000D01*
X113000000Y-110220000D01*
X113440000Y-110830000D01*
G37*
%TO.C,R13*%
X128230000Y-55630000D02*
X134770000Y-55630000D01*
X128230000Y-55960000D02*
X128230000Y-55630000D01*
X128230000Y-58040000D02*
X128230000Y-58370000D01*
X128230000Y-58370000D02*
X134770000Y-58370000D01*
X134770000Y-55630000D02*
X134770000Y-55960000D01*
X134770000Y-58370000D02*
X134770000Y-58040000D01*
%TO.C,Q4*%
X105424063Y-91740000D02*
X115644063Y-91740000D01*
X105424063Y-93120000D02*
X115644063Y-93120000D01*
X105424063Y-96360000D02*
X105424063Y-91740000D01*
X108684063Y-91740000D02*
X108684063Y-93120000D01*
X112384063Y-91740000D02*
X112384063Y-93120000D01*
X115644063Y-91740000D02*
X115644063Y-96360000D01*
X115644063Y-96360000D02*
X105424063Y-96360000D01*
%TO.C,J4*%
X114150000Y-58655000D02*
X114150000Y-57385000D01*
X114990000Y-56225000D02*
X114990000Y-55995000D01*
X115420000Y-58655000D02*
X114150000Y-58655000D01*
X115850000Y-56225000D02*
X115850000Y-55995000D01*
X116690000Y-55995000D02*
X116690000Y-53235000D01*
X117530000Y-47235000D02*
X118390000Y-47235000D01*
X117530000Y-53235000D02*
X117530000Y-47235000D01*
X117530000Y-56307642D02*
X117530000Y-55995000D01*
X118390000Y-47235000D02*
X118390000Y-53235000D01*
X118390000Y-56307642D02*
X118390000Y-55995000D01*
X119230000Y-55995000D02*
X119230000Y-53235000D01*
X120070000Y-47235000D02*
X120930000Y-47235000D01*
X120070000Y-53235000D02*
X120070000Y-47235000D01*
X120070000Y-56307642D02*
X120070000Y-55995000D01*
X120930000Y-47235000D02*
X120930000Y-53235000D01*
X120930000Y-56307642D02*
X120930000Y-55995000D01*
X121770000Y-55995000D02*
X121770000Y-53235000D01*
X122610000Y-47235000D02*
X123470000Y-47235000D01*
X122610000Y-53235000D02*
X122610000Y-47235000D01*
X122610000Y-56307642D02*
X122610000Y-55995000D01*
X123470000Y-47235000D02*
X123470000Y-53235000D01*
X123470000Y-56307642D02*
X123470000Y-55995000D01*
X114040000Y-53235000D02*
X124420000Y-53235000D01*
X124420000Y-55995000D01*
X114040000Y-55995000D01*
X114040000Y-53235000D01*
X114990000Y-47235000D02*
X115850000Y-47235000D01*
X115850000Y-53235000D01*
X114990000Y-53235000D01*
X114990000Y-47235000D01*
G36*
X114990000Y-47235000D02*
G01*
X115850000Y-47235000D01*
X115850000Y-53235000D01*
X114990000Y-53235000D01*
X114990000Y-47235000D01*
G37*
%TO.C,DimmerControlPins1*%
X58780000Y-91600000D02*
X68820000Y-91600000D01*
X58780000Y-93960000D02*
X58780000Y-91600000D01*
X58780000Y-112160000D02*
X58780000Y-94560000D01*
X59400000Y-91600000D02*
X59400000Y-112160000D01*
X60900000Y-91600000D02*
X60900000Y-112160000D01*
X65800000Y-91600000D02*
X65800000Y-112160000D01*
X68820000Y-91600000D02*
X68820000Y-112160000D01*
X68820000Y-112160000D02*
X58780000Y-112160000D01*
X58780000Y-94260000D02*
X58170000Y-94700000D01*
X58170000Y-93820000D01*
X58780000Y-94260000D01*
G36*
X58780000Y-94260000D02*
G01*
X58170000Y-94700000D01*
X58170000Y-93820000D01*
X58780000Y-94260000D01*
G37*
%TO.C,C3*%
X150120000Y-94750000D02*
G75*
G02*
X144880000Y-94750000I-2620000J0D01*
G01*
X144880000Y-94750000D02*
G75*
G02*
X150120000Y-94750000I2620000J0D01*
G01*
%TO.C,J8*%
X105110000Y-58580000D02*
X105110000Y-57310000D01*
X105950000Y-56150000D02*
X105950000Y-55920000D01*
X106380000Y-58580000D02*
X105110000Y-58580000D01*
X106810000Y-56150000D02*
X106810000Y-55920000D01*
X107650000Y-55920000D02*
X107650000Y-53160000D01*
X108490000Y-47160000D02*
X109350000Y-47160000D01*
X108490000Y-53160000D02*
X108490000Y-47160000D01*
X108490000Y-56232642D02*
X108490000Y-55920000D01*
X109350000Y-47160000D02*
X109350000Y-53160000D01*
X109350000Y-56232642D02*
X109350000Y-55920000D01*
X105000000Y-53160000D02*
X110300000Y-53160000D01*
X110300000Y-55920000D01*
X105000000Y-55920000D01*
X105000000Y-53160000D01*
X105950000Y-47160000D02*
X106810000Y-47160000D01*
X106810000Y-53160000D01*
X105950000Y-53160000D01*
X105950000Y-47160000D01*
G36*
X105950000Y-47160000D02*
G01*
X106810000Y-47160000D01*
X106810000Y-53160000D01*
X105950000Y-53160000D01*
X105950000Y-47160000D01*
G37*
%TO.C,Cooler2*%
X84576750Y-100180000D02*
X94976750Y-100180000D01*
X84576750Y-103200000D02*
X94976750Y-103200000D01*
X84576750Y-108100000D02*
X94976750Y-108100000D01*
X84576750Y-109600000D02*
X94976750Y-109600000D01*
X84576750Y-110220000D02*
X84576750Y-100180000D01*
X86936750Y-110220000D02*
X84576750Y-110220000D01*
X94976750Y-100180000D02*
X94976750Y-110220000D01*
X94976750Y-110220000D02*
X87536750Y-110220000D01*
X87236750Y-110220000D02*
X87676750Y-110830000D01*
X86796750Y-110830000D01*
X87236750Y-110220000D01*
G36*
X87676750Y-110830000D02*
G01*
X86796750Y-110830000D01*
X87236750Y-110220000D01*
X87676750Y-110830000D01*
G37*
%TO.C,R3*%
X92130000Y-62480000D02*
X92130000Y-69020000D01*
X92130000Y-69020000D02*
X92460000Y-69020000D01*
X92460000Y-62480000D02*
X92130000Y-62480000D01*
X94540000Y-62480000D02*
X94870000Y-62480000D01*
X94870000Y-62480000D02*
X94870000Y-69020000D01*
X94870000Y-69020000D02*
X94540000Y-69020000D01*
%TO.C,R10*%
X122630000Y-62420000D02*
X122960000Y-62420000D01*
X122630000Y-68960000D02*
X122630000Y-62420000D01*
X122960000Y-68960000D02*
X122630000Y-68960000D01*
X125040000Y-68960000D02*
X125370000Y-68960000D01*
X125370000Y-62420000D02*
X125040000Y-62420000D01*
X125370000Y-68960000D02*
X125370000Y-62420000D01*
%TO.C,Peltier1*%
X97569750Y-100180000D02*
X107969750Y-100180000D01*
X97569750Y-103200000D02*
X107969750Y-103200000D01*
X97569750Y-108100000D02*
X107969750Y-108100000D01*
X97569750Y-109600000D02*
X107969750Y-109600000D01*
X97569750Y-110220000D02*
X97569750Y-100180000D01*
X99929750Y-110220000D02*
X97569750Y-110220000D01*
X107969750Y-100180000D02*
X107969750Y-110220000D01*
X107969750Y-110220000D02*
X100529750Y-110220000D01*
X100229750Y-110220000D02*
X100669750Y-110830000D01*
X99789750Y-110830000D01*
X100229750Y-110220000D01*
G36*
X100669750Y-110830000D02*
G01*
X99789750Y-110830000D01*
X100229750Y-110220000D01*
X100669750Y-110830000D01*
G37*
%TO.C,R1*%
X77130000Y-62540000D02*
X77130000Y-69080000D01*
X77130000Y-69080000D02*
X77460000Y-69080000D01*
X77460000Y-62540000D02*
X77130000Y-62540000D01*
X79540000Y-62540000D02*
X79870000Y-62540000D01*
X79870000Y-62540000D02*
X79870000Y-69080000D01*
X79870000Y-69080000D02*
X79540000Y-69080000D01*
%TO.C,R7*%
X82130000Y-62480000D02*
X82460000Y-62480000D01*
X82130000Y-69020000D02*
X82130000Y-62480000D01*
X82460000Y-69020000D02*
X82130000Y-69020000D01*
X84540000Y-69020000D02*
X84870000Y-69020000D01*
X84870000Y-62480000D02*
X84540000Y-62480000D01*
X84870000Y-69020000D02*
X84870000Y-62480000D01*
%TO.C,R14*%
X147630000Y-82480000D02*
X147630000Y-89020000D01*
X147630000Y-89020000D02*
X147960000Y-89020000D01*
X147960000Y-82480000D02*
X147630000Y-82480000D01*
X150040000Y-82480000D02*
X150370000Y-82480000D01*
X150370000Y-82480000D02*
X150370000Y-89020000D01*
X150370000Y-89020000D02*
X150040000Y-89020000D01*
%TO.C,AD620_2*%
X135110000Y-76850000D02*
X135110000Y-78500000D01*
X135110000Y-80500000D02*
X135110000Y-82150000D01*
X135110000Y-82150000D02*
X145390000Y-82150000D01*
X145390000Y-76850000D02*
X135110000Y-76850000D01*
X145390000Y-82150000D02*
X145390000Y-76850000D01*
X135110000Y-78500000D02*
G75*
G02*
X135110000Y-80500000I0J-1000000D01*
G01*
%TO.C,C6*%
X130080000Y-96515000D02*
X130080000Y-94985000D01*
X131920000Y-94985000D02*
X131920000Y-96515000D01*
%TO.C,C2*%
X150120000Y-100750000D02*
G75*
G02*
X144880000Y-100750000I-2620000J0D01*
G01*
X144880000Y-100750000D02*
G75*
G02*
X150120000Y-100750000I2620000J0D01*
G01*
%TO.C,R11*%
X138730000Y-55630000D02*
X145270000Y-55630000D01*
X138730000Y-55960000D02*
X138730000Y-55630000D01*
X138730000Y-58040000D02*
X138730000Y-58370000D01*
X138730000Y-58370000D02*
X145270000Y-58370000D01*
X145270000Y-55630000D02*
X145270000Y-55960000D01*
X145270000Y-58370000D02*
X145270000Y-58040000D01*
%TO.C,AD620_1*%
X135110000Y-66845000D02*
X135110000Y-68495000D01*
X135110000Y-70495000D02*
X135110000Y-72145000D01*
X135110000Y-72145000D02*
X145390000Y-72145000D01*
X145390000Y-66845000D02*
X135110000Y-66845000D01*
X145390000Y-72145000D02*
X145390000Y-66845000D01*
X135110000Y-68495000D02*
G75*
G02*
X135110000Y-70495000I0J-1000000D01*
G01*
%TO.C,R6*%
X72130000Y-62420000D02*
X72460000Y-62420000D01*
X72130000Y-68960000D02*
X72130000Y-62420000D01*
X72460000Y-68960000D02*
X72130000Y-68960000D01*
X74540000Y-68960000D02*
X74870000Y-68960000D01*
X74870000Y-62420000D02*
X74540000Y-62420000D01*
X74870000Y-68960000D02*
X74870000Y-62420000D01*
%TO.C,StepDown1*%
X58324000Y-73007000D02*
X58324000Y-89136000D01*
X58324000Y-89136000D02*
X79660000Y-89136000D01*
X62083200Y-78620400D02*
X68179200Y-78620400D01*
X62083200Y-83090800D02*
X62083200Y-78620400D01*
X63200800Y-74734200D02*
X66629800Y-74734200D01*
X63200800Y-76004200D02*
X63200800Y-74734200D01*
X66629800Y-74734200D02*
X66629800Y-76004200D01*
X66629800Y-76004200D02*
X63200800Y-76004200D01*
X68179200Y-83090800D02*
X62083200Y-83090800D01*
X68179200Y-83090800D02*
X68179200Y-78620400D01*
X69855600Y-77045600D02*
X69855600Y-83700400D01*
X69855600Y-77045600D02*
X76510400Y-77045600D01*
X71430400Y-79903100D02*
X74059300Y-79903100D01*
X71430400Y-80538100D02*
X71430400Y-79903100D01*
X71430400Y-80538100D02*
X74059300Y-80538100D01*
X74059300Y-79204600D02*
X75329300Y-80220600D01*
X74059300Y-79903100D02*
X74059300Y-79204600D01*
X74059300Y-81300100D02*
X74059300Y-80538100D01*
X75329300Y-80220600D02*
X74059300Y-81300100D01*
X76510400Y-77045600D02*
X76510400Y-83700400D01*
X76510400Y-83700400D02*
X69855600Y-83700400D01*
X79660000Y-73007000D02*
X58324000Y-73007000D01*
X79660000Y-89136000D02*
X79660000Y-73007000D01*
X62111241Y-75635900D02*
G75*
G02*
X60581959Y-75635900I-764641J0D01*
G01*
X60581959Y-75635900D02*
G75*
G02*
X62111241Y-75635900I764641J0D01*
G01*
X62162041Y-86316600D02*
G75*
G02*
X60632759Y-86316600I-764641J0D01*
G01*
X60632759Y-86316600D02*
G75*
G02*
X62162041Y-86316600I764641J0D01*
G01*
X76690841Y-75635900D02*
G75*
G02*
X75161559Y-75635900I-764641J0D01*
G01*
X75161559Y-75635900D02*
G75*
G02*
X76690841Y-75635900I764641J0D01*
G01*
X76792441Y-86291200D02*
G75*
G02*
X75263159Y-86291200I-764641J0D01*
G01*
X75263159Y-86291200D02*
G75*
G02*
X76792441Y-86291200I764641J0D01*
G01*
D12*
X62794400Y-77960000D02*
X63200800Y-77960000D01*
X63200800Y-78569600D01*
X62794400Y-78569600D01*
X62794400Y-77960000D01*
G36*
X63200800Y-78569600D02*
G01*
X62794400Y-78569600D01*
X62794400Y-77960000D01*
X63200800Y-77960000D01*
X63200800Y-78569600D01*
G37*
X62794400Y-83141600D02*
X63200800Y-83141600D01*
X63200800Y-83751200D01*
X62794400Y-83751200D01*
X62794400Y-83141600D01*
G36*
X63200800Y-83751200D02*
G01*
X62794400Y-83751200D01*
X62794400Y-83141600D01*
X63200800Y-83141600D01*
X63200800Y-83751200D01*
G37*
X64267600Y-77960000D02*
X64674000Y-77960000D01*
X64674000Y-78569600D01*
X64267600Y-78569600D01*
X64267600Y-77960000D01*
G36*
X64674000Y-78569600D02*
G01*
X64267600Y-78569600D01*
X64267600Y-77960000D01*
X64674000Y-77960000D01*
X64674000Y-78569600D01*
G37*
X64267600Y-83141600D02*
X64674000Y-83141600D01*
X64674000Y-83751200D01*
X64267600Y-83751200D01*
X64267600Y-83141600D01*
G36*
X64674000Y-83751200D02*
G01*
X64267600Y-83751200D01*
X64267600Y-83141600D01*
X64674000Y-83141600D01*
X64674000Y-83751200D01*
G37*
X65740800Y-77960000D02*
X66147200Y-77960000D01*
X66147200Y-78569600D01*
X65740800Y-78569600D01*
X65740800Y-77960000D01*
G36*
X66147200Y-78569600D02*
G01*
X65740800Y-78569600D01*
X65740800Y-77960000D01*
X66147200Y-77960000D01*
X66147200Y-78569600D01*
G37*
X65740800Y-83141600D02*
X66147200Y-83141600D01*
X66147200Y-83751200D01*
X65740800Y-83751200D01*
X65740800Y-83141600D01*
G36*
X66147200Y-83751200D02*
G01*
X65740800Y-83751200D01*
X65740800Y-83141600D01*
X66147200Y-83141600D01*
X66147200Y-83751200D01*
G37*
X67264800Y-77960000D02*
X67671200Y-77960000D01*
X67671200Y-78569600D01*
X67264800Y-78569600D01*
X67264800Y-77960000D01*
G36*
X67671200Y-78569600D02*
G01*
X67264800Y-78569600D01*
X67264800Y-77960000D01*
X67671200Y-77960000D01*
X67671200Y-78569600D01*
G37*
X67264800Y-83141600D02*
X67671200Y-83141600D01*
X67671200Y-83751200D01*
X67264800Y-83751200D01*
X67264800Y-83141600D01*
G36*
X67671200Y-83751200D02*
G01*
X67264800Y-83751200D01*
X67264800Y-83141600D01*
X67671200Y-83141600D01*
X67671200Y-83751200D01*
G37*
%TO.C,Q5*%
D11*
X116748125Y-91740000D02*
X126968125Y-91740000D01*
X116748125Y-93120000D02*
X126968125Y-93120000D01*
X116748125Y-96360000D02*
X116748125Y-91740000D01*
X120008125Y-91740000D02*
X120008125Y-93120000D01*
X123708125Y-91740000D02*
X123708125Y-93120000D01*
X126968125Y-91740000D02*
X126968125Y-96360000D01*
X126968125Y-96360000D02*
X116748125Y-96360000D01*
%TO.C,J11*%
X96150000Y-58580000D02*
X96150000Y-57310000D01*
X96990000Y-56150000D02*
X96990000Y-55920000D01*
X97420000Y-58580000D02*
X96150000Y-58580000D01*
X97850000Y-56150000D02*
X97850000Y-55920000D01*
X98690000Y-55920000D02*
X98690000Y-53160000D01*
X99530000Y-47160000D02*
X100390000Y-47160000D01*
X99530000Y-53160000D02*
X99530000Y-47160000D01*
X99530000Y-56232642D02*
X99530000Y-55920000D01*
X100390000Y-47160000D02*
X100390000Y-53160000D01*
X100390000Y-56232642D02*
X100390000Y-55920000D01*
X96040000Y-53160000D02*
X101340000Y-53160000D01*
X101340000Y-55920000D01*
X96040000Y-55920000D01*
X96040000Y-53160000D01*
X96990000Y-47160000D02*
X97850000Y-47160000D01*
X97850000Y-53160000D01*
X96990000Y-53160000D01*
X96990000Y-47160000D01*
G36*
X96990000Y-47160000D02*
G01*
X97850000Y-47160000D01*
X97850000Y-53160000D01*
X96990000Y-53160000D01*
X96990000Y-47160000D01*
G37*
%TO.C,C4*%
X130080000Y-86015000D02*
X130080000Y-84485000D01*
X131920000Y-84485000D02*
X131920000Y-86015000D01*
%TO.C,LM358*%
X101630000Y-63040000D02*
X101630000Y-64690000D01*
X101630000Y-66690000D02*
X101630000Y-68340000D01*
X101630000Y-68340000D02*
X111910000Y-68340000D01*
X111910000Y-63040000D02*
X101630000Y-63040000D01*
X111910000Y-68340000D02*
X111910000Y-63040000D01*
X101630000Y-64690000D02*
G75*
G02*
X101630000Y-66690000I0J-1000000D01*
G01*
%TO.C,Bomba2*%
X122840000Y-100180000D02*
X133240000Y-100180000D01*
X122840000Y-103200000D02*
X133240000Y-103200000D01*
X122840000Y-108100000D02*
X133240000Y-108100000D01*
X122840000Y-109600000D02*
X133240000Y-109600000D01*
X122840000Y-110220000D02*
X122840000Y-100180000D01*
X125200000Y-110220000D02*
X122840000Y-110220000D01*
X133240000Y-100180000D02*
X133240000Y-110220000D01*
X133240000Y-110220000D02*
X125800000Y-110220000D01*
X125500000Y-110220000D02*
X125940000Y-110830000D01*
X125060000Y-110830000D01*
X125500000Y-110220000D01*
G36*
X125940000Y-110830000D02*
G01*
X125060000Y-110830000D01*
X125500000Y-110220000D01*
X125940000Y-110830000D01*
G37*
%TO.C,Q2*%
X82775938Y-91740000D02*
X92995938Y-91740000D01*
X82775938Y-93120000D02*
X92995938Y-93120000D01*
X82775938Y-96360000D02*
X82775938Y-91740000D01*
X86035938Y-91740000D02*
X86035938Y-93120000D01*
X89735938Y-91740000D02*
X89735938Y-93120000D01*
X92995938Y-91740000D02*
X92995938Y-96360000D01*
X92995938Y-96360000D02*
X82775938Y-96360000D01*
%TO.C,RS485*%
X149352500Y-67305000D02*
X159392500Y-67305000D01*
X149352500Y-77705000D02*
X149352500Y-67305000D01*
X152372500Y-77705000D02*
X152372500Y-67305000D01*
X157272500Y-77705000D02*
X157272500Y-67305000D01*
X158772500Y-77705000D02*
X158772500Y-67305000D01*
X159392500Y-67305000D02*
X159392500Y-74745000D01*
X159392500Y-75345000D02*
X159392500Y-77705000D01*
X159392500Y-77705000D02*
X149352500Y-77705000D01*
X159392500Y-75045000D02*
X160002500Y-74605000D01*
X160002500Y-75485000D01*
X159392500Y-75045000D01*
G36*
X160002500Y-75485000D02*
G01*
X159392500Y-75045000D01*
X160002500Y-74605000D01*
X160002500Y-75485000D01*
G37*
%TO.C,C7*%
X144235000Y-61330000D02*
X145765000Y-61330000D01*
X145765000Y-63170000D02*
X144235000Y-63170000D01*
%TO.C,C9*%
X130080000Y-80765000D02*
X130080000Y-79235000D01*
X131920000Y-79235000D02*
X131920000Y-80765000D01*
%TO.C,J14*%
X152230000Y-105150000D02*
X153500000Y-105150000D01*
X152230000Y-106420000D02*
X152230000Y-105150000D01*
X154577358Y-108530000D02*
X154890000Y-108530000D01*
X154577358Y-109390000D02*
X154890000Y-109390000D01*
X154577358Y-111070000D02*
X154890000Y-111070000D01*
X154577358Y-111930000D02*
X154890000Y-111930000D01*
X154660000Y-105990000D02*
X154890000Y-105990000D01*
X154660000Y-106850000D02*
X154890000Y-106850000D01*
X154890000Y-107690000D02*
X157650000Y-107690000D01*
X154890000Y-110230000D02*
X157650000Y-110230000D01*
X157650000Y-108530000D02*
X163650000Y-108530000D01*
X157650000Y-111070000D02*
X163650000Y-111070000D01*
X163650000Y-108530000D02*
X163650000Y-109390000D01*
X163650000Y-109390000D02*
X157650000Y-109390000D01*
X163650000Y-111070000D02*
X163650000Y-111930000D01*
X163650000Y-111930000D02*
X157650000Y-111930000D01*
X154890000Y-105040000D02*
X157650000Y-105040000D01*
X157650000Y-112880000D01*
X154890000Y-112880000D01*
X154890000Y-105040000D01*
X157650000Y-105990000D02*
X163650000Y-105990000D01*
X163650000Y-106850000D01*
X157650000Y-106850000D01*
X157650000Y-105990000D01*
G36*
X157650000Y-105990000D02*
G01*
X163650000Y-105990000D01*
X163650000Y-106850000D01*
X157650000Y-106850000D01*
X157650000Y-105990000D01*
G37*
%TO.C,Q3*%
X94100000Y-91740000D02*
X104320000Y-91740000D01*
X94100000Y-93120000D02*
X104320000Y-93120000D01*
X94100000Y-96360000D02*
X94100000Y-91740000D01*
X97360000Y-91740000D02*
X97360000Y-93120000D01*
X101060000Y-91740000D02*
X101060000Y-93120000D01*
X104320000Y-91740000D02*
X104320000Y-96360000D01*
X104320000Y-96360000D02*
X94100000Y-96360000D01*
%TO.C,R4*%
X96880000Y-62420000D02*
X96880000Y-68960000D01*
X96880000Y-68960000D02*
X97210000Y-68960000D01*
X97210000Y-62420000D02*
X96880000Y-62420000D01*
X99290000Y-62420000D02*
X99620000Y-62420000D01*
X99620000Y-62420000D02*
X99620000Y-68960000D01*
X99620000Y-68960000D02*
X99290000Y-68960000D01*
%TO.C,J3*%
X144030000Y-106442358D02*
X144030000Y-106755000D01*
X144030000Y-115515000D02*
X144030000Y-109515000D01*
X144890000Y-106442358D02*
X144890000Y-106755000D01*
X144890000Y-109515000D02*
X144890000Y-115515000D01*
X144890000Y-115515000D02*
X144030000Y-115515000D01*
X145730000Y-106755000D02*
X145730000Y-109515000D01*
X146570000Y-106442358D02*
X146570000Y-106755000D01*
X146570000Y-115515000D02*
X146570000Y-109515000D01*
X147430000Y-106442358D02*
X147430000Y-106755000D01*
X147430000Y-109515000D02*
X147430000Y-115515000D01*
X147430000Y-115515000D02*
X146570000Y-115515000D01*
X148270000Y-106755000D02*
X148270000Y-109515000D01*
X149110000Y-106525000D02*
X149110000Y-106755000D01*
X149540000Y-104095000D02*
X150810000Y-104095000D01*
X149970000Y-106525000D02*
X149970000Y-106755000D01*
X150810000Y-104095000D02*
X150810000Y-105365000D01*
X149110000Y-109515000D02*
X149970000Y-109515000D01*
X149970000Y-115515000D01*
X149110000Y-115515000D01*
X149110000Y-109515000D01*
G36*
X149110000Y-109515000D02*
G01*
X149970000Y-109515000D01*
X149970000Y-115515000D01*
X149110000Y-115515000D01*
X149110000Y-109515000D01*
G37*
X143080000Y-106755000D02*
X150920000Y-106755000D01*
X150920000Y-109515000D01*
X143080000Y-109515000D01*
X143080000Y-106755000D01*
%TO.C,Cooler1*%
X71583750Y-100180000D02*
X81983750Y-100180000D01*
X71583750Y-103200000D02*
X81983750Y-103200000D01*
X71583750Y-108100000D02*
X81983750Y-108100000D01*
X71583750Y-109600000D02*
X81983750Y-109600000D01*
X71583750Y-110220000D02*
X71583750Y-100180000D01*
X73943750Y-110220000D02*
X71583750Y-110220000D01*
X81983750Y-100180000D02*
X81983750Y-110220000D01*
X81983750Y-110220000D02*
X74543750Y-110220000D01*
X74243750Y-110220000D02*
X74683750Y-110830000D01*
X73803750Y-110830000D01*
X74243750Y-110220000D01*
G36*
X74683750Y-110830000D02*
G01*
X73803750Y-110830000D01*
X74243750Y-110220000D01*
X74683750Y-110830000D01*
G37*
%TO.C,J5*%
X152230000Y-91670000D02*
X153500000Y-91670000D01*
X152230000Y-92940000D02*
X152230000Y-91670000D01*
X154577358Y-95050000D02*
X154890000Y-95050000D01*
X154577358Y-95910000D02*
X154890000Y-95910000D01*
X154577358Y-97590000D02*
X154890000Y-97590000D01*
X154577358Y-98450000D02*
X154890000Y-98450000D01*
X154577358Y-100130000D02*
X154890000Y-100130000D01*
X154577358Y-100990000D02*
X154890000Y-100990000D01*
X154660000Y-92510000D02*
X154890000Y-92510000D01*
X154660000Y-93370000D02*
X154890000Y-93370000D01*
X154890000Y-94210000D02*
X157650000Y-94210000D01*
X154890000Y-96750000D02*
X157650000Y-96750000D01*
X154890000Y-99290000D02*
X157650000Y-99290000D01*
X157650000Y-95050000D02*
X163650000Y-95050000D01*
X157650000Y-97590000D02*
X163650000Y-97590000D01*
X157650000Y-100130000D02*
X163650000Y-100130000D01*
X163650000Y-95050000D02*
X163650000Y-95910000D01*
X163650000Y-95910000D02*
X157650000Y-95910000D01*
X163650000Y-97590000D02*
X163650000Y-98450000D01*
X163650000Y-98450000D02*
X157650000Y-98450000D01*
X163650000Y-100130000D02*
X163650000Y-100990000D01*
X163650000Y-100990000D02*
X157650000Y-100990000D01*
X154890000Y-91560000D02*
X157650000Y-91560000D01*
X157650000Y-101940000D01*
X154890000Y-101940000D01*
X154890000Y-91560000D01*
X157650000Y-92510000D02*
X163650000Y-92510000D01*
X163650000Y-93370000D01*
X157650000Y-93370000D01*
X157650000Y-92510000D01*
G36*
X157650000Y-92510000D02*
G01*
X163650000Y-92510000D01*
X163650000Y-93370000D01*
X157650000Y-93370000D01*
X157650000Y-92510000D01*
G37*
%TO.C,R9*%
X113630000Y-62480000D02*
X113960000Y-62480000D01*
X113630000Y-69020000D02*
X113630000Y-62480000D01*
X113960000Y-69020000D02*
X113630000Y-69020000D01*
X116040000Y-69020000D02*
X116370000Y-69020000D01*
X116370000Y-62480000D02*
X116040000Y-62480000D01*
X116370000Y-69020000D02*
X116370000Y-62480000D01*
%TO.C,ICL7660*%
X136040000Y-86340000D02*
X136040000Y-96620000D01*
X136040000Y-96620000D02*
X141340000Y-96620000D01*
X137690000Y-86340000D02*
X136040000Y-86340000D01*
X141340000Y-86340000D02*
X139690000Y-86340000D01*
X141340000Y-96620000D02*
X141340000Y-86340000D01*
X139690000Y-86340000D02*
G75*
G02*
X137690000Y-86340000I-1000000J0D01*
G01*
%TO.C,A1*%
X81980000Y-71350000D02*
X81980000Y-89390000D01*
X81980000Y-89390000D02*
X84650000Y-89390000D01*
X84650000Y-74020000D02*
X84650000Y-71350000D01*
X84650000Y-74020000D02*
X122750000Y-74020000D01*
X84650000Y-86720000D02*
X84650000Y-89390000D01*
X87190000Y-86720000D02*
X84650000Y-86720000D01*
X87190000Y-86720000D02*
X87190000Y-89390000D01*
X87190000Y-86720000D02*
X122750000Y-86720000D01*
X87190000Y-89390000D02*
X125420000Y-89390000D01*
X117540000Y-76430000D02*
X127960000Y-76430000D01*
X117540000Y-84310000D02*
X117540000Y-76430000D01*
X122750000Y-74020000D02*
X122750000Y-71350000D01*
X122750000Y-86720000D02*
X122750000Y-89390000D01*
X125420000Y-71350000D02*
X81980000Y-71350000D01*
X125420000Y-71350000D02*
X125420000Y-76430000D01*
X125420000Y-89390000D02*
X125420000Y-84310000D01*
X127960000Y-76430000D02*
X127960000Y-84310000D01*
X127960000Y-84310000D02*
X117540000Y-84310000D01*
%TO.C,U2*%
X149340000Y-58095000D02*
X149340000Y-59745000D01*
X149340000Y-61745000D02*
X149340000Y-63395000D01*
X149340000Y-63395000D02*
X159620000Y-63395000D01*
X159620000Y-58095000D02*
X149340000Y-58095000D01*
X159620000Y-63395000D02*
X159620000Y-58095000D01*
X149340000Y-59745000D02*
G75*
G02*
X149340000Y-61745000I0J-1000000D01*
G01*
%TO.C,C5*%
X130080000Y-91265000D02*
X130080000Y-89735000D01*
X131920000Y-89735000D02*
X131920000Y-91265000D01*
%TO.C,Q1*%
X71451875Y-91740000D02*
X81671875Y-91740000D01*
X71451875Y-93120000D02*
X81671875Y-93120000D01*
X71451875Y-96360000D02*
X71451875Y-91740000D01*
X74711875Y-91740000D02*
X74711875Y-93120000D01*
X78411875Y-91740000D02*
X78411875Y-93120000D01*
X81671875Y-91740000D02*
X81671875Y-96360000D01*
X81671875Y-96360000D02*
X71451875Y-96360000D01*
%TO.C,PowerSuply1*%
X58530000Y-61510000D02*
X68570000Y-61510000D01*
X58530000Y-63870000D02*
X58530000Y-61510000D01*
X58530000Y-71910000D02*
X58530000Y-64470000D01*
X59150000Y-61510000D02*
X59150000Y-71910000D01*
X60650000Y-61510000D02*
X60650000Y-71910000D01*
X65550000Y-61510000D02*
X65550000Y-71910000D01*
X68570000Y-61510000D02*
X68570000Y-71910000D01*
X68570000Y-71910000D02*
X58530000Y-71910000D01*
X58530000Y-64170000D02*
X57920000Y-64610000D01*
X57920000Y-63730000D01*
X58530000Y-64170000D01*
G36*
X58530000Y-64170000D02*
G01*
X57920000Y-64610000D01*
X57920000Y-63730000D01*
X58530000Y-64170000D01*
G37*
%TO.C,R8*%
X126880000Y-62480000D02*
X127210000Y-62480000D01*
X126880000Y-69020000D02*
X126880000Y-62480000D01*
X127210000Y-69020000D02*
X126880000Y-69020000D01*
X129290000Y-69020000D02*
X129620000Y-69020000D01*
X129620000Y-62480000D02*
X129290000Y-62480000D01*
X129620000Y-69020000D02*
X129620000Y-62480000D01*
%TO.C,J7*%
X59655000Y-58580000D02*
X59655000Y-57310000D01*
X60495000Y-56150000D02*
X60495000Y-55920000D01*
X60925000Y-58580000D02*
X59655000Y-58580000D01*
X61355000Y-56150000D02*
X61355000Y-55920000D01*
X62195000Y-55920000D02*
X62195000Y-53160000D01*
X63035000Y-47160000D02*
X63895000Y-47160000D01*
X63035000Y-53160000D02*
X63035000Y-47160000D01*
X63035000Y-56232642D02*
X63035000Y-55920000D01*
X63895000Y-47160000D02*
X63895000Y-53160000D01*
X63895000Y-56232642D02*
X63895000Y-55920000D01*
X59545000Y-53160000D02*
X64845000Y-53160000D01*
X64845000Y-55920000D01*
X59545000Y-55920000D01*
X59545000Y-53160000D01*
X60495000Y-47160000D02*
X61355000Y-47160000D01*
X61355000Y-53160000D01*
X60495000Y-53160000D01*
X60495000Y-47160000D01*
G36*
X60495000Y-47160000D02*
G01*
X61355000Y-47160000D01*
X61355000Y-53160000D01*
X60495000Y-53160000D01*
X60495000Y-47160000D01*
G37*
%TD*%
M02*
