%TF.GenerationSoftware,KiCad,Pcbnew,10.0.5*%
%TF.CreationDate,2026-10-01T21:15:45-03:00*%
%TF.ProjectId,ProcessTestbenchHardware,50726f63-6573-4735-9465-737462656e63,rev?*%
%TF.SameCoordinates,Original*%
%TF.FileFunction,Soldermask,Top*%
%TF.FilePolarity,Negative*%
%FSLAX46Y46*%
G04 Gerber Fmt 4.6, Leading zero omitted, Abs format (unit mm)*
G04 Created by KiCad (PCBNEW 10.0.5) date 2026-10-01 21:15:45*
%MOMM*%
%LPD*%
G01*
G04 APERTURE LIST*
G04 Aperture macros list*
%AMRoundRect*
0 Rectangle with rounded corners*
0 $1 Rounding radius*
0 $2 $3 $4 $5 $6 $7 $8 $9 X,Y pos of 4 corners*
0 Add a 4 corners polygon primitive as box body*
4,1,4,$2,$3,$4,$5,$6,$7,$8,$9,$2,$3,0*
0 Add four circle primitives for the rounded corners*
1,1,$1+$1,$2,$3*
1,1,$1+$1,$4,$5*
1,1,$1+$1,$6,$7*
1,1,$1+$1,$8,$9*
0 Add four rect primitives between the rounded corners*
20,1,$1+$1,$2,$3,$4,$5,0*
20,1,$1+$1,$4,$5,$6,$7,0*
20,1,$1+$1,$6,$7,$8,$9,0*
20,1,$1+$1,$8,$9,$2,$3,0*%
G04 Aperture macros list end*
%ADD10R,1.700000X1.700000*%
%ADD11C,1.700000*%
%ADD12C,1.600000*%
%ADD13C,1.200000*%
%ADD14RoundRect,0.250000X-1.050000X-1.050000X1.050000X-1.050000X1.050000X1.050000X-1.050000X1.050000X0*%
%ADD15C,2.600000*%
%ADD16R,1.905000X2.000000*%
%ADD17O,1.905000X2.000000*%
%ADD18RoundRect,0.250000X-1.050000X1.050000X-1.050000X-1.050000X1.050000X-1.050000X1.050000X1.050000X0*%
%ADD19RoundRect,0.250000X0.550000X-0.550000X0.550000X0.550000X-0.550000X0.550000X-0.550000X-0.550000X0*%
%ADD20RoundRect,0.250000X1.050000X-1.050000X1.050000X1.050000X-1.050000X1.050000X-1.050000X-1.050000X0*%
%ADD21RoundRect,0.250000X-0.550000X-0.550000X0.550000X-0.550000X0.550000X0.550000X-0.550000X0.550000X0*%
%ADD22R,1.600000X1.600000*%
%ADD23O,1.600000X1.600000*%
G04 APERTURE END LIST*
D10*
%TO.C,J2*%
X140580000Y-105500000D03*
D11*
X138040000Y-105500000D03*
X135500000Y-105500000D03*
%TD*%
D12*
%TO.C,C8*%
X131000000Y-76000000D03*
X131000000Y-73500000D03*
%TD*%
D10*
%TO.C,J6*%
X69880000Y-57310000D03*
D11*
X72420000Y-57310000D03*
%TD*%
D10*
%TO.C,J12*%
X88420000Y-57310000D03*
D11*
X90960000Y-57310000D03*
%TD*%
D12*
%TO.C,R5*%
X119500000Y-69560000D03*
X119500000Y-61940000D03*
%TD*%
D13*
%TO.C,C1*%
X137750000Y-99750000D03*
X137750000Y-101750000D03*
%TD*%
D10*
%TO.C,J13*%
X79380000Y-57385000D03*
D11*
X81920000Y-57385000D03*
%TD*%
D12*
%TO.C,R12*%
X140560000Y-61750000D03*
X132940000Y-61750000D03*
%TD*%
%TO.C,R2*%
X88500000Y-61880000D03*
X88500000Y-69500000D03*
%TD*%
D10*
%TO.C,J1*%
X153365000Y-81710000D03*
D11*
X153365000Y-84250000D03*
X153365000Y-86790000D03*
%TD*%
D14*
%TO.C,Bomba1*%
X113000000Y-105500000D03*
D15*
X118080000Y-105500000D03*
%TD*%
D12*
%TO.C,R13*%
X127690000Y-57000000D03*
X135310000Y-57000000D03*
%TD*%
D16*
%TO.C,Q4*%
X107994063Y-95000000D03*
D17*
X110534063Y-95000000D03*
X113074063Y-95000000D03*
%TD*%
D10*
%TO.C,J4*%
X115420000Y-57385000D03*
D11*
X117960000Y-57385000D03*
X120500000Y-57385000D03*
X123040000Y-57385000D03*
%TD*%
D18*
%TO.C,DimmerControlPins1*%
X63500000Y-94260000D03*
D15*
X63500000Y-99340000D03*
X63500000Y-104420000D03*
X63500000Y-109500000D03*
%TD*%
D13*
%TO.C,C3*%
X147500000Y-93750000D03*
X147500000Y-95750000D03*
%TD*%
D10*
%TO.C,J8*%
X106380000Y-57310000D03*
D11*
X108920000Y-57310000D03*
%TD*%
D14*
%TO.C,Cooler2*%
X87236750Y-105500000D03*
D15*
X92316750Y-105500000D03*
%TD*%
D12*
%TO.C,R3*%
X93500000Y-61940000D03*
X93500000Y-69560000D03*
%TD*%
%TO.C,R10*%
X124000000Y-69500000D03*
X124000000Y-61880000D03*
%TD*%
D14*
%TO.C,Peltier1*%
X100229750Y-105500000D03*
D15*
X105309750Y-105500000D03*
%TD*%
D12*
%TO.C,R1*%
X78500000Y-62000000D03*
X78500000Y-69620000D03*
%TD*%
%TO.C,R7*%
X83500000Y-69560000D03*
X83500000Y-61940000D03*
%TD*%
%TO.C,R14*%
X149000000Y-81940000D03*
X149000000Y-89560000D03*
%TD*%
D19*
%TO.C,AD620_2*%
X136440000Y-83310000D03*
D12*
X138980000Y-83310000D03*
X141520000Y-83310000D03*
X144060000Y-83310000D03*
X144060000Y-75690000D03*
X141520000Y-75690000D03*
X138980000Y-75690000D03*
X136440000Y-75690000D03*
%TD*%
%TO.C,C6*%
X131000000Y-94500000D03*
X131000000Y-97000000D03*
%TD*%
D13*
%TO.C,C2*%
X147500000Y-99750000D03*
X147500000Y-101750000D03*
%TD*%
D12*
%TO.C,R11*%
X138190000Y-57000000D03*
X145810000Y-57000000D03*
%TD*%
D19*
%TO.C,AD620_1*%
X136440000Y-73305000D03*
D12*
X138980000Y-73305000D03*
X141520000Y-73305000D03*
X144060000Y-73305000D03*
X144060000Y-65685000D03*
X141520000Y-65685000D03*
X138980000Y-65685000D03*
X136440000Y-65685000D03*
%TD*%
%TO.C,R6*%
X73500000Y-69500000D03*
X73500000Y-61880000D03*
%TD*%
D16*
%TO.C,Q5*%
X119318125Y-95000000D03*
D17*
X121858125Y-95000000D03*
X124398125Y-95000000D03*
%TD*%
D10*
%TO.C,J11*%
X97420000Y-57310000D03*
D11*
X99960000Y-57310000D03*
%TD*%
D12*
%TO.C,C4*%
X131000000Y-86500000D03*
X131000000Y-84000000D03*
%TD*%
D19*
%TO.C,LM358*%
X102960000Y-69500000D03*
D12*
X105500000Y-69500000D03*
X108040000Y-69500000D03*
X110580000Y-69500000D03*
X110580000Y-61880000D03*
X108040000Y-61880000D03*
X105500000Y-61880000D03*
X102960000Y-61880000D03*
%TD*%
D14*
%TO.C,Bomba2*%
X125500000Y-105500000D03*
D15*
X130580000Y-105500000D03*
%TD*%
D16*
%TO.C,Q2*%
X85345938Y-95000000D03*
D17*
X87885938Y-95000000D03*
X90425938Y-95000000D03*
%TD*%
D20*
%TO.C,RS485*%
X154672500Y-75045000D03*
D15*
X154672500Y-69965000D03*
%TD*%
D12*
%TO.C,C7*%
X143750000Y-62250000D03*
X146250000Y-62250000D03*
%TD*%
%TO.C,C9*%
X131000000Y-81250000D03*
X131000000Y-78750000D03*
%TD*%
D10*
%TO.C,J14*%
X153500000Y-106420000D03*
D11*
X153500000Y-108960000D03*
X153500000Y-111500000D03*
%TD*%
D16*
%TO.C,Q3*%
X96670000Y-95000000D03*
D17*
X99210000Y-95000000D03*
X101750000Y-95000000D03*
%TD*%
D12*
%TO.C,R4*%
X98250000Y-61880000D03*
X98250000Y-69500000D03*
%TD*%
D10*
%TO.C,J3*%
X149540000Y-105365000D03*
D11*
X147000000Y-105365000D03*
X144460000Y-105365000D03*
%TD*%
D14*
%TO.C,Cooler1*%
X74243750Y-105500000D03*
D15*
X79323750Y-105500000D03*
%TD*%
D10*
%TO.C,J5*%
X153500000Y-92940000D03*
D11*
X153500000Y-95480000D03*
X153500000Y-98020000D03*
X153500000Y-100560000D03*
%TD*%
D12*
%TO.C,R9*%
X115000000Y-69560000D03*
X115000000Y-61940000D03*
%TD*%
D21*
%TO.C,ICL7660*%
X134880000Y-87670000D03*
D12*
X134880000Y-90210000D03*
X134880000Y-92750000D03*
X134880000Y-95290000D03*
X142500000Y-95290000D03*
X142500000Y-92750000D03*
X142500000Y-90210000D03*
X142500000Y-87670000D03*
%TD*%
D22*
%TO.C,A1*%
X85920000Y-87990000D03*
D23*
X88460000Y-87990000D03*
X91000000Y-87990000D03*
X93540000Y-87990000D03*
X96080000Y-87990000D03*
X98620000Y-87990000D03*
X101160000Y-87990000D03*
X103700000Y-87990000D03*
X106240000Y-87990000D03*
X108780000Y-87990000D03*
X111320000Y-87990000D03*
X113860000Y-87990000D03*
X116400000Y-87990000D03*
X118940000Y-87990000D03*
X121480000Y-87990000D03*
X121480000Y-72750000D03*
X118940000Y-72750000D03*
X116400000Y-72750000D03*
X113860000Y-72750000D03*
X111320000Y-72750000D03*
X108780000Y-72750000D03*
X106240000Y-72750000D03*
X103700000Y-72750000D03*
X101160000Y-72750000D03*
X98620000Y-72750000D03*
X96080000Y-72750000D03*
X93540000Y-72750000D03*
X91000000Y-72750000D03*
X88460000Y-72750000D03*
X85920000Y-72750000D03*
%TD*%
D19*
%TO.C,U2*%
X150670000Y-64555000D03*
D12*
X153210000Y-64555000D03*
X155750000Y-64555000D03*
X158290000Y-64555000D03*
X158290000Y-56935000D03*
X155750000Y-56935000D03*
X153210000Y-56935000D03*
X150670000Y-56935000D03*
%TD*%
%TO.C,C5*%
X131000000Y-91750000D03*
X131000000Y-89250000D03*
%TD*%
D16*
%TO.C,Q1*%
X74021875Y-95000000D03*
D17*
X76561875Y-95000000D03*
X79101875Y-95000000D03*
%TD*%
D18*
%TO.C,PowerSuply1*%
X63250000Y-64170000D03*
D15*
X63250000Y-69250000D03*
%TD*%
D12*
%TO.C,R8*%
X128250000Y-69560000D03*
X128250000Y-61940000D03*
%TD*%
D10*
%TO.C,J7*%
X60925000Y-57310000D03*
D11*
X63465000Y-57310000D03*
%TD*%
M02*
