M48
; DRILL file KiCad 10.0.5 date 2026-10-01T21:15:50
; FORMAT={-:-/ absolute / metric / decimal}
; #@! TF.CreationDate,2026-10-01T21:15:50-03:00
; #@! TF.GenerationSoftware,Kicad,Pcbnew,10.0.5
; #@! TF.FileFunction,Plated,1,2,PTH
FMAT,2
METRIC
; #@! TA.AperFunction,Plated,PTH,ViaDrill
T1C0.300
; #@! TA.AperFunction,Plated,PTH,ComponentDrill
T2C0.600
; #@! TA.AperFunction,Plated,PTH,ComponentDrill
T3C0.800
; #@! TA.AperFunction,Plated,PTH,ComponentDrill
T4C1.000
; #@! TA.AperFunction,Plated,PTH,ComponentDrill
T5C1.100
; #@! TA.AperFunction,Plated,PTH,ComponentDrill
T6C1.300
%
G90
G05
T1
X59.25Y-112.25
X65.615Y-62.0
X66.5Y-71.75
X81.25Y-75.25
X82.5Y-74.5
X86.25Y-111.75
X91.5Y-70.25
X94.5Y-99.0
X96.0Y-110.0
X100.75Y-67.0
X108.25Y-60.0
X109.25Y-64.5
X109.9Y-109.6
X112.0Y-61.0
X112.0Y-68.0
X114.5Y-93.75
X115.125Y-99.875
X118.5Y-83.0
X118.5Y-111.25
X119.25Y-102.5
X120.5Y-65.685
X120.75Y-67.0
X122.0Y-66.75
X123.25Y-74.5
X124.25Y-72.25
X128.25Y-101.75
X128.5Y-79.75
X130.5Y-63.75
X133.25Y-75.45
X134.25Y-78.25
X136.44Y-81.06
X137.0Y-70.75
X138.98Y-67.5
X140.0Y-79.25
X141.5Y-69.0
X142.0Y-97.75
X143.5Y-69.75
X145.25Y-85.0
X146.5Y-91.25
X147.0Y-78.0
X154.0Y-60.5
X158.0Y-113.0
X158.625Y-113.625
X159.375Y-114.125
X160.25Y-67.0
X161.25Y-74.5
X161.5Y-61.25
T2
X137.75Y-99.75
X137.75Y-101.75
X147.5Y-93.75
X147.5Y-95.75
X147.5Y-99.75
X147.5Y-101.75
T3
X59.315Y-76.817
X59.34Y-74.277
X59.34Y-85.072
X59.34Y-87.612
X73.5Y-61.88
X73.5Y-69.5
X78.136Y-85.199
X78.136Y-87.739
X78.238Y-76.817
X78.263Y-74.277
X78.5Y-62.0
X78.5Y-69.62
X83.5Y-61.94
X83.5Y-69.56
X88.5Y-61.88
X88.5Y-69.5
X93.5Y-61.94
X93.5Y-69.56
X98.25Y-61.88
X98.25Y-69.5
X102.96Y-61.88
X102.96Y-69.5
X105.5Y-61.88
X105.5Y-69.5
X108.04Y-61.88
X108.04Y-69.5
X110.58Y-61.88
X110.58Y-69.5
X115.0Y-61.94
X115.0Y-69.56
X119.5Y-61.94
X119.5Y-69.56
X124.0Y-61.88
X124.0Y-69.5
X127.69Y-57.0
X128.25Y-61.94
X128.25Y-69.56
X131.0Y-73.5
X131.0Y-76.0
X131.0Y-78.75
X131.0Y-81.25
X131.0Y-84.0
X131.0Y-86.5
X131.0Y-89.25
X131.0Y-91.75
X131.0Y-94.5
X131.0Y-97.0
X132.94Y-61.75
X134.88Y-87.67
X134.88Y-90.21
X134.88Y-92.75
X134.88Y-95.29
X135.31Y-57.0
X136.44Y-65.685
X136.44Y-73.305
X136.44Y-75.69
X136.44Y-83.31
X138.19Y-57.0
X138.98Y-65.685
X138.98Y-73.305
X138.98Y-75.69
X138.98Y-83.31
X140.56Y-61.75
X141.52Y-65.685
X141.52Y-73.305
X141.52Y-75.69
X141.52Y-83.31
X142.5Y-87.67
X142.5Y-90.21
X142.5Y-92.75
X142.5Y-95.29
X143.75Y-62.25
X144.06Y-65.685
X144.06Y-73.305
X144.06Y-75.69
X144.06Y-83.31
X145.81Y-57.0
X146.25Y-62.25
X149.0Y-81.94
X149.0Y-89.56
X150.67Y-56.935
X150.67Y-64.555
X153.21Y-56.935
X153.21Y-64.555
X155.75Y-56.935
X155.75Y-64.555
X158.29Y-56.935
X158.29Y-64.555
T4
X60.925Y-57.31
X63.465Y-57.31
X69.88Y-57.31
X72.42Y-57.31
X79.38Y-57.385
X81.92Y-57.385
X85.92Y-72.75
X85.92Y-87.99
X88.42Y-57.31
X88.46Y-72.75
X88.46Y-87.99
X90.96Y-57.31
X91.0Y-72.75
X91.0Y-87.99
X93.54Y-72.75
X93.54Y-87.99
X96.08Y-72.75
X96.08Y-87.99
X97.42Y-57.31
X98.62Y-72.75
X98.62Y-87.99
X99.96Y-57.31
X101.16Y-72.75
X101.16Y-87.99
X103.7Y-72.75
X103.7Y-87.99
X106.24Y-72.75
X106.24Y-87.99
X106.38Y-57.31
X108.78Y-72.75
X108.78Y-87.99
X108.92Y-57.31
X111.32Y-72.75
X111.32Y-87.99
X113.86Y-72.75
X113.86Y-87.99
X115.42Y-57.385
X116.4Y-72.75
X116.4Y-87.99
X117.96Y-57.385
X118.94Y-72.75
X118.94Y-87.99
X120.5Y-57.385
X121.48Y-72.75
X121.48Y-87.99
X123.04Y-57.385
X135.5Y-105.5
X138.04Y-105.5
X140.58Y-105.5
X144.46Y-105.365
X147.0Y-105.365
X149.54Y-105.365
X153.365Y-81.71
X153.365Y-84.25
X153.365Y-86.79
X153.5Y-92.94
X153.5Y-95.48
X153.5Y-98.02
X153.5Y-100.56
X153.5Y-106.42
X153.5Y-108.96
X153.5Y-111.5
T5
X74.022Y-95.0
X76.562Y-95.0
X79.102Y-95.0
X85.346Y-95.0
X87.886Y-95.0
X90.426Y-95.0
X96.67Y-95.0
X99.21Y-95.0
X101.75Y-95.0
X107.994Y-95.0
X110.534Y-95.0
X113.074Y-95.0
X119.318Y-95.0
X121.858Y-95.0
X124.398Y-95.0
T6
X63.25Y-64.17
X63.25Y-69.25
X63.5Y-94.26
X63.5Y-99.34
X63.5Y-104.42
X63.5Y-109.5
X74.244Y-105.5
X79.324Y-105.5
X87.237Y-105.5
X92.317Y-105.5
X100.23Y-105.5
X105.31Y-105.5
X113.0Y-105.5
X118.08Y-105.5
X125.5Y-105.5
X130.58Y-105.5
X154.672Y-69.965
X154.672Y-75.045
M30
