%TF.GenerationSoftware,KiCad,Pcbnew,10.0.5*%
%TF.CreationDate,2026-10-01T21:15:45-03:00*%
%TF.ProjectId,ProcessTestbenchHardware,50726f63-6573-4735-9465-737462656e63,rev?*%
%TF.SameCoordinates,Original*%
%TF.FileFunction,Copper,L1,Top*%
%TF.FilePolarity,Positive*%
%FSLAX46Y46*%
G04 Gerber Fmt 4.6, Leading zero omitted, Abs format (unit mm)*
G04 Created by KiCad (PCBNEW 10.0.5) date 2026-10-01 21:15:45*
%MOMM*%
%LPD*%
G01*
G04 APERTURE LIST*
G04 Aperture macros list*
%AMRoundRect*
0 Rectangle with rounded corners*
0 $1 Rounding radius*
0 $2 $3 $4 $5 $6 $7 $8 $9 X,Y pos of 4 corners*
0 Add a 4 corners polygon primitive as box body*
4,1,4,$2,$3,$4,$5,$6,$7,$8,$9,$2,$3,0*
0 Add four circle primitives for the rounded corners*
1,1,$1+$1,$2,$3*
1,1,$1+$1,$4,$5*
1,1,$1+$1,$6,$7*
1,1,$1+$1,$8,$9*
0 Add four rect primitives between the rounded corners*
20,1,$1+$1,$2,$3,$4,$5,0*
20,1,$1+$1,$4,$5,$6,$7,0*
20,1,$1+$1,$6,$7,$8,$9,0*
20,1,$1+$1,$8,$9,$2,$3,0*%
G04 Aperture macros list end*
%TA.AperFunction,ComponentPad*%
%ADD10R,1.700000X1.700000*%
%TD*%
%TA.AperFunction,ComponentPad*%
%ADD11C,1.700000*%
%TD*%
%TA.AperFunction,ComponentPad*%
%ADD12C,1.600000*%
%TD*%
%TA.AperFunction,ComponentPad*%
%ADD13C,1.200000*%
%TD*%
%TA.AperFunction,ComponentPad*%
%ADD14RoundRect,0.250000X-1.050000X-1.050000X1.050000X-1.050000X1.050000X1.050000X-1.050000X1.050000X0*%
%TD*%
%TA.AperFunction,ComponentPad*%
%ADD15C,2.600000*%
%TD*%
%TA.AperFunction,ComponentPad*%
%ADD16R,1.905000X2.000000*%
%TD*%
%TA.AperFunction,ComponentPad*%
%ADD17O,1.905000X2.000000*%
%TD*%
%TA.AperFunction,ComponentPad*%
%ADD18RoundRect,0.250000X-1.050000X1.050000X-1.050000X-1.050000X1.050000X-1.050000X1.050000X1.050000X0*%
%TD*%
%TA.AperFunction,ComponentPad*%
%ADD19RoundRect,0.250000X0.550000X-0.550000X0.550000X0.550000X-0.550000X0.550000X-0.550000X-0.550000X0*%
%TD*%
%TA.AperFunction,ComponentPad*%
%ADD20R,1.600000X1.600000*%
%TD*%
%TA.AperFunction,ComponentPad*%
%ADD21O,1.600000X1.600000*%
%TD*%
%TA.AperFunction,ComponentPad*%
%ADD22RoundRect,0.250000X1.050000X-1.050000X1.050000X1.050000X-1.050000X1.050000X-1.050000X-1.050000X0*%
%TD*%
%TA.AperFunction,ComponentPad*%
%ADD23RoundRect,0.250000X-0.550000X-0.550000X0.550000X-0.550000X0.550000X0.550000X-0.550000X0.550000X0*%
%TD*%
%TA.AperFunction,ViaPad*%
%ADD24C,0.500000*%
%TD*%
%TA.AperFunction,ViaPad*%
%ADD25C,1.000000*%
%TD*%
%TA.AperFunction,ViaPad*%
%ADD26C,2.000000*%
%TD*%
%TA.AperFunction,ViaPad*%
%ADD27C,0.600000*%
%TD*%
%TA.AperFunction,Conductor*%
%ADD28C,0.500000*%
%TD*%
%TA.AperFunction,Conductor*%
%ADD29C,1.000000*%
%TD*%
%TA.AperFunction,Conductor*%
%ADD30C,2.000000*%
%TD*%
G04 APERTURE END LIST*
D10*
%TO.P,J2,1,Pin_1_1*%
%TO.N,GND*%
X140580000Y-105500000D03*
D11*
%TO.P,J2,2,Pin_2_2*%
%TO.N,/Fluxo2*%
X138040000Y-105500000D03*
%TO.P,J2,3,Pin_3_3*%
%TO.N,+5V*%
X135500000Y-105500000D03*
%TD*%
D12*
%TO.P,C8,1*%
%TO.N,GND*%
X131000000Y-76000000D03*
%TO.P,C8,2*%
%TO.N,+5V*%
X131000000Y-73500000D03*
%TD*%
D10*
%TO.P,J6,1,Pin_1_1*%
%TO.N,/AnalogTemp1*%
X69880000Y-57310000D03*
D11*
%TO.P,J6,2,Pin_2_2*%
%TO.N,GND*%
X72420000Y-57310000D03*
%TD*%
D10*
%TO.P,J12,1,Pin_1_1*%
%TO.N,+5V*%
X88420000Y-57310000D03*
D11*
%TO.P,J12,2,Pin_2_2*%
%TO.N,/LSHH2*%
X90960000Y-57310000D03*
%TD*%
D12*
%TO.P,R5,1*%
%TO.N,Net-(AD620_1-Rg-Pad1)*%
X119500000Y-69560000D03*
%TO.P,R5,2*%
%TO.N,Net-(AD620_1-Rg-Pad8)*%
X119500000Y-61940000D03*
%TD*%
D13*
%TO.P,C1,1*%
%TO.N,Net-(ICL7660-CAP+)*%
X137750000Y-99750000D03*
%TO.P,C1,2*%
%TO.N,Net-(ICL7660-CAP-)*%
X137750000Y-101750000D03*
%TD*%
D10*
%TO.P,J13,1,Pin_1_1*%
%TO.N,+5V*%
X79380000Y-57385000D03*
D11*
%TO.P,J13,2,Pin_2_2*%
%TO.N,/LSLL2*%
X81920000Y-57385000D03*
%TD*%
D12*
%TO.P,R12,1*%
%TO.N,Net-(RS485-Pin_2)*%
X140560000Y-61750000D03*
%TO.P,R12,2*%
%TO.N,Net-(RS485-Pin_1)*%
X132940000Y-61750000D03*
%TD*%
%TO.P,R2,1*%
%TO.N,/LSHH2*%
X88500000Y-61880000D03*
%TO.P,R2,2*%
%TO.N,GND*%
X88500000Y-69500000D03*
%TD*%
D10*
%TO.P,J1,1,Pin_1_1*%
%TO.N,GND*%
X153365000Y-81710000D03*
D11*
%TO.P,J1,2,Pin_2_2*%
%TO.N,/Fluxo1*%
X153365000Y-84250000D03*
%TO.P,J1,3,Pin_3_3*%
%TO.N,+5V*%
X153365000Y-86790000D03*
%TD*%
D14*
%TO.P,Bomba1,1,Pin_1_1*%
%TO.N,Net-(Bomba1-Pin_1)*%
X113000000Y-105500000D03*
D15*
%TO.P,Bomba1,2,Pin_2_2*%
%TO.N,+12V*%
X118080000Y-105500000D03*
%TD*%
D12*
%TO.P,R13,1*%
%TO.N,Net-(RS485-Pin_1)*%
X127690000Y-57000000D03*
%TO.P,R13,2*%
%TO.N,GND*%
X135310000Y-57000000D03*
%TD*%
D16*
%TO.P,Q4,1,G_1*%
%TO.N,/Bomba1*%
X107994063Y-95000000D03*
D17*
%TO.P,Q4,2,D_2*%
%TO.N,Net-(Bomba1-Pin_1)*%
X110534063Y-95000000D03*
%TO.P,Q4,3,S_3*%
%TO.N,GND*%
X113074063Y-95000000D03*
%TD*%
D10*
%TO.P,J4,1,Pin_1_1*%
%TO.N,GND*%
X115420000Y-57385000D03*
D11*
%TO.P,J4,2,Pin_2_2*%
%TO.N,/Press1-*%
X117960000Y-57385000D03*
%TO.P,J4,3,Pin_3_3*%
%TO.N,/Press1+*%
X120500000Y-57385000D03*
%TO.P,J4,4,Pin_4_4*%
%TO.N,+5V*%
X123040000Y-57385000D03*
%TD*%
D18*
%TO.P,DimmerControlPins1,1,Pin_1_1*%
%TO.N,+5V*%
X63500000Y-94260000D03*
D15*
%TO.P,DimmerControlPins1,2,Pin_2_2*%
%TO.N,/ZcDimmer*%
X63500000Y-99340000D03*
%TO.P,DimmerControlPins1,3,Pin_3_3*%
%TO.N,/DimmerControl*%
X63500000Y-104420000D03*
%TO.P,DimmerControlPins1,4,Pin_4_4*%
%TO.N,GND*%
X63500000Y-109500000D03*
%TD*%
D13*
%TO.P,C3,1*%
%TO.N,+5V*%
X147500000Y-93750000D03*
%TO.P,C3,2*%
%TO.N,GND*%
X147500000Y-95750000D03*
%TD*%
D10*
%TO.P,J8,1,Pin_1_1*%
%TO.N,+5V*%
X106380000Y-57310000D03*
D11*
%TO.P,J8,2,Pin_2_2*%
%TO.N,/LSHH1*%
X108920000Y-57310000D03*
%TD*%
D14*
%TO.P,Cooler2,1,Pin_1_1*%
%TO.N,Net-(Cooler2-Pin_1)*%
X87236750Y-105500000D03*
D15*
%TO.P,Cooler2,2,Pin_2_2*%
%TO.N,+12V*%
X92316750Y-105500000D03*
%TD*%
D12*
%TO.P,R3,1*%
%TO.N,/LSLL1*%
X93500000Y-61940000D03*
%TO.P,R3,2*%
%TO.N,GND*%
X93500000Y-69560000D03*
%TD*%
%TO.P,R10,1*%
%TO.N,/AD620Ref*%
X124000000Y-69500000D03*
%TO.P,R10,2*%
%TO.N,+5V*%
X124000000Y-61880000D03*
%TD*%
D14*
%TO.P,Peltier1,1,Pin_1_1*%
%TO.N,Net-(Peltier1-Pin_1)*%
X100229750Y-105500000D03*
D15*
%TO.P,Peltier1,2,Pin_2_2*%
%TO.N,+12V*%
X105309750Y-105500000D03*
%TD*%
D12*
%TO.P,R1,1*%
%TO.N,/LSLL2*%
X78500000Y-62000000D03*
%TO.P,R1,2*%
%TO.N,GND*%
X78500000Y-69620000D03*
%TD*%
%TO.P,R7,1*%
%TO.N,+5V*%
X83500000Y-69560000D03*
%TO.P,R7,2*%
%TO.N,/AnalogTemp1*%
X83500000Y-61940000D03*
%TD*%
%TO.P,R14,1*%
%TO.N,Net-(RS485-Pin_2)*%
X149000000Y-81940000D03*
%TO.P,R14,2*%
%TO.N,Net-(RS485-Pin_1)*%
X149000000Y-89560000D03*
%TD*%
D19*
%TO.P,AD620_2,1,Rg_1*%
%TO.N,Net-(AD620_2-Rg-Pad1)*%
X136440000Y-83310000D03*
D12*
%TO.P,AD620_2,2,-_2*%
%TO.N,/Press2+*%
X138980000Y-83310000D03*
%TO.P,AD620_2,3,+_3*%
%TO.N,/Press2-*%
X141520000Y-83310000D03*
%TO.P,AD620_2,4,Vs-_4*%
%TO.N,-5V*%
X144060000Y-83310000D03*
%TO.P,AD620_2,5,Ref_5*%
%TO.N,/AD620Ref*%
X144060000Y-75690000D03*
%TO.P,AD620_2,6*%
%TO.N,Net-(LM358B-+)*%
X141520000Y-75690000D03*
%TO.P,AD620_2,7,Vs+_7*%
%TO.N,+5V*%
X138980000Y-75690000D03*
%TO.P,AD620_2,8,Rg_8*%
%TO.N,Net-(AD620_2-Rg-Pad8)*%
X136440000Y-75690000D03*
%TD*%
%TO.P,C6,1*%
%TO.N,+5V*%
X131000000Y-94500000D03*
%TO.P,C6,2*%
%TO.N,-5V*%
X131000000Y-97000000D03*
%TD*%
D13*
%TO.P,C2,1*%
%TO.N,-5V*%
X147500000Y-99750000D03*
%TO.P,C2,2*%
%TO.N,GND*%
X147500000Y-101750000D03*
%TD*%
D12*
%TO.P,R11,1*%
%TO.N,+5V*%
X138190000Y-57000000D03*
%TO.P,R11,2*%
%TO.N,Net-(RS485-Pin_2)*%
X145810000Y-57000000D03*
%TD*%
D19*
%TO.P,AD620_1,1,Rg_1*%
%TO.N,Net-(AD620_1-Rg-Pad1)*%
X136440000Y-73305000D03*
D12*
%TO.P,AD620_1,2,-_2*%
%TO.N,/Press1+*%
X138980000Y-73305000D03*
%TO.P,AD620_1,3,+_3*%
%TO.N,/Press1-*%
X141520000Y-73305000D03*
%TO.P,AD620_1,4,Vs-_4*%
%TO.N,-5V*%
X144060000Y-73305000D03*
%TO.P,AD620_1,5,Ref_5*%
%TO.N,/AD620Ref*%
X144060000Y-65685000D03*
%TO.P,AD620_1,6*%
%TO.N,Net-(LM358A-+)*%
X141520000Y-65685000D03*
%TO.P,AD620_1,7,Vs+_7*%
%TO.N,+5V*%
X138980000Y-65685000D03*
%TO.P,AD620_1,8,Rg_8*%
%TO.N,Net-(AD620_1-Rg-Pad8)*%
X136440000Y-65685000D03*
%TD*%
%TO.P,R6,1*%
%TO.N,+5V*%
X73500000Y-69500000D03*
%TO.P,R6,2*%
%TO.N,/AnalogTemp2*%
X73500000Y-61880000D03*
%TD*%
D20*
%TO.P,StepDown1,1,IN+_1*%
%TO.N,+12V*%
X59340000Y-85072000D03*
X59340000Y-87612000D03*
D21*
%TO.P,StepDown1,2,IN-_2*%
%TO.N,GND*%
X59314600Y-76817000D03*
X59340000Y-74277000D03*
D20*
%TO.P,StepDown1,3,OUT+_3*%
%TO.N,+5V*%
X78136000Y-85199000D03*
X78136000Y-87739000D03*
D21*
%TO.P,StepDown1,4,OUT-_4*%
%TO.N,GND*%
X78237600Y-76817000D03*
X78263000Y-74277000D03*
%TD*%
D16*
%TO.P,Q5,1,G_1*%
%TO.N,/Bomba2*%
X119318125Y-95000000D03*
D17*
%TO.P,Q5,2,D_2*%
%TO.N,Net-(Bomba2-Pin_1)*%
X121858125Y-95000000D03*
%TO.P,Q5,3,S_3*%
%TO.N,GND*%
X124398125Y-95000000D03*
%TD*%
D10*
%TO.P,J11,1,Pin_1_1*%
%TO.N,+5V*%
X97420000Y-57310000D03*
D11*
%TO.P,J11,2,Pin_2_2*%
%TO.N,/LSLL1*%
X99960000Y-57310000D03*
%TD*%
D12*
%TO.P,C4,1*%
%TO.N,+5V*%
X131000000Y-86500000D03*
%TO.P,C4,2*%
%TO.N,GND*%
X131000000Y-84000000D03*
%TD*%
D19*
%TO.P,LM358,1*%
%TO.N,/AnalogNivel1*%
X102960000Y-69500000D03*
D12*
%TO.P,LM358,2,-_2*%
X105500000Y-69500000D03*
%TO.P,LM358,3,+_3*%
%TO.N,Net-(LM358A-+)*%
X108040000Y-69500000D03*
%TO.P,LM358,4,V-_4*%
%TO.N,-5V*%
X110580000Y-69500000D03*
%TO.P,LM358,5,+_5*%
%TO.N,Net-(LM358B-+)*%
X110580000Y-61880000D03*
%TO.P,LM358,6,-_6*%
%TO.N,/AnalogNivel2*%
X108040000Y-61880000D03*
%TO.P,LM358,7*%
X105500000Y-61880000D03*
%TO.P,LM358,8,V+_8*%
%TO.N,+5V*%
X102960000Y-61880000D03*
%TD*%
D14*
%TO.P,Bomba2,1,Pin_1_1*%
%TO.N,Net-(Bomba2-Pin_1)*%
X125500000Y-105500000D03*
D15*
%TO.P,Bomba2,2,Pin_2_2*%
%TO.N,+12V*%
X130580000Y-105500000D03*
%TD*%
D16*
%TO.P,Q2,1,G_1*%
%TO.N,/Cooler*%
X85345938Y-95000000D03*
D17*
%TO.P,Q2,2,D_2*%
%TO.N,Net-(Cooler2-Pin_1)*%
X87885938Y-95000000D03*
%TO.P,Q2,3,S_3*%
%TO.N,GND*%
X90425938Y-95000000D03*
%TD*%
D22*
%TO.P,RS485,1,Pin_1_1*%
%TO.N,Net-(RS485-Pin_1)*%
X154672500Y-75045000D03*
D15*
%TO.P,RS485,2,Pin_2_2*%
%TO.N,Net-(RS485-Pin_2)*%
X154672500Y-69965000D03*
%TD*%
D12*
%TO.P,C7,1*%
%TO.N,GND*%
X143750000Y-62250000D03*
%TO.P,C7,2*%
%TO.N,+5V*%
X146250000Y-62250000D03*
%TD*%
%TO.P,C9,1*%
%TO.N,GND*%
X131000000Y-81250000D03*
%TO.P,C9,2*%
%TO.N,+5V*%
X131000000Y-78750000D03*
%TD*%
D10*
%TO.P,J14,1,Pin_1_1*%
%TO.N,+5V*%
X153500000Y-106420000D03*
D11*
%TO.P,J14,2,Pin_2_2*%
%TO.N,/SaidaServoMotor*%
X153500000Y-108960000D03*
%TO.P,J14,3,Pin_3_3*%
%TO.N,GND*%
X153500000Y-111500000D03*
%TD*%
D16*
%TO.P,Q3,1,G_1*%
%TO.N,/Peltier*%
X96670000Y-95000000D03*
D17*
%TO.P,Q3,2,D_2*%
%TO.N,Net-(Peltier1-Pin_1)*%
X99210000Y-95000000D03*
%TO.P,Q3,3,S_3*%
%TO.N,GND*%
X101750000Y-95000000D03*
%TD*%
D12*
%TO.P,R4,1*%
%TO.N,/LSHH1*%
X98250000Y-61880000D03*
%TO.P,R4,2*%
%TO.N,GND*%
X98250000Y-69500000D03*
%TD*%
D10*
%TO.P,J3,1,Pin_1_1*%
%TO.N,GND*%
X149540000Y-105365000D03*
D11*
%TO.P,J3,2,Pin_2_2*%
%TO.N,/Fluxo3*%
X147000000Y-105365000D03*
%TO.P,J3,3,Pin_3_3*%
%TO.N,+5V*%
X144460000Y-105365000D03*
%TD*%
D14*
%TO.P,Cooler1,1,Pin_1_1*%
%TO.N,Net-(Cooler1-Pin_1)*%
X74243750Y-105500000D03*
D15*
%TO.P,Cooler1,2,Pin_2_2*%
%TO.N,+12V*%
X79323750Y-105500000D03*
%TD*%
D10*
%TO.P,J5,1,Pin_1_1*%
%TO.N,GND*%
X153500000Y-92940000D03*
D11*
%TO.P,J5,2,Pin_2_2*%
%TO.N,/Press2-*%
X153500000Y-95480000D03*
%TO.P,J5,3,Pin_3_3*%
%TO.N,/Press2+*%
X153500000Y-98020000D03*
%TO.P,J5,4,Pin_4_4*%
%TO.N,+5V*%
X153500000Y-100560000D03*
%TD*%
D12*
%TO.P,R9,1*%
%TO.N,GND*%
X115000000Y-69560000D03*
%TO.P,R9,2*%
%TO.N,/AD620Ref*%
X115000000Y-61940000D03*
%TD*%
D23*
%TO.P,ICL7660,1,NC_1*%
%TO.N,unconnected-(ICL7660-NC-Pad1)*%
X134880000Y-87670000D03*
D12*
%TO.P,ICL7660,2,CAP+_2*%
%TO.N,Net-(ICL7660-CAP+)*%
X134880000Y-90210000D03*
%TO.P,ICL7660,3,GND_3*%
%TO.N,GND*%
X134880000Y-92750000D03*
%TO.P,ICL7660,4,CAP-_4*%
%TO.N,Net-(ICL7660-CAP-)*%
X134880000Y-95290000D03*
%TO.P,ICL7660,5,VOUT_5*%
%TO.N,-5V*%
X142500000Y-95290000D03*
%TO.P,ICL7660,6,LV_6*%
%TO.N,unconnected-(ICL7660-LV-Pad6)*%
X142500000Y-92750000D03*
%TO.P,ICL7660,7,OSC_7*%
%TO.N,unconnected-(ICL7660-OSC-Pad7)*%
X142500000Y-90210000D03*
%TO.P,ICL7660,8,V+_8*%
%TO.N,+5V*%
X142500000Y-87670000D03*
%TD*%
D20*
%TO.P,A1,1,D1/TX_1*%
%TO.N,/MAX485_RX*%
X85920000Y-87990000D03*
D21*
%TO.P,A1,2,D0/RX_2*%
%TO.N,/MAX485_TX*%
X88460000Y-87990000D03*
%TO.P,A1,3,~{RESET}_3*%
%TO.N,unconnected-(A1-~{RESET}-Pad3)*%
X91000000Y-87990000D03*
%TO.P,A1,4,GND_4*%
%TO.N,GND*%
X93540000Y-87990000D03*
%TO.P,A1,5,D2_5*%
%TO.N,/ZcDimmer*%
X96080000Y-87990000D03*
%TO.P,A1,6,D3_6*%
%TO.N,/SaidaServoMotor*%
X98620000Y-87990000D03*
%TO.P,A1,7,D4_7*%
%TO.N,/DimmerControl*%
X101160000Y-87990000D03*
%TO.P,A1,8,D5_8*%
%TO.N,/Cooler*%
X103700000Y-87990000D03*
%TO.P,A1,9,D6_9*%
%TO.N,/Peltier*%
X106240000Y-87990000D03*
%TO.P,A1,10,D7_10*%
%TO.N,/DE{slash}RE_MAX485*%
X108780000Y-87990000D03*
%TO.P,A1,11,D8_11*%
%TO.N,/Bomba1*%
X111320000Y-87990000D03*
%TO.P,A1,12,D9_12*%
%TO.N,/Bomba2*%
X113860000Y-87990000D03*
%TO.P,A1,13,D10_13*%
%TO.N,/Fluxo1*%
X116400000Y-87990000D03*
%TO.P,A1,14,D11_14*%
%TO.N,/Fluxo2*%
X118940000Y-87990000D03*
%TO.P,A1,15,D12_15*%
%TO.N,/Fluxo3*%
X121480000Y-87990000D03*
%TO.P,A1,16,D13_16*%
%TO.N,unconnected-(A1-D13-Pad16)*%
X121480000Y-72750000D03*
%TO.P,A1,17,3V3_17*%
%TO.N,unconnected-(A1-3V3-Pad17)*%
X118940000Y-72750000D03*
%TO.P,A1,18,AREF_18*%
%TO.N,unconnected-(A1-AREF-Pad18)*%
X116400000Y-72750000D03*
%TO.P,A1,19,A0_19*%
%TO.N,/LSHH1*%
X113860000Y-72750000D03*
%TO.P,A1,20,A1_20*%
%TO.N,/LSLL1*%
X111320000Y-72750000D03*
%TO.P,A1,21,A2_21*%
%TO.N,/LSHH2*%
X108780000Y-72750000D03*
%TO.P,A1,22,A3_22*%
%TO.N,/LSLL2*%
X106240000Y-72750000D03*
%TO.P,A1,23,A4_23*%
%TO.N,/AnalogTemp1*%
X103700000Y-72750000D03*
%TO.P,A1,24,A5_24*%
%TO.N,/AnalogTemp2*%
X101160000Y-72750000D03*
%TO.P,A1,25,A6_25*%
%TO.N,/AnalogNivel1*%
X98620000Y-72750000D03*
%TO.P,A1,26,A7_26*%
%TO.N,/AnalogNivel2*%
X96080000Y-72750000D03*
%TO.P,A1,27,+5V_27*%
%TO.N,unconnected-(A1-+5V-Pad27)*%
X93540000Y-72750000D03*
%TO.P,A1,28,~{RESET}_28*%
%TO.N,unconnected-(A1-~{RESET}-Pad28)*%
X91000000Y-72750000D03*
%TO.P,A1,29,GND_29*%
%TO.N,GND*%
X88460000Y-72750000D03*
%TO.P,A1,30,VIN_30*%
%TO.N,+5V*%
X85920000Y-72750000D03*
%TD*%
D19*
%TO.P,U2,1,RO_1*%
%TO.N,/MAX485_RX*%
X150670000Y-64555000D03*
D12*
%TO.P,U2,2,~{RE}_2*%
%TO.N,/DE{slash}RE_MAX485*%
X153210000Y-64555000D03*
%TO.P,U2,3,DE_3*%
X155750000Y-64555000D03*
%TO.P,U2,4,DI_4*%
%TO.N,/MAX485_TX*%
X158290000Y-64555000D03*
%TO.P,U2,5,GND_5*%
%TO.N,GND*%
X158290000Y-56935000D03*
%TO.P,U2,6,A_6*%
%TO.N,Net-(RS485-Pin_1)*%
X155750000Y-56935000D03*
%TO.P,U2,7,B_7*%
%TO.N,Net-(RS485-Pin_2)*%
X153210000Y-56935000D03*
%TO.P,U2,8,VCC_8*%
%TO.N,+5V*%
X150670000Y-56935000D03*
%TD*%
%TO.P,C5,1*%
%TO.N,-5V*%
X131000000Y-91750000D03*
%TO.P,C5,2*%
%TO.N,GND*%
X131000000Y-89250000D03*
%TD*%
D16*
%TO.P,Q1,1,G_1*%
%TO.N,/Cooler*%
X74021875Y-95000000D03*
D17*
%TO.P,Q1,2,D_2*%
%TO.N,Net-(Cooler1-Pin_1)*%
X76561875Y-95000000D03*
%TO.P,Q1,3,S_3*%
%TO.N,GND*%
X79101875Y-95000000D03*
%TD*%
D18*
%TO.P,PowerSuply1,1,Pin_1_1*%
%TO.N,GND*%
X63250000Y-64170000D03*
D15*
%TO.P,PowerSuply1,2,Pin_2_2*%
%TO.N,+12V*%
X63250000Y-69250000D03*
%TD*%
D12*
%TO.P,R8,1*%
%TO.N,Net-(AD620_2-Rg-Pad1)*%
X128250000Y-69560000D03*
%TO.P,R8,2*%
%TO.N,Net-(AD620_2-Rg-Pad8)*%
X128250000Y-61940000D03*
%TD*%
D10*
%TO.P,J7,1,Pin_1_1*%
%TO.N,/AnalogTemp2*%
X60925000Y-57310000D03*
D11*
%TO.P,J7,2,Pin_2_2*%
%TO.N,GND*%
X63465000Y-57310000D03*
%TD*%
D24*
%TO.N,/Fluxo2*%
X119250000Y-102500000D03*
D25*
%TO.N,+5V*%
X137000000Y-70750000D03*
X147000000Y-78000000D03*
D24*
%TO.N,/AnalogTemp1*%
X82500000Y-74500000D03*
%TO.N,/LSHH2*%
X91500000Y-70250000D03*
%TO.N,Net-(AD620_1-Rg-Pad1)*%
X123250000Y-74500000D03*
%TO.N,Net-(AD620_1-Rg-Pad8)*%
X120500000Y-65685000D03*
%TO.N,/LSLL2*%
X81250000Y-75250000D03*
%TO.N,Net-(RS485-Pin_1)*%
X154000000Y-60500000D03*
X161250000Y-74500000D03*
X161500000Y-61250000D03*
%TO.N,/Fluxo1*%
X118500000Y-83000000D03*
D26*
%TO.N,+12V*%
X59250000Y-112250000D03*
D24*
%TO.N,/Press1-*%
X141500000Y-69000000D03*
X120750000Y-67000000D03*
%TO.N,/Press1+*%
X122000000Y-66750000D03*
X138980000Y-67500000D03*
%TO.N,/LSHH1*%
X112000000Y-61000000D03*
X108250000Y-60000000D03*
%TO.N,/LSLL1*%
X100750000Y-67000000D03*
X112000000Y-68000000D03*
%TO.N,/AD620Ref*%
X143500000Y-69750000D03*
D27*
%TO.N,Net-(AD620_2-Rg-Pad1)*%
X128500000Y-79750000D03*
D24*
X136440000Y-81060000D03*
%TO.N,/Press2+*%
X142000000Y-97750000D03*
%TO.N,/Press2-*%
X146500000Y-91250000D03*
X145250000Y-85000000D03*
%TO.N,-5V*%
X124250000Y-72250000D03*
%TO.N,Net-(LM358B-+)*%
X140000000Y-79250000D03*
X134250000Y-78250000D03*
X130500000Y-63750000D03*
%TO.N,Net-(AD620_2-Rg-Pad8)*%
X133250000Y-75450000D03*
%TO.N,Net-(LM358A-+)*%
X109250000Y-64500000D03*
%TO.N,/AnalogTemp2*%
X65615000Y-62000000D03*
X66500000Y-71750000D03*
%TO.N,/Bomba2*%
X114500000Y-93750000D03*
%TO.N,/Fluxo3*%
X128250000Y-101750000D03*
%TO.N,/MAX485_RX*%
X159375000Y-114125000D03*
X160250000Y-67000000D03*
X86250000Y-111750000D03*
%TO.N,/MAX485_TX*%
X158625000Y-113625000D03*
X96000000Y-110000000D03*
%TO.N,/SaidaServoMotor*%
X118500000Y-111250000D03*
X115125000Y-99875000D03*
X94500000Y-99000000D03*
%TO.N,/DE{slash}RE_MAX485*%
X109900000Y-109600000D03*
X158000000Y-113000000D03*
%TD*%
%TO.N,/Fluxo2*%
D28*
X138040000Y-105500000D02*
X136040000Y-103500000D01*
X136040000Y-103500000D02*
X120250000Y-103500000D01*
X120250000Y-103500000D02*
X119250000Y-102500000D01*
%TO.N,+5V*%
D29*
X137480000Y-77190000D02*
X138980000Y-75690000D01*
X80930000Y-58935000D02*
X86795000Y-58935000D01*
X140530001Y-85700001D02*
X142500000Y-87670000D01*
X98970000Y-58860000D02*
X104830000Y-58860000D01*
X104830000Y-58860000D02*
X106380000Y-57310000D01*
X149235000Y-55500000D02*
X150670000Y-56935000D01*
X153500000Y-106420000D02*
X152170000Y-107750000D01*
X152170000Y-107750000D02*
X145250000Y-107750000D01*
X124925000Y-55500000D02*
X136690000Y-55500000D01*
X89970000Y-58860000D02*
X95870000Y-58860000D01*
X143420000Y-86750000D02*
X153325000Y-86750000D01*
X142500000Y-87670000D02*
X143420000Y-86750000D01*
X144460000Y-106960000D02*
X145250000Y-107750000D01*
X87560000Y-65500000D02*
X99340000Y-65500000D01*
X131000000Y-78750000D02*
X132560000Y-77190000D01*
X81940000Y-71120000D02*
X75120000Y-71120000D01*
X131000000Y-94500000D02*
X129500000Y-93000000D01*
D28*
X78136000Y-87739000D02*
X70021000Y-87739000D01*
D29*
X132560000Y-77190000D02*
X137480000Y-77190000D01*
X153325000Y-86750000D02*
X153365000Y-86790000D01*
X135945000Y-71805000D02*
X132695000Y-71805000D01*
X83500000Y-69560000D02*
X87560000Y-65500000D01*
X97420000Y-57310000D02*
X98970000Y-58860000D01*
X135500000Y-106500000D02*
X135500000Y-105500000D01*
X136750000Y-107750000D02*
X135500000Y-106500000D01*
X145250000Y-107750000D02*
X136750000Y-107750000D01*
X123040000Y-57385000D02*
X124925000Y-55500000D01*
X75120000Y-71120000D02*
X73500000Y-69500000D01*
D28*
X70021000Y-87739000D02*
X63500000Y-94260000D01*
D29*
X138190000Y-57000000D02*
X139690000Y-55500000D01*
X147000000Y-78000000D02*
X141290000Y-78000000D01*
X86795000Y-58935000D02*
X88420000Y-57310000D01*
X139690000Y-55500000D02*
X149235000Y-55500000D01*
X131000000Y-86500000D02*
X131799999Y-85700001D01*
X108005000Y-58935000D02*
X121490000Y-58935000D01*
X88420000Y-57310000D02*
X89970000Y-58860000D01*
X144460000Y-105365000D02*
X144460000Y-106960000D01*
X136690000Y-55500000D02*
X138190000Y-57000000D01*
X129500000Y-88000000D02*
X131000000Y-86500000D01*
X141290000Y-78000000D02*
X138980000Y-75690000D01*
X121490000Y-58935000D02*
X123040000Y-57385000D01*
X129500000Y-93000000D02*
X129500000Y-88000000D01*
X137000000Y-70750000D02*
X135945000Y-71805000D01*
X106380000Y-57310000D02*
X108005000Y-58935000D01*
X79380000Y-57385000D02*
X80930000Y-58935000D01*
X99340000Y-65500000D02*
X102960000Y-61880000D01*
X131799999Y-85700001D02*
X140530001Y-85700001D01*
X83500000Y-69560000D02*
X81940000Y-71120000D01*
X132695000Y-71805000D02*
X131000000Y-73500000D01*
X95870000Y-58860000D02*
X97420000Y-57310000D01*
%TO.N,/AnalogTemp1*%
D28*
X83000000Y-75000000D02*
X101450000Y-75000000D01*
X82500000Y-74500000D02*
X83000000Y-75000000D01*
X72570000Y-60000000D02*
X81560000Y-60000000D01*
X69880000Y-57310000D02*
X72570000Y-60000000D01*
X101450000Y-75000000D02*
X103700000Y-72750000D01*
X81560000Y-60000000D02*
X83500000Y-61940000D01*
%TO.N,/LSHH2*%
X107280000Y-71250000D02*
X108780000Y-72750000D01*
X91500000Y-70250000D02*
X92500000Y-71250000D01*
X92500000Y-71250000D02*
X107280000Y-71250000D01*
%TO.N,Net-(AD620_1-Rg-Pad1)*%
X123250000Y-74500000D02*
X123500000Y-74750000D01*
X123500000Y-74750000D02*
X134995000Y-74750000D01*
X134995000Y-74750000D02*
X136440000Y-73305000D01*
%TO.N,Net-(AD620_1-Rg-Pad8)*%
X136440000Y-65685000D02*
X120500000Y-65685000D01*
%TO.N,/LSLL2*%
X102740000Y-76250000D02*
X106240000Y-72750000D01*
X81250000Y-75250000D02*
X82250000Y-76250000D01*
X82250000Y-76250000D02*
X102740000Y-76250000D01*
%TO.N,Net-(RS485-Pin_2)*%
X146995000Y-58185000D02*
X145810000Y-57000000D01*
X151960000Y-58185000D02*
X146995000Y-58185000D01*
X153210000Y-56935000D02*
X151960000Y-58185000D01*
%TO.N,Net-(RS485-Pin_1)*%
X132940000Y-61750000D02*
X134190000Y-60500000D01*
X160705000Y-75045000D02*
X154672500Y-75045000D01*
X134190000Y-60500000D02*
X154000000Y-60500000D01*
X161500000Y-61250000D02*
X160750000Y-60500000D01*
X160750000Y-60500000D02*
X154000000Y-60500000D01*
X161250000Y-74500000D02*
X160705000Y-75045000D01*
%TO.N,/Fluxo1*%
X146767767Y-84250000D02*
X144577767Y-82060000D01*
X144577767Y-82060000D02*
X131957767Y-82060000D01*
X153365000Y-84250000D02*
X146767767Y-84250000D01*
X131267767Y-82750000D02*
X118750000Y-82750000D01*
X118750000Y-82750000D02*
X118500000Y-83000000D01*
X131957767Y-82060000D02*
X131267767Y-82750000D01*
%TO.N,+12V*%
D30*
X94816750Y-108000000D02*
X102809750Y-108000000D01*
X81823750Y-108000000D02*
X89816750Y-108000000D01*
X79323750Y-105500000D02*
X81823750Y-108000000D01*
X120580000Y-108000000D02*
X128080000Y-108000000D01*
X89816750Y-108000000D02*
X92316750Y-105500000D01*
X128080000Y-108000000D02*
X130580000Y-105500000D01*
D29*
X118080000Y-106134250D02*
X118080000Y-104520750D01*
X105309750Y-106090750D02*
X105309750Y-104564250D01*
D30*
X59250000Y-112250000D02*
X60250000Y-113250000D01*
X60250000Y-113250000D02*
X71573750Y-113250000D01*
D29*
X92316750Y-104847500D02*
X92316750Y-105807500D01*
D30*
X102809750Y-108000000D02*
X105309750Y-105500000D01*
X71573750Y-113250000D02*
X79323750Y-105500000D01*
X92316750Y-105500000D02*
X94816750Y-108000000D01*
D29*
X79323750Y-105784000D02*
X79323750Y-104871000D01*
D30*
X107809750Y-108000000D02*
X115580000Y-108000000D01*
X115580000Y-108000000D02*
X118080000Y-105500000D01*
X118080000Y-105500000D02*
X120580000Y-108000000D01*
X105309750Y-105500000D02*
X107809750Y-108000000D01*
%TO.N,/Press1-*%
D28*
X138190050Y-67700000D02*
X138740050Y-68250000D01*
X121500000Y-67750000D02*
X138140050Y-67750000D01*
X120750000Y-67000000D02*
X121500000Y-67750000D01*
X141250000Y-68250000D02*
X141500000Y-68500000D01*
X138140050Y-67750000D02*
X138190050Y-67700000D01*
X141500000Y-68500000D02*
X141500000Y-69000000D01*
X138740050Y-68250000D02*
X141250000Y-68250000D01*
%TO.N,/Press1+*%
X138980000Y-67500000D02*
X138480000Y-67000000D01*
X122250000Y-67000000D02*
X122000000Y-66750000D01*
X138480000Y-67000000D02*
X122250000Y-67000000D01*
%TO.N,/ZcDimmer*%
X71590000Y-91250000D02*
X95500000Y-91250000D01*
X63500000Y-99340000D02*
X71590000Y-91250000D01*
X96080000Y-90670000D02*
X96080000Y-87990000D01*
X95500000Y-91250000D02*
X96080000Y-90670000D01*
%TO.N,/DimmerControl*%
X97150000Y-92000000D02*
X101160000Y-87990000D01*
X63500000Y-104420000D02*
X66250000Y-101670000D01*
X66250000Y-99000000D02*
X73250000Y-92000000D01*
X66250000Y-101670000D02*
X66250000Y-99000000D01*
X73250000Y-92000000D02*
X97150000Y-92000000D01*
%TO.N,/LSHH1*%
X100130000Y-60000000D02*
X98250000Y-61880000D01*
X112000000Y-61000000D02*
X111000000Y-60000000D01*
X108250000Y-60000000D02*
X100130000Y-60000000D01*
X111000000Y-60000000D02*
X108250000Y-60000000D01*
%TO.N,/LSLL1*%
X112000000Y-68000000D02*
X111500000Y-67500000D01*
X101250000Y-67500000D02*
X100750000Y-67000000D01*
X111500000Y-67500000D02*
X101250000Y-67500000D01*
%TO.N,/AD620Ref*%
X125310000Y-70810000D02*
X135596498Y-70810000D01*
X124000000Y-69500000D02*
X125310000Y-70810000D01*
X136656498Y-69750000D02*
X143500000Y-69750000D01*
X135596498Y-70810000D02*
X136656498Y-69750000D01*
%TO.N,Net-(AD620_2-Rg-Pad1)*%
X128750000Y-80000000D02*
X135380000Y-80000000D01*
X128500000Y-79750000D02*
X128750000Y-80000000D01*
X135380000Y-80000000D02*
X136440000Y-81060000D01*
%TO.N,/Press2+*%
X142270000Y-98020000D02*
X153500000Y-98020000D01*
X142000000Y-97750000D02*
X142270000Y-98020000D01*
%TO.N,/Press2-*%
X152200000Y-94240000D02*
X152260000Y-94240000D01*
X141520000Y-83310000D02*
X143210000Y-85000000D01*
X151000000Y-91250000D02*
X152200000Y-92450000D01*
X143210000Y-85000000D02*
X145250000Y-85000000D01*
X152260000Y-94240000D02*
X153500000Y-95480000D01*
X146500000Y-91250000D02*
X151000000Y-91250000D01*
X152200000Y-92450000D02*
X152200000Y-94240000D01*
%TO.N,-5V*%
X123500000Y-71500000D02*
X112580000Y-71500000D01*
X112580000Y-71500000D02*
X110580000Y-69500000D01*
D29*
X142500000Y-95290000D02*
X140790000Y-97000000D01*
D28*
X124250000Y-72250000D02*
X123500000Y-71500000D01*
D29*
X140790000Y-97000000D02*
X131000000Y-97000000D01*
%TO.N,Net-(LM358B-+)*%
D28*
X135250000Y-79250000D02*
X140000000Y-79250000D01*
X110580000Y-61880000D02*
X112450000Y-63750000D01*
X134250000Y-78250000D02*
X135250000Y-79250000D01*
X112450000Y-63750000D02*
X130500000Y-63750000D01*
%TO.N,Net-(AD620_2-Rg-Pad8)*%
X133490000Y-75690000D02*
X136440000Y-75690000D01*
X133250000Y-75450000D02*
X133490000Y-75690000D01*
%TO.N,Net-(LM358A-+)*%
X139874950Y-64039950D02*
X131200000Y-64039950D01*
X130739950Y-64500000D02*
X109250000Y-64500000D01*
X131200000Y-64039950D02*
X130739950Y-64500000D01*
X141520000Y-65685000D02*
X139874950Y-64039950D01*
%TO.N,/AnalogTemp2*%
D29*
X73380000Y-62000000D02*
X73500000Y-61880000D01*
D28*
X83902233Y-72500000D02*
X85402233Y-74000000D01*
X66500000Y-71750000D02*
X67250000Y-72500000D01*
X99910000Y-74000000D02*
X101160000Y-72750000D01*
X67250000Y-72500000D02*
X83902233Y-72500000D01*
X65615000Y-62000000D02*
X73380000Y-62000000D01*
X85402233Y-74000000D02*
X99910000Y-74000000D01*
%TO.N,/Bomba2*%
X115750000Y-95000000D02*
X119318125Y-95000000D01*
X114500000Y-93750000D02*
X115750000Y-95000000D01*
%TO.N,/Cooler*%
X85345938Y-95000000D02*
X87595938Y-92750000D01*
X87595938Y-92750000D02*
X98940000Y-92750000D01*
X83595938Y-96750000D02*
X85345938Y-95000000D01*
X74021875Y-95000000D02*
X75771875Y-96750000D01*
X75771875Y-96750000D02*
X83595938Y-96750000D01*
X98940000Y-92750000D02*
X103700000Y-87990000D01*
%TO.N,/Fluxo3*%
X144435000Y-102800000D02*
X147000000Y-105365000D01*
X129300000Y-102800000D02*
X144435000Y-102800000D01*
X128250000Y-101750000D02*
X129300000Y-102800000D01*
%TO.N,/MAX485_RX*%
X159375000Y-114125000D02*
X158500000Y-115000000D01*
X158500000Y-115000000D02*
X89500000Y-115000000D01*
X159750000Y-66500000D02*
X152615000Y-66500000D01*
X89500000Y-115000000D02*
X86250000Y-111750000D01*
X152615000Y-66500000D02*
X150670000Y-64555000D01*
X160250000Y-67000000D02*
X159750000Y-66500000D01*
%TO.N,/MAX485_TX*%
X158625000Y-113625000D02*
X158000000Y-114250000D01*
X100250000Y-114250000D02*
X96000000Y-110000000D01*
X158000000Y-114250000D02*
X100250000Y-114250000D01*
%TO.N,/SaidaServoMotor*%
X153500000Y-108960000D02*
X151210000Y-111250000D01*
X151210000Y-111250000D02*
X118500000Y-111250000D01*
X115125000Y-99875000D02*
X114750000Y-99500000D01*
X114750000Y-99500000D02*
X95000000Y-99500000D01*
X95000000Y-99500000D02*
X94500000Y-99000000D01*
%TO.N,/DE{slash}RE_MAX485*%
X157500000Y-113500000D02*
X113800000Y-113500000D01*
X113800000Y-113500000D02*
X109900000Y-109600000D01*
X153210000Y-64555000D02*
X155750000Y-64555000D01*
X158000000Y-113000000D02*
X157500000Y-113500000D01*
%TD*%
M02*
