%TF.GenerationSoftware,KiCad,Pcbnew,10.0.5*%
%TF.CreationDate,2026-10-01T21:15:50-03:00*%
%TF.ProjectId,ProcessTestbenchHardware,50726f63-6573-4735-9465-737462656e63,rev?*%
%TF.SameCoordinates,Original*%
%TF.FileFunction,Drillmap*%
%TF.FilePolarity,Positive*%
%FSLAX45Y45*%
G04 Gerber Fmt 4.5, Leading zero omitted, Abs format (unit mm)*
G04 Created by KiCad (PCBNEW 10.0.5) date 2026-10-01 21:15:50*
%MOMM*%
%LPD*%
G01*
G04 APERTURE LIST*
%ADD10C,0.050000*%
%ADD11C,0.200000*%
%ADD12C,0.100000*%
%ADD13C,0.110000*%
%ADD14C,0.130000*%
G04 APERTURE END LIST*
D10*
X5500000Y-4400000D02*
X16500000Y-4400000D01*
X16500000Y-11900000D01*
X5500000Y-11900000D01*
X5500000Y-4400000D01*
X5950000Y-4700000D02*
G75*
G02*
X5650000Y-4700000I-150000J0D01*
G01*
X5650000Y-4700000D02*
G75*
G02*
X5950000Y-4700000I150000J0D01*
G01*
X5950000Y-11600000D02*
G75*
G02*
X5650000Y-11600000I-150000J0D01*
G01*
X5650000Y-11600000D02*
G75*
G02*
X5950000Y-11600000I150000J0D01*
G01*
X16350000Y-4700000D02*
G75*
G02*
X16050000Y-4700000I-150000J0D01*
G01*
X16050000Y-4700000D02*
G75*
G02*
X16350000Y-4700000I150000J0D01*
G01*
X16350000Y-11600000D02*
G75*
G02*
X16050000Y-11600000I-150000J0D01*
G01*
X16050000Y-11600000D02*
G75*
G02*
X16350000Y-11600000I150000J0D01*
G01*
D11*
D12*
X5910000Y-11210000D02*
X5940000Y-11240000D01*
X5940000Y-11210000D02*
X5910000Y-11240000D01*
X6546500Y-6185000D02*
X6576500Y-6215000D01*
X6576500Y-6185000D02*
X6546500Y-6215000D01*
X6635000Y-7160000D02*
X6665000Y-7190000D01*
X6665000Y-7160000D02*
X6635000Y-7190000D01*
X8110000Y-7510000D02*
X8140000Y-7540000D01*
X8140000Y-7510000D02*
X8110000Y-7540000D01*
X8235000Y-7435000D02*
X8265000Y-7465000D01*
X8265000Y-7435000D02*
X8235000Y-7465000D01*
X8610000Y-11160000D02*
X8640000Y-11190000D01*
X8640000Y-11160000D02*
X8610000Y-11190000D01*
X9135000Y-7010000D02*
X9165000Y-7040000D01*
X9165000Y-7010000D02*
X9135000Y-7040000D01*
X9435000Y-9885000D02*
X9465000Y-9915000D01*
X9465000Y-9885000D02*
X9435000Y-9915000D01*
X9585000Y-10985000D02*
X9615000Y-11015000D01*
X9615000Y-10985000D02*
X9585000Y-11015000D01*
X10060000Y-6685000D02*
X10090000Y-6715000D01*
X10090000Y-6685000D02*
X10060000Y-6715000D01*
X10810000Y-5985000D02*
X10840000Y-6015000D01*
X10840000Y-5985000D02*
X10810000Y-6015000D01*
X10910000Y-6435000D02*
X10940000Y-6465000D01*
X10940000Y-6435000D02*
X10910000Y-6465000D01*
X10975000Y-10945000D02*
X11005000Y-10975000D01*
X11005000Y-10945000D02*
X10975000Y-10975000D01*
X11185000Y-6085000D02*
X11215000Y-6115000D01*
X11215000Y-6085000D02*
X11185000Y-6115000D01*
X11185000Y-6785000D02*
X11215000Y-6815000D01*
X11215000Y-6785000D02*
X11185000Y-6815000D01*
X11435000Y-9360000D02*
X11465000Y-9390000D01*
X11465000Y-9360000D02*
X11435000Y-9390000D01*
X11497500Y-9972500D02*
X11527500Y-10002500D01*
X11527500Y-9972500D02*
X11497500Y-10002500D01*
X11835000Y-8285000D02*
X11865000Y-8315000D01*
X11865000Y-8285000D02*
X11835000Y-8315000D01*
X11835000Y-11110000D02*
X11865000Y-11140000D01*
X11865000Y-11110000D02*
X11835000Y-11140000D01*
X11910000Y-10235000D02*
X11940000Y-10265000D01*
X11940000Y-10235000D02*
X11910000Y-10265000D01*
X12035000Y-6553500D02*
X12065000Y-6583500D01*
X12065000Y-6553500D02*
X12035000Y-6583500D01*
X12060000Y-6685000D02*
X12090000Y-6715000D01*
X12090000Y-6685000D02*
X12060000Y-6715000D01*
X12185000Y-6660000D02*
X12215000Y-6690000D01*
X12215000Y-6660000D02*
X12185000Y-6690000D01*
X12310000Y-7435000D02*
X12340000Y-7465000D01*
X12340000Y-7435000D02*
X12310000Y-7465000D01*
X12410000Y-7210000D02*
X12440000Y-7240000D01*
X12440000Y-7210000D02*
X12410000Y-7240000D01*
X12810000Y-10160000D02*
X12840000Y-10190000D01*
X12840000Y-10160000D02*
X12810000Y-10190000D01*
X12835000Y-7960000D02*
X12865000Y-7990000D01*
X12865000Y-7960000D02*
X12835000Y-7990000D01*
X13035000Y-6360000D02*
X13065000Y-6390000D01*
X13065000Y-6360000D02*
X13035000Y-6390000D01*
X13310000Y-7530000D02*
X13340000Y-7560000D01*
X13340000Y-7530000D02*
X13310000Y-7560000D01*
X13410000Y-7810000D02*
X13440000Y-7840000D01*
X13440000Y-7810000D02*
X13410000Y-7840000D01*
X13629000Y-8091000D02*
X13659000Y-8121000D01*
X13659000Y-8091000D02*
X13629000Y-8121000D01*
X13685000Y-7060000D02*
X13715000Y-7090000D01*
X13715000Y-7060000D02*
X13685000Y-7090000D01*
X13883000Y-6735000D02*
X13913000Y-6765000D01*
X13913000Y-6735000D02*
X13883000Y-6765000D01*
X13985000Y-7910000D02*
X14015000Y-7940000D01*
X14015000Y-7910000D02*
X13985000Y-7940000D01*
X14135000Y-6885000D02*
X14165000Y-6915000D01*
X14165000Y-6885000D02*
X14135000Y-6915000D01*
X14185000Y-9760000D02*
X14215000Y-9790000D01*
X14215000Y-9760000D02*
X14185000Y-9790000D01*
X14335000Y-6960000D02*
X14365000Y-6990000D01*
X14365000Y-6960000D02*
X14335000Y-6990000D01*
X14510000Y-8485000D02*
X14540000Y-8515000D01*
X14540000Y-8485000D02*
X14510000Y-8515000D01*
X14635000Y-9110000D02*
X14665000Y-9140000D01*
X14665000Y-9110000D02*
X14635000Y-9140000D01*
X14685000Y-7785000D02*
X14715000Y-7815000D01*
X14715000Y-7785000D02*
X14685000Y-7815000D01*
X15385000Y-6035000D02*
X15415000Y-6065000D01*
X15415000Y-6035000D02*
X15385000Y-6065000D01*
X15785000Y-11285000D02*
X15815000Y-11315000D01*
X15815000Y-11285000D02*
X15785000Y-11315000D01*
X15847500Y-11347500D02*
X15877500Y-11377500D01*
X15877500Y-11347500D02*
X15847500Y-11377500D01*
X15922500Y-11397500D02*
X15952500Y-11427500D01*
X15952500Y-11397500D02*
X15922500Y-11427500D01*
X16010000Y-6685000D02*
X16040000Y-6715000D01*
X16040000Y-6685000D02*
X16010000Y-6715000D01*
X16110000Y-7435000D02*
X16140000Y-7465000D01*
X16140000Y-7435000D02*
X16110000Y-7465000D01*
X16135000Y-6110000D02*
X16165000Y-6140000D01*
X16165000Y-6110000D02*
X16135000Y-6140000D01*
X13805000Y-9975000D02*
G75*
G02*
X13745000Y-9975000I-30000J0D01*
G01*
X13745000Y-9975000D02*
G75*
G02*
X13805000Y-9975000I30000J0D01*
G01*
X13805000Y-10175000D02*
G75*
G02*
X13745000Y-10175000I-30000J0D01*
G01*
X13745000Y-10175000D02*
G75*
G02*
X13805000Y-10175000I30000J0D01*
G01*
X14780000Y-9375000D02*
G75*
G02*
X14720000Y-9375000I-30000J0D01*
G01*
X14720000Y-9375000D02*
G75*
G02*
X14780000Y-9375000I30000J0D01*
G01*
X14780000Y-9575000D02*
G75*
G02*
X14720000Y-9575000I-30000J0D01*
G01*
X14720000Y-9575000D02*
G75*
G02*
X14780000Y-9575000I30000J0D01*
G01*
X14780000Y-9975000D02*
G75*
G02*
X14720000Y-9975000I-30000J0D01*
G01*
X14720000Y-9975000D02*
G75*
G02*
X14780000Y-9975000I30000J0D01*
G01*
X14780000Y-10175000D02*
G75*
G02*
X14720000Y-10175000I-30000J0D01*
G01*
X14720000Y-10175000D02*
G75*
G02*
X14780000Y-10175000I30000J0D01*
G01*
X5931460Y-7641700D02*
X5931460Y-7721700D01*
X5891460Y-7681700D02*
X5971460Y-7681700D01*
X5934000Y-7387700D02*
X5934000Y-7467700D01*
X5894000Y-7427700D02*
X5974000Y-7427700D01*
X5934000Y-8467200D02*
X5934000Y-8547200D01*
X5894000Y-8507200D02*
X5974000Y-8507200D01*
X5934000Y-8721200D02*
X5934000Y-8801200D01*
X5894000Y-8761200D02*
X5974000Y-8761200D01*
X7350000Y-6148000D02*
X7350000Y-6228000D01*
X7310000Y-6188000D02*
X7390000Y-6188000D01*
X7350000Y-6910000D02*
X7350000Y-6990000D01*
X7310000Y-6950000D02*
X7390000Y-6950000D01*
X7813600Y-8479900D02*
X7813600Y-8559900D01*
X7773600Y-8519900D02*
X7853600Y-8519900D01*
X7813600Y-8733900D02*
X7813600Y-8813900D01*
X7773600Y-8773900D02*
X7853600Y-8773900D01*
X7823760Y-7641700D02*
X7823760Y-7721700D01*
X7783760Y-7681700D02*
X7863760Y-7681700D01*
X7826300Y-7387700D02*
X7826300Y-7467700D01*
X7786300Y-7427700D02*
X7866300Y-7427700D01*
X7850000Y-6160000D02*
X7850000Y-6240000D01*
X7810000Y-6200000D02*
X7890000Y-6200000D01*
X7850000Y-6922000D02*
X7850000Y-7002000D01*
X7810000Y-6962000D02*
X7890000Y-6962000D01*
X8350000Y-6154000D02*
X8350000Y-6234000D01*
X8310000Y-6194000D02*
X8390000Y-6194000D01*
X8350000Y-6916000D02*
X8350000Y-6996000D01*
X8310000Y-6956000D02*
X8390000Y-6956000D01*
X8850000Y-6148000D02*
X8850000Y-6228000D01*
X8810000Y-6188000D02*
X8890000Y-6188000D01*
X8850000Y-6910000D02*
X8850000Y-6990000D01*
X8810000Y-6950000D02*
X8890000Y-6950000D01*
X9350000Y-6154000D02*
X9350000Y-6234000D01*
X9310000Y-6194000D02*
X9390000Y-6194000D01*
X9350000Y-6916000D02*
X9350000Y-6996000D01*
X9310000Y-6956000D02*
X9390000Y-6956000D01*
X9825000Y-6148000D02*
X9825000Y-6228000D01*
X9785000Y-6188000D02*
X9865000Y-6188000D01*
X9825000Y-6910000D02*
X9825000Y-6990000D01*
X9785000Y-6950000D02*
X9865000Y-6950000D01*
X10296000Y-6148000D02*
X10296000Y-6228000D01*
X10256000Y-6188000D02*
X10336000Y-6188000D01*
X10296000Y-6910000D02*
X10296000Y-6990000D01*
X10256000Y-6950000D02*
X10336000Y-6950000D01*
X10550000Y-6148000D02*
X10550000Y-6228000D01*
X10510000Y-6188000D02*
X10590000Y-6188000D01*
X10550000Y-6910000D02*
X10550000Y-6990000D01*
X10510000Y-6950000D02*
X10590000Y-6950000D01*
X10804000Y-6148000D02*
X10804000Y-6228000D01*
X10764000Y-6188000D02*
X10844000Y-6188000D01*
X10804000Y-6910000D02*
X10804000Y-6990000D01*
X10764000Y-6950000D02*
X10844000Y-6950000D01*
X11058000Y-6148000D02*
X11058000Y-6228000D01*
X11018000Y-6188000D02*
X11098000Y-6188000D01*
X11058000Y-6910000D02*
X11058000Y-6990000D01*
X11018000Y-6950000D02*
X11098000Y-6950000D01*
X11500000Y-6154000D02*
X11500000Y-6234000D01*
X11460000Y-6194000D02*
X11540000Y-6194000D01*
X11500000Y-6916000D02*
X11500000Y-6996000D01*
X11460000Y-6956000D02*
X11540000Y-6956000D01*
X11950000Y-6154000D02*
X11950000Y-6234000D01*
X11910000Y-6194000D02*
X11990000Y-6194000D01*
X11950000Y-6916000D02*
X11950000Y-6996000D01*
X11910000Y-6956000D02*
X11990000Y-6956000D01*
X12400000Y-6148000D02*
X12400000Y-6228000D01*
X12360000Y-6188000D02*
X12440000Y-6188000D01*
X12400000Y-6910000D02*
X12400000Y-6990000D01*
X12360000Y-6950000D02*
X12440000Y-6950000D01*
X12769000Y-5660000D02*
X12769000Y-5740000D01*
X12729000Y-5700000D02*
X12809000Y-5700000D01*
X12825000Y-6154000D02*
X12825000Y-6234000D01*
X12785000Y-6194000D02*
X12865000Y-6194000D01*
X12825000Y-6916000D02*
X12825000Y-6996000D01*
X12785000Y-6956000D02*
X12865000Y-6956000D01*
X13100000Y-7310000D02*
X13100000Y-7390000D01*
X13060000Y-7350000D02*
X13140000Y-7350000D01*
X13100000Y-7560000D02*
X13100000Y-7640000D01*
X13060000Y-7600000D02*
X13140000Y-7600000D01*
X13100000Y-7835000D02*
X13100000Y-7915000D01*
X13060000Y-7875000D02*
X13140000Y-7875000D01*
X13100000Y-8085000D02*
X13100000Y-8165000D01*
X13060000Y-8125000D02*
X13140000Y-8125000D01*
X13100000Y-8360000D02*
X13100000Y-8440000D01*
X13060000Y-8400000D02*
X13140000Y-8400000D01*
X13100000Y-8610000D02*
X13100000Y-8690000D01*
X13060000Y-8650000D02*
X13140000Y-8650000D01*
X13100000Y-8885000D02*
X13100000Y-8965000D01*
X13060000Y-8925000D02*
X13140000Y-8925000D01*
X13100000Y-9135000D02*
X13100000Y-9215000D01*
X13060000Y-9175000D02*
X13140000Y-9175000D01*
X13100000Y-9410000D02*
X13100000Y-9490000D01*
X13060000Y-9450000D02*
X13140000Y-9450000D01*
X13100000Y-9660000D02*
X13100000Y-9740000D01*
X13060000Y-9700000D02*
X13140000Y-9700000D01*
X13294000Y-6135000D02*
X13294000Y-6215000D01*
X13254000Y-6175000D02*
X13334000Y-6175000D01*
X13488000Y-8727000D02*
X13488000Y-8807000D01*
X13448000Y-8767000D02*
X13528000Y-8767000D01*
X13488000Y-8981000D02*
X13488000Y-9061000D01*
X13448000Y-9021000D02*
X13528000Y-9021000D01*
X13488000Y-9235000D02*
X13488000Y-9315000D01*
X13448000Y-9275000D02*
X13528000Y-9275000D01*
X13488000Y-9489000D02*
X13488000Y-9569000D01*
X13448000Y-9529000D02*
X13528000Y-9529000D01*
X13531000Y-5660000D02*
X13531000Y-5740000D01*
X13491000Y-5700000D02*
X13571000Y-5700000D01*
X13644000Y-6528500D02*
X13644000Y-6608500D01*
X13604000Y-6568500D02*
X13684000Y-6568500D01*
X13644000Y-7290500D02*
X13644000Y-7370500D01*
X13604000Y-7330500D02*
X13684000Y-7330500D01*
X13644000Y-7529000D02*
X13644000Y-7609000D01*
X13604000Y-7569000D02*
X13684000Y-7569000D01*
X13644000Y-8291000D02*
X13644000Y-8371000D01*
X13604000Y-8331000D02*
X13684000Y-8331000D01*
X13819000Y-5660000D02*
X13819000Y-5740000D01*
X13779000Y-5700000D02*
X13859000Y-5700000D01*
X13898000Y-6528500D02*
X13898000Y-6608500D01*
X13858000Y-6568500D02*
X13938000Y-6568500D01*
X13898000Y-7290500D02*
X13898000Y-7370500D01*
X13858000Y-7330500D02*
X13938000Y-7330500D01*
X13898000Y-7529000D02*
X13898000Y-7609000D01*
X13858000Y-7569000D02*
X13938000Y-7569000D01*
X13898000Y-8291000D02*
X13898000Y-8371000D01*
X13858000Y-8331000D02*
X13938000Y-8331000D01*
X14056000Y-6135000D02*
X14056000Y-6215000D01*
X14016000Y-6175000D02*
X14096000Y-6175000D01*
X14152000Y-6528500D02*
X14152000Y-6608500D01*
X14112000Y-6568500D02*
X14192000Y-6568500D01*
X14152000Y-7290500D02*
X14152000Y-7370500D01*
X14112000Y-7330500D02*
X14192000Y-7330500D01*
X14152000Y-7529000D02*
X14152000Y-7609000D01*
X14112000Y-7569000D02*
X14192000Y-7569000D01*
X14152000Y-8291000D02*
X14152000Y-8371000D01*
X14112000Y-8331000D02*
X14192000Y-8331000D01*
X14250000Y-8727000D02*
X14250000Y-8807000D01*
X14210000Y-8767000D02*
X14290000Y-8767000D01*
X14250000Y-8981000D02*
X14250000Y-9061000D01*
X14210000Y-9021000D02*
X14290000Y-9021000D01*
X14250000Y-9235000D02*
X14250000Y-9315000D01*
X14210000Y-9275000D02*
X14290000Y-9275000D01*
X14250000Y-9489000D02*
X14250000Y-9569000D01*
X14210000Y-9529000D02*
X14290000Y-9529000D01*
X14375000Y-6185000D02*
X14375000Y-6265000D01*
X14335000Y-6225000D02*
X14415000Y-6225000D01*
X14406000Y-6528500D02*
X14406000Y-6608500D01*
X14366000Y-6568500D02*
X14446000Y-6568500D01*
X14406000Y-7290500D02*
X14406000Y-7370500D01*
X14366000Y-7330500D02*
X14446000Y-7330500D01*
X14406000Y-7529000D02*
X14406000Y-7609000D01*
X14366000Y-7569000D02*
X14446000Y-7569000D01*
X14406000Y-8291000D02*
X14406000Y-8371000D01*
X14366000Y-8331000D02*
X14446000Y-8331000D01*
X14581000Y-5660000D02*
X14581000Y-5740000D01*
X14541000Y-5700000D02*
X14621000Y-5700000D01*
X14625000Y-6185000D02*
X14625000Y-6265000D01*
X14585000Y-6225000D02*
X14665000Y-6225000D01*
X14900000Y-8154000D02*
X14900000Y-8234000D01*
X14860000Y-8194000D02*
X14940000Y-8194000D01*
X14900000Y-8916000D02*
X14900000Y-8996000D01*
X14860000Y-8956000D02*
X14940000Y-8956000D01*
X15067000Y-5653500D02*
X15067000Y-5733500D01*
X15027000Y-5693500D02*
X15107000Y-5693500D01*
X15067000Y-6415500D02*
X15067000Y-6495500D01*
X15027000Y-6455500D02*
X15107000Y-6455500D01*
X15321000Y-5653500D02*
X15321000Y-5733500D01*
X15281000Y-5693500D02*
X15361000Y-5693500D01*
X15321000Y-6415500D02*
X15321000Y-6495500D01*
X15281000Y-6455500D02*
X15361000Y-6455500D01*
X15575000Y-5653500D02*
X15575000Y-5733500D01*
X15535000Y-5693500D02*
X15615000Y-5693500D01*
X15575000Y-6415500D02*
X15575000Y-6495500D01*
X15535000Y-6455500D02*
X15615000Y-6455500D01*
X15829000Y-5653500D02*
X15829000Y-5733500D01*
X15789000Y-5693500D02*
X15869000Y-5693500D01*
X15829000Y-6415500D02*
X15829000Y-6495500D01*
X15789000Y-6455500D02*
X15869000Y-6455500D01*
X6127856Y-5766356D02*
X6127856Y-5695644D01*
X6057144Y-5695644D01*
X6057144Y-5766356D01*
X6127856Y-5766356D01*
X6381856Y-5766356D02*
X6381856Y-5695644D01*
X6311144Y-5695644D01*
X6311144Y-5766356D01*
X6381856Y-5766356D01*
X7023356Y-5766356D02*
X7023356Y-5695644D01*
X6952644Y-5695644D01*
X6952644Y-5766356D01*
X7023356Y-5766356D01*
X7277356Y-5766356D02*
X7277356Y-5695644D01*
X7206644Y-5695644D01*
X7206644Y-5766356D01*
X7277356Y-5766356D01*
X7973356Y-5773856D02*
X7973356Y-5703144D01*
X7902644Y-5703144D01*
X7902644Y-5773856D01*
X7973356Y-5773856D01*
X8227356Y-5773856D02*
X8227356Y-5703144D01*
X8156644Y-5703144D01*
X8156644Y-5773856D01*
X8227356Y-5773856D01*
X8627356Y-7310356D02*
X8627356Y-7239644D01*
X8556644Y-7239644D01*
X8556644Y-7310356D01*
X8627356Y-7310356D01*
X8627356Y-8834356D02*
X8627356Y-8763644D01*
X8556644Y-8763644D01*
X8556644Y-8834356D01*
X8627356Y-8834356D01*
X8877356Y-5766356D02*
X8877356Y-5695644D01*
X8806644Y-5695644D01*
X8806644Y-5766356D01*
X8877356Y-5766356D01*
X8881356Y-7310356D02*
X8881356Y-7239644D01*
X8810644Y-7239644D01*
X8810644Y-7310356D01*
X8881356Y-7310356D01*
X8881356Y-8834356D02*
X8881356Y-8763644D01*
X8810644Y-8763644D01*
X8810644Y-8834356D01*
X8881356Y-8834356D01*
X9131356Y-5766356D02*
X9131356Y-5695644D01*
X9060644Y-5695644D01*
X9060644Y-5766356D01*
X9131356Y-5766356D01*
X9135356Y-7310356D02*
X9135356Y-7239644D01*
X9064644Y-7239644D01*
X9064644Y-7310356D01*
X9135356Y-7310356D01*
X9135356Y-8834356D02*
X9135356Y-8763644D01*
X9064644Y-8763644D01*
X9064644Y-8834356D01*
X9135356Y-8834356D01*
X9389356Y-7310356D02*
X9389356Y-7239644D01*
X9318644Y-7239644D01*
X9318644Y-7310356D01*
X9389356Y-7310356D01*
X9389356Y-8834356D02*
X9389356Y-8763644D01*
X9318644Y-8763644D01*
X9318644Y-8834356D01*
X9389356Y-8834356D01*
X9643356Y-7310356D02*
X9643356Y-7239644D01*
X9572644Y-7239644D01*
X9572644Y-7310356D01*
X9643356Y-7310356D01*
X9643356Y-8834356D02*
X9643356Y-8763644D01*
X9572644Y-8763644D01*
X9572644Y-8834356D01*
X9643356Y-8834356D01*
X9777356Y-5766356D02*
X9777356Y-5695644D01*
X9706644Y-5695644D01*
X9706644Y-5766356D01*
X9777356Y-5766356D01*
X9897356Y-7310356D02*
X9897356Y-7239644D01*
X9826644Y-7239644D01*
X9826644Y-7310356D01*
X9897356Y-7310356D01*
X9897356Y-8834356D02*
X9897356Y-8763644D01*
X9826644Y-8763644D01*
X9826644Y-8834356D01*
X9897356Y-8834356D01*
X10031356Y-5766356D02*
X10031356Y-5695644D01*
X9960644Y-5695644D01*
X9960644Y-5766356D01*
X10031356Y-5766356D01*
X10151356Y-7310356D02*
X10151356Y-7239644D01*
X10080644Y-7239644D01*
X10080644Y-7310356D01*
X10151356Y-7310356D01*
X10151356Y-8834356D02*
X10151356Y-8763644D01*
X10080644Y-8763644D01*
X10080644Y-8834356D01*
X10151356Y-8834356D01*
X10405356Y-7310356D02*
X10405356Y-7239644D01*
X10334644Y-7239644D01*
X10334644Y-7310356D01*
X10405356Y-7310356D01*
X10405356Y-8834356D02*
X10405356Y-8763644D01*
X10334644Y-8763644D01*
X10334644Y-8834356D01*
X10405356Y-8834356D01*
X10659356Y-7310356D02*
X10659356Y-7239644D01*
X10588644Y-7239644D01*
X10588644Y-7310356D01*
X10659356Y-7310356D01*
X10659356Y-8834356D02*
X10659356Y-8763644D01*
X10588644Y-8763644D01*
X10588644Y-8834356D01*
X10659356Y-8834356D01*
X10673356Y-5766356D02*
X10673356Y-5695644D01*
X10602644Y-5695644D01*
X10602644Y-5766356D01*
X10673356Y-5766356D01*
X10913356Y-7310356D02*
X10913356Y-7239644D01*
X10842644Y-7239644D01*
X10842644Y-7310356D01*
X10913356Y-7310356D01*
X10913356Y-8834356D02*
X10913356Y-8763644D01*
X10842644Y-8763644D01*
X10842644Y-8834356D01*
X10913356Y-8834356D01*
X10927356Y-5766356D02*
X10927356Y-5695644D01*
X10856644Y-5695644D01*
X10856644Y-5766356D01*
X10927356Y-5766356D01*
X11167356Y-7310356D02*
X11167356Y-7239644D01*
X11096644Y-7239644D01*
X11096644Y-7310356D01*
X11167356Y-7310356D01*
X11167356Y-8834356D02*
X11167356Y-8763644D01*
X11096644Y-8763644D01*
X11096644Y-8834356D01*
X11167356Y-8834356D01*
X11421356Y-7310356D02*
X11421356Y-7239644D01*
X11350644Y-7239644D01*
X11350644Y-7310356D01*
X11421356Y-7310356D01*
X11421356Y-8834356D02*
X11421356Y-8763644D01*
X11350644Y-8763644D01*
X11350644Y-8834356D01*
X11421356Y-8834356D01*
X11577356Y-5773856D02*
X11577356Y-5703144D01*
X11506644Y-5703144D01*
X11506644Y-5773856D01*
X11577356Y-5773856D01*
X11675356Y-7310356D02*
X11675356Y-7239644D01*
X11604644Y-7239644D01*
X11604644Y-7310356D01*
X11675356Y-7310356D01*
X11675356Y-8834356D02*
X11675356Y-8763644D01*
X11604644Y-8763644D01*
X11604644Y-8834356D01*
X11675356Y-8834356D01*
X11831356Y-5773856D02*
X11831356Y-5703144D01*
X11760644Y-5703144D01*
X11760644Y-5773856D01*
X11831356Y-5773856D01*
X11929356Y-7310356D02*
X11929356Y-7239644D01*
X11858644Y-7239644D01*
X11858644Y-7310356D01*
X11929356Y-7310356D01*
X11929356Y-8834356D02*
X11929356Y-8763644D01*
X11858644Y-8763644D01*
X11858644Y-8834356D01*
X11929356Y-8834356D01*
X12085356Y-5773856D02*
X12085356Y-5703144D01*
X12014644Y-5703144D01*
X12014644Y-5773856D01*
X12085356Y-5773856D01*
X12183356Y-7310356D02*
X12183356Y-7239644D01*
X12112644Y-7239644D01*
X12112644Y-7310356D01*
X12183356Y-7310356D01*
X12183356Y-8834356D02*
X12183356Y-8763644D01*
X12112644Y-8763644D01*
X12112644Y-8834356D01*
X12183356Y-8834356D01*
X12339356Y-5773856D02*
X12339356Y-5703144D01*
X12268644Y-5703144D01*
X12268644Y-5773856D01*
X12339356Y-5773856D01*
X13585356Y-10585356D02*
X13585356Y-10514644D01*
X13514644Y-10514644D01*
X13514644Y-10585356D01*
X13585356Y-10585356D01*
X13839356Y-10585356D02*
X13839356Y-10514644D01*
X13768644Y-10514644D01*
X13768644Y-10585356D01*
X13839356Y-10585356D01*
X14093356Y-10585356D02*
X14093356Y-10514644D01*
X14022644Y-10514644D01*
X14022644Y-10585356D01*
X14093356Y-10585356D01*
X14481356Y-10571856D02*
X14481356Y-10501144D01*
X14410644Y-10501144D01*
X14410644Y-10571856D01*
X14481356Y-10571856D01*
X14735356Y-10571856D02*
X14735356Y-10501144D01*
X14664644Y-10501144D01*
X14664644Y-10571856D01*
X14735356Y-10571856D01*
X14989356Y-10571856D02*
X14989356Y-10501144D01*
X14918644Y-10501144D01*
X14918644Y-10571856D01*
X14989356Y-10571856D01*
X15371856Y-8206356D02*
X15371856Y-8135644D01*
X15301144Y-8135644D01*
X15301144Y-8206356D01*
X15371856Y-8206356D01*
X15371856Y-8460356D02*
X15371856Y-8389644D01*
X15301144Y-8389644D01*
X15301144Y-8460356D01*
X15371856Y-8460356D01*
X15371856Y-8714356D02*
X15371856Y-8643644D01*
X15301144Y-8643644D01*
X15301144Y-8714356D01*
X15371856Y-8714356D01*
X15385356Y-9329356D02*
X15385356Y-9258644D01*
X15314644Y-9258644D01*
X15314644Y-9329356D01*
X15385356Y-9329356D01*
X15385356Y-9583356D02*
X15385356Y-9512644D01*
X15314644Y-9512644D01*
X15314644Y-9583356D01*
X15385356Y-9583356D01*
X15385356Y-9837356D02*
X15385356Y-9766644D01*
X15314644Y-9766644D01*
X15314644Y-9837356D01*
X15385356Y-9837356D01*
X15385356Y-10091356D02*
X15385356Y-10020644D01*
X15314644Y-10020644D01*
X15314644Y-10091356D01*
X15385356Y-10091356D01*
X15385356Y-10677356D02*
X15385356Y-10606644D01*
X15314644Y-10606644D01*
X15314644Y-10677356D01*
X15385356Y-10677356D01*
X15385356Y-10931356D02*
X15385356Y-10860644D01*
X15314644Y-10860644D01*
X15314644Y-10931356D01*
X15385356Y-10931356D01*
X15385356Y-11185356D02*
X15385356Y-11114644D01*
X15314644Y-11114644D01*
X15314644Y-11185356D01*
X15385356Y-11185356D01*
D13*
X7402187Y-9555000D02*
X7457187Y-9500000D01*
X7402187Y-9445000D01*
X7347187Y-9500000D01*
X7402187Y-9555000D01*
X7656187Y-9555000D02*
X7711187Y-9500000D01*
X7656187Y-9445000D01*
X7601187Y-9500000D01*
X7656187Y-9555000D01*
X7910187Y-9555000D02*
X7965187Y-9500000D01*
X7910187Y-9445000D01*
X7855187Y-9500000D01*
X7910187Y-9555000D01*
X8534594Y-9555000D02*
X8589594Y-9500000D01*
X8534594Y-9445000D01*
X8479594Y-9500000D01*
X8534594Y-9555000D01*
X8788594Y-9555000D02*
X8843594Y-9500000D01*
X8788594Y-9445000D01*
X8733594Y-9500000D01*
X8788594Y-9555000D01*
X9042594Y-9555000D02*
X9097594Y-9500000D01*
X9042594Y-9445000D01*
X8987594Y-9500000D01*
X9042594Y-9555000D01*
X9667000Y-9555000D02*
X9722000Y-9500000D01*
X9667000Y-9445000D01*
X9612000Y-9500000D01*
X9667000Y-9555000D01*
X9921000Y-9555000D02*
X9976000Y-9500000D01*
X9921000Y-9445000D01*
X9866000Y-9500000D01*
X9921000Y-9555000D01*
X10175000Y-9555000D02*
X10230000Y-9500000D01*
X10175000Y-9445000D01*
X10120000Y-9500000D01*
X10175000Y-9555000D01*
X10799406Y-9555000D02*
X10854406Y-9500000D01*
X10799406Y-9445000D01*
X10744406Y-9500000D01*
X10799406Y-9555000D01*
X11053406Y-9555000D02*
X11108406Y-9500000D01*
X11053406Y-9445000D01*
X10998406Y-9500000D01*
X11053406Y-9555000D01*
X11307406Y-9555000D02*
X11362406Y-9500000D01*
X11307406Y-9445000D01*
X11252406Y-9500000D01*
X11307406Y-9555000D01*
X11931812Y-9555000D02*
X11986812Y-9500000D01*
X11931812Y-9445000D01*
X11876812Y-9500000D01*
X11931812Y-9555000D01*
X12185812Y-9555000D02*
X12240812Y-9500000D01*
X12185812Y-9445000D01*
X12130812Y-9500000D01*
X12185812Y-9555000D01*
X12439812Y-9555000D02*
X12494812Y-9500000D01*
X12439812Y-9445000D01*
X12384812Y-9500000D01*
X12439812Y-9555000D01*
D14*
X6260000Y-6352000D02*
X6390000Y-6482000D01*
X6390000Y-6352000D02*
X6260000Y-6482000D01*
X6390000Y-6417000D02*
G75*
G02*
X6260000Y-6417000I-65000J0D01*
G01*
X6260000Y-6417000D02*
G75*
G02*
X6390000Y-6417000I65000J0D01*
G01*
X6260000Y-6860000D02*
X6390000Y-6990000D01*
X6390000Y-6860000D02*
X6260000Y-6990000D01*
X6390000Y-6925000D02*
G75*
G02*
X6260000Y-6925000I-65000J0D01*
G01*
X6260000Y-6925000D02*
G75*
G02*
X6390000Y-6925000I65000J0D01*
G01*
X6285000Y-9361000D02*
X6415000Y-9491000D01*
X6415000Y-9361000D02*
X6285000Y-9491000D01*
X6415000Y-9426000D02*
G75*
G02*
X6285000Y-9426000I-65000J0D01*
G01*
X6285000Y-9426000D02*
G75*
G02*
X6415000Y-9426000I65000J0D01*
G01*
X6285000Y-9869000D02*
X6415000Y-9999000D01*
X6415000Y-9869000D02*
X6285000Y-9999000D01*
X6415000Y-9934000D02*
G75*
G02*
X6285000Y-9934000I-65000J0D01*
G01*
X6285000Y-9934000D02*
G75*
G02*
X6415000Y-9934000I65000J0D01*
G01*
X6285000Y-10377000D02*
X6415000Y-10507000D01*
X6415000Y-10377000D02*
X6285000Y-10507000D01*
X6415000Y-10442000D02*
G75*
G02*
X6285000Y-10442000I-65000J0D01*
G01*
X6285000Y-10442000D02*
G75*
G02*
X6415000Y-10442000I65000J0D01*
G01*
X6285000Y-10885000D02*
X6415000Y-11015000D01*
X6415000Y-10885000D02*
X6285000Y-11015000D01*
X6415000Y-10950000D02*
G75*
G02*
X6285000Y-10950000I-65000J0D01*
G01*
X6285000Y-10950000D02*
G75*
G02*
X6415000Y-10950000I65000J0D01*
G01*
X7359375Y-10485000D02*
X7489375Y-10615000D01*
X7489375Y-10485000D02*
X7359375Y-10615000D01*
X7489375Y-10550000D02*
G75*
G02*
X7359375Y-10550000I-65000J0D01*
G01*
X7359375Y-10550000D02*
G75*
G02*
X7489375Y-10550000I65000J0D01*
G01*
X7867375Y-10485000D02*
X7997375Y-10615000D01*
X7997375Y-10485000D02*
X7867375Y-10615000D01*
X7997375Y-10550000D02*
G75*
G02*
X7867375Y-10550000I-65000J0D01*
G01*
X7867375Y-10550000D02*
G75*
G02*
X7997375Y-10550000I65000J0D01*
G01*
X8658675Y-10485000D02*
X8788675Y-10615000D01*
X8788675Y-10485000D02*
X8658675Y-10615000D01*
X8788675Y-10550000D02*
G75*
G02*
X8658675Y-10550000I-65000J0D01*
G01*
X8658675Y-10550000D02*
G75*
G02*
X8788675Y-10550000I65000J0D01*
G01*
X9166675Y-10485000D02*
X9296675Y-10615000D01*
X9296675Y-10485000D02*
X9166675Y-10615000D01*
X9296675Y-10550000D02*
G75*
G02*
X9166675Y-10550000I-65000J0D01*
G01*
X9166675Y-10550000D02*
G75*
G02*
X9296675Y-10550000I65000J0D01*
G01*
X9957975Y-10485000D02*
X10087975Y-10615000D01*
X10087975Y-10485000D02*
X9957975Y-10615000D01*
X10087975Y-10550000D02*
G75*
G02*
X9957975Y-10550000I-65000J0D01*
G01*
X9957975Y-10550000D02*
G75*
G02*
X10087975Y-10550000I65000J0D01*
G01*
X10465975Y-10485000D02*
X10595975Y-10615000D01*
X10595975Y-10485000D02*
X10465975Y-10615000D01*
X10595975Y-10550000D02*
G75*
G02*
X10465975Y-10550000I-65000J0D01*
G01*
X10465975Y-10550000D02*
G75*
G02*
X10595975Y-10550000I65000J0D01*
G01*
X11235000Y-10485000D02*
X11365000Y-10615000D01*
X11365000Y-10485000D02*
X11235000Y-10615000D01*
X11365000Y-10550000D02*
G75*
G02*
X11235000Y-10550000I-65000J0D01*
G01*
X11235000Y-10550000D02*
G75*
G02*
X11365000Y-10550000I65000J0D01*
G01*
X11743000Y-10485000D02*
X11873000Y-10615000D01*
X11873000Y-10485000D02*
X11743000Y-10615000D01*
X11873000Y-10550000D02*
G75*
G02*
X11743000Y-10550000I-65000J0D01*
G01*
X11743000Y-10550000D02*
G75*
G02*
X11873000Y-10550000I65000J0D01*
G01*
X12485000Y-10485000D02*
X12615000Y-10615000D01*
X12615000Y-10485000D02*
X12485000Y-10615000D01*
X12615000Y-10550000D02*
G75*
G02*
X12485000Y-10550000I-65000J0D01*
G01*
X12485000Y-10550000D02*
G75*
G02*
X12615000Y-10550000I65000J0D01*
G01*
X12993000Y-10485000D02*
X13123000Y-10615000D01*
X13123000Y-10485000D02*
X12993000Y-10615000D01*
X13123000Y-10550000D02*
G75*
G02*
X12993000Y-10550000I-65000J0D01*
G01*
X12993000Y-10550000D02*
G75*
G02*
X13123000Y-10550000I65000J0D01*
G01*
X15402250Y-6931500D02*
X15532250Y-7061500D01*
X15532250Y-6931500D02*
X15402250Y-7061500D01*
X15532250Y-6996500D02*
G75*
G02*
X15402250Y-6996500I-65000J0D01*
G01*
X15402250Y-6996500D02*
G75*
G02*
X15532250Y-6996500I65000J0D01*
G01*
X15402250Y-7439500D02*
X15532250Y-7569500D01*
X15532250Y-7439500D02*
X15402250Y-7569500D01*
X15532250Y-7504500D02*
G75*
G02*
X15402250Y-7504500I-65000J0D01*
G01*
X15402250Y-7504500D02*
G75*
G02*
X15532250Y-7504500I65000J0D01*
G01*
D11*
X5758277Y-12213984D02*
X5758277Y-12013984D01*
X5758277Y-12013984D02*
X5805896Y-12013984D01*
X5805896Y-12013984D02*
X5834467Y-12023508D01*
X5834467Y-12023508D02*
X5853515Y-12042555D01*
X5853515Y-12042555D02*
X5863039Y-12061603D01*
X5863039Y-12061603D02*
X5872562Y-12099698D01*
X5872562Y-12099698D02*
X5872562Y-12128269D01*
X5872562Y-12128269D02*
X5863039Y-12166365D01*
X5863039Y-12166365D02*
X5853515Y-12185412D01*
X5853515Y-12185412D02*
X5834467Y-12204460D01*
X5834467Y-12204460D02*
X5805896Y-12213984D01*
X5805896Y-12213984D02*
X5758277Y-12213984D01*
X5958277Y-12213984D02*
X5958277Y-12080650D01*
X5958277Y-12118746D02*
X5967801Y-12099698D01*
X5967801Y-12099698D02*
X5977324Y-12090174D01*
X5977324Y-12090174D02*
X5996372Y-12080650D01*
X5996372Y-12080650D02*
X6015420Y-12080650D01*
X6082086Y-12213984D02*
X6082086Y-12080650D01*
X6082086Y-12013984D02*
X6072562Y-12023508D01*
X6072562Y-12023508D02*
X6082086Y-12033031D01*
X6082086Y-12033031D02*
X6091610Y-12023508D01*
X6091610Y-12023508D02*
X6082086Y-12013984D01*
X6082086Y-12013984D02*
X6082086Y-12033031D01*
X6205896Y-12213984D02*
X6186848Y-12204460D01*
X6186848Y-12204460D02*
X6177324Y-12185412D01*
X6177324Y-12185412D02*
X6177324Y-12013984D01*
X6310658Y-12213984D02*
X6291610Y-12204460D01*
X6291610Y-12204460D02*
X6282086Y-12185412D01*
X6282086Y-12185412D02*
X6282086Y-12013984D01*
X6539229Y-12213984D02*
X6539229Y-12013984D01*
X6539229Y-12013984D02*
X6605896Y-12156841D01*
X6605896Y-12156841D02*
X6672562Y-12013984D01*
X6672562Y-12013984D02*
X6672562Y-12213984D01*
X6853515Y-12213984D02*
X6853515Y-12109222D01*
X6853515Y-12109222D02*
X6843991Y-12090174D01*
X6843991Y-12090174D02*
X6824943Y-12080650D01*
X6824943Y-12080650D02*
X6786848Y-12080650D01*
X6786848Y-12080650D02*
X6767801Y-12090174D01*
X6853515Y-12204460D02*
X6834467Y-12213984D01*
X6834467Y-12213984D02*
X6786848Y-12213984D01*
X6786848Y-12213984D02*
X6767801Y-12204460D01*
X6767801Y-12204460D02*
X6758277Y-12185412D01*
X6758277Y-12185412D02*
X6758277Y-12166365D01*
X6758277Y-12166365D02*
X6767801Y-12147317D01*
X6767801Y-12147317D02*
X6786848Y-12137793D01*
X6786848Y-12137793D02*
X6834467Y-12137793D01*
X6834467Y-12137793D02*
X6853515Y-12128269D01*
X6948753Y-12080650D02*
X6948753Y-12280650D01*
X6948753Y-12090174D02*
X6967801Y-12080650D01*
X6967801Y-12080650D02*
X7005896Y-12080650D01*
X7005896Y-12080650D02*
X7024943Y-12090174D01*
X7024943Y-12090174D02*
X7034467Y-12099698D01*
X7034467Y-12099698D02*
X7043991Y-12118746D01*
X7043991Y-12118746D02*
X7043991Y-12175888D01*
X7043991Y-12175888D02*
X7034467Y-12194936D01*
X7034467Y-12194936D02*
X7024943Y-12204460D01*
X7024943Y-12204460D02*
X7005896Y-12213984D01*
X7005896Y-12213984D02*
X6967801Y-12213984D01*
X6967801Y-12213984D02*
X6948753Y-12204460D01*
X7129705Y-12194936D02*
X7139229Y-12204460D01*
X7139229Y-12204460D02*
X7129705Y-12213984D01*
X7129705Y-12213984D02*
X7120182Y-12204460D01*
X7120182Y-12204460D02*
X7129705Y-12194936D01*
X7129705Y-12194936D02*
X7129705Y-12213984D01*
X7129705Y-12090174D02*
X7139229Y-12099698D01*
X7139229Y-12099698D02*
X7129705Y-12109222D01*
X7129705Y-12109222D02*
X7120182Y-12099698D01*
X7120182Y-12099698D02*
X7129705Y-12090174D01*
X7129705Y-12090174D02*
X7129705Y-12109222D01*
D12*
X5467500Y-12527500D02*
X5497500Y-12557500D01*
X5497500Y-12527500D02*
X5467500Y-12557500D01*
D11*
X5796372Y-12433984D02*
X5815420Y-12433984D01*
X5815420Y-12433984D02*
X5834467Y-12443508D01*
X5834467Y-12443508D02*
X5843991Y-12453031D01*
X5843991Y-12453031D02*
X5853515Y-12472079D01*
X5853515Y-12472079D02*
X5863039Y-12510174D01*
X5863039Y-12510174D02*
X5863039Y-12557793D01*
X5863039Y-12557793D02*
X5853515Y-12595888D01*
X5853515Y-12595888D02*
X5843991Y-12614936D01*
X5843991Y-12614936D02*
X5834467Y-12624460D01*
X5834467Y-12624460D02*
X5815420Y-12633984D01*
X5815420Y-12633984D02*
X5796372Y-12633984D01*
X5796372Y-12633984D02*
X5777324Y-12624460D01*
X5777324Y-12624460D02*
X5767801Y-12614936D01*
X5767801Y-12614936D02*
X5758277Y-12595888D01*
X5758277Y-12595888D02*
X5748753Y-12557793D01*
X5748753Y-12557793D02*
X5748753Y-12510174D01*
X5748753Y-12510174D02*
X5758277Y-12472079D01*
X5758277Y-12472079D02*
X5767801Y-12453031D01*
X5767801Y-12453031D02*
X5777324Y-12443508D01*
X5777324Y-12443508D02*
X5796372Y-12433984D01*
X5958277Y-12624460D02*
X5958277Y-12633984D01*
X5958277Y-12633984D02*
X5948753Y-12653031D01*
X5948753Y-12653031D02*
X5939229Y-12662555D01*
X6024943Y-12433984D02*
X6148753Y-12433984D01*
X6148753Y-12433984D02*
X6082086Y-12510174D01*
X6082086Y-12510174D02*
X6110658Y-12510174D01*
X6110658Y-12510174D02*
X6129705Y-12519698D01*
X6129705Y-12519698D02*
X6139229Y-12529222D01*
X6139229Y-12529222D02*
X6148753Y-12548269D01*
X6148753Y-12548269D02*
X6148753Y-12595888D01*
X6148753Y-12595888D02*
X6139229Y-12614936D01*
X6139229Y-12614936D02*
X6129705Y-12624460D01*
X6129705Y-12624460D02*
X6110658Y-12633984D01*
X6110658Y-12633984D02*
X6053515Y-12633984D01*
X6053515Y-12633984D02*
X6034467Y-12624460D01*
X6034467Y-12624460D02*
X6024943Y-12614936D01*
X6272562Y-12433984D02*
X6291610Y-12433984D01*
X6291610Y-12433984D02*
X6310658Y-12443508D01*
X6310658Y-12443508D02*
X6320182Y-12453031D01*
X6320182Y-12453031D02*
X6329705Y-12472079D01*
X6329705Y-12472079D02*
X6339229Y-12510174D01*
X6339229Y-12510174D02*
X6339229Y-12557793D01*
X6339229Y-12557793D02*
X6329705Y-12595888D01*
X6329705Y-12595888D02*
X6320182Y-12614936D01*
X6320182Y-12614936D02*
X6310658Y-12624460D01*
X6310658Y-12624460D02*
X6291610Y-12633984D01*
X6291610Y-12633984D02*
X6272562Y-12633984D01*
X6272562Y-12633984D02*
X6253515Y-12624460D01*
X6253515Y-12624460D02*
X6243991Y-12614936D01*
X6243991Y-12614936D02*
X6234467Y-12595888D01*
X6234467Y-12595888D02*
X6224943Y-12557793D01*
X6224943Y-12557793D02*
X6224943Y-12510174D01*
X6224943Y-12510174D02*
X6234467Y-12472079D01*
X6234467Y-12472079D02*
X6243991Y-12453031D01*
X6243991Y-12453031D02*
X6253515Y-12443508D01*
X6253515Y-12443508D02*
X6272562Y-12433984D01*
X6463039Y-12433984D02*
X6482086Y-12433984D01*
X6482086Y-12433984D02*
X6501134Y-12443508D01*
X6501134Y-12443508D02*
X6510658Y-12453031D01*
X6510658Y-12453031D02*
X6520182Y-12472079D01*
X6520182Y-12472079D02*
X6529705Y-12510174D01*
X6529705Y-12510174D02*
X6529705Y-12557793D01*
X6529705Y-12557793D02*
X6520182Y-12595888D01*
X6520182Y-12595888D02*
X6510658Y-12614936D01*
X6510658Y-12614936D02*
X6501134Y-12624460D01*
X6501134Y-12624460D02*
X6482086Y-12633984D01*
X6482086Y-12633984D02*
X6463039Y-12633984D01*
X6463039Y-12633984D02*
X6443991Y-12624460D01*
X6443991Y-12624460D02*
X6434467Y-12614936D01*
X6434467Y-12614936D02*
X6424943Y-12595888D01*
X6424943Y-12595888D02*
X6415420Y-12557793D01*
X6415420Y-12557793D02*
X6415420Y-12510174D01*
X6415420Y-12510174D02*
X6424943Y-12472079D01*
X6424943Y-12472079D02*
X6434467Y-12453031D01*
X6434467Y-12453031D02*
X6443991Y-12443508D01*
X6443991Y-12443508D02*
X6463039Y-12433984D01*
X6615420Y-12633984D02*
X6615420Y-12500650D01*
X6615420Y-12519698D02*
X6624943Y-12510174D01*
X6624943Y-12510174D02*
X6643991Y-12500650D01*
X6643991Y-12500650D02*
X6672563Y-12500650D01*
X6672563Y-12500650D02*
X6691610Y-12510174D01*
X6691610Y-12510174D02*
X6701134Y-12529222D01*
X6701134Y-12529222D02*
X6701134Y-12633984D01*
X6701134Y-12529222D02*
X6710658Y-12510174D01*
X6710658Y-12510174D02*
X6729705Y-12500650D01*
X6729705Y-12500650D02*
X6758277Y-12500650D01*
X6758277Y-12500650D02*
X6777324Y-12510174D01*
X6777324Y-12510174D02*
X6786848Y-12529222D01*
X6786848Y-12529222D02*
X6786848Y-12633984D01*
X6882086Y-12633984D02*
X6882086Y-12500650D01*
X6882086Y-12519698D02*
X6891610Y-12510174D01*
X6891610Y-12510174D02*
X6910658Y-12500650D01*
X6910658Y-12500650D02*
X6939229Y-12500650D01*
X6939229Y-12500650D02*
X6958277Y-12510174D01*
X6958277Y-12510174D02*
X6967801Y-12529222D01*
X6967801Y-12529222D02*
X6967801Y-12633984D01*
X6967801Y-12529222D02*
X6977324Y-12510174D01*
X6977324Y-12510174D02*
X6996372Y-12500650D01*
X6996372Y-12500650D02*
X7024943Y-12500650D01*
X7024943Y-12500650D02*
X7043991Y-12510174D01*
X7043991Y-12510174D02*
X7053515Y-12529222D01*
X7053515Y-12529222D02*
X7053515Y-12633984D01*
X7443991Y-12424460D02*
X7272563Y-12681603D01*
X7701134Y-12433984D02*
X7720182Y-12433984D01*
X7720182Y-12433984D02*
X7739229Y-12443508D01*
X7739229Y-12443508D02*
X7748753Y-12453031D01*
X7748753Y-12453031D02*
X7758277Y-12472079D01*
X7758277Y-12472079D02*
X7767801Y-12510174D01*
X7767801Y-12510174D02*
X7767801Y-12557793D01*
X7767801Y-12557793D02*
X7758277Y-12595888D01*
X7758277Y-12595888D02*
X7748753Y-12614936D01*
X7748753Y-12614936D02*
X7739229Y-12624460D01*
X7739229Y-12624460D02*
X7720182Y-12633984D01*
X7720182Y-12633984D02*
X7701134Y-12633984D01*
X7701134Y-12633984D02*
X7682086Y-12624460D01*
X7682086Y-12624460D02*
X7672563Y-12614936D01*
X7672563Y-12614936D02*
X7663039Y-12595888D01*
X7663039Y-12595888D02*
X7653515Y-12557793D01*
X7653515Y-12557793D02*
X7653515Y-12510174D01*
X7653515Y-12510174D02*
X7663039Y-12472079D01*
X7663039Y-12472079D02*
X7672563Y-12453031D01*
X7672563Y-12453031D02*
X7682086Y-12443508D01*
X7682086Y-12443508D02*
X7701134Y-12433984D01*
X7863039Y-12624460D02*
X7863039Y-12633984D01*
X7863039Y-12633984D02*
X7853515Y-12653031D01*
X7853515Y-12653031D02*
X7843991Y-12662555D01*
X7986848Y-12433984D02*
X8005896Y-12433984D01*
X8005896Y-12433984D02*
X8024944Y-12443508D01*
X8024944Y-12443508D02*
X8034467Y-12453031D01*
X8034467Y-12453031D02*
X8043991Y-12472079D01*
X8043991Y-12472079D02*
X8053515Y-12510174D01*
X8053515Y-12510174D02*
X8053515Y-12557793D01*
X8053515Y-12557793D02*
X8043991Y-12595888D01*
X8043991Y-12595888D02*
X8034467Y-12614936D01*
X8034467Y-12614936D02*
X8024944Y-12624460D01*
X8024944Y-12624460D02*
X8005896Y-12633984D01*
X8005896Y-12633984D02*
X7986848Y-12633984D01*
X7986848Y-12633984D02*
X7967801Y-12624460D01*
X7967801Y-12624460D02*
X7958277Y-12614936D01*
X7958277Y-12614936D02*
X7948753Y-12595888D01*
X7948753Y-12595888D02*
X7939229Y-12557793D01*
X7939229Y-12557793D02*
X7939229Y-12510174D01*
X7939229Y-12510174D02*
X7948753Y-12472079D01*
X7948753Y-12472079D02*
X7958277Y-12453031D01*
X7958277Y-12453031D02*
X7967801Y-12443508D01*
X7967801Y-12443508D02*
X7986848Y-12433984D01*
X8243991Y-12633984D02*
X8129706Y-12633984D01*
X8186848Y-12633984D02*
X8186848Y-12433984D01*
X8186848Y-12433984D02*
X8167801Y-12462555D01*
X8167801Y-12462555D02*
X8148753Y-12481603D01*
X8148753Y-12481603D02*
X8129706Y-12491127D01*
X8434468Y-12633984D02*
X8320182Y-12633984D01*
X8377325Y-12633984D02*
X8377325Y-12433984D01*
X8377325Y-12433984D02*
X8358277Y-12462555D01*
X8358277Y-12462555D02*
X8339229Y-12481603D01*
X8339229Y-12481603D02*
X8320182Y-12491127D01*
X8548753Y-12519698D02*
X8529706Y-12510174D01*
X8529706Y-12510174D02*
X8520182Y-12500650D01*
X8520182Y-12500650D02*
X8510658Y-12481603D01*
X8510658Y-12481603D02*
X8510658Y-12472079D01*
X8510658Y-12472079D02*
X8520182Y-12453031D01*
X8520182Y-12453031D02*
X8529706Y-12443508D01*
X8529706Y-12443508D02*
X8548753Y-12433984D01*
X8548753Y-12433984D02*
X8586849Y-12433984D01*
X8586849Y-12433984D02*
X8605896Y-12443508D01*
X8605896Y-12443508D02*
X8615420Y-12453031D01*
X8615420Y-12453031D02*
X8624944Y-12472079D01*
X8624944Y-12472079D02*
X8624944Y-12481603D01*
X8624944Y-12481603D02*
X8615420Y-12500650D01*
X8615420Y-12500650D02*
X8605896Y-12510174D01*
X8605896Y-12510174D02*
X8586849Y-12519698D01*
X8586849Y-12519698D02*
X8548753Y-12519698D01*
X8548753Y-12519698D02*
X8529706Y-12529222D01*
X8529706Y-12529222D02*
X8520182Y-12538746D01*
X8520182Y-12538746D02*
X8510658Y-12557793D01*
X8510658Y-12557793D02*
X8510658Y-12595888D01*
X8510658Y-12595888D02*
X8520182Y-12614936D01*
X8520182Y-12614936D02*
X8529706Y-12624460D01*
X8529706Y-12624460D02*
X8548753Y-12633984D01*
X8548753Y-12633984D02*
X8586849Y-12633984D01*
X8586849Y-12633984D02*
X8605896Y-12624460D01*
X8605896Y-12624460D02*
X8615420Y-12614936D01*
X8615420Y-12614936D02*
X8624944Y-12595888D01*
X8624944Y-12595888D02*
X8624944Y-12557793D01*
X8624944Y-12557793D02*
X8615420Y-12538746D01*
X8615420Y-12538746D02*
X8605896Y-12529222D01*
X8605896Y-12529222D02*
X8586849Y-12519698D01*
X8701134Y-12433984D02*
X8701134Y-12472079D01*
X8777325Y-12433984D02*
X8777325Y-12472079D01*
X9072563Y-12710174D02*
X9063039Y-12700650D01*
X9063039Y-12700650D02*
X9043991Y-12672079D01*
X9043991Y-12672079D02*
X9034468Y-12653031D01*
X9034468Y-12653031D02*
X9024944Y-12624460D01*
X9024944Y-12624460D02*
X9015420Y-12576841D01*
X9015420Y-12576841D02*
X9015420Y-12538746D01*
X9015420Y-12538746D02*
X9024944Y-12491127D01*
X9024944Y-12491127D02*
X9034468Y-12462555D01*
X9034468Y-12462555D02*
X9043991Y-12443508D01*
X9043991Y-12443508D02*
X9063039Y-12414936D01*
X9063039Y-12414936D02*
X9072563Y-12405412D01*
X9234468Y-12500650D02*
X9234468Y-12633984D01*
X9186849Y-12424460D02*
X9139230Y-12567317D01*
X9139230Y-12567317D02*
X9263039Y-12567317D01*
X9320182Y-12433984D02*
X9453515Y-12433984D01*
X9453515Y-12433984D02*
X9367801Y-12633984D01*
X9682087Y-12633984D02*
X9682087Y-12433984D01*
X9767801Y-12633984D02*
X9767801Y-12529222D01*
X9767801Y-12529222D02*
X9758277Y-12510174D01*
X9758277Y-12510174D02*
X9739230Y-12500650D01*
X9739230Y-12500650D02*
X9710658Y-12500650D01*
X9710658Y-12500650D02*
X9691611Y-12510174D01*
X9691611Y-12510174D02*
X9682087Y-12519698D01*
X9891611Y-12633984D02*
X9872563Y-12624460D01*
X9872563Y-12624460D02*
X9863039Y-12614936D01*
X9863039Y-12614936D02*
X9853515Y-12595888D01*
X9853515Y-12595888D02*
X9853515Y-12538746D01*
X9853515Y-12538746D02*
X9863039Y-12519698D01*
X9863039Y-12519698D02*
X9872563Y-12510174D01*
X9872563Y-12510174D02*
X9891611Y-12500650D01*
X9891611Y-12500650D02*
X9920182Y-12500650D01*
X9920182Y-12500650D02*
X9939230Y-12510174D01*
X9939230Y-12510174D02*
X9948753Y-12519698D01*
X9948753Y-12519698D02*
X9958277Y-12538746D01*
X9958277Y-12538746D02*
X9958277Y-12595888D01*
X9958277Y-12595888D02*
X9948753Y-12614936D01*
X9948753Y-12614936D02*
X9939230Y-12624460D01*
X9939230Y-12624460D02*
X9920182Y-12633984D01*
X9920182Y-12633984D02*
X9891611Y-12633984D01*
X10072563Y-12633984D02*
X10053515Y-12624460D01*
X10053515Y-12624460D02*
X10043992Y-12605412D01*
X10043992Y-12605412D02*
X10043992Y-12433984D01*
X10224944Y-12624460D02*
X10205896Y-12633984D01*
X10205896Y-12633984D02*
X10167801Y-12633984D01*
X10167801Y-12633984D02*
X10148753Y-12624460D01*
X10148753Y-12624460D02*
X10139230Y-12605412D01*
X10139230Y-12605412D02*
X10139230Y-12529222D01*
X10139230Y-12529222D02*
X10148753Y-12510174D01*
X10148753Y-12510174D02*
X10167801Y-12500650D01*
X10167801Y-12500650D02*
X10205896Y-12500650D01*
X10205896Y-12500650D02*
X10224944Y-12510174D01*
X10224944Y-12510174D02*
X10234468Y-12529222D01*
X10234468Y-12529222D02*
X10234468Y-12548269D01*
X10234468Y-12548269D02*
X10139230Y-12567317D01*
X10310658Y-12624460D02*
X10329706Y-12633984D01*
X10329706Y-12633984D02*
X10367801Y-12633984D01*
X10367801Y-12633984D02*
X10386849Y-12624460D01*
X10386849Y-12624460D02*
X10396373Y-12605412D01*
X10396373Y-12605412D02*
X10396373Y-12595888D01*
X10396373Y-12595888D02*
X10386849Y-12576841D01*
X10386849Y-12576841D02*
X10367801Y-12567317D01*
X10367801Y-12567317D02*
X10339230Y-12567317D01*
X10339230Y-12567317D02*
X10320182Y-12557793D01*
X10320182Y-12557793D02*
X10310658Y-12538746D01*
X10310658Y-12538746D02*
X10310658Y-12529222D01*
X10310658Y-12529222D02*
X10320182Y-12510174D01*
X10320182Y-12510174D02*
X10339230Y-12500650D01*
X10339230Y-12500650D02*
X10367801Y-12500650D01*
X10367801Y-12500650D02*
X10386849Y-12510174D01*
X10463039Y-12710174D02*
X10472563Y-12700650D01*
X10472563Y-12700650D02*
X10491611Y-12672079D01*
X10491611Y-12672079D02*
X10501134Y-12653031D01*
X10501134Y-12653031D02*
X10510658Y-12624460D01*
X10510658Y-12624460D02*
X10520182Y-12576841D01*
X10520182Y-12576841D02*
X10520182Y-12538746D01*
X10520182Y-12538746D02*
X10510658Y-12491127D01*
X10510658Y-12491127D02*
X10501134Y-12462555D01*
X10501134Y-12462555D02*
X10491611Y-12443508D01*
X10491611Y-12443508D02*
X10472563Y-12414936D01*
X10472563Y-12414936D02*
X10463039Y-12405412D01*
D12*
X5497500Y-12806500D02*
G75*
G02*
X5437500Y-12806500I-30000J0D01*
G01*
X5437500Y-12806500D02*
G75*
G02*
X5497500Y-12806500I30000J0D01*
G01*
D11*
X5796372Y-12697984D02*
X5815420Y-12697984D01*
X5815420Y-12697984D02*
X5834467Y-12707508D01*
X5834467Y-12707508D02*
X5843991Y-12717031D01*
X5843991Y-12717031D02*
X5853515Y-12736079D01*
X5853515Y-12736079D02*
X5863039Y-12774174D01*
X5863039Y-12774174D02*
X5863039Y-12821793D01*
X5863039Y-12821793D02*
X5853515Y-12859888D01*
X5853515Y-12859888D02*
X5843991Y-12878936D01*
X5843991Y-12878936D02*
X5834467Y-12888460D01*
X5834467Y-12888460D02*
X5815420Y-12897984D01*
X5815420Y-12897984D02*
X5796372Y-12897984D01*
X5796372Y-12897984D02*
X5777324Y-12888460D01*
X5777324Y-12888460D02*
X5767801Y-12878936D01*
X5767801Y-12878936D02*
X5758277Y-12859888D01*
X5758277Y-12859888D02*
X5748753Y-12821793D01*
X5748753Y-12821793D02*
X5748753Y-12774174D01*
X5748753Y-12774174D02*
X5758277Y-12736079D01*
X5758277Y-12736079D02*
X5767801Y-12717031D01*
X5767801Y-12717031D02*
X5777324Y-12707508D01*
X5777324Y-12707508D02*
X5796372Y-12697984D01*
X5958277Y-12888460D02*
X5958277Y-12897984D01*
X5958277Y-12897984D02*
X5948753Y-12917031D01*
X5948753Y-12917031D02*
X5939229Y-12926555D01*
X6129705Y-12697984D02*
X6091610Y-12697984D01*
X6091610Y-12697984D02*
X6072562Y-12707508D01*
X6072562Y-12707508D02*
X6063039Y-12717031D01*
X6063039Y-12717031D02*
X6043991Y-12745603D01*
X6043991Y-12745603D02*
X6034467Y-12783698D01*
X6034467Y-12783698D02*
X6034467Y-12859888D01*
X6034467Y-12859888D02*
X6043991Y-12878936D01*
X6043991Y-12878936D02*
X6053515Y-12888460D01*
X6053515Y-12888460D02*
X6072562Y-12897984D01*
X6072562Y-12897984D02*
X6110658Y-12897984D01*
X6110658Y-12897984D02*
X6129705Y-12888460D01*
X6129705Y-12888460D02*
X6139229Y-12878936D01*
X6139229Y-12878936D02*
X6148753Y-12859888D01*
X6148753Y-12859888D02*
X6148753Y-12812269D01*
X6148753Y-12812269D02*
X6139229Y-12793222D01*
X6139229Y-12793222D02*
X6129705Y-12783698D01*
X6129705Y-12783698D02*
X6110658Y-12774174D01*
X6110658Y-12774174D02*
X6072562Y-12774174D01*
X6072562Y-12774174D02*
X6053515Y-12783698D01*
X6053515Y-12783698D02*
X6043991Y-12793222D01*
X6043991Y-12793222D02*
X6034467Y-12812269D01*
X6272562Y-12697984D02*
X6291610Y-12697984D01*
X6291610Y-12697984D02*
X6310658Y-12707508D01*
X6310658Y-12707508D02*
X6320182Y-12717031D01*
X6320182Y-12717031D02*
X6329705Y-12736079D01*
X6329705Y-12736079D02*
X6339229Y-12774174D01*
X6339229Y-12774174D02*
X6339229Y-12821793D01*
X6339229Y-12821793D02*
X6329705Y-12859888D01*
X6329705Y-12859888D02*
X6320182Y-12878936D01*
X6320182Y-12878936D02*
X6310658Y-12888460D01*
X6310658Y-12888460D02*
X6291610Y-12897984D01*
X6291610Y-12897984D02*
X6272562Y-12897984D01*
X6272562Y-12897984D02*
X6253515Y-12888460D01*
X6253515Y-12888460D02*
X6243991Y-12878936D01*
X6243991Y-12878936D02*
X6234467Y-12859888D01*
X6234467Y-12859888D02*
X6224943Y-12821793D01*
X6224943Y-12821793D02*
X6224943Y-12774174D01*
X6224943Y-12774174D02*
X6234467Y-12736079D01*
X6234467Y-12736079D02*
X6243991Y-12717031D01*
X6243991Y-12717031D02*
X6253515Y-12707508D01*
X6253515Y-12707508D02*
X6272562Y-12697984D01*
X6463039Y-12697984D02*
X6482086Y-12697984D01*
X6482086Y-12697984D02*
X6501134Y-12707508D01*
X6501134Y-12707508D02*
X6510658Y-12717031D01*
X6510658Y-12717031D02*
X6520182Y-12736079D01*
X6520182Y-12736079D02*
X6529705Y-12774174D01*
X6529705Y-12774174D02*
X6529705Y-12821793D01*
X6529705Y-12821793D02*
X6520182Y-12859888D01*
X6520182Y-12859888D02*
X6510658Y-12878936D01*
X6510658Y-12878936D02*
X6501134Y-12888460D01*
X6501134Y-12888460D02*
X6482086Y-12897984D01*
X6482086Y-12897984D02*
X6463039Y-12897984D01*
X6463039Y-12897984D02*
X6443991Y-12888460D01*
X6443991Y-12888460D02*
X6434467Y-12878936D01*
X6434467Y-12878936D02*
X6424943Y-12859888D01*
X6424943Y-12859888D02*
X6415420Y-12821793D01*
X6415420Y-12821793D02*
X6415420Y-12774174D01*
X6415420Y-12774174D02*
X6424943Y-12736079D01*
X6424943Y-12736079D02*
X6434467Y-12717031D01*
X6434467Y-12717031D02*
X6443991Y-12707508D01*
X6443991Y-12707508D02*
X6463039Y-12697984D01*
X6615420Y-12897984D02*
X6615420Y-12764650D01*
X6615420Y-12783698D02*
X6624943Y-12774174D01*
X6624943Y-12774174D02*
X6643991Y-12764650D01*
X6643991Y-12764650D02*
X6672563Y-12764650D01*
X6672563Y-12764650D02*
X6691610Y-12774174D01*
X6691610Y-12774174D02*
X6701134Y-12793222D01*
X6701134Y-12793222D02*
X6701134Y-12897984D01*
X6701134Y-12793222D02*
X6710658Y-12774174D01*
X6710658Y-12774174D02*
X6729705Y-12764650D01*
X6729705Y-12764650D02*
X6758277Y-12764650D01*
X6758277Y-12764650D02*
X6777324Y-12774174D01*
X6777324Y-12774174D02*
X6786848Y-12793222D01*
X6786848Y-12793222D02*
X6786848Y-12897984D01*
X6882086Y-12897984D02*
X6882086Y-12764650D01*
X6882086Y-12783698D02*
X6891610Y-12774174D01*
X6891610Y-12774174D02*
X6910658Y-12764650D01*
X6910658Y-12764650D02*
X6939229Y-12764650D01*
X6939229Y-12764650D02*
X6958277Y-12774174D01*
X6958277Y-12774174D02*
X6967801Y-12793222D01*
X6967801Y-12793222D02*
X6967801Y-12897984D01*
X6967801Y-12793222D02*
X6977324Y-12774174D01*
X6977324Y-12774174D02*
X6996372Y-12764650D01*
X6996372Y-12764650D02*
X7024943Y-12764650D01*
X7024943Y-12764650D02*
X7043991Y-12774174D01*
X7043991Y-12774174D02*
X7053515Y-12793222D01*
X7053515Y-12793222D02*
X7053515Y-12897984D01*
X7443991Y-12688460D02*
X7272563Y-12945603D01*
X7701134Y-12697984D02*
X7720182Y-12697984D01*
X7720182Y-12697984D02*
X7739229Y-12707508D01*
X7739229Y-12707508D02*
X7748753Y-12717031D01*
X7748753Y-12717031D02*
X7758277Y-12736079D01*
X7758277Y-12736079D02*
X7767801Y-12774174D01*
X7767801Y-12774174D02*
X7767801Y-12821793D01*
X7767801Y-12821793D02*
X7758277Y-12859888D01*
X7758277Y-12859888D02*
X7748753Y-12878936D01*
X7748753Y-12878936D02*
X7739229Y-12888460D01*
X7739229Y-12888460D02*
X7720182Y-12897984D01*
X7720182Y-12897984D02*
X7701134Y-12897984D01*
X7701134Y-12897984D02*
X7682086Y-12888460D01*
X7682086Y-12888460D02*
X7672563Y-12878936D01*
X7672563Y-12878936D02*
X7663039Y-12859888D01*
X7663039Y-12859888D02*
X7653515Y-12821793D01*
X7653515Y-12821793D02*
X7653515Y-12774174D01*
X7653515Y-12774174D02*
X7663039Y-12736079D01*
X7663039Y-12736079D02*
X7672563Y-12717031D01*
X7672563Y-12717031D02*
X7682086Y-12707508D01*
X7682086Y-12707508D02*
X7701134Y-12697984D01*
X7863039Y-12888460D02*
X7863039Y-12897984D01*
X7863039Y-12897984D02*
X7853515Y-12917031D01*
X7853515Y-12917031D02*
X7843991Y-12926555D01*
X7986848Y-12697984D02*
X8005896Y-12697984D01*
X8005896Y-12697984D02*
X8024944Y-12707508D01*
X8024944Y-12707508D02*
X8034467Y-12717031D01*
X8034467Y-12717031D02*
X8043991Y-12736079D01*
X8043991Y-12736079D02*
X8053515Y-12774174D01*
X8053515Y-12774174D02*
X8053515Y-12821793D01*
X8053515Y-12821793D02*
X8043991Y-12859888D01*
X8043991Y-12859888D02*
X8034467Y-12878936D01*
X8034467Y-12878936D02*
X8024944Y-12888460D01*
X8024944Y-12888460D02*
X8005896Y-12897984D01*
X8005896Y-12897984D02*
X7986848Y-12897984D01*
X7986848Y-12897984D02*
X7967801Y-12888460D01*
X7967801Y-12888460D02*
X7958277Y-12878936D01*
X7958277Y-12878936D02*
X7948753Y-12859888D01*
X7948753Y-12859888D02*
X7939229Y-12821793D01*
X7939229Y-12821793D02*
X7939229Y-12774174D01*
X7939229Y-12774174D02*
X7948753Y-12736079D01*
X7948753Y-12736079D02*
X7958277Y-12717031D01*
X7958277Y-12717031D02*
X7967801Y-12707508D01*
X7967801Y-12707508D02*
X7986848Y-12697984D01*
X8129706Y-12717031D02*
X8139229Y-12707508D01*
X8139229Y-12707508D02*
X8158277Y-12697984D01*
X8158277Y-12697984D02*
X8205896Y-12697984D01*
X8205896Y-12697984D02*
X8224944Y-12707508D01*
X8224944Y-12707508D02*
X8234467Y-12717031D01*
X8234467Y-12717031D02*
X8243991Y-12736079D01*
X8243991Y-12736079D02*
X8243991Y-12755127D01*
X8243991Y-12755127D02*
X8234467Y-12783698D01*
X8234467Y-12783698D02*
X8120182Y-12897984D01*
X8120182Y-12897984D02*
X8243991Y-12897984D01*
X8310658Y-12697984D02*
X8434468Y-12697984D01*
X8434468Y-12697984D02*
X8367801Y-12774174D01*
X8367801Y-12774174D02*
X8396372Y-12774174D01*
X8396372Y-12774174D02*
X8415420Y-12783698D01*
X8415420Y-12783698D02*
X8424944Y-12793222D01*
X8424944Y-12793222D02*
X8434468Y-12812269D01*
X8434468Y-12812269D02*
X8434468Y-12859888D01*
X8434468Y-12859888D02*
X8424944Y-12878936D01*
X8424944Y-12878936D02*
X8415420Y-12888460D01*
X8415420Y-12888460D02*
X8396372Y-12897984D01*
X8396372Y-12897984D02*
X8339229Y-12897984D01*
X8339229Y-12897984D02*
X8320182Y-12888460D01*
X8320182Y-12888460D02*
X8310658Y-12878936D01*
X8605896Y-12697984D02*
X8567801Y-12697984D01*
X8567801Y-12697984D02*
X8548753Y-12707508D01*
X8548753Y-12707508D02*
X8539229Y-12717031D01*
X8539229Y-12717031D02*
X8520182Y-12745603D01*
X8520182Y-12745603D02*
X8510658Y-12783698D01*
X8510658Y-12783698D02*
X8510658Y-12859888D01*
X8510658Y-12859888D02*
X8520182Y-12878936D01*
X8520182Y-12878936D02*
X8529706Y-12888460D01*
X8529706Y-12888460D02*
X8548753Y-12897984D01*
X8548753Y-12897984D02*
X8586849Y-12897984D01*
X8586849Y-12897984D02*
X8605896Y-12888460D01*
X8605896Y-12888460D02*
X8615420Y-12878936D01*
X8615420Y-12878936D02*
X8624944Y-12859888D01*
X8624944Y-12859888D02*
X8624944Y-12812269D01*
X8624944Y-12812269D02*
X8615420Y-12793222D01*
X8615420Y-12793222D02*
X8605896Y-12783698D01*
X8605896Y-12783698D02*
X8586849Y-12774174D01*
X8586849Y-12774174D02*
X8548753Y-12774174D01*
X8548753Y-12774174D02*
X8529706Y-12783698D01*
X8529706Y-12783698D02*
X8520182Y-12793222D01*
X8520182Y-12793222D02*
X8510658Y-12812269D01*
X8701134Y-12697984D02*
X8701134Y-12736079D01*
X8777325Y-12697984D02*
X8777325Y-12736079D01*
X9072563Y-12974174D02*
X9063039Y-12964650D01*
X9063039Y-12964650D02*
X9043991Y-12936079D01*
X9043991Y-12936079D02*
X9034468Y-12917031D01*
X9034468Y-12917031D02*
X9024944Y-12888460D01*
X9024944Y-12888460D02*
X9015420Y-12840841D01*
X9015420Y-12840841D02*
X9015420Y-12802746D01*
X9015420Y-12802746D02*
X9024944Y-12755127D01*
X9024944Y-12755127D02*
X9034468Y-12726555D01*
X9034468Y-12726555D02*
X9043991Y-12707508D01*
X9043991Y-12707508D02*
X9063039Y-12678936D01*
X9063039Y-12678936D02*
X9072563Y-12669412D01*
X9234468Y-12697984D02*
X9196372Y-12697984D01*
X9196372Y-12697984D02*
X9177325Y-12707508D01*
X9177325Y-12707508D02*
X9167801Y-12717031D01*
X9167801Y-12717031D02*
X9148753Y-12745603D01*
X9148753Y-12745603D02*
X9139230Y-12783698D01*
X9139230Y-12783698D02*
X9139230Y-12859888D01*
X9139230Y-12859888D02*
X9148753Y-12878936D01*
X9148753Y-12878936D02*
X9158277Y-12888460D01*
X9158277Y-12888460D02*
X9177325Y-12897984D01*
X9177325Y-12897984D02*
X9215420Y-12897984D01*
X9215420Y-12897984D02*
X9234468Y-12888460D01*
X9234468Y-12888460D02*
X9243991Y-12878936D01*
X9243991Y-12878936D02*
X9253515Y-12859888D01*
X9253515Y-12859888D02*
X9253515Y-12812269D01*
X9253515Y-12812269D02*
X9243991Y-12793222D01*
X9243991Y-12793222D02*
X9234468Y-12783698D01*
X9234468Y-12783698D02*
X9215420Y-12774174D01*
X9215420Y-12774174D02*
X9177325Y-12774174D01*
X9177325Y-12774174D02*
X9158277Y-12783698D01*
X9158277Y-12783698D02*
X9148753Y-12793222D01*
X9148753Y-12793222D02*
X9139230Y-12812269D01*
X9491611Y-12897984D02*
X9491611Y-12697984D01*
X9577325Y-12897984D02*
X9577325Y-12793222D01*
X9577325Y-12793222D02*
X9567801Y-12774174D01*
X9567801Y-12774174D02*
X9548753Y-12764650D01*
X9548753Y-12764650D02*
X9520182Y-12764650D01*
X9520182Y-12764650D02*
X9501134Y-12774174D01*
X9501134Y-12774174D02*
X9491611Y-12783698D01*
X9701134Y-12897984D02*
X9682087Y-12888460D01*
X9682087Y-12888460D02*
X9672563Y-12878936D01*
X9672563Y-12878936D02*
X9663039Y-12859888D01*
X9663039Y-12859888D02*
X9663039Y-12802746D01*
X9663039Y-12802746D02*
X9672563Y-12783698D01*
X9672563Y-12783698D02*
X9682087Y-12774174D01*
X9682087Y-12774174D02*
X9701134Y-12764650D01*
X9701134Y-12764650D02*
X9729706Y-12764650D01*
X9729706Y-12764650D02*
X9748753Y-12774174D01*
X9748753Y-12774174D02*
X9758277Y-12783698D01*
X9758277Y-12783698D02*
X9767801Y-12802746D01*
X9767801Y-12802746D02*
X9767801Y-12859888D01*
X9767801Y-12859888D02*
X9758277Y-12878936D01*
X9758277Y-12878936D02*
X9748753Y-12888460D01*
X9748753Y-12888460D02*
X9729706Y-12897984D01*
X9729706Y-12897984D02*
X9701134Y-12897984D01*
X9882087Y-12897984D02*
X9863039Y-12888460D01*
X9863039Y-12888460D02*
X9853515Y-12869412D01*
X9853515Y-12869412D02*
X9853515Y-12697984D01*
X10034468Y-12888460D02*
X10015420Y-12897984D01*
X10015420Y-12897984D02*
X9977325Y-12897984D01*
X9977325Y-12897984D02*
X9958277Y-12888460D01*
X9958277Y-12888460D02*
X9948753Y-12869412D01*
X9948753Y-12869412D02*
X9948753Y-12793222D01*
X9948753Y-12793222D02*
X9958277Y-12774174D01*
X9958277Y-12774174D02*
X9977325Y-12764650D01*
X9977325Y-12764650D02*
X10015420Y-12764650D01*
X10015420Y-12764650D02*
X10034468Y-12774174D01*
X10034468Y-12774174D02*
X10043992Y-12793222D01*
X10043992Y-12793222D02*
X10043992Y-12812269D01*
X10043992Y-12812269D02*
X9948753Y-12831317D01*
X10120182Y-12888460D02*
X10139230Y-12897984D01*
X10139230Y-12897984D02*
X10177325Y-12897984D01*
X10177325Y-12897984D02*
X10196373Y-12888460D01*
X10196373Y-12888460D02*
X10205896Y-12869412D01*
X10205896Y-12869412D02*
X10205896Y-12859888D01*
X10205896Y-12859888D02*
X10196373Y-12840841D01*
X10196373Y-12840841D02*
X10177325Y-12831317D01*
X10177325Y-12831317D02*
X10148753Y-12831317D01*
X10148753Y-12831317D02*
X10129706Y-12821793D01*
X10129706Y-12821793D02*
X10120182Y-12802746D01*
X10120182Y-12802746D02*
X10120182Y-12793222D01*
X10120182Y-12793222D02*
X10129706Y-12774174D01*
X10129706Y-12774174D02*
X10148753Y-12764650D01*
X10148753Y-12764650D02*
X10177325Y-12764650D01*
X10177325Y-12764650D02*
X10196373Y-12774174D01*
X10272563Y-12974174D02*
X10282087Y-12964650D01*
X10282087Y-12964650D02*
X10301134Y-12936079D01*
X10301134Y-12936079D02*
X10310658Y-12917031D01*
X10310658Y-12917031D02*
X10320182Y-12888460D01*
X10320182Y-12888460D02*
X10329706Y-12840841D01*
X10329706Y-12840841D02*
X10329706Y-12802746D01*
X10329706Y-12802746D02*
X10320182Y-12755127D01*
X10320182Y-12755127D02*
X10310658Y-12726555D01*
X10310658Y-12726555D02*
X10301134Y-12707508D01*
X10301134Y-12707508D02*
X10282087Y-12678936D01*
X10282087Y-12678936D02*
X10272563Y-12669412D01*
D12*
X5457500Y-13030500D02*
X5457500Y-13110500D01*
X5417500Y-13070500D02*
X5497500Y-13070500D01*
D11*
X5796372Y-12961984D02*
X5815420Y-12961984D01*
X5815420Y-12961984D02*
X5834467Y-12971508D01*
X5834467Y-12971508D02*
X5843991Y-12981031D01*
X5843991Y-12981031D02*
X5853515Y-13000079D01*
X5853515Y-13000079D02*
X5863039Y-13038174D01*
X5863039Y-13038174D02*
X5863039Y-13085793D01*
X5863039Y-13085793D02*
X5853515Y-13123888D01*
X5853515Y-13123888D02*
X5843991Y-13142936D01*
X5843991Y-13142936D02*
X5834467Y-13152460D01*
X5834467Y-13152460D02*
X5815420Y-13161984D01*
X5815420Y-13161984D02*
X5796372Y-13161984D01*
X5796372Y-13161984D02*
X5777324Y-13152460D01*
X5777324Y-13152460D02*
X5767801Y-13142936D01*
X5767801Y-13142936D02*
X5758277Y-13123888D01*
X5758277Y-13123888D02*
X5748753Y-13085793D01*
X5748753Y-13085793D02*
X5748753Y-13038174D01*
X5748753Y-13038174D02*
X5758277Y-13000079D01*
X5758277Y-13000079D02*
X5767801Y-12981031D01*
X5767801Y-12981031D02*
X5777324Y-12971508D01*
X5777324Y-12971508D02*
X5796372Y-12961984D01*
X5958277Y-13152460D02*
X5958277Y-13161984D01*
X5958277Y-13161984D02*
X5948753Y-13181031D01*
X5948753Y-13181031D02*
X5939229Y-13190555D01*
X6072562Y-13047698D02*
X6053515Y-13038174D01*
X6053515Y-13038174D02*
X6043991Y-13028650D01*
X6043991Y-13028650D02*
X6034467Y-13009603D01*
X6034467Y-13009603D02*
X6034467Y-13000079D01*
X6034467Y-13000079D02*
X6043991Y-12981031D01*
X6043991Y-12981031D02*
X6053515Y-12971508D01*
X6053515Y-12971508D02*
X6072562Y-12961984D01*
X6072562Y-12961984D02*
X6110658Y-12961984D01*
X6110658Y-12961984D02*
X6129705Y-12971508D01*
X6129705Y-12971508D02*
X6139229Y-12981031D01*
X6139229Y-12981031D02*
X6148753Y-13000079D01*
X6148753Y-13000079D02*
X6148753Y-13009603D01*
X6148753Y-13009603D02*
X6139229Y-13028650D01*
X6139229Y-13028650D02*
X6129705Y-13038174D01*
X6129705Y-13038174D02*
X6110658Y-13047698D01*
X6110658Y-13047698D02*
X6072562Y-13047698D01*
X6072562Y-13047698D02*
X6053515Y-13057222D01*
X6053515Y-13057222D02*
X6043991Y-13066746D01*
X6043991Y-13066746D02*
X6034467Y-13085793D01*
X6034467Y-13085793D02*
X6034467Y-13123888D01*
X6034467Y-13123888D02*
X6043991Y-13142936D01*
X6043991Y-13142936D02*
X6053515Y-13152460D01*
X6053515Y-13152460D02*
X6072562Y-13161984D01*
X6072562Y-13161984D02*
X6110658Y-13161984D01*
X6110658Y-13161984D02*
X6129705Y-13152460D01*
X6129705Y-13152460D02*
X6139229Y-13142936D01*
X6139229Y-13142936D02*
X6148753Y-13123888D01*
X6148753Y-13123888D02*
X6148753Y-13085793D01*
X6148753Y-13085793D02*
X6139229Y-13066746D01*
X6139229Y-13066746D02*
X6129705Y-13057222D01*
X6129705Y-13057222D02*
X6110658Y-13047698D01*
X6272562Y-12961984D02*
X6291610Y-12961984D01*
X6291610Y-12961984D02*
X6310658Y-12971508D01*
X6310658Y-12971508D02*
X6320182Y-12981031D01*
X6320182Y-12981031D02*
X6329705Y-13000079D01*
X6329705Y-13000079D02*
X6339229Y-13038174D01*
X6339229Y-13038174D02*
X6339229Y-13085793D01*
X6339229Y-13085793D02*
X6329705Y-13123888D01*
X6329705Y-13123888D02*
X6320182Y-13142936D01*
X6320182Y-13142936D02*
X6310658Y-13152460D01*
X6310658Y-13152460D02*
X6291610Y-13161984D01*
X6291610Y-13161984D02*
X6272562Y-13161984D01*
X6272562Y-13161984D02*
X6253515Y-13152460D01*
X6253515Y-13152460D02*
X6243991Y-13142936D01*
X6243991Y-13142936D02*
X6234467Y-13123888D01*
X6234467Y-13123888D02*
X6224943Y-13085793D01*
X6224943Y-13085793D02*
X6224943Y-13038174D01*
X6224943Y-13038174D02*
X6234467Y-13000079D01*
X6234467Y-13000079D02*
X6243991Y-12981031D01*
X6243991Y-12981031D02*
X6253515Y-12971508D01*
X6253515Y-12971508D02*
X6272562Y-12961984D01*
X6463039Y-12961984D02*
X6482086Y-12961984D01*
X6482086Y-12961984D02*
X6501134Y-12971508D01*
X6501134Y-12971508D02*
X6510658Y-12981031D01*
X6510658Y-12981031D02*
X6520182Y-13000079D01*
X6520182Y-13000079D02*
X6529705Y-13038174D01*
X6529705Y-13038174D02*
X6529705Y-13085793D01*
X6529705Y-13085793D02*
X6520182Y-13123888D01*
X6520182Y-13123888D02*
X6510658Y-13142936D01*
X6510658Y-13142936D02*
X6501134Y-13152460D01*
X6501134Y-13152460D02*
X6482086Y-13161984D01*
X6482086Y-13161984D02*
X6463039Y-13161984D01*
X6463039Y-13161984D02*
X6443991Y-13152460D01*
X6443991Y-13152460D02*
X6434467Y-13142936D01*
X6434467Y-13142936D02*
X6424943Y-13123888D01*
X6424943Y-13123888D02*
X6415420Y-13085793D01*
X6415420Y-13085793D02*
X6415420Y-13038174D01*
X6415420Y-13038174D02*
X6424943Y-13000079D01*
X6424943Y-13000079D02*
X6434467Y-12981031D01*
X6434467Y-12981031D02*
X6443991Y-12971508D01*
X6443991Y-12971508D02*
X6463039Y-12961984D01*
X6615420Y-13161984D02*
X6615420Y-13028650D01*
X6615420Y-13047698D02*
X6624943Y-13038174D01*
X6624943Y-13038174D02*
X6643991Y-13028650D01*
X6643991Y-13028650D02*
X6672563Y-13028650D01*
X6672563Y-13028650D02*
X6691610Y-13038174D01*
X6691610Y-13038174D02*
X6701134Y-13057222D01*
X6701134Y-13057222D02*
X6701134Y-13161984D01*
X6701134Y-13057222D02*
X6710658Y-13038174D01*
X6710658Y-13038174D02*
X6729705Y-13028650D01*
X6729705Y-13028650D02*
X6758277Y-13028650D01*
X6758277Y-13028650D02*
X6777324Y-13038174D01*
X6777324Y-13038174D02*
X6786848Y-13057222D01*
X6786848Y-13057222D02*
X6786848Y-13161984D01*
X6882086Y-13161984D02*
X6882086Y-13028650D01*
X6882086Y-13047698D02*
X6891610Y-13038174D01*
X6891610Y-13038174D02*
X6910658Y-13028650D01*
X6910658Y-13028650D02*
X6939229Y-13028650D01*
X6939229Y-13028650D02*
X6958277Y-13038174D01*
X6958277Y-13038174D02*
X6967801Y-13057222D01*
X6967801Y-13057222D02*
X6967801Y-13161984D01*
X6967801Y-13057222D02*
X6977324Y-13038174D01*
X6977324Y-13038174D02*
X6996372Y-13028650D01*
X6996372Y-13028650D02*
X7024943Y-13028650D01*
X7024943Y-13028650D02*
X7043991Y-13038174D01*
X7043991Y-13038174D02*
X7053515Y-13057222D01*
X7053515Y-13057222D02*
X7053515Y-13161984D01*
X7443991Y-12952460D02*
X7272563Y-13209603D01*
X7701134Y-12961984D02*
X7720182Y-12961984D01*
X7720182Y-12961984D02*
X7739229Y-12971508D01*
X7739229Y-12971508D02*
X7748753Y-12981031D01*
X7748753Y-12981031D02*
X7758277Y-13000079D01*
X7758277Y-13000079D02*
X7767801Y-13038174D01*
X7767801Y-13038174D02*
X7767801Y-13085793D01*
X7767801Y-13085793D02*
X7758277Y-13123888D01*
X7758277Y-13123888D02*
X7748753Y-13142936D01*
X7748753Y-13142936D02*
X7739229Y-13152460D01*
X7739229Y-13152460D02*
X7720182Y-13161984D01*
X7720182Y-13161984D02*
X7701134Y-13161984D01*
X7701134Y-13161984D02*
X7682086Y-13152460D01*
X7682086Y-13152460D02*
X7672563Y-13142936D01*
X7672563Y-13142936D02*
X7663039Y-13123888D01*
X7663039Y-13123888D02*
X7653515Y-13085793D01*
X7653515Y-13085793D02*
X7653515Y-13038174D01*
X7653515Y-13038174D02*
X7663039Y-13000079D01*
X7663039Y-13000079D02*
X7672563Y-12981031D01*
X7672563Y-12981031D02*
X7682086Y-12971508D01*
X7682086Y-12971508D02*
X7701134Y-12961984D01*
X7863039Y-13152460D02*
X7863039Y-13161984D01*
X7863039Y-13161984D02*
X7853515Y-13181031D01*
X7853515Y-13181031D02*
X7843991Y-13190555D01*
X7986848Y-12961984D02*
X8005896Y-12961984D01*
X8005896Y-12961984D02*
X8024944Y-12971508D01*
X8024944Y-12971508D02*
X8034467Y-12981031D01*
X8034467Y-12981031D02*
X8043991Y-13000079D01*
X8043991Y-13000079D02*
X8053515Y-13038174D01*
X8053515Y-13038174D02*
X8053515Y-13085793D01*
X8053515Y-13085793D02*
X8043991Y-13123888D01*
X8043991Y-13123888D02*
X8034467Y-13142936D01*
X8034467Y-13142936D02*
X8024944Y-13152460D01*
X8024944Y-13152460D02*
X8005896Y-13161984D01*
X8005896Y-13161984D02*
X7986848Y-13161984D01*
X7986848Y-13161984D02*
X7967801Y-13152460D01*
X7967801Y-13152460D02*
X7958277Y-13142936D01*
X7958277Y-13142936D02*
X7948753Y-13123888D01*
X7948753Y-13123888D02*
X7939229Y-13085793D01*
X7939229Y-13085793D02*
X7939229Y-13038174D01*
X7939229Y-13038174D02*
X7948753Y-13000079D01*
X7948753Y-13000079D02*
X7958277Y-12981031D01*
X7958277Y-12981031D02*
X7967801Y-12971508D01*
X7967801Y-12971508D02*
X7986848Y-12961984D01*
X8120182Y-12961984D02*
X8243991Y-12961984D01*
X8243991Y-12961984D02*
X8177325Y-13038174D01*
X8177325Y-13038174D02*
X8205896Y-13038174D01*
X8205896Y-13038174D02*
X8224944Y-13047698D01*
X8224944Y-13047698D02*
X8234467Y-13057222D01*
X8234467Y-13057222D02*
X8243991Y-13076269D01*
X8243991Y-13076269D02*
X8243991Y-13123888D01*
X8243991Y-13123888D02*
X8234467Y-13142936D01*
X8234467Y-13142936D02*
X8224944Y-13152460D01*
X8224944Y-13152460D02*
X8205896Y-13161984D01*
X8205896Y-13161984D02*
X8148753Y-13161984D01*
X8148753Y-13161984D02*
X8129706Y-13152460D01*
X8129706Y-13152460D02*
X8120182Y-13142936D01*
X8434468Y-13161984D02*
X8320182Y-13161984D01*
X8377325Y-13161984D02*
X8377325Y-12961984D01*
X8377325Y-12961984D02*
X8358277Y-12990555D01*
X8358277Y-12990555D02*
X8339229Y-13009603D01*
X8339229Y-13009603D02*
X8320182Y-13019127D01*
X8615420Y-12961984D02*
X8520182Y-12961984D01*
X8520182Y-12961984D02*
X8510658Y-13057222D01*
X8510658Y-13057222D02*
X8520182Y-13047698D01*
X8520182Y-13047698D02*
X8539229Y-13038174D01*
X8539229Y-13038174D02*
X8586849Y-13038174D01*
X8586849Y-13038174D02*
X8605896Y-13047698D01*
X8605896Y-13047698D02*
X8615420Y-13057222D01*
X8615420Y-13057222D02*
X8624944Y-13076269D01*
X8624944Y-13076269D02*
X8624944Y-13123888D01*
X8624944Y-13123888D02*
X8615420Y-13142936D01*
X8615420Y-13142936D02*
X8605896Y-13152460D01*
X8605896Y-13152460D02*
X8586849Y-13161984D01*
X8586849Y-13161984D02*
X8539229Y-13161984D01*
X8539229Y-13161984D02*
X8520182Y-13152460D01*
X8520182Y-13152460D02*
X8510658Y-13142936D01*
X8701134Y-12961984D02*
X8701134Y-13000079D01*
X8777325Y-12961984D02*
X8777325Y-13000079D01*
X9072563Y-13238174D02*
X9063039Y-13228650D01*
X9063039Y-13228650D02*
X9043991Y-13200079D01*
X9043991Y-13200079D02*
X9034468Y-13181031D01*
X9034468Y-13181031D02*
X9024944Y-13152460D01*
X9024944Y-13152460D02*
X9015420Y-13104841D01*
X9015420Y-13104841D02*
X9015420Y-13066746D01*
X9015420Y-13066746D02*
X9024944Y-13019127D01*
X9024944Y-13019127D02*
X9034468Y-12990555D01*
X9034468Y-12990555D02*
X9043991Y-12971508D01*
X9043991Y-12971508D02*
X9063039Y-12942936D01*
X9063039Y-12942936D02*
X9072563Y-12933412D01*
X9177325Y-13047698D02*
X9158277Y-13038174D01*
X9158277Y-13038174D02*
X9148753Y-13028650D01*
X9148753Y-13028650D02*
X9139230Y-13009603D01*
X9139230Y-13009603D02*
X9139230Y-13000079D01*
X9139230Y-13000079D02*
X9148753Y-12981031D01*
X9148753Y-12981031D02*
X9158277Y-12971508D01*
X9158277Y-12971508D02*
X9177325Y-12961984D01*
X9177325Y-12961984D02*
X9215420Y-12961984D01*
X9215420Y-12961984D02*
X9234468Y-12971508D01*
X9234468Y-12971508D02*
X9243991Y-12981031D01*
X9243991Y-12981031D02*
X9253515Y-13000079D01*
X9253515Y-13000079D02*
X9253515Y-13009603D01*
X9253515Y-13009603D02*
X9243991Y-13028650D01*
X9243991Y-13028650D02*
X9234468Y-13038174D01*
X9234468Y-13038174D02*
X9215420Y-13047698D01*
X9215420Y-13047698D02*
X9177325Y-13047698D01*
X9177325Y-13047698D02*
X9158277Y-13057222D01*
X9158277Y-13057222D02*
X9148753Y-13066746D01*
X9148753Y-13066746D02*
X9139230Y-13085793D01*
X9139230Y-13085793D02*
X9139230Y-13123888D01*
X9139230Y-13123888D02*
X9148753Y-13142936D01*
X9148753Y-13142936D02*
X9158277Y-13152460D01*
X9158277Y-13152460D02*
X9177325Y-13161984D01*
X9177325Y-13161984D02*
X9215420Y-13161984D01*
X9215420Y-13161984D02*
X9234468Y-13152460D01*
X9234468Y-13152460D02*
X9243991Y-13142936D01*
X9243991Y-13142936D02*
X9253515Y-13123888D01*
X9253515Y-13123888D02*
X9253515Y-13085793D01*
X9253515Y-13085793D02*
X9243991Y-13066746D01*
X9243991Y-13066746D02*
X9234468Y-13057222D01*
X9234468Y-13057222D02*
X9215420Y-13047698D01*
X9367801Y-13047698D02*
X9348753Y-13038174D01*
X9348753Y-13038174D02*
X9339230Y-13028650D01*
X9339230Y-13028650D02*
X9329706Y-13009603D01*
X9329706Y-13009603D02*
X9329706Y-13000079D01*
X9329706Y-13000079D02*
X9339230Y-12981031D01*
X9339230Y-12981031D02*
X9348753Y-12971508D01*
X9348753Y-12971508D02*
X9367801Y-12961984D01*
X9367801Y-12961984D02*
X9405896Y-12961984D01*
X9405896Y-12961984D02*
X9424944Y-12971508D01*
X9424944Y-12971508D02*
X9434468Y-12981031D01*
X9434468Y-12981031D02*
X9443991Y-13000079D01*
X9443991Y-13000079D02*
X9443991Y-13009603D01*
X9443991Y-13009603D02*
X9434468Y-13028650D01*
X9434468Y-13028650D02*
X9424944Y-13038174D01*
X9424944Y-13038174D02*
X9405896Y-13047698D01*
X9405896Y-13047698D02*
X9367801Y-13047698D01*
X9367801Y-13047698D02*
X9348753Y-13057222D01*
X9348753Y-13057222D02*
X9339230Y-13066746D01*
X9339230Y-13066746D02*
X9329706Y-13085793D01*
X9329706Y-13085793D02*
X9329706Y-13123888D01*
X9329706Y-13123888D02*
X9339230Y-13142936D01*
X9339230Y-13142936D02*
X9348753Y-13152460D01*
X9348753Y-13152460D02*
X9367801Y-13161984D01*
X9367801Y-13161984D02*
X9405896Y-13161984D01*
X9405896Y-13161984D02*
X9424944Y-13152460D01*
X9424944Y-13152460D02*
X9434468Y-13142936D01*
X9434468Y-13142936D02*
X9443991Y-13123888D01*
X9443991Y-13123888D02*
X9443991Y-13085793D01*
X9443991Y-13085793D02*
X9434468Y-13066746D01*
X9434468Y-13066746D02*
X9424944Y-13057222D01*
X9424944Y-13057222D02*
X9405896Y-13047698D01*
X9682087Y-13161984D02*
X9682087Y-12961984D01*
X9767801Y-13161984D02*
X9767801Y-13057222D01*
X9767801Y-13057222D02*
X9758277Y-13038174D01*
X9758277Y-13038174D02*
X9739230Y-13028650D01*
X9739230Y-13028650D02*
X9710658Y-13028650D01*
X9710658Y-13028650D02*
X9691611Y-13038174D01*
X9691611Y-13038174D02*
X9682087Y-13047698D01*
X9891611Y-13161984D02*
X9872563Y-13152460D01*
X9872563Y-13152460D02*
X9863039Y-13142936D01*
X9863039Y-13142936D02*
X9853515Y-13123888D01*
X9853515Y-13123888D02*
X9853515Y-13066746D01*
X9853515Y-13066746D02*
X9863039Y-13047698D01*
X9863039Y-13047698D02*
X9872563Y-13038174D01*
X9872563Y-13038174D02*
X9891611Y-13028650D01*
X9891611Y-13028650D02*
X9920182Y-13028650D01*
X9920182Y-13028650D02*
X9939230Y-13038174D01*
X9939230Y-13038174D02*
X9948753Y-13047698D01*
X9948753Y-13047698D02*
X9958277Y-13066746D01*
X9958277Y-13066746D02*
X9958277Y-13123888D01*
X9958277Y-13123888D02*
X9948753Y-13142936D01*
X9948753Y-13142936D02*
X9939230Y-13152460D01*
X9939230Y-13152460D02*
X9920182Y-13161984D01*
X9920182Y-13161984D02*
X9891611Y-13161984D01*
X10072563Y-13161984D02*
X10053515Y-13152460D01*
X10053515Y-13152460D02*
X10043992Y-13133412D01*
X10043992Y-13133412D02*
X10043992Y-12961984D01*
X10224944Y-13152460D02*
X10205896Y-13161984D01*
X10205896Y-13161984D02*
X10167801Y-13161984D01*
X10167801Y-13161984D02*
X10148753Y-13152460D01*
X10148753Y-13152460D02*
X10139230Y-13133412D01*
X10139230Y-13133412D02*
X10139230Y-13057222D01*
X10139230Y-13057222D02*
X10148753Y-13038174D01*
X10148753Y-13038174D02*
X10167801Y-13028650D01*
X10167801Y-13028650D02*
X10205896Y-13028650D01*
X10205896Y-13028650D02*
X10224944Y-13038174D01*
X10224944Y-13038174D02*
X10234468Y-13057222D01*
X10234468Y-13057222D02*
X10234468Y-13076269D01*
X10234468Y-13076269D02*
X10139230Y-13095317D01*
X10310658Y-13152460D02*
X10329706Y-13161984D01*
X10329706Y-13161984D02*
X10367801Y-13161984D01*
X10367801Y-13161984D02*
X10386849Y-13152460D01*
X10386849Y-13152460D02*
X10396373Y-13133412D01*
X10396373Y-13133412D02*
X10396373Y-13123888D01*
X10396373Y-13123888D02*
X10386849Y-13104841D01*
X10386849Y-13104841D02*
X10367801Y-13095317D01*
X10367801Y-13095317D02*
X10339230Y-13095317D01*
X10339230Y-13095317D02*
X10320182Y-13085793D01*
X10320182Y-13085793D02*
X10310658Y-13066746D01*
X10310658Y-13066746D02*
X10310658Y-13057222D01*
X10310658Y-13057222D02*
X10320182Y-13038174D01*
X10320182Y-13038174D02*
X10339230Y-13028650D01*
X10339230Y-13028650D02*
X10367801Y-13028650D01*
X10367801Y-13028650D02*
X10386849Y-13038174D01*
X10463039Y-13238174D02*
X10472563Y-13228650D01*
X10472563Y-13228650D02*
X10491611Y-13200079D01*
X10491611Y-13200079D02*
X10501134Y-13181031D01*
X10501134Y-13181031D02*
X10510658Y-13152460D01*
X10510658Y-13152460D02*
X10520182Y-13104841D01*
X10520182Y-13104841D02*
X10520182Y-13066746D01*
X10520182Y-13066746D02*
X10510658Y-13019127D01*
X10510658Y-13019127D02*
X10501134Y-12990555D01*
X10501134Y-12990555D02*
X10491611Y-12971508D01*
X10491611Y-12971508D02*
X10472563Y-12942936D01*
X10472563Y-12942936D02*
X10463039Y-12933412D01*
D12*
X5482856Y-13369856D02*
X5482856Y-13299144D01*
X5412144Y-13299144D01*
X5412144Y-13369856D01*
X5482856Y-13369856D01*
D11*
X5863039Y-13425984D02*
X5748753Y-13425984D01*
X5805896Y-13425984D02*
X5805896Y-13225984D01*
X5805896Y-13225984D02*
X5786848Y-13254555D01*
X5786848Y-13254555D02*
X5767801Y-13273603D01*
X5767801Y-13273603D02*
X5748753Y-13283127D01*
X5958277Y-13416460D02*
X5958277Y-13425984D01*
X5958277Y-13425984D02*
X5948753Y-13445031D01*
X5948753Y-13445031D02*
X5939229Y-13454555D01*
X6082086Y-13225984D02*
X6101134Y-13225984D01*
X6101134Y-13225984D02*
X6120182Y-13235508D01*
X6120182Y-13235508D02*
X6129705Y-13245031D01*
X6129705Y-13245031D02*
X6139229Y-13264079D01*
X6139229Y-13264079D02*
X6148753Y-13302174D01*
X6148753Y-13302174D02*
X6148753Y-13349793D01*
X6148753Y-13349793D02*
X6139229Y-13387888D01*
X6139229Y-13387888D02*
X6129705Y-13406936D01*
X6129705Y-13406936D02*
X6120182Y-13416460D01*
X6120182Y-13416460D02*
X6101134Y-13425984D01*
X6101134Y-13425984D02*
X6082086Y-13425984D01*
X6082086Y-13425984D02*
X6063039Y-13416460D01*
X6063039Y-13416460D02*
X6053515Y-13406936D01*
X6053515Y-13406936D02*
X6043991Y-13387888D01*
X6043991Y-13387888D02*
X6034467Y-13349793D01*
X6034467Y-13349793D02*
X6034467Y-13302174D01*
X6034467Y-13302174D02*
X6043991Y-13264079D01*
X6043991Y-13264079D02*
X6053515Y-13245031D01*
X6053515Y-13245031D02*
X6063039Y-13235508D01*
X6063039Y-13235508D02*
X6082086Y-13225984D01*
X6272562Y-13225984D02*
X6291610Y-13225984D01*
X6291610Y-13225984D02*
X6310658Y-13235508D01*
X6310658Y-13235508D02*
X6320182Y-13245031D01*
X6320182Y-13245031D02*
X6329705Y-13264079D01*
X6329705Y-13264079D02*
X6339229Y-13302174D01*
X6339229Y-13302174D02*
X6339229Y-13349793D01*
X6339229Y-13349793D02*
X6329705Y-13387888D01*
X6329705Y-13387888D02*
X6320182Y-13406936D01*
X6320182Y-13406936D02*
X6310658Y-13416460D01*
X6310658Y-13416460D02*
X6291610Y-13425984D01*
X6291610Y-13425984D02*
X6272562Y-13425984D01*
X6272562Y-13425984D02*
X6253515Y-13416460D01*
X6253515Y-13416460D02*
X6243991Y-13406936D01*
X6243991Y-13406936D02*
X6234467Y-13387888D01*
X6234467Y-13387888D02*
X6224943Y-13349793D01*
X6224943Y-13349793D02*
X6224943Y-13302174D01*
X6224943Y-13302174D02*
X6234467Y-13264079D01*
X6234467Y-13264079D02*
X6243991Y-13245031D01*
X6243991Y-13245031D02*
X6253515Y-13235508D01*
X6253515Y-13235508D02*
X6272562Y-13225984D01*
X6463039Y-13225984D02*
X6482086Y-13225984D01*
X6482086Y-13225984D02*
X6501134Y-13235508D01*
X6501134Y-13235508D02*
X6510658Y-13245031D01*
X6510658Y-13245031D02*
X6520182Y-13264079D01*
X6520182Y-13264079D02*
X6529705Y-13302174D01*
X6529705Y-13302174D02*
X6529705Y-13349793D01*
X6529705Y-13349793D02*
X6520182Y-13387888D01*
X6520182Y-13387888D02*
X6510658Y-13406936D01*
X6510658Y-13406936D02*
X6501134Y-13416460D01*
X6501134Y-13416460D02*
X6482086Y-13425984D01*
X6482086Y-13425984D02*
X6463039Y-13425984D01*
X6463039Y-13425984D02*
X6443991Y-13416460D01*
X6443991Y-13416460D02*
X6434467Y-13406936D01*
X6434467Y-13406936D02*
X6424943Y-13387888D01*
X6424943Y-13387888D02*
X6415420Y-13349793D01*
X6415420Y-13349793D02*
X6415420Y-13302174D01*
X6415420Y-13302174D02*
X6424943Y-13264079D01*
X6424943Y-13264079D02*
X6434467Y-13245031D01*
X6434467Y-13245031D02*
X6443991Y-13235508D01*
X6443991Y-13235508D02*
X6463039Y-13225984D01*
X6615420Y-13425984D02*
X6615420Y-13292650D01*
X6615420Y-13311698D02*
X6624943Y-13302174D01*
X6624943Y-13302174D02*
X6643991Y-13292650D01*
X6643991Y-13292650D02*
X6672563Y-13292650D01*
X6672563Y-13292650D02*
X6691610Y-13302174D01*
X6691610Y-13302174D02*
X6701134Y-13321222D01*
X6701134Y-13321222D02*
X6701134Y-13425984D01*
X6701134Y-13321222D02*
X6710658Y-13302174D01*
X6710658Y-13302174D02*
X6729705Y-13292650D01*
X6729705Y-13292650D02*
X6758277Y-13292650D01*
X6758277Y-13292650D02*
X6777324Y-13302174D01*
X6777324Y-13302174D02*
X6786848Y-13321222D01*
X6786848Y-13321222D02*
X6786848Y-13425984D01*
X6882086Y-13425984D02*
X6882086Y-13292650D01*
X6882086Y-13311698D02*
X6891610Y-13302174D01*
X6891610Y-13302174D02*
X6910658Y-13292650D01*
X6910658Y-13292650D02*
X6939229Y-13292650D01*
X6939229Y-13292650D02*
X6958277Y-13302174D01*
X6958277Y-13302174D02*
X6967801Y-13321222D01*
X6967801Y-13321222D02*
X6967801Y-13425984D01*
X6967801Y-13321222D02*
X6977324Y-13302174D01*
X6977324Y-13302174D02*
X6996372Y-13292650D01*
X6996372Y-13292650D02*
X7024943Y-13292650D01*
X7024943Y-13292650D02*
X7043991Y-13302174D01*
X7043991Y-13302174D02*
X7053515Y-13321222D01*
X7053515Y-13321222D02*
X7053515Y-13425984D01*
X7443991Y-13216460D02*
X7272563Y-13473603D01*
X7701134Y-13225984D02*
X7720182Y-13225984D01*
X7720182Y-13225984D02*
X7739229Y-13235508D01*
X7739229Y-13235508D02*
X7748753Y-13245031D01*
X7748753Y-13245031D02*
X7758277Y-13264079D01*
X7758277Y-13264079D02*
X7767801Y-13302174D01*
X7767801Y-13302174D02*
X7767801Y-13349793D01*
X7767801Y-13349793D02*
X7758277Y-13387888D01*
X7758277Y-13387888D02*
X7748753Y-13406936D01*
X7748753Y-13406936D02*
X7739229Y-13416460D01*
X7739229Y-13416460D02*
X7720182Y-13425984D01*
X7720182Y-13425984D02*
X7701134Y-13425984D01*
X7701134Y-13425984D02*
X7682086Y-13416460D01*
X7682086Y-13416460D02*
X7672563Y-13406936D01*
X7672563Y-13406936D02*
X7663039Y-13387888D01*
X7663039Y-13387888D02*
X7653515Y-13349793D01*
X7653515Y-13349793D02*
X7653515Y-13302174D01*
X7653515Y-13302174D02*
X7663039Y-13264079D01*
X7663039Y-13264079D02*
X7672563Y-13245031D01*
X7672563Y-13245031D02*
X7682086Y-13235508D01*
X7682086Y-13235508D02*
X7701134Y-13225984D01*
X7863039Y-13416460D02*
X7863039Y-13425984D01*
X7863039Y-13425984D02*
X7853515Y-13445031D01*
X7853515Y-13445031D02*
X7843991Y-13454555D01*
X7986848Y-13225984D02*
X8005896Y-13225984D01*
X8005896Y-13225984D02*
X8024944Y-13235508D01*
X8024944Y-13235508D02*
X8034467Y-13245031D01*
X8034467Y-13245031D02*
X8043991Y-13264079D01*
X8043991Y-13264079D02*
X8053515Y-13302174D01*
X8053515Y-13302174D02*
X8053515Y-13349793D01*
X8053515Y-13349793D02*
X8043991Y-13387888D01*
X8043991Y-13387888D02*
X8034467Y-13406936D01*
X8034467Y-13406936D02*
X8024944Y-13416460D01*
X8024944Y-13416460D02*
X8005896Y-13425984D01*
X8005896Y-13425984D02*
X7986848Y-13425984D01*
X7986848Y-13425984D02*
X7967801Y-13416460D01*
X7967801Y-13416460D02*
X7958277Y-13406936D01*
X7958277Y-13406936D02*
X7948753Y-13387888D01*
X7948753Y-13387888D02*
X7939229Y-13349793D01*
X7939229Y-13349793D02*
X7939229Y-13302174D01*
X7939229Y-13302174D02*
X7948753Y-13264079D01*
X7948753Y-13264079D02*
X7958277Y-13245031D01*
X7958277Y-13245031D02*
X7967801Y-13235508D01*
X7967801Y-13235508D02*
X7986848Y-13225984D01*
X8120182Y-13225984D02*
X8243991Y-13225984D01*
X8243991Y-13225984D02*
X8177325Y-13302174D01*
X8177325Y-13302174D02*
X8205896Y-13302174D01*
X8205896Y-13302174D02*
X8224944Y-13311698D01*
X8224944Y-13311698D02*
X8234467Y-13321222D01*
X8234467Y-13321222D02*
X8243991Y-13340269D01*
X8243991Y-13340269D02*
X8243991Y-13387888D01*
X8243991Y-13387888D02*
X8234467Y-13406936D01*
X8234467Y-13406936D02*
X8224944Y-13416460D01*
X8224944Y-13416460D02*
X8205896Y-13425984D01*
X8205896Y-13425984D02*
X8148753Y-13425984D01*
X8148753Y-13425984D02*
X8129706Y-13416460D01*
X8129706Y-13416460D02*
X8120182Y-13406936D01*
X8339229Y-13425984D02*
X8377325Y-13425984D01*
X8377325Y-13425984D02*
X8396372Y-13416460D01*
X8396372Y-13416460D02*
X8405896Y-13406936D01*
X8405896Y-13406936D02*
X8424944Y-13378365D01*
X8424944Y-13378365D02*
X8434468Y-13340269D01*
X8434468Y-13340269D02*
X8434468Y-13264079D01*
X8434468Y-13264079D02*
X8424944Y-13245031D01*
X8424944Y-13245031D02*
X8415420Y-13235508D01*
X8415420Y-13235508D02*
X8396372Y-13225984D01*
X8396372Y-13225984D02*
X8358277Y-13225984D01*
X8358277Y-13225984D02*
X8339229Y-13235508D01*
X8339229Y-13235508D02*
X8329706Y-13245031D01*
X8329706Y-13245031D02*
X8320182Y-13264079D01*
X8320182Y-13264079D02*
X8320182Y-13311698D01*
X8320182Y-13311698D02*
X8329706Y-13330746D01*
X8329706Y-13330746D02*
X8339229Y-13340269D01*
X8339229Y-13340269D02*
X8358277Y-13349793D01*
X8358277Y-13349793D02*
X8396372Y-13349793D01*
X8396372Y-13349793D02*
X8415420Y-13340269D01*
X8415420Y-13340269D02*
X8424944Y-13330746D01*
X8424944Y-13330746D02*
X8434468Y-13311698D01*
X8605896Y-13292650D02*
X8605896Y-13425984D01*
X8558277Y-13216460D02*
X8510658Y-13359317D01*
X8510658Y-13359317D02*
X8634468Y-13359317D01*
X8701134Y-13225984D02*
X8701134Y-13264079D01*
X8777325Y-13225984D02*
X8777325Y-13264079D01*
X9072563Y-13502174D02*
X9063039Y-13492650D01*
X9063039Y-13492650D02*
X9043991Y-13464079D01*
X9043991Y-13464079D02*
X9034468Y-13445031D01*
X9034468Y-13445031D02*
X9024944Y-13416460D01*
X9024944Y-13416460D02*
X9015420Y-13368841D01*
X9015420Y-13368841D02*
X9015420Y-13330746D01*
X9015420Y-13330746D02*
X9024944Y-13283127D01*
X9024944Y-13283127D02*
X9034468Y-13254555D01*
X9034468Y-13254555D02*
X9043991Y-13235508D01*
X9043991Y-13235508D02*
X9063039Y-13206936D01*
X9063039Y-13206936D02*
X9072563Y-13197412D01*
X9234468Y-13225984D02*
X9196372Y-13225984D01*
X9196372Y-13225984D02*
X9177325Y-13235508D01*
X9177325Y-13235508D02*
X9167801Y-13245031D01*
X9167801Y-13245031D02*
X9148753Y-13273603D01*
X9148753Y-13273603D02*
X9139230Y-13311698D01*
X9139230Y-13311698D02*
X9139230Y-13387888D01*
X9139230Y-13387888D02*
X9148753Y-13406936D01*
X9148753Y-13406936D02*
X9158277Y-13416460D01*
X9158277Y-13416460D02*
X9177325Y-13425984D01*
X9177325Y-13425984D02*
X9215420Y-13425984D01*
X9215420Y-13425984D02*
X9234468Y-13416460D01*
X9234468Y-13416460D02*
X9243991Y-13406936D01*
X9243991Y-13406936D02*
X9253515Y-13387888D01*
X9253515Y-13387888D02*
X9253515Y-13340269D01*
X9253515Y-13340269D02*
X9243991Y-13321222D01*
X9243991Y-13321222D02*
X9234468Y-13311698D01*
X9234468Y-13311698D02*
X9215420Y-13302174D01*
X9215420Y-13302174D02*
X9177325Y-13302174D01*
X9177325Y-13302174D02*
X9158277Y-13311698D01*
X9158277Y-13311698D02*
X9148753Y-13321222D01*
X9148753Y-13321222D02*
X9139230Y-13340269D01*
X9329706Y-13245031D02*
X9339230Y-13235508D01*
X9339230Y-13235508D02*
X9358277Y-13225984D01*
X9358277Y-13225984D02*
X9405896Y-13225984D01*
X9405896Y-13225984D02*
X9424944Y-13235508D01*
X9424944Y-13235508D02*
X9434468Y-13245031D01*
X9434468Y-13245031D02*
X9443991Y-13264079D01*
X9443991Y-13264079D02*
X9443991Y-13283127D01*
X9443991Y-13283127D02*
X9434468Y-13311698D01*
X9434468Y-13311698D02*
X9320182Y-13425984D01*
X9320182Y-13425984D02*
X9443991Y-13425984D01*
X9682087Y-13425984D02*
X9682087Y-13225984D01*
X9767801Y-13425984D02*
X9767801Y-13321222D01*
X9767801Y-13321222D02*
X9758277Y-13302174D01*
X9758277Y-13302174D02*
X9739230Y-13292650D01*
X9739230Y-13292650D02*
X9710658Y-13292650D01*
X9710658Y-13292650D02*
X9691611Y-13302174D01*
X9691611Y-13302174D02*
X9682087Y-13311698D01*
X9891611Y-13425984D02*
X9872563Y-13416460D01*
X9872563Y-13416460D02*
X9863039Y-13406936D01*
X9863039Y-13406936D02*
X9853515Y-13387888D01*
X9853515Y-13387888D02*
X9853515Y-13330746D01*
X9853515Y-13330746D02*
X9863039Y-13311698D01*
X9863039Y-13311698D02*
X9872563Y-13302174D01*
X9872563Y-13302174D02*
X9891611Y-13292650D01*
X9891611Y-13292650D02*
X9920182Y-13292650D01*
X9920182Y-13292650D02*
X9939230Y-13302174D01*
X9939230Y-13302174D02*
X9948753Y-13311698D01*
X9948753Y-13311698D02*
X9958277Y-13330746D01*
X9958277Y-13330746D02*
X9958277Y-13387888D01*
X9958277Y-13387888D02*
X9948753Y-13406936D01*
X9948753Y-13406936D02*
X9939230Y-13416460D01*
X9939230Y-13416460D02*
X9920182Y-13425984D01*
X9920182Y-13425984D02*
X9891611Y-13425984D01*
X10072563Y-13425984D02*
X10053515Y-13416460D01*
X10053515Y-13416460D02*
X10043992Y-13397412D01*
X10043992Y-13397412D02*
X10043992Y-13225984D01*
X10224944Y-13416460D02*
X10205896Y-13425984D01*
X10205896Y-13425984D02*
X10167801Y-13425984D01*
X10167801Y-13425984D02*
X10148753Y-13416460D01*
X10148753Y-13416460D02*
X10139230Y-13397412D01*
X10139230Y-13397412D02*
X10139230Y-13321222D01*
X10139230Y-13321222D02*
X10148753Y-13302174D01*
X10148753Y-13302174D02*
X10167801Y-13292650D01*
X10167801Y-13292650D02*
X10205896Y-13292650D01*
X10205896Y-13292650D02*
X10224944Y-13302174D01*
X10224944Y-13302174D02*
X10234468Y-13321222D01*
X10234468Y-13321222D02*
X10234468Y-13340269D01*
X10234468Y-13340269D02*
X10139230Y-13359317D01*
X10310658Y-13416460D02*
X10329706Y-13425984D01*
X10329706Y-13425984D02*
X10367801Y-13425984D01*
X10367801Y-13425984D02*
X10386849Y-13416460D01*
X10386849Y-13416460D02*
X10396373Y-13397412D01*
X10396373Y-13397412D02*
X10396373Y-13387888D01*
X10396373Y-13387888D02*
X10386849Y-13368841D01*
X10386849Y-13368841D02*
X10367801Y-13359317D01*
X10367801Y-13359317D02*
X10339230Y-13359317D01*
X10339230Y-13359317D02*
X10320182Y-13349793D01*
X10320182Y-13349793D02*
X10310658Y-13330746D01*
X10310658Y-13330746D02*
X10310658Y-13321222D01*
X10310658Y-13321222D02*
X10320182Y-13302174D01*
X10320182Y-13302174D02*
X10339230Y-13292650D01*
X10339230Y-13292650D02*
X10367801Y-13292650D01*
X10367801Y-13292650D02*
X10386849Y-13302174D01*
X10463039Y-13502174D02*
X10472563Y-13492650D01*
X10472563Y-13492650D02*
X10491611Y-13464079D01*
X10491611Y-13464079D02*
X10501134Y-13445031D01*
X10501134Y-13445031D02*
X10510658Y-13416460D01*
X10510658Y-13416460D02*
X10520182Y-13368841D01*
X10520182Y-13368841D02*
X10520182Y-13330746D01*
X10520182Y-13330746D02*
X10510658Y-13283127D01*
X10510658Y-13283127D02*
X10501134Y-13254555D01*
X10501134Y-13254555D02*
X10491611Y-13235508D01*
X10491611Y-13235508D02*
X10472563Y-13206936D01*
X10472563Y-13206936D02*
X10463039Y-13197412D01*
D13*
X5442500Y-13653500D02*
X5497500Y-13598500D01*
X5442500Y-13543500D01*
X5387500Y-13598500D01*
X5442500Y-13653500D01*
D11*
X5863039Y-13689984D02*
X5748753Y-13689984D01*
X5805896Y-13689984D02*
X5805896Y-13489984D01*
X5805896Y-13489984D02*
X5786848Y-13518555D01*
X5786848Y-13518555D02*
X5767801Y-13537603D01*
X5767801Y-13537603D02*
X5748753Y-13547127D01*
X5958277Y-13680460D02*
X5958277Y-13689984D01*
X5958277Y-13689984D02*
X5948753Y-13709031D01*
X5948753Y-13709031D02*
X5939229Y-13718555D01*
X6148753Y-13689984D02*
X6034467Y-13689984D01*
X6091610Y-13689984D02*
X6091610Y-13489984D01*
X6091610Y-13489984D02*
X6072562Y-13518555D01*
X6072562Y-13518555D02*
X6053515Y-13537603D01*
X6053515Y-13537603D02*
X6034467Y-13547127D01*
X6272562Y-13489984D02*
X6291610Y-13489984D01*
X6291610Y-13489984D02*
X6310658Y-13499508D01*
X6310658Y-13499508D02*
X6320182Y-13509031D01*
X6320182Y-13509031D02*
X6329705Y-13528079D01*
X6329705Y-13528079D02*
X6339229Y-13566174D01*
X6339229Y-13566174D02*
X6339229Y-13613793D01*
X6339229Y-13613793D02*
X6329705Y-13651888D01*
X6329705Y-13651888D02*
X6320182Y-13670936D01*
X6320182Y-13670936D02*
X6310658Y-13680460D01*
X6310658Y-13680460D02*
X6291610Y-13689984D01*
X6291610Y-13689984D02*
X6272562Y-13689984D01*
X6272562Y-13689984D02*
X6253515Y-13680460D01*
X6253515Y-13680460D02*
X6243991Y-13670936D01*
X6243991Y-13670936D02*
X6234467Y-13651888D01*
X6234467Y-13651888D02*
X6224943Y-13613793D01*
X6224943Y-13613793D02*
X6224943Y-13566174D01*
X6224943Y-13566174D02*
X6234467Y-13528079D01*
X6234467Y-13528079D02*
X6243991Y-13509031D01*
X6243991Y-13509031D02*
X6253515Y-13499508D01*
X6253515Y-13499508D02*
X6272562Y-13489984D01*
X6463039Y-13489984D02*
X6482086Y-13489984D01*
X6482086Y-13489984D02*
X6501134Y-13499508D01*
X6501134Y-13499508D02*
X6510658Y-13509031D01*
X6510658Y-13509031D02*
X6520182Y-13528079D01*
X6520182Y-13528079D02*
X6529705Y-13566174D01*
X6529705Y-13566174D02*
X6529705Y-13613793D01*
X6529705Y-13613793D02*
X6520182Y-13651888D01*
X6520182Y-13651888D02*
X6510658Y-13670936D01*
X6510658Y-13670936D02*
X6501134Y-13680460D01*
X6501134Y-13680460D02*
X6482086Y-13689984D01*
X6482086Y-13689984D02*
X6463039Y-13689984D01*
X6463039Y-13689984D02*
X6443991Y-13680460D01*
X6443991Y-13680460D02*
X6434467Y-13670936D01*
X6434467Y-13670936D02*
X6424943Y-13651888D01*
X6424943Y-13651888D02*
X6415420Y-13613793D01*
X6415420Y-13613793D02*
X6415420Y-13566174D01*
X6415420Y-13566174D02*
X6424943Y-13528079D01*
X6424943Y-13528079D02*
X6434467Y-13509031D01*
X6434467Y-13509031D02*
X6443991Y-13499508D01*
X6443991Y-13499508D02*
X6463039Y-13489984D01*
X6615420Y-13689984D02*
X6615420Y-13556650D01*
X6615420Y-13575698D02*
X6624943Y-13566174D01*
X6624943Y-13566174D02*
X6643991Y-13556650D01*
X6643991Y-13556650D02*
X6672563Y-13556650D01*
X6672563Y-13556650D02*
X6691610Y-13566174D01*
X6691610Y-13566174D02*
X6701134Y-13585222D01*
X6701134Y-13585222D02*
X6701134Y-13689984D01*
X6701134Y-13585222D02*
X6710658Y-13566174D01*
X6710658Y-13566174D02*
X6729705Y-13556650D01*
X6729705Y-13556650D02*
X6758277Y-13556650D01*
X6758277Y-13556650D02*
X6777324Y-13566174D01*
X6777324Y-13566174D02*
X6786848Y-13585222D01*
X6786848Y-13585222D02*
X6786848Y-13689984D01*
X6882086Y-13689984D02*
X6882086Y-13556650D01*
X6882086Y-13575698D02*
X6891610Y-13566174D01*
X6891610Y-13566174D02*
X6910658Y-13556650D01*
X6910658Y-13556650D02*
X6939229Y-13556650D01*
X6939229Y-13556650D02*
X6958277Y-13566174D01*
X6958277Y-13566174D02*
X6967801Y-13585222D01*
X6967801Y-13585222D02*
X6967801Y-13689984D01*
X6967801Y-13585222D02*
X6977324Y-13566174D01*
X6977324Y-13566174D02*
X6996372Y-13556650D01*
X6996372Y-13556650D02*
X7024943Y-13556650D01*
X7024943Y-13556650D02*
X7043991Y-13566174D01*
X7043991Y-13566174D02*
X7053515Y-13585222D01*
X7053515Y-13585222D02*
X7053515Y-13689984D01*
X7443991Y-13480460D02*
X7272563Y-13737603D01*
X7701134Y-13489984D02*
X7720182Y-13489984D01*
X7720182Y-13489984D02*
X7739229Y-13499508D01*
X7739229Y-13499508D02*
X7748753Y-13509031D01*
X7748753Y-13509031D02*
X7758277Y-13528079D01*
X7758277Y-13528079D02*
X7767801Y-13566174D01*
X7767801Y-13566174D02*
X7767801Y-13613793D01*
X7767801Y-13613793D02*
X7758277Y-13651888D01*
X7758277Y-13651888D02*
X7748753Y-13670936D01*
X7748753Y-13670936D02*
X7739229Y-13680460D01*
X7739229Y-13680460D02*
X7720182Y-13689984D01*
X7720182Y-13689984D02*
X7701134Y-13689984D01*
X7701134Y-13689984D02*
X7682086Y-13680460D01*
X7682086Y-13680460D02*
X7672563Y-13670936D01*
X7672563Y-13670936D02*
X7663039Y-13651888D01*
X7663039Y-13651888D02*
X7653515Y-13613793D01*
X7653515Y-13613793D02*
X7653515Y-13566174D01*
X7653515Y-13566174D02*
X7663039Y-13528079D01*
X7663039Y-13528079D02*
X7672563Y-13509031D01*
X7672563Y-13509031D02*
X7682086Y-13499508D01*
X7682086Y-13499508D02*
X7701134Y-13489984D01*
X7863039Y-13680460D02*
X7863039Y-13689984D01*
X7863039Y-13689984D02*
X7853515Y-13709031D01*
X7853515Y-13709031D02*
X7843991Y-13718555D01*
X7986848Y-13489984D02*
X8005896Y-13489984D01*
X8005896Y-13489984D02*
X8024944Y-13499508D01*
X8024944Y-13499508D02*
X8034467Y-13509031D01*
X8034467Y-13509031D02*
X8043991Y-13528079D01*
X8043991Y-13528079D02*
X8053515Y-13566174D01*
X8053515Y-13566174D02*
X8053515Y-13613793D01*
X8053515Y-13613793D02*
X8043991Y-13651888D01*
X8043991Y-13651888D02*
X8034467Y-13670936D01*
X8034467Y-13670936D02*
X8024944Y-13680460D01*
X8024944Y-13680460D02*
X8005896Y-13689984D01*
X8005896Y-13689984D02*
X7986848Y-13689984D01*
X7986848Y-13689984D02*
X7967801Y-13680460D01*
X7967801Y-13680460D02*
X7958277Y-13670936D01*
X7958277Y-13670936D02*
X7948753Y-13651888D01*
X7948753Y-13651888D02*
X7939229Y-13613793D01*
X7939229Y-13613793D02*
X7939229Y-13566174D01*
X7939229Y-13566174D02*
X7948753Y-13528079D01*
X7948753Y-13528079D02*
X7958277Y-13509031D01*
X7958277Y-13509031D02*
X7967801Y-13499508D01*
X7967801Y-13499508D02*
X7986848Y-13489984D01*
X8224944Y-13556650D02*
X8224944Y-13689984D01*
X8177325Y-13480460D02*
X8129706Y-13623317D01*
X8129706Y-13623317D02*
X8253515Y-13623317D01*
X8310658Y-13489984D02*
X8434468Y-13489984D01*
X8434468Y-13489984D02*
X8367801Y-13566174D01*
X8367801Y-13566174D02*
X8396372Y-13566174D01*
X8396372Y-13566174D02*
X8415420Y-13575698D01*
X8415420Y-13575698D02*
X8424944Y-13585222D01*
X8424944Y-13585222D02*
X8434468Y-13604269D01*
X8434468Y-13604269D02*
X8434468Y-13651888D01*
X8434468Y-13651888D02*
X8424944Y-13670936D01*
X8424944Y-13670936D02*
X8415420Y-13680460D01*
X8415420Y-13680460D02*
X8396372Y-13689984D01*
X8396372Y-13689984D02*
X8339229Y-13689984D01*
X8339229Y-13689984D02*
X8320182Y-13680460D01*
X8320182Y-13680460D02*
X8310658Y-13670936D01*
X8501134Y-13489984D02*
X8624944Y-13489984D01*
X8624944Y-13489984D02*
X8558277Y-13566174D01*
X8558277Y-13566174D02*
X8586849Y-13566174D01*
X8586849Y-13566174D02*
X8605896Y-13575698D01*
X8605896Y-13575698D02*
X8615420Y-13585222D01*
X8615420Y-13585222D02*
X8624944Y-13604269D01*
X8624944Y-13604269D02*
X8624944Y-13651888D01*
X8624944Y-13651888D02*
X8615420Y-13670936D01*
X8615420Y-13670936D02*
X8605896Y-13680460D01*
X8605896Y-13680460D02*
X8586849Y-13689984D01*
X8586849Y-13689984D02*
X8529706Y-13689984D01*
X8529706Y-13689984D02*
X8510658Y-13680460D01*
X8510658Y-13680460D02*
X8501134Y-13670936D01*
X8701134Y-13489984D02*
X8701134Y-13528079D01*
X8777325Y-13489984D02*
X8777325Y-13528079D01*
X9072563Y-13766174D02*
X9063039Y-13756650D01*
X9063039Y-13756650D02*
X9043991Y-13728079D01*
X9043991Y-13728079D02*
X9034468Y-13709031D01*
X9034468Y-13709031D02*
X9024944Y-13680460D01*
X9024944Y-13680460D02*
X9015420Y-13632841D01*
X9015420Y-13632841D02*
X9015420Y-13594746D01*
X9015420Y-13594746D02*
X9024944Y-13547127D01*
X9024944Y-13547127D02*
X9034468Y-13518555D01*
X9034468Y-13518555D02*
X9043991Y-13499508D01*
X9043991Y-13499508D02*
X9063039Y-13470936D01*
X9063039Y-13470936D02*
X9072563Y-13461412D01*
X9253515Y-13689984D02*
X9139230Y-13689984D01*
X9196372Y-13689984D02*
X9196372Y-13489984D01*
X9196372Y-13489984D02*
X9177325Y-13518555D01*
X9177325Y-13518555D02*
X9158277Y-13537603D01*
X9158277Y-13537603D02*
X9139230Y-13547127D01*
X9434468Y-13489984D02*
X9339230Y-13489984D01*
X9339230Y-13489984D02*
X9329706Y-13585222D01*
X9329706Y-13585222D02*
X9339230Y-13575698D01*
X9339230Y-13575698D02*
X9358277Y-13566174D01*
X9358277Y-13566174D02*
X9405896Y-13566174D01*
X9405896Y-13566174D02*
X9424944Y-13575698D01*
X9424944Y-13575698D02*
X9434468Y-13585222D01*
X9434468Y-13585222D02*
X9443991Y-13604269D01*
X9443991Y-13604269D02*
X9443991Y-13651888D01*
X9443991Y-13651888D02*
X9434468Y-13670936D01*
X9434468Y-13670936D02*
X9424944Y-13680460D01*
X9424944Y-13680460D02*
X9405896Y-13689984D01*
X9405896Y-13689984D02*
X9358277Y-13689984D01*
X9358277Y-13689984D02*
X9339230Y-13680460D01*
X9339230Y-13680460D02*
X9329706Y-13670936D01*
X9682087Y-13689984D02*
X9682087Y-13489984D01*
X9767801Y-13689984D02*
X9767801Y-13585222D01*
X9767801Y-13585222D02*
X9758277Y-13566174D01*
X9758277Y-13566174D02*
X9739230Y-13556650D01*
X9739230Y-13556650D02*
X9710658Y-13556650D01*
X9710658Y-13556650D02*
X9691611Y-13566174D01*
X9691611Y-13566174D02*
X9682087Y-13575698D01*
X9891611Y-13689984D02*
X9872563Y-13680460D01*
X9872563Y-13680460D02*
X9863039Y-13670936D01*
X9863039Y-13670936D02*
X9853515Y-13651888D01*
X9853515Y-13651888D02*
X9853515Y-13594746D01*
X9853515Y-13594746D02*
X9863039Y-13575698D01*
X9863039Y-13575698D02*
X9872563Y-13566174D01*
X9872563Y-13566174D02*
X9891611Y-13556650D01*
X9891611Y-13556650D02*
X9920182Y-13556650D01*
X9920182Y-13556650D02*
X9939230Y-13566174D01*
X9939230Y-13566174D02*
X9948753Y-13575698D01*
X9948753Y-13575698D02*
X9958277Y-13594746D01*
X9958277Y-13594746D02*
X9958277Y-13651888D01*
X9958277Y-13651888D02*
X9948753Y-13670936D01*
X9948753Y-13670936D02*
X9939230Y-13680460D01*
X9939230Y-13680460D02*
X9920182Y-13689984D01*
X9920182Y-13689984D02*
X9891611Y-13689984D01*
X10072563Y-13689984D02*
X10053515Y-13680460D01*
X10053515Y-13680460D02*
X10043992Y-13661412D01*
X10043992Y-13661412D02*
X10043992Y-13489984D01*
X10224944Y-13680460D02*
X10205896Y-13689984D01*
X10205896Y-13689984D02*
X10167801Y-13689984D01*
X10167801Y-13689984D02*
X10148753Y-13680460D01*
X10148753Y-13680460D02*
X10139230Y-13661412D01*
X10139230Y-13661412D02*
X10139230Y-13585222D01*
X10139230Y-13585222D02*
X10148753Y-13566174D01*
X10148753Y-13566174D02*
X10167801Y-13556650D01*
X10167801Y-13556650D02*
X10205896Y-13556650D01*
X10205896Y-13556650D02*
X10224944Y-13566174D01*
X10224944Y-13566174D02*
X10234468Y-13585222D01*
X10234468Y-13585222D02*
X10234468Y-13604269D01*
X10234468Y-13604269D02*
X10139230Y-13623317D01*
X10310658Y-13680460D02*
X10329706Y-13689984D01*
X10329706Y-13689984D02*
X10367801Y-13689984D01*
X10367801Y-13689984D02*
X10386849Y-13680460D01*
X10386849Y-13680460D02*
X10396373Y-13661412D01*
X10396373Y-13661412D02*
X10396373Y-13651888D01*
X10396373Y-13651888D02*
X10386849Y-13632841D01*
X10386849Y-13632841D02*
X10367801Y-13623317D01*
X10367801Y-13623317D02*
X10339230Y-13623317D01*
X10339230Y-13623317D02*
X10320182Y-13613793D01*
X10320182Y-13613793D02*
X10310658Y-13594746D01*
X10310658Y-13594746D02*
X10310658Y-13585222D01*
X10310658Y-13585222D02*
X10320182Y-13566174D01*
X10320182Y-13566174D02*
X10339230Y-13556650D01*
X10339230Y-13556650D02*
X10367801Y-13556650D01*
X10367801Y-13556650D02*
X10386849Y-13566174D01*
X10463039Y-13766174D02*
X10472563Y-13756650D01*
X10472563Y-13756650D02*
X10491611Y-13728079D01*
X10491611Y-13728079D02*
X10501134Y-13709031D01*
X10501134Y-13709031D02*
X10510658Y-13680460D01*
X10510658Y-13680460D02*
X10520182Y-13632841D01*
X10520182Y-13632841D02*
X10520182Y-13594746D01*
X10520182Y-13594746D02*
X10510658Y-13547127D01*
X10510658Y-13547127D02*
X10501134Y-13518555D01*
X10501134Y-13518555D02*
X10491611Y-13499508D01*
X10491611Y-13499508D02*
X10472563Y-13470936D01*
X10472563Y-13470936D02*
X10463039Y-13461412D01*
D14*
X5367500Y-13797500D02*
X5497500Y-13927500D01*
X5497500Y-13797500D02*
X5367500Y-13927500D01*
X5497500Y-13862500D02*
G75*
G02*
X5367500Y-13862500I-65000J0D01*
G01*
X5367500Y-13862500D02*
G75*
G02*
X5497500Y-13862500I65000J0D01*
G01*
D11*
X5863039Y-13953984D02*
X5748753Y-13953984D01*
X5805896Y-13953984D02*
X5805896Y-13753984D01*
X5805896Y-13753984D02*
X5786848Y-13782555D01*
X5786848Y-13782555D02*
X5767801Y-13801603D01*
X5767801Y-13801603D02*
X5748753Y-13811127D01*
X5958277Y-13944460D02*
X5958277Y-13953984D01*
X5958277Y-13953984D02*
X5948753Y-13973031D01*
X5948753Y-13973031D02*
X5939229Y-13982555D01*
X6024943Y-13753984D02*
X6148753Y-13753984D01*
X6148753Y-13753984D02*
X6082086Y-13830174D01*
X6082086Y-13830174D02*
X6110658Y-13830174D01*
X6110658Y-13830174D02*
X6129705Y-13839698D01*
X6129705Y-13839698D02*
X6139229Y-13849222D01*
X6139229Y-13849222D02*
X6148753Y-13868269D01*
X6148753Y-13868269D02*
X6148753Y-13915888D01*
X6148753Y-13915888D02*
X6139229Y-13934936D01*
X6139229Y-13934936D02*
X6129705Y-13944460D01*
X6129705Y-13944460D02*
X6110658Y-13953984D01*
X6110658Y-13953984D02*
X6053515Y-13953984D01*
X6053515Y-13953984D02*
X6034467Y-13944460D01*
X6034467Y-13944460D02*
X6024943Y-13934936D01*
X6272562Y-13753984D02*
X6291610Y-13753984D01*
X6291610Y-13753984D02*
X6310658Y-13763508D01*
X6310658Y-13763508D02*
X6320182Y-13773031D01*
X6320182Y-13773031D02*
X6329705Y-13792079D01*
X6329705Y-13792079D02*
X6339229Y-13830174D01*
X6339229Y-13830174D02*
X6339229Y-13877793D01*
X6339229Y-13877793D02*
X6329705Y-13915888D01*
X6329705Y-13915888D02*
X6320182Y-13934936D01*
X6320182Y-13934936D02*
X6310658Y-13944460D01*
X6310658Y-13944460D02*
X6291610Y-13953984D01*
X6291610Y-13953984D02*
X6272562Y-13953984D01*
X6272562Y-13953984D02*
X6253515Y-13944460D01*
X6253515Y-13944460D02*
X6243991Y-13934936D01*
X6243991Y-13934936D02*
X6234467Y-13915888D01*
X6234467Y-13915888D02*
X6224943Y-13877793D01*
X6224943Y-13877793D02*
X6224943Y-13830174D01*
X6224943Y-13830174D02*
X6234467Y-13792079D01*
X6234467Y-13792079D02*
X6243991Y-13773031D01*
X6243991Y-13773031D02*
X6253515Y-13763508D01*
X6253515Y-13763508D02*
X6272562Y-13753984D01*
X6463039Y-13753984D02*
X6482086Y-13753984D01*
X6482086Y-13753984D02*
X6501134Y-13763508D01*
X6501134Y-13763508D02*
X6510658Y-13773031D01*
X6510658Y-13773031D02*
X6520182Y-13792079D01*
X6520182Y-13792079D02*
X6529705Y-13830174D01*
X6529705Y-13830174D02*
X6529705Y-13877793D01*
X6529705Y-13877793D02*
X6520182Y-13915888D01*
X6520182Y-13915888D02*
X6510658Y-13934936D01*
X6510658Y-13934936D02*
X6501134Y-13944460D01*
X6501134Y-13944460D02*
X6482086Y-13953984D01*
X6482086Y-13953984D02*
X6463039Y-13953984D01*
X6463039Y-13953984D02*
X6443991Y-13944460D01*
X6443991Y-13944460D02*
X6434467Y-13934936D01*
X6434467Y-13934936D02*
X6424943Y-13915888D01*
X6424943Y-13915888D02*
X6415420Y-13877793D01*
X6415420Y-13877793D02*
X6415420Y-13830174D01*
X6415420Y-13830174D02*
X6424943Y-13792079D01*
X6424943Y-13792079D02*
X6434467Y-13773031D01*
X6434467Y-13773031D02*
X6443991Y-13763508D01*
X6443991Y-13763508D02*
X6463039Y-13753984D01*
X6615420Y-13953984D02*
X6615420Y-13820650D01*
X6615420Y-13839698D02*
X6624943Y-13830174D01*
X6624943Y-13830174D02*
X6643991Y-13820650D01*
X6643991Y-13820650D02*
X6672563Y-13820650D01*
X6672563Y-13820650D02*
X6691610Y-13830174D01*
X6691610Y-13830174D02*
X6701134Y-13849222D01*
X6701134Y-13849222D02*
X6701134Y-13953984D01*
X6701134Y-13849222D02*
X6710658Y-13830174D01*
X6710658Y-13830174D02*
X6729705Y-13820650D01*
X6729705Y-13820650D02*
X6758277Y-13820650D01*
X6758277Y-13820650D02*
X6777324Y-13830174D01*
X6777324Y-13830174D02*
X6786848Y-13849222D01*
X6786848Y-13849222D02*
X6786848Y-13953984D01*
X6882086Y-13953984D02*
X6882086Y-13820650D01*
X6882086Y-13839698D02*
X6891610Y-13830174D01*
X6891610Y-13830174D02*
X6910658Y-13820650D01*
X6910658Y-13820650D02*
X6939229Y-13820650D01*
X6939229Y-13820650D02*
X6958277Y-13830174D01*
X6958277Y-13830174D02*
X6967801Y-13849222D01*
X6967801Y-13849222D02*
X6967801Y-13953984D01*
X6967801Y-13849222D02*
X6977324Y-13830174D01*
X6977324Y-13830174D02*
X6996372Y-13820650D01*
X6996372Y-13820650D02*
X7024943Y-13820650D01*
X7024943Y-13820650D02*
X7043991Y-13830174D01*
X7043991Y-13830174D02*
X7053515Y-13849222D01*
X7053515Y-13849222D02*
X7053515Y-13953984D01*
X7443991Y-13744460D02*
X7272563Y-14001603D01*
X7701134Y-13753984D02*
X7720182Y-13753984D01*
X7720182Y-13753984D02*
X7739229Y-13763508D01*
X7739229Y-13763508D02*
X7748753Y-13773031D01*
X7748753Y-13773031D02*
X7758277Y-13792079D01*
X7758277Y-13792079D02*
X7767801Y-13830174D01*
X7767801Y-13830174D02*
X7767801Y-13877793D01*
X7767801Y-13877793D02*
X7758277Y-13915888D01*
X7758277Y-13915888D02*
X7748753Y-13934936D01*
X7748753Y-13934936D02*
X7739229Y-13944460D01*
X7739229Y-13944460D02*
X7720182Y-13953984D01*
X7720182Y-13953984D02*
X7701134Y-13953984D01*
X7701134Y-13953984D02*
X7682086Y-13944460D01*
X7682086Y-13944460D02*
X7672563Y-13934936D01*
X7672563Y-13934936D02*
X7663039Y-13915888D01*
X7663039Y-13915888D02*
X7653515Y-13877793D01*
X7653515Y-13877793D02*
X7653515Y-13830174D01*
X7653515Y-13830174D02*
X7663039Y-13792079D01*
X7663039Y-13792079D02*
X7672563Y-13773031D01*
X7672563Y-13773031D02*
X7682086Y-13763508D01*
X7682086Y-13763508D02*
X7701134Y-13753984D01*
X7863039Y-13944460D02*
X7863039Y-13953984D01*
X7863039Y-13953984D02*
X7853515Y-13973031D01*
X7853515Y-13973031D02*
X7843991Y-13982555D01*
X7986848Y-13753984D02*
X8005896Y-13753984D01*
X8005896Y-13753984D02*
X8024944Y-13763508D01*
X8024944Y-13763508D02*
X8034467Y-13773031D01*
X8034467Y-13773031D02*
X8043991Y-13792079D01*
X8043991Y-13792079D02*
X8053515Y-13830174D01*
X8053515Y-13830174D02*
X8053515Y-13877793D01*
X8053515Y-13877793D02*
X8043991Y-13915888D01*
X8043991Y-13915888D02*
X8034467Y-13934936D01*
X8034467Y-13934936D02*
X8024944Y-13944460D01*
X8024944Y-13944460D02*
X8005896Y-13953984D01*
X8005896Y-13953984D02*
X7986848Y-13953984D01*
X7986848Y-13953984D02*
X7967801Y-13944460D01*
X7967801Y-13944460D02*
X7958277Y-13934936D01*
X7958277Y-13934936D02*
X7948753Y-13915888D01*
X7948753Y-13915888D02*
X7939229Y-13877793D01*
X7939229Y-13877793D02*
X7939229Y-13830174D01*
X7939229Y-13830174D02*
X7948753Y-13792079D01*
X7948753Y-13792079D02*
X7958277Y-13773031D01*
X7958277Y-13773031D02*
X7967801Y-13763508D01*
X7967801Y-13763508D02*
X7986848Y-13753984D01*
X8234467Y-13753984D02*
X8139229Y-13753984D01*
X8139229Y-13753984D02*
X8129706Y-13849222D01*
X8129706Y-13849222D02*
X8139229Y-13839698D01*
X8139229Y-13839698D02*
X8158277Y-13830174D01*
X8158277Y-13830174D02*
X8205896Y-13830174D01*
X8205896Y-13830174D02*
X8224944Y-13839698D01*
X8224944Y-13839698D02*
X8234467Y-13849222D01*
X8234467Y-13849222D02*
X8243991Y-13868269D01*
X8243991Y-13868269D02*
X8243991Y-13915888D01*
X8243991Y-13915888D02*
X8234467Y-13934936D01*
X8234467Y-13934936D02*
X8224944Y-13944460D01*
X8224944Y-13944460D02*
X8205896Y-13953984D01*
X8205896Y-13953984D02*
X8158277Y-13953984D01*
X8158277Y-13953984D02*
X8139229Y-13944460D01*
X8139229Y-13944460D02*
X8129706Y-13934936D01*
X8434468Y-13953984D02*
X8320182Y-13953984D01*
X8377325Y-13953984D02*
X8377325Y-13753984D01*
X8377325Y-13753984D02*
X8358277Y-13782555D01*
X8358277Y-13782555D02*
X8339229Y-13801603D01*
X8339229Y-13801603D02*
X8320182Y-13811127D01*
X8510658Y-13773031D02*
X8520182Y-13763508D01*
X8520182Y-13763508D02*
X8539229Y-13753984D01*
X8539229Y-13753984D02*
X8586849Y-13753984D01*
X8586849Y-13753984D02*
X8605896Y-13763508D01*
X8605896Y-13763508D02*
X8615420Y-13773031D01*
X8615420Y-13773031D02*
X8624944Y-13792079D01*
X8624944Y-13792079D02*
X8624944Y-13811127D01*
X8624944Y-13811127D02*
X8615420Y-13839698D01*
X8615420Y-13839698D02*
X8501134Y-13953984D01*
X8501134Y-13953984D02*
X8624944Y-13953984D01*
X8701134Y-13753984D02*
X8701134Y-13792079D01*
X8777325Y-13753984D02*
X8777325Y-13792079D01*
X9072563Y-14030174D02*
X9063039Y-14020650D01*
X9063039Y-14020650D02*
X9043991Y-13992079D01*
X9043991Y-13992079D02*
X9034468Y-13973031D01*
X9034468Y-13973031D02*
X9024944Y-13944460D01*
X9024944Y-13944460D02*
X9015420Y-13896841D01*
X9015420Y-13896841D02*
X9015420Y-13858746D01*
X9015420Y-13858746D02*
X9024944Y-13811127D01*
X9024944Y-13811127D02*
X9034468Y-13782555D01*
X9034468Y-13782555D02*
X9043991Y-13763508D01*
X9043991Y-13763508D02*
X9063039Y-13734936D01*
X9063039Y-13734936D02*
X9072563Y-13725412D01*
X9253515Y-13953984D02*
X9139230Y-13953984D01*
X9196372Y-13953984D02*
X9196372Y-13753984D01*
X9196372Y-13753984D02*
X9177325Y-13782555D01*
X9177325Y-13782555D02*
X9158277Y-13801603D01*
X9158277Y-13801603D02*
X9139230Y-13811127D01*
X9367801Y-13839698D02*
X9348753Y-13830174D01*
X9348753Y-13830174D02*
X9339230Y-13820650D01*
X9339230Y-13820650D02*
X9329706Y-13801603D01*
X9329706Y-13801603D02*
X9329706Y-13792079D01*
X9329706Y-13792079D02*
X9339230Y-13773031D01*
X9339230Y-13773031D02*
X9348753Y-13763508D01*
X9348753Y-13763508D02*
X9367801Y-13753984D01*
X9367801Y-13753984D02*
X9405896Y-13753984D01*
X9405896Y-13753984D02*
X9424944Y-13763508D01*
X9424944Y-13763508D02*
X9434468Y-13773031D01*
X9434468Y-13773031D02*
X9443991Y-13792079D01*
X9443991Y-13792079D02*
X9443991Y-13801603D01*
X9443991Y-13801603D02*
X9434468Y-13820650D01*
X9434468Y-13820650D02*
X9424944Y-13830174D01*
X9424944Y-13830174D02*
X9405896Y-13839698D01*
X9405896Y-13839698D02*
X9367801Y-13839698D01*
X9367801Y-13839698D02*
X9348753Y-13849222D01*
X9348753Y-13849222D02*
X9339230Y-13858746D01*
X9339230Y-13858746D02*
X9329706Y-13877793D01*
X9329706Y-13877793D02*
X9329706Y-13915888D01*
X9329706Y-13915888D02*
X9339230Y-13934936D01*
X9339230Y-13934936D02*
X9348753Y-13944460D01*
X9348753Y-13944460D02*
X9367801Y-13953984D01*
X9367801Y-13953984D02*
X9405896Y-13953984D01*
X9405896Y-13953984D02*
X9424944Y-13944460D01*
X9424944Y-13944460D02*
X9434468Y-13934936D01*
X9434468Y-13934936D02*
X9443991Y-13915888D01*
X9443991Y-13915888D02*
X9443991Y-13877793D01*
X9443991Y-13877793D02*
X9434468Y-13858746D01*
X9434468Y-13858746D02*
X9424944Y-13849222D01*
X9424944Y-13849222D02*
X9405896Y-13839698D01*
X9682087Y-13953984D02*
X9682087Y-13753984D01*
X9767801Y-13953984D02*
X9767801Y-13849222D01*
X9767801Y-13849222D02*
X9758277Y-13830174D01*
X9758277Y-13830174D02*
X9739230Y-13820650D01*
X9739230Y-13820650D02*
X9710658Y-13820650D01*
X9710658Y-13820650D02*
X9691611Y-13830174D01*
X9691611Y-13830174D02*
X9682087Y-13839698D01*
X9891611Y-13953984D02*
X9872563Y-13944460D01*
X9872563Y-13944460D02*
X9863039Y-13934936D01*
X9863039Y-13934936D02*
X9853515Y-13915888D01*
X9853515Y-13915888D02*
X9853515Y-13858746D01*
X9853515Y-13858746D02*
X9863039Y-13839698D01*
X9863039Y-13839698D02*
X9872563Y-13830174D01*
X9872563Y-13830174D02*
X9891611Y-13820650D01*
X9891611Y-13820650D02*
X9920182Y-13820650D01*
X9920182Y-13820650D02*
X9939230Y-13830174D01*
X9939230Y-13830174D02*
X9948753Y-13839698D01*
X9948753Y-13839698D02*
X9958277Y-13858746D01*
X9958277Y-13858746D02*
X9958277Y-13915888D01*
X9958277Y-13915888D02*
X9948753Y-13934936D01*
X9948753Y-13934936D02*
X9939230Y-13944460D01*
X9939230Y-13944460D02*
X9920182Y-13953984D01*
X9920182Y-13953984D02*
X9891611Y-13953984D01*
X10072563Y-13953984D02*
X10053515Y-13944460D01*
X10053515Y-13944460D02*
X10043992Y-13925412D01*
X10043992Y-13925412D02*
X10043992Y-13753984D01*
X10224944Y-13944460D02*
X10205896Y-13953984D01*
X10205896Y-13953984D02*
X10167801Y-13953984D01*
X10167801Y-13953984D02*
X10148753Y-13944460D01*
X10148753Y-13944460D02*
X10139230Y-13925412D01*
X10139230Y-13925412D02*
X10139230Y-13849222D01*
X10139230Y-13849222D02*
X10148753Y-13830174D01*
X10148753Y-13830174D02*
X10167801Y-13820650D01*
X10167801Y-13820650D02*
X10205896Y-13820650D01*
X10205896Y-13820650D02*
X10224944Y-13830174D01*
X10224944Y-13830174D02*
X10234468Y-13849222D01*
X10234468Y-13849222D02*
X10234468Y-13868269D01*
X10234468Y-13868269D02*
X10139230Y-13887317D01*
X10310658Y-13944460D02*
X10329706Y-13953984D01*
X10329706Y-13953984D02*
X10367801Y-13953984D01*
X10367801Y-13953984D02*
X10386849Y-13944460D01*
X10386849Y-13944460D02*
X10396373Y-13925412D01*
X10396373Y-13925412D02*
X10396373Y-13915888D01*
X10396373Y-13915888D02*
X10386849Y-13896841D01*
X10386849Y-13896841D02*
X10367801Y-13887317D01*
X10367801Y-13887317D02*
X10339230Y-13887317D01*
X10339230Y-13887317D02*
X10320182Y-13877793D01*
X10320182Y-13877793D02*
X10310658Y-13858746D01*
X10310658Y-13858746D02*
X10310658Y-13849222D01*
X10310658Y-13849222D02*
X10320182Y-13830174D01*
X10320182Y-13830174D02*
X10339230Y-13820650D01*
X10339230Y-13820650D02*
X10367801Y-13820650D01*
X10367801Y-13820650D02*
X10386849Y-13830174D01*
X10463039Y-14030174D02*
X10472563Y-14020650D01*
X10472563Y-14020650D02*
X10491611Y-13992079D01*
X10491611Y-13992079D02*
X10501134Y-13973031D01*
X10501134Y-13973031D02*
X10510658Y-13944460D01*
X10510658Y-13944460D02*
X10520182Y-13896841D01*
X10520182Y-13896841D02*
X10520182Y-13858746D01*
X10520182Y-13858746D02*
X10510658Y-13811127D01*
X10510658Y-13811127D02*
X10501134Y-13782555D01*
X10501134Y-13782555D02*
X10491611Y-13763508D01*
X10491611Y-13763508D02*
X10472563Y-13734936D01*
X10472563Y-13734936D02*
X10463039Y-13725412D01*
M02*
