%TF.GenerationSoftware,KiCad,Pcbnew,10.0.5*%
%TF.CreationDate,2026-10-01T21:15:50-03:00*%
%TF.ProjectId,ProcessTestbenchHardware,50726f63-6573-4735-9465-737462656e63,rev?*%
%TF.SameCoordinates,Original*%
%TF.FileFunction,Drillmap*%
%TF.FilePolarity,Positive*%
%FSLAX45Y45*%
G04 Gerber Fmt 4.5, Leading zero omitted, Abs format (unit mm)*
G04 Created by KiCad (PCBNEW 10.0.5) date 2026-10-01 21:15:50*
%MOMM*%
%LPD*%
G01*
G04 APERTURE LIST*
%ADD10C,0.050000*%
%ADD11C,0.200000*%
G04 APERTURE END LIST*
D10*
X5500000Y-4400000D02*
X16500000Y-4400000D01*
X16500000Y-11900000D01*
X5500000Y-11900000D01*
X5500000Y-4400000D01*
X5950000Y-4700000D02*
G75*
G02*
X5650000Y-4700000I-150000J0D01*
G01*
X5650000Y-4700000D02*
G75*
G02*
X5950000Y-4700000I150000J0D01*
G01*
X5950000Y-11600000D02*
G75*
G02*
X5650000Y-11600000I-150000J0D01*
G01*
X5650000Y-11600000D02*
G75*
G02*
X5950000Y-11600000I150000J0D01*
G01*
X16350000Y-4700000D02*
G75*
G02*
X16050000Y-4700000I-150000J0D01*
G01*
X16050000Y-4700000D02*
G75*
G02*
X16350000Y-4700000I150000J0D01*
G01*
X16350000Y-11600000D02*
G75*
G02*
X16050000Y-11600000I-150000J0D01*
G01*
X16050000Y-11600000D02*
G75*
G02*
X16350000Y-11600000I150000J0D01*
G01*
D11*
X5758277Y-12213984D02*
X5758277Y-12013984D01*
X5758277Y-12013984D02*
X5805896Y-12013984D01*
X5805896Y-12013984D02*
X5834467Y-12023508D01*
X5834467Y-12023508D02*
X5853515Y-12042555D01*
X5853515Y-12042555D02*
X5863039Y-12061603D01*
X5863039Y-12061603D02*
X5872562Y-12099698D01*
X5872562Y-12099698D02*
X5872562Y-12128269D01*
X5872562Y-12128269D02*
X5863039Y-12166365D01*
X5863039Y-12166365D02*
X5853515Y-12185412D01*
X5853515Y-12185412D02*
X5834467Y-12204460D01*
X5834467Y-12204460D02*
X5805896Y-12213984D01*
X5805896Y-12213984D02*
X5758277Y-12213984D01*
X5958277Y-12213984D02*
X5958277Y-12080650D01*
X5958277Y-12118746D02*
X5967801Y-12099698D01*
X5967801Y-12099698D02*
X5977324Y-12090174D01*
X5977324Y-12090174D02*
X5996372Y-12080650D01*
X5996372Y-12080650D02*
X6015420Y-12080650D01*
X6082086Y-12213984D02*
X6082086Y-12080650D01*
X6082086Y-12013984D02*
X6072562Y-12023508D01*
X6072562Y-12023508D02*
X6082086Y-12033031D01*
X6082086Y-12033031D02*
X6091610Y-12023508D01*
X6091610Y-12023508D02*
X6082086Y-12013984D01*
X6082086Y-12013984D02*
X6082086Y-12033031D01*
X6205896Y-12213984D02*
X6186848Y-12204460D01*
X6186848Y-12204460D02*
X6177324Y-12185412D01*
X6177324Y-12185412D02*
X6177324Y-12013984D01*
X6310658Y-12213984D02*
X6291610Y-12204460D01*
X6291610Y-12204460D02*
X6282086Y-12185412D01*
X6282086Y-12185412D02*
X6282086Y-12013984D01*
X6539229Y-12213984D02*
X6539229Y-12013984D01*
X6539229Y-12013984D02*
X6605896Y-12156841D01*
X6605896Y-12156841D02*
X6672562Y-12013984D01*
X6672562Y-12013984D02*
X6672562Y-12213984D01*
X6853515Y-12213984D02*
X6853515Y-12109222D01*
X6853515Y-12109222D02*
X6843991Y-12090174D01*
X6843991Y-12090174D02*
X6824943Y-12080650D01*
X6824943Y-12080650D02*
X6786848Y-12080650D01*
X6786848Y-12080650D02*
X6767801Y-12090174D01*
X6853515Y-12204460D02*
X6834467Y-12213984D01*
X6834467Y-12213984D02*
X6786848Y-12213984D01*
X6786848Y-12213984D02*
X6767801Y-12204460D01*
X6767801Y-12204460D02*
X6758277Y-12185412D01*
X6758277Y-12185412D02*
X6758277Y-12166365D01*
X6758277Y-12166365D02*
X6767801Y-12147317D01*
X6767801Y-12147317D02*
X6786848Y-12137793D01*
X6786848Y-12137793D02*
X6834467Y-12137793D01*
X6834467Y-12137793D02*
X6853515Y-12128269D01*
X6948753Y-12080650D02*
X6948753Y-12280650D01*
X6948753Y-12090174D02*
X6967801Y-12080650D01*
X6967801Y-12080650D02*
X7005896Y-12080650D01*
X7005896Y-12080650D02*
X7024943Y-12090174D01*
X7024943Y-12090174D02*
X7034467Y-12099698D01*
X7034467Y-12099698D02*
X7043991Y-12118746D01*
X7043991Y-12118746D02*
X7043991Y-12175888D01*
X7043991Y-12175888D02*
X7034467Y-12194936D01*
X7034467Y-12194936D02*
X7024943Y-12204460D01*
X7024943Y-12204460D02*
X7005896Y-12213984D01*
X7005896Y-12213984D02*
X6967801Y-12213984D01*
X6967801Y-12213984D02*
X6948753Y-12204460D01*
X7129705Y-12194936D02*
X7139229Y-12204460D01*
X7139229Y-12204460D02*
X7129705Y-12213984D01*
X7129705Y-12213984D02*
X7120182Y-12204460D01*
X7120182Y-12204460D02*
X7129705Y-12194936D01*
X7129705Y-12194936D02*
X7129705Y-12213984D01*
X7129705Y-12090174D02*
X7139229Y-12099698D01*
X7139229Y-12099698D02*
X7129705Y-12109222D01*
X7129705Y-12109222D02*
X7120182Y-12099698D01*
X7120182Y-12099698D02*
X7129705Y-12090174D01*
X7129705Y-12090174D02*
X7129705Y-12109222D01*
M02*
